<?xml version="1.0" encoding="utf-8"?>
<!-- Generator: Adobe Illustrator 27.2.0, SVG Export Plug-In . SVG Version: 6.00 Build 0)  -->
<svg version="1.1" id="Layer_1" xmlns="http://www.w3.org/2000/svg" xmlns:xlink="http://www.w3.org/1999/xlink" x="0px" y="0px"
	 viewBox="0 0 32 20" style="enable-background:new 0 0 32 20;" xml:space="preserve">
<style type="text/css">
	.st0{fill:#4CAF50;fill-opacity:0.1;}
</style>
<g>
	<path class="st0" d="M6.1,12.6c0,0-0.9-0.1-2.3,0.3c-1.3,0.4-3,1.2-3,1.2L0,14.7c0,0,0.4,0.6,0.8,1.2C1.2,16.4,2,17.3,3,18
		s2,1.1,3.1,1.5c1.1,0.4,2.7,0.6,4.1,0.5c1.5-0.1,3-0.5,3.8-0.9c0.8-0.4,1.2-0.7,1.2-0.7s-1.1-0.1-2.2-0.4c-1.2-0.4-2-0.6-3.7-1.9
		C7.7,15,6.1,12.6,6.1,12.6z"/>
	<path class="st0" d="M16,0c0,0-3.1,3.1-3.1,9.1c0,5.9,3.1,9.1,3.1,9.1s3.1-3.3,3.1-9.1C19.1,3.1,16,0,16,0z"/>
	<path class="st0" d="M10.3,0.8c0,0,0.6,0.2,1.4,0.9c0.8,0.6,1.4,1.2,1.4,1.2s-0.3,1-0.5,1.8c-0.2,0.8-0.3,1.3-0.4,1.6
		c-0.1,0.4-0.1,0.7-0.1,0.7s-0.7-0.6-1.4-1.1C10.1,5.3,9.5,5,9.5,5S9.6,3,10,1.9L10.3,0.8z"/>
	<path class="st0" d="M21.7,0.8c0,0-0.6,0.2-1.4,0.9c-0.8,0.6-1.4,1.2-1.4,1.2s0.3,1,0.5,1.8c0.2,0.8,0.3,1.3,0.4,1.6
		c0.1,0.4,0.1,0.7,0.1,0.7s0.7-0.6,1.4-1.1C22,5.3,22.6,5,22.6,5s-0.2-2-0.5-3.1L21.7,0.8z"/>
	<path class="st0" d="M0.8,8.7c0,0,0.6-0.3,1.5-0.5C3.3,7.9,4,7.8,4,7.8s0.4,1,0.7,1.7c0.3,0.7,0.6,1.2,0.7,1.5
		c0.2,0.3,0.4,0.5,0.4,0.5S5,11.7,4.3,11.9c-0.8,0.2-1.4,0.4-1.4,0.4s-1.2-1.5-1.6-2.6L0.8,8.7z"/>
	<path class="st0" d="M31.3,8.7c0,0-0.6-0.3-1.5-0.5c-0.9-0.2-1.7-0.3-1.7-0.3s-0.4,1-0.7,1.7c-0.3,0.7-0.6,1.2-0.7,1.5
		c-0.2,0.3-0.4,0.5-0.4,0.5s0.8,0.2,1.6,0.4c0.8,0.2,1.4,0.4,1.4,0.4s1.2-1.5,1.6-2.6L31.3,8.7z"/>
	<path class="st0" d="M4.4,4.6c0,0,2,0,3.4,0.6c1.6,0.6,2.6,1.3,3.2,1.8c0.6,0.5,1.2,1.2,1.2,1.2s-0.1,0.9,0,2.2
		c0.1,1.3,0.2,2.6,0.8,3.9c0.5,1.4,1,2.1,1.3,2.5c0.3,0.4,0.3,0.5,0.3,0.5s-1.5-0.3-2.3-0.7c-0.8-0.4-2.1-0.9-3.3-2
		c-1.2-1.1-2.1-2.2-3.3-4.8C4.4,7.5,4.4,4.6,4.4,4.6z"/>
	<path class="st0" d="M27.6,4.6c0,0-2,0-3.4,0.6C22.6,5.8,21.6,6.5,21,7c-0.6,0.5-1.2,1.2-1.2,1.2s0.1,0.9,0,2.2
		c-0.1,1.3-0.2,2.6-0.8,3.9c-0.5,1.4-1,2.1-1.3,2.5c-0.3,0.4-0.3,0.5-0.3,0.5s1.5-0.3,2.3-0.7c0.8-0.4,2.1-0.9,3.3-2
		c1.2-1.1,2.1-2.2,3.3-4.8C27.5,7.5,27.6,4.6,27.6,4.6z"/>
	<path class="st0" d="M25.9,12.6c0,0,0.9-0.1,2.3,0.3c1.3,0.4,3,1.2,3,1.2l0.8,0.6c0,0-0.4,0.6-0.8,1.2C30.8,16.4,30,17.3,29,18
		c-1,0.7-2,1.1-3.1,1.5c-1.1,0.4-2.7,0.6-4.1,0.5c-1.5-0.1-3-0.5-3.8-0.9c-0.8-0.4-1.2-0.7-1.2-0.7s1.1-0.1,2.2-0.4
		c1.2-0.4,2-0.6,3.7-1.9C24.3,14.9,25.9,12.6,25.9,12.6z"/>
</g>
</svg>
