<?xml version="1.0" encoding="utf-8"?>
<!-- Generator: Adobe Illustrator 27.2.0, SVG Export Plug-In . SVG Version: 6.00 Build 0)  -->
<svg version="1.1" id="Layer_1" xmlns="http://www.w3.org/2000/svg" xmlns:xlink="http://www.w3.org/1999/xlink" x="0px" y="0px"
	 viewBox="0 0 2560 1177.1" style="enable-background:new 0 0 2560 1177.1;" xml:space="preserve">
<style type="text/css">
	.st0{fill:#BCE7CC;}
</style>
<path class="st0" d="M774.6,1177.1c-15.3,0-32.6-1.3-51.7-4c-58.8-8.3-131.7-28.9-210.6-59.6c-84-32.7-172.4-76-255.8-125.2
	C162.9,932.8,76.7,871,0.6,804.5c-0.7-0.6-0.8-1.8-0.2-2.5c0.6-0.7,1.8-0.8,2.5-0.2c143.8,125.6,330,238,510.7,308.3
	c160.4,62.4,289.3,80.7,328.4,46.5c18.8-16.4,15.6-43.9-9.3-81.7c-17.1-25.9-20.8-45.9-11.5-61.3c15.8-26.1,69.7-37.2,169.7-35.2
	c90.3,1.9,207.5,13.8,343.2,27.6c137.5,14,293.4,29.9,445.7,37.1c311.9,14.8,388.2-183.9,405.9-303.5c4.9-32.9,6.5-67.7,5-102.6
	c-34.3-8.8-63.4-25.8-86.5-50.5c-19.8-21.1-34.5-47.5-42.7-76.3c-12.2-42.9-7.8-86.2,10.6-105.2c8.5-8.7,19.4-11.7,31.5-8.7
	c25.8,6.5,53.2,51.1,71.3,116.4c10.7,38.3,17.1,79.9,19.1,121.6c21.9,5.1,38.9,1.8,52.2-10c24-21.6,34.5-71.4,32-152.4
	c-2.2-71.3-13.8-154.6-24.9-235.1c-8.6-62-16.7-120.5-19.2-165.6c-1.8-32.4,7.5-54.1,27.6-64.4c35.7-18.2,98,3.6,143.9,25.2
	c61.2,28.7,119.6,68.6,153.9,96.5c0.8,0.6,0.9,1.7,0.3,2.5c-0.6,0.8-1.7,0.9-2.5,0.3c-34.1-27.7-92.3-67.4-153.2-96
	c-45.2-21.2-106.4-42.8-140.8-25.2c-18.7,9.6-27.4,30.1-25.7,61c2.5,44.9,10.6,103.4,19.2,165.3c22.2,159.7,47.3,340.8-8.2,390.6
	c-13.8,12.3-32,16.1-54.3,11.1c1.5,34.8-0.2,69.5-5,102.2c-6.4,43.2-18.1,83-34.9,118.4c-18.7,39.5-43.7,73.4-74.4,100.9
	c-71.3,63.9-172.3,93.3-300.3,87.2c-152.4-7.2-308.3-23.1-445.9-37.1c-135.6-13.8-252.7-25.8-342.9-27.6
	c-98.6-2-151.5,8.6-166.6,33.5c-8.6,14.1-4.8,32.9,11.4,57.5c13.1,19.8,20.4,37.2,21.7,51.8c1.3,14.2-3.1,25.8-13,34.5
	C830.7,1171.1,807.1,1177.1,774.6,1177.1z M2094.5,398.7c-7.5,0-14.2,2.9-19.9,8.8c-17.6,18.1-21.6,60-9.8,101.8
	c8.5,29.8,37.6,101.1,125.6,124.1c-2-41-8.4-82-18.9-119.7c-17.6-63.1-44.6-107.8-68.8-113.9
	C2099.9,399.1,2097.1,398.7,2094.5,398.7z"/>
</svg>
