<?xml version="1.0" encoding="utf-8"?>
<!-- Generator: Adobe Illustrator 28.1.0, SVG Export Plug-In . SVG Version: 6.00 Build 0)  -->
<svg version="1.1" id="Layer_1" xmlns="http://www.w3.org/2000/svg" xmlns:xlink="http://www.w3.org/1999/xlink" x="0px" y="0px"
	 viewBox="0 0 512 512" style="enable-background:new 0 0 512 512;" xml:space="preserve">
<style type="text/css">
	.st0{fill-rule:evenodd;clip-rule:evenodd;fill:none;}
	.st1{fill-rule:evenodd;clip-rule:evenodd;}
</style>
<g>
	<rect class="st0" width="512" height="512"/>
	<path class="st1" d="M139.6,139.6c18-18,44.7-24.6,78-24.6h76.9c33.3,0,60,6.6,78,24.6c18,18,24.6,44.7,24.6,78v76.9
		c0,33.3-6.6,60-24.6,78s-44.7,24.6-78,24.6h-76.9c-33.3,0-60-6.6-78-24.6c-18-18-24.6-44.7-24.6-78v-76.9
		C115,184.3,121.6,157.6,139.6,139.6z M157.7,157.7c-10.8,10.8-17.1,29.1-17.1,59.9v76.9c0,30.8,6.2,49,17.1,59.9
		c10.8,10.8,29.1,17.1,59.9,17.1h76.9c30.8,0,49-6.2,59.9-17.1s17.1-29.1,17.1-59.9v-76.9c0-30.8-6.2-49-17.1-59.9
		c-10.8-10.8-29.1-17.1-59.9-17.1h-76.9C186.8,140.6,168.6,146.9,157.7,157.7z M323.8,214.1c5.6,4.3,6.6,12.4,2.3,18l-29.7,38.3
		c-8.7,11-24.8,13-36,4.4l-0.1-0.1l-23.4-18.4c0,0-0.1,0-0.1,0c0,0,0,0,0,0l-30.5,39.6c-4.3,5.6-12.4,6.7-18,2.3
		c-5.6-4.3-6.7-12.4-2.3-18l30.5-39.6c8.7-11.3,24.8-13.3,36.1-4.6l0.1,0.1l23.4,18.4c0,0,0,0,0,0c0,0,0,0,0.1,0c0,0,0,0,0.1,0
		l29.6-38.1C310.1,210.8,318.2,209.8,323.8,214.1z"/>
</g>
</svg>
