<svg width="24" height="25" viewBox="0 0 24 25" fill="none" xmlns="http://www.w3.org/2000/svg">
<path d="M11.9978 9.77171V13.7717M11.9978 17.7717H12.0078M10.6131 4.66344L2.38823 18.8701C1.93203 19.658 1.70393 20.052 1.73764 20.3754C1.76705 20.6575 1.91482 20.9138 2.14417 21.0805C2.40713 21.2717 2.86239 21.2717 3.77292 21.2717H20.2227C21.1332 21.2717 21.5885 21.2717 21.8514 21.0805C22.0808 20.9138 22.2286 20.6575 22.258 20.3754C22.2917 20.052 22.0636 19.658 21.6074 18.8701L13.3825 4.66343C12.9279 3.87827 12.7006 3.48569 12.4041 3.35384C12.1454 3.23882 11.8502 3.23882 11.5915 3.35384C11.295 3.48569 11.0677 3.87827 10.6131 4.66344Z" stroke="#F79009" stroke-width="2" stroke-linecap="round" stroke-linejoin="round"/>
</svg>
