<?xml version="1.0" encoding="utf-8"?>
<!-- Generator: Adobe Illustrator 28.1.0, SVG Export Plug-In . SVG Version: 6.00 Build 0)  -->
<svg version="1.1" id="Layer_1" xmlns="http://www.w3.org/2000/svg" xmlns:xlink="http://www.w3.org/1999/xlink" x="0px" y="0px"
	 viewBox="0 0 512 512" style="enable-background:new 0 0 512 512;" xml:space="preserve">
<style type="text/css">
	.st0{fill:none;}
	.st1{fill:#1C1C1C;}
</style>
<g>
	<rect class="st0" width="512" height="512"/>
	<path class="st1" d="M372.7,202.9c6.2,6.8,16.4,6.8,22.6,0c6.2-6.8,6.2-17.9,0-24.7L289.9,63.3c-18.7-20.4-49.1-20.4-67.9,0
		L116.7,178.2c-6.2,6.8-6.2,17.9,0,24.7c6.2,6.8,16.4,6.8,22.6,0L244.7,88c6.2-6.8,16.4-6.8,22.6,0L372.7,202.9z M139.3,309.1
		c-6.2-6.8-16.4-6.8-22.6,0c-6.2,6.8-6.2,17.9,0,24.7l105.4,114.9c18.7,20.4,49.1,20.4,67.9,0l105.4-114.9c6.2-6.8,6.2-17.9,0-24.7
		c-6.2-6.8-16.4-6.8-22.6,0L267.3,424c-6.2,6.8-16.4,6.8-22.6,0L139.3,309.1z"/>
</g>
</svg>
