<?xml version="1.0" encoding="utf-8"?>
<!-- Generator: Adobe Illustrator 28.1.0, SVG Export Plug-In . SVG Version: 6.00 Build 0)  -->
<svg version="1.1" id="Layer_1" xmlns="http://www.w3.org/2000/svg" xmlns:xlink="http://www.w3.org/1999/xlink" x="0px" y="0px"
	 viewBox="0 0 512 512" style="enable-background:new 0 0 512 512;" xml:space="preserve">
<style type="text/css">
	.st0{fill:#22B573;}
</style>
<g>
	<path class="st0" d="M446.5,176.9c-6.2-6.2-14.5-9.7-23.3-9.7h-37.1c-8,0-14.5,6.5-14.5,14.5s6.5,14.5,14.5,14.5h37.1
		c1.1,0,2.1,0.4,2.9,1.2c0.8,0.8,1.2,1.8,1.2,2.9V479c0,1.1-0.5,2.1-1.2,2.9c-0.8,0.8-1.8,1.2-2.9,1.2H88.8c-1.1,0-2.1-0.4-2.9-1.2
		c-0.8-0.8-1.2-1.8-1.2-2.9V200.3c0-1.1,0.4-2.1,1.2-2.9c0.8-0.8,1.8-1.2,2.9-1.2h37.2c8,0,14.5-6.5,14.5-14.5s-6.5-14.5-14.5-14.5
		H88.8c-8.8,0-17.1,3.4-23.4,9.7c-6.2,6.2-9.7,14.5-9.7,23.4V479c0,8.7,3.5,17.2,9.7,23.3c6.2,6.3,14.5,9.7,23.4,9.7h334.4
		c8.8,0,17.1-3.4,23.4-9.7c6.2-6.2,9.7-14.6,9.7-23.3V200.3C456.3,191.5,452.8,183.2,446.5,176.9z"/>
	<path class="st0" d="M191.8,99l49.7-49.7v225.3c0,8,6.5,14.5,14.5,14.5c8,0,14.5-6.5,14.5-14.5V49.4L320,99
		c2.8,2.8,6.5,4.2,10.2,4.2c3.7,0,7.4-1.4,10.2-4.2c5.6-5.6,5.6-14.8,0-20.4l-74-74c-1.4-1.5-3.1-2.6-5-3.4c-1-0.4-2-0.4-3-0.6
		C257.6,0.3,256.9,0,256,0c0,0,0,0,0,0c-3.7,0-7.4,1.4-10.3,4.2l-74.3,74.3c-5.6,5.6-5.6,14.8,0,20.4
		C177.1,104.6,186.2,104.6,191.8,99z"/>
</g>
</svg>
