<svg width="16" height="15" viewBox="0 0 16 15" fill="none" xmlns="http://www.w3.org/2000/svg">
<path d="M1.62032 6.15101C1.6817 6.14043 1.74381 6.13555 1.80596 6.1364H12.3882L12.1574 6.02243C11.9319 5.90906 11.7267 5.75477 11.551 5.56653L8.58352 2.41513C8.19269 2.01893 8.12703 1.38156 8.4279 0.904967C8.77808 0.397103 9.44963 0.286833 9.92789 0.658711C9.96653 0.688771 10.0033 0.721539 10.0378 0.7568L15.404 6.45553C15.8233 6.90039 15.8237 7.62203 15.4048 8.06738C15.4045 8.06767 15.4042 8.06799 15.404 8.06827L10.0378 13.767C9.61806 14.2115 8.93853 14.2105 8.51997 13.7648C8.48703 13.7297 8.45628 13.6924 8.4279 13.653C8.12703 13.1764 8.19269 12.5391 8.58352 12.1429L11.5457 8.98577C11.7031 8.81837 11.8842 8.678 12.0823 8.56976L12.4043 8.4159H1.86502C1.31676 8.43752 0.83575 8.0308 0.732752 7.45851C0.637871 6.83717 1.03524 6.2518 1.62032 6.15101Z" fill="white"/>
</svg>
