<?xml version="1.0" encoding="utf-8"?>
<!-- Generator: Adobe Illustrator 28.1.0, SVG Export Plug-In . SVG Version: 6.00 Build 0)  -->
<svg version="1.1" id="Layer_1" xmlns="http://www.w3.org/2000/svg" xmlns:xlink="http://www.w3.org/1999/xlink" x="0px" y="0px"
	 viewBox="0 0 337 183" style="enable-background:new 0 0 337 183;" xml:space="preserve">
<style type="text/css">
	.st0{fill:#242424;}
	.st1{fill:url(#SVGID_1_);fill-opacity:5.000000e-02;}
	.st2{fill-rule:evenodd;clip-rule:evenodd;fill:#FFFFFF;}
	.st3{fill:#FF5F00;}
	.st4{fill:#EB001B;}
	.st5{fill:#F79E1B;}
	.st6{fill:#FFFFFF;}
	.st7{opacity:0.8;fill:#FFFFFF;enable-background:new    ;}
</style>
<g>
	<rect class="st0" width="337" height="183"/>
	
		<linearGradient id="SVGID_1_" gradientUnits="userSpaceOnUse" x1="207.4444" y1="2.733" x2="182.5269" y2="140.8887" gradientTransform="matrix(1 0 0 -1 0 182)">
		<stop  offset="0" style="stop-color:#FFFFFF"/>
		<stop  offset="1" style="stop-color:#FFFFFF;stop-opacity:1.000000e-02"/>
	</linearGradient>
	<path class="st1" d="M121.9,102.4c20.7-3.1,42.6,0,59,3.7c17.5,3.9,35.1,8.1,53.1,9.1c33.1,2,66.2-4.1,96.5-17.5l6.5-2.9l0,88.3
		H63.3l1.1-8.6c0.2-1.8,0.5-3.6,1-5.4C68.7,157,84,108,121.9,102.4L121.9,102.4z"/>
	<path class="st2" d="M54.2,43.6v-2.3h-0.6v1.4c-0.2-0.2-0.5-0.4-0.8-0.4c-0.7,0-1.3,0.6-1.3,1.4c0,0.8,0.6,1.4,1.3,1.4
		c0.4,0,0.6-0.1,0.8-0.4v0.3h0.6V43.6z M37.5,42.3h0.9v0.5h-0.9V44c0,0.3,0.1,0.4,0.4,0.4c0.1,0,0.3,0,0.5-0.1l0.2,0.5
		c-0.2,0.1-0.5,0.2-0.7,0.2c-0.6,0-0.9-0.4-0.9-1v-1.2h-0.5v-0.5h0.5v-0.8h0.6V42.3z M30,43.3v1.6h-0.6v-1.4c0-0.4-0.2-0.7-0.6-0.7
		c-0.4,0-0.6,0.2-0.6,0.7v1.4h-0.6v-1.4c0-0.4-0.2-0.7-0.6-0.7c-0.4,0-0.6,0.2-0.6,0.7v1.4h-0.6v-2.6h0.6v0.3
		c0.2-0.3,0.5-0.4,0.8-0.4c0.4,0,0.7,0.2,0.9,0.5c0.2-0.4,0.6-0.5,0.9-0.5C29.6,42.2,30,42.6,30,43.3z M43.2,42.2
		c-0.3,0-0.5,0.2-0.7,0.4v-0.3h-0.6v2.6h0.6v-1.5c0-0.4,0.2-0.7,0.5-0.7c0.1,0,0.2,0,0.4,0.1l0.2-0.5C43.5,42.2,43.3,42.2,43.2,42.2
		z M34.9,42.2c0.4,0,0.8,0.1,1.1,0.3L35.7,43c-0.2-0.1-0.5-0.2-0.8-0.2c-0.3,0-0.5,0.1-0.5,0.3c0,0.2,0.2,0.2,0.4,0.2l0.3,0
		c0.5,0.1,0.9,0.3,0.9,0.8c0,0.5-0.4,0.8-1.2,0.8c-0.4,0-0.8-0.1-1.1-0.3l0.3-0.4c0.2,0.1,0.5,0.3,0.9,0.3c0.4,0,0.6-0.1,0.6-0.3
		c0-0.1-0.2-0.2-0.5-0.3l-0.3,0c-0.6-0.1-0.9-0.3-0.9-0.8C33.8,42.5,34.2,42.2,34.9,42.2z M51,42.2c-0.3,0-0.5,0.2-0.7,0.4v-0.3
		h-0.6v2.6h0.6v-1.5c0-0.4,0.2-0.7,0.5-0.7c0.1,0,0.2,0,0.4,0.1l0.2-0.5C51.2,42.2,51.1,42.2,51,42.2z M45.1,44.9
		c-0.8,0-1.4-0.6-1.4-1.4c0-0.8,0.5-1.4,1.4-1.4c0.4,0,0.6,0.1,0.9,0.3L45.8,43c-0.2-0.2-0.4-0.2-0.7-0.2c-0.5,0-0.8,0.4-0.8,0.8
		c0,0.5,0.3,0.8,0.8,0.8c0.2,0,0.5-0.1,0.7-0.2l0.3,0.5C45.8,44.9,45.5,44.9,45.1,44.9z M49,43.6v-1.3h-0.6v0.3
		c-0.2-0.2-0.5-0.4-0.8-0.4c-0.7,0-1.3,0.6-1.3,1.4c0,0.8,0.6,1.4,1.3,1.4c0.4,0,0.6-0.1,0.8-0.4v0.3H49V43.6z M47.7,42.7
		c-0.5,0-0.8,0.4-0.8,0.8c0,0.5,0.3,0.8,0.8,0.8c0.5,0,0.8-0.4,0.8-0.8C48.5,43.1,48.1,42.7,47.7,42.7z M40.1,42.2
		c-0.8,0-1.3,0.5-1.3,1.4c0,0.8,0.5,1.4,1.3,1.4c0.4,0,0.8-0.1,1.1-0.4l-0.3-0.4c-0.2,0.2-0.5,0.3-0.8,0.3c-0.4,0-0.7-0.2-0.8-0.6
		h1.9v-0.2C41.4,42.8,40.9,42.2,40.1,42.2z M40.8,43.3c-0.1-0.4-0.3-0.6-0.6-0.6c-0.4,0-0.6,0.3-0.7,0.6H40.8z M52.9,42.7
		c-0.5,0-0.8,0.4-0.8,0.8c0,0.5,0.3,0.8,0.8,0.8c0.5,0,0.8-0.4,0.8-0.8C53.7,43.1,53.4,42.7,52.9,42.7z M33.2,43.6v-1.3h-0.6v0.3
		c-0.2-0.2-0.5-0.4-0.8-0.4c-0.7,0-1.3,0.6-1.3,1.4c0,0.8,0.6,1.4,1.3,1.4c0.4,0,0.6-0.1,0.8-0.4v0.3h0.6V43.6z M31.9,42.7
		c-0.5,0-0.8,0.4-0.8,0.8c0,0.5,0.3,0.8,0.8,0.8c0.5,0,0.8-0.4,0.8-0.8C32.6,43.1,32.3,42.7,31.9,42.7z"/>
	<path class="st3" d="M44.2,22.4h-8.5v15.4h8.5V22.4L44.2,22.4z"/>
	<path class="st4" d="M36.3,30.1c0-3.1,1.5-5.9,3.7-7.7c-1.6-1.3-3.7-2.1-6-2.1c-5.4,0-9.7,4.4-9.7,9.8s4.3,9.8,9.7,9.8
		c2.3,0,4.3-0.8,6-2.1C37.7,36.1,36.3,33.3,36.3,30.1L36.3,30.1z"/>
	<path class="st5" d="M55.7,30.1c0,5.4-4.3,9.8-9.7,9.8c-2.3,0-4.3-0.8-6-2.1c2.3-1.8,3.7-4.6,3.7-7.7c0-3.1-1.5-5.9-3.7-7.7
		c1.6-1.3,3.7-2.1,6-2.1C51.4,20.3,55.7,24.7,55.7,30.1L55.7,30.1z"/>
	<path class="st6" d="M32,72.2l0.7,1.3L30,74.7l2.8,1.1L32,77.2l-2.4-1.8l0.3,3h-1.5l0.3-3l-2.4,1.8l-0.8-1.4l2.8-1.2l-2.8-1.1
		l0.7-1.3l2.5,1.8l-0.3-3h1.5l-0.3,3L32,72.2z M47.1,72.2l0.7,1.3L45,74.7l2.8,1.1l-0.8,1.3l-2.4-1.8l0.3,3h-1.5l0.3-3l-2.4,1.8
		l-0.8-1.4l2.8-1.2l-2.8-1.1l0.7-1.3l2.5,1.8l-0.3-3H45l-0.3,3L47.1,72.2z M62.1,72.2l0.7,1.3l-2.8,1.2l2.8,1.1l-0.8,1.3l-2.4-1.8
		l0.3,3h-1.5l0.3-3l-2.4,1.8l-0.8-1.4l2.8-1.2l-2.8-1.1l0.7-1.3l2.5,1.8l-0.3-3H60l-0.3,3L62.1,72.2z M77.2,72.2l0.7,1.3l-2.8,1.2
		l2.8,1.1l-0.8,1.3l-2.4-1.8l0.3,3h-1.5l0.3-3l-2.4,1.8l-0.8-1.4l2.8-1.2l-2.8-1.1l0.7-1.3l2.5,1.8l-0.3-3h1.5l-0.3,3L77.2,72.2z
		 M97.6,72.2l0.7,1.3l-2.8,1.2l2.8,1.1l-0.8,1.3l-2.4-1.8l0.3,3H94l0.3-3l-2.4,1.8l-0.8-1.4l2.8-1.2l-2.8-1.1l0.7-1.3l2.5,1.8
		l-0.3-3h1.5l-0.3,3L97.6,72.2z M112.7,72.2l0.7,1.3l-2.8,1.2l2.8,1.1l-0.8,1.3l-2.4-1.8l0.3,3H109l0.3-3l-2.4,1.8l-0.8-1.4l2.8-1.2
		l-2.8-1.1l0.7-1.3l2.5,1.8l-0.3-3h1.5l-0.3,3L112.7,72.2z M127.7,72.2l0.7,1.3l-2.8,1.2l2.8,1.1l-0.8,1.3l-2.4-1.8l0.3,3h-1.5
		l0.3-3l-2.4,1.8l-0.8-1.4l2.8-1.2l-2.8-1.1l0.7-1.3l2.5,1.8l-0.3-3h1.5l-0.3,3L127.7,72.2z M142.8,72.2l0.7,1.3l-2.8,1.2l2.8,1.1
		l-0.8,1.3l-2.4-1.8l0.3,3h-1.5l0.3-3l-2.4,1.8l-0.8-1.4l2.8-1.2l-2.8-1.1l0.7-1.3l2.5,1.8l-0.3-3h1.5l-0.3,3L142.8,72.2z
		 M163.2,72.2l0.7,1.3l-2.8,1.2l2.8,1.1l-0.8,1.3l-2.4-1.8l0.3,3h-1.5l0.3-3l-2.4,1.8l-0.8-1.4l2.8-1.2l-2.8-1.1l0.7-1.3l2.5,1.8
		l-0.3-3h1.5l-0.3,3L163.2,72.2z M178.2,72.2l0.7,1.3l-2.8,1.2l2.8,1.1l-0.8,1.3l-2.4-1.8l0.3,3h-1.5l0.3-3l-2.4,1.8l-0.8-1.4
		l2.8-1.2l-2.8-1.1l0.7-1.3l2.5,1.8l-0.3-3h1.5l-0.3,3L178.2,72.2z M193.3,72.2l0.7,1.3l-2.8,1.2l2.8,1.1l-0.8,1.3l-2.4-1.8l0.3,3
		h-1.5l0.3-3l-2.4,1.8l-0.8-1.4l2.8-1.2l-2.8-1.1l0.7-1.3L190,74l-0.3-3h1.5l-0.3,3L193.3,72.2z M208.3,72.2l0.7,1.3l-2.8,1.2
		l2.8,1.1l-0.8,1.3l-2.4-1.8l0.3,3h-1.5l0.3-3l-2.4,1.8l-0.8-1.4l2.8-1.2l-2.8-1.1l0.7-1.3L205,74l-0.3-3h1.5l-0.3,3L208.3,72.2z
		 M222.2,74.8c0.1-1.2,0.6-2.2,1.4-2.9c0.9-0.7,2-1,3.3-1c0.9,0,1.7,0.2,2.3,0.5c0.7,0.3,1.2,0.8,1.5,1.3c0.3,0.6,0.5,1.2,0.5,1.9
		c0,0.8-0.2,1.5-0.7,2.1c-0.5,0.6-1.1,1-1.8,1.2V78c0.9,0.2,1.6,0.6,2.1,1.3c0.5,0.6,0.8,1.4,0.8,2.5c0,0.8-0.2,1.4-0.5,2.1
		c-0.3,0.6-0.9,1.1-1.6,1.4c-0.7,0.3-1.5,0.5-2.5,0.5c-1.4,0-2.6-0.4-3.5-1.1c-0.9-0.7-1.4-1.8-1.5-3.2h1.8c0.1,0.8,0.4,1.5,1,2
		c0.6,0.5,1.3,0.8,2.2,0.8c0.9,0,1.6-0.2,2.1-0.7c0.5-0.5,0.7-1.1,0.7-1.9c0-1-0.3-1.7-1-2.2c-0.7-0.4-1.7-0.7-3-0.7h-0.5v-1.5h0.5
		c1.2,0,2.2-0.2,2.8-0.6c0.6-0.4,0.9-1,0.9-1.8c0-0.7-0.2-1.3-0.7-1.7c-0.5-0.4-1.1-0.6-2-0.6c-0.8,0-1.5,0.2-2,0.6
		c-0.5,0.4-0.8,1-0.9,1.7H222.2z M236.3,81.7c0.1,0.8,0.4,1.3,0.9,1.8c0.5,0.4,1.2,0.6,2,0.6c1.1,0,1.9-0.4,2.4-1.3
		c0.5-0.9,0.8-2.3,0.8-4.4c-0.3,0.6-0.7,1.1-1.4,1.4c-0.7,0.3-1.4,0.5-2.2,0.5c-0.9,0-1.7-0.2-2.4-0.5c-0.7-0.4-1.2-0.9-1.6-1.6
		c-0.4-0.7-0.6-1.6-0.6-2.6c0-1.4,0.4-2.6,1.2-3.4c0.8-0.9,2-1.3,3.5-1.3c1.9,0,3.2,0.6,3.9,1.8c0.8,1.2,1.1,3,1.1,5.4
		c0,1.7-0.2,3.1-0.5,4.2c-0.3,1.1-0.8,1.9-1.5,2.5c-0.7,0.6-1.7,0.9-2.9,0.9c-1.4,0-2.4-0.4-3.2-1.1c-0.8-0.7-1.2-1.7-1.3-2.8H236.3
		z M239.2,78.8c0.9,0,1.6-0.3,2.2-0.8c0.6-0.6,0.9-1.3,0.9-2.3c0-1-0.3-1.8-0.8-2.4c-0.6-0.6-1.3-0.9-2.4-0.9
		c-0.9,0-1.7,0.3-2.2,0.9c-0.5,0.6-0.8,1.4-0.8,2.3c0,1,0.3,1.8,0.8,2.3C237.3,78.5,238.1,78.8,239.2,78.8z M246.2,82.4V81l7-9.7
		h2.2v9.5h2v1.6h-2v3.2h-1.8v-3.2H246.2z M253.6,73.2l-5.4,7.6h5.4V73.2z M268.1,72.6l-5.6,13h-1.8l5.6-12.9h-7.7v-1.6h9.5V72.6z"/>
	<path class="st7" d="M29.4,131.6l0.8,0.5c-0.7,1-1.9,1.8-3.7,1.8c-3,0-5.2-2.2-5.2-5.2s2.2-5.2,5.2-5.2c1.5,0,2.8,0.6,3.5,1.6
		l-0.8,0.6c-0.4-0.6-1.4-1.3-2.7-1.3c-2.6,0-4.1,2-4.1,4.3s1.6,4.3,4.1,4.3C27.6,133.1,28.7,132.6,29.4,131.6z M35.7,129.7v-0.2
		c0-1.1-0.6-1.7-1.8-1.7c-0.8,0-1.5,0.3-1.9,0.8l-0.5-0.6c0.5-0.5,1.5-0.9,2.6-0.9c1.4,0,2.5,0.8,2.5,2.4v2.9c0,0.5,0,1.1,0.1,1.5
		h-0.9c-0.1-0.3-0.1-0.7-0.1-1.1h0c-0.6,0.9-1.3,1.2-2.4,1.2c-1,0-2.3-0.5-2.3-2C31.1,129.9,33.3,129.7,35.7,129.7z M35.7,130.4
		h-0.3c-1.6,0-3.4,0.2-3.4,1.4c0,0.9,0.8,1.2,1.5,1.2c1.3,0,2.1-1,2.1-2.2V130.4z M39.1,128.6c0-0.3,0-1-0.1-1.4h0.9
		c0,0.4,0.1,0.8,0.1,1.1h0c0.4-0.8,1.2-1.3,2.1-1.3c0.2,0,0.4,0,0.6,0.1l-0.1,0.9c-0.1,0-0.4-0.1-0.7-0.1c-1,0-1.9,0.7-1.9,2.5v3.4
		h-1V128.6z M49.3,132.6c-0.6,0.8-1.5,1.3-2.5,1.3c-2,0-3.4-1.5-3.4-3.4c0-1.9,1.3-3.4,3.4-3.4c0.9,0,1.9,0.4,2.5,1.3h0v-5.2h1v10.6
		h-1L49.3,132.6L49.3,132.6z M44.4,130.4c0,1.5,0.9,2.6,2.5,2.6c1.5,0,2.5-1.1,2.5-2.6s-1.1-2.6-2.5-2.6
		C45.3,127.8,44.4,129,44.4,130.4z M56.3,133.7v-9.9h1v4.3h5.4v-4.3h1v9.9h-1V129h-5.4v4.7H56.3z M72.9,130.4c0,2-1.5,3.4-3.5,3.4
		c-2,0-3.5-1.5-3.5-3.4s1.5-3.4,3.5-3.4C71.4,127,72.9,128.5,72.9,130.4z M71.8,130.4c0-1.5-1-2.6-2.5-2.6c-1.5,0-2.5,1.2-2.5,2.6
		s1,2.6,2.5,2.6C70.9,133.1,71.8,131.9,71.8,130.4z M75.9,123.1v10.6h-1v-10.6H75.9z M83.8,132.6c-0.6,0.8-1.5,1.3-2.5,1.3
		c-2,0-3.4-1.5-3.4-3.4c0-1.9,1.3-3.4,3.4-3.4c0.9,0,1.9,0.4,2.5,1.3h0v-5.2h1v10.6h-1L83.8,132.6L83.8,132.6z M79,130.4
		c0,1.5,0.9,2.6,2.5,2.6c1.5,0,2.5-1.1,2.5-2.6s-1.1-2.6-2.5-2.6C79.9,127.8,79,129,79,130.4z M87.9,129.9h4.5
		c-0.1-1.2-0.8-2.1-2.2-2.1C88.9,127.8,88,128.8,87.9,129.9z M93.3,130.2c0,0.1,0,0.3,0,0.4h-5.4c0,1.3,1.1,2.4,2.4,2.4
		c1,0,1.7-0.5,2.1-1.1l0.7,0.6c-0.8,1-1.7,1.4-2.8,1.4c-1.9,0-3.4-1.5-3.4-3.4s1.4-3.4,3.3-3.4C92.2,127,93.3,128.5,93.3,130.2z
		 M95.4,128.6c0-0.3,0-1-0.1-1.4h0.9c0,0.4,0.1,0.8,0.1,1.1h0c0.4-0.8,1.2-1.3,2.1-1.3c0.2,0,0.4,0,0.6,0.1l-0.1,0.9
		c-0.1,0-0.4-0.1-0.7-0.1c-1,0-1.9,0.7-1.9,2.5v3.4h-1V128.6z M105.2,123.8l5.8,8.4h0v-8.4h1v9.9h-1.3l-5.8-8.5h0v8.5h-1v-9.9H105.2
		z M118.7,129.7v-0.2c0-1.1-0.6-1.7-1.8-1.7c-0.8,0-1.5,0.3-1.9,0.8l-0.5-0.6c0.5-0.5,1.5-0.9,2.6-0.9c1.4,0,2.5,0.8,2.5,2.4v2.9
		c0,0.5,0,1.1,0.1,1.5h-0.9c-0.1-0.3-0.1-0.7-0.1-1.1h0c-0.6,0.9-1.3,1.2-2.4,1.2c-1,0-2.3-0.5-2.3-2
		C114.1,129.9,116.3,129.7,118.7,129.7z M118.7,130.4h-0.3c-1.6,0-3.4,0.2-3.4,1.4c0,0.9,0.8,1.2,1.5,1.2c1.3,0,2.1-1,2.1-2.2V130.4
		z M123,128.3c0.4-0.8,1.2-1.3,2.2-1.3c0.7,0,1.6,0.3,2,1.4c0.4-0.9,1.2-1.4,2.3-1.4c1.7,0,2.5,1.1,2.5,2.7v4h-1v-3.6
		c0-1.4-0.5-2.3-1.7-2.3c-1.4,0-1.9,1.2-1.9,2.4v3.5h-1v-3.8c0-1.3-0.3-2.1-1.6-2.1c-0.9,0-1.9,0.8-1.9,2.6v3.4h-1v-5.1
		c0-0.3,0-1-0.1-1.4h0.9C123,127.5,123,128,123,128.3L123,128.3z M135,129.9h4.5c-0.1-1.2-0.8-2.1-2.2-2.1
		C136,127.8,135,128.8,135,129.9z M140.4,130.2c0,0.1,0,0.3,0,0.4h-5.4c0,1.3,1.1,2.4,2.4,2.4c1,0,1.7-0.5,2.1-1.1l0.7,0.6
		c-0.8,1-1.7,1.4-2.8,1.4c-1.9,0-3.4-1.5-3.4-3.4s1.4-3.4,3.3-3.4C139.3,127,140.4,128.5,140.4,130.2z"/>
	<path class="st7" d="M232.1,129v3.8h5.3v0.9H231v-9.9h6.1v0.9h-5.1v3.4h4.8v0.9H232.1z M238.2,133.7l2.6-3.4l-2.4-3.2h1.2l1.8,2.5
		l1.8-2.5h1.1l-2.4,3.1l2.6,3.4h-1.2l-1.9-2.7l-2,2.7H238.2z M247,132.6v4.5h-1v-9.9h1v1.1h0c0.5-0.9,1.5-1.3,2.5-1.3
		c2,0,3.4,1.5,3.4,3.4c0,1.9-1.3,3.4-3.4,3.4C248.6,133.9,247.6,133.4,247,132.6L247,132.6z M251.9,130.4c0-1.5-0.9-2.6-2.5-2.6
		c-1.5,0-2.5,1.1-2.5,2.6s1,2.6,2.5,2.6C251,133.1,251.9,131.9,251.9,130.4z M255.9,127.2v6.6h-1v-6.6H255.9z M256.1,124.6
		c0,0.4-0.3,0.7-0.7,0.7s-0.7-0.3-0.7-0.7s0.3-0.7,0.7-0.7S256.1,124.3,256.1,124.6z M258.4,128.6c0-0.3,0-1-0.1-1.4h0.9
		c0,0.4,0.1,0.8,0.1,1.1h0c0.4-0.8,1.2-1.3,2.1-1.3c0.2,0,0.4,0,0.6,0.1L262,128c-0.1,0-0.4-0.1-0.7-0.1c-1,0-1.9,0.7-1.9,2.5v3.4
		h-1V128.6z M263.5,127.2l2.2,5.5h0l2-5.5h1l-3.3,8.2c-0.4,1-0.9,1.7-2.1,1.7c-0.3,0-0.6,0-0.9-0.1l0.1-0.9c0.2,0.1,0.4,0.1,0.7,0.1
		c0.6,0,1-0.4,1.3-1.2l0.5-1.4l-2.8-6.5H263.5z M273.9,133.7v-9.9h3.3c2.5,0,5.2,1.7,5.2,5s-2.7,5-5.2,5H273.9z M274.9,124.7v8.1h2
		c3,0,4.4-2,4.4-4.1c0-2-1.4-4.1-4.4-4.1H274.9z M288.5,129.7v-0.2c0-1.1-0.6-1.7-1.8-1.7c-0.8,0-1.5,0.3-1.9,0.8l-0.5-0.6
		c0.5-0.5,1.5-0.9,2.6-0.9c1.4,0,2.5,0.8,2.5,2.4v2.9c0,0.5,0,1.1,0.1,1.5h-0.9c-0.1-0.3-0.1-0.7-0.1-1.1h0
		c-0.6,0.9-1.3,1.2-2.4,1.2c-1,0-2.3-0.5-2.3-2C283.9,129.9,286.2,129.7,288.5,129.7z M288.5,130.4h-0.3c-1.6,0-3.4,0.2-3.4,1.4
		c0,0.9,0.8,1.2,1.5,1.2c1.3,0,2.1-1,2.1-2.2V130.4z M294.7,127.2v0.8h-1.8v3.8c0,1,0.4,1.2,1,1.2c0.3,0,0.6-0.1,0.8-0.2l0,0.8
		c-0.3,0.1-0.7,0.2-1.1,0.2c-0.7,0-1.7-0.3-1.7-1.8V128h-1.4v-0.8h1.4v-1.8h1v1.8H294.7z M296.7,129.9h4.5c-0.1-1.2-0.8-2.1-2.2-2.1
		C297.8,127.8,296.8,128.8,296.7,129.9z M302.2,130.2c0,0.1,0,0.3,0,0.4h-5.4c0,1.3,1.1,2.4,2.4,2.4c1,0,1.7-0.5,2.1-1.1l0.7,0.6
		c-0.8,1-1.7,1.4-2.8,1.4c-1.9,0-3.4-1.5-3.4-3.4s1.4-3.4,3.3-3.4C301.1,127,302.2,128.5,302.2,130.2z"/>
	<path class="st6" d="M27.6,152.4l0.9-0.3c0.2,0.8,0.7,1.4,1.6,1.4c1.4,0,1.8-1.1,1.8-2.3v-7h1v7.1c0,1.3-0.5,3.1-2.6,3.1
		C28.9,154.4,27.9,153.6,27.6,152.4z M36,150.4h4.5c-0.1-1.2-0.8-2.1-2.2-2.1C37,148.2,36,149.3,36,150.4z M41.4,150.7
		c0,0.1,0,0.3,0,0.4h-5.4c0,1.3,1,2.4,2.4,2.4c1,0,1.7-0.5,2.1-1.1l0.7,0.6c-0.8,1-1.7,1.4-2.8,1.4c-1.9,0-3.4-1.5-3.4-3.4
		s1.4-3.4,3.3-3.4C40.3,147.4,41.4,148.9,41.4,150.7z M43.4,147.6h0.9c0,0.4,0.1,0.8,0.1,1.1h0c0.4-0.8,1.3-1.3,2.2-1.3
		c1.7,0,2.5,1.1,2.5,2.7v4h-1v-3.6c0-1.4-0.4-2.3-1.8-2.3c-1,0-2,0.8-2,2.6v3.4h-1v-5.1C43.4,148.7,43.4,148.1,43.4,147.6z
		 M51.5,147.6h0.9c0,0.4,0.1,0.8,0.1,1.1h0c0.4-0.8,1.3-1.3,2.2-1.3c1.7,0,2.5,1.1,2.5,2.7v4h-1v-3.6c0-1.4-0.4-2.3-1.8-2.3
		c-1,0-2,0.8-2,2.6v3.4h-1v-5.1C51.6,148.7,51.6,148.1,51.5,147.6z M59.7,147.6l2.2,5.5h0l2-5.5h1l-3.3,8.2c-0.4,1-0.9,1.7-2.1,1.7
		c-0.3,0-0.6,0-0.9-0.1l0.1-0.9c0.2,0.1,0.4,0.1,0.7,0.1c0.6,0,1-0.4,1.3-1.2l0.5-1.4l-2.8-6.5H59.7z M69.3,147.6v0.8h-1.5v5.8h-1
		v-5.8h-1.4v-0.8h1.4v-1.8c0-1.5,0.7-2.4,2.2-2.4c0.2,0,0.5,0,0.8,0.1l-0.2,0.8c-0.2-0.1-0.4-0.1-0.7-0.1c-1,0-1.2,0.7-1.2,1.7v1.7
		H69.3z M71.2,150.4h4.5c-0.1-1.2-0.8-2.1-2.2-2.1C72.2,148.2,71.3,149.3,71.2,150.4z M76.6,150.7c0,0.1,0,0.3,0,0.4h-5.4
		c0,1.3,1.1,2.4,2.4,2.4c1,0,1.7-0.5,2.1-1.1l0.7,0.6c-0.8,1-1.7,1.4-2.8,1.4c-1.9,0-3.4-1.5-3.4-3.4s1.4-3.4,3.3-3.4
		C75.6,147.4,76.6,148.9,76.6,150.7z M78.7,149.1c0-0.3,0-1-0.1-1.4h0.9c0,0.4,0.1,0.8,0.1,1.1h0c0.4-0.8,1.2-1.3,2.1-1.3
		c0.2,0,0.4,0,0.6,0.1l-0.1,0.9c-0.1,0-0.4-0.1-0.7-0.1c-1,0-1.9,0.7-1.9,2.5v3.4h-1V149.1z M87.3,154.2v-9.9h3.3
		c2.5,0,5.2,1.7,5.2,5s-2.7,5-5.2,5H87.3z M88.3,145.1v8.1h2c3,0,4.4-2,4.4-4.1s-1.4-4.1-4.4-4.1H88.3z M104.3,150.9
		c0,2-1.5,3.4-3.5,3.4c-2,0-3.5-1.5-3.5-3.4s1.5-3.4,3.5-3.4C102.9,147.4,104.3,148.9,104.3,150.9z M103.3,150.9
		c0-1.5-1-2.6-2.5-2.6c-1.5,0-2.5,1.2-2.5,2.6c0,1.5,1,2.6,2.5,2.6C102.4,153.5,103.3,152.4,103.3,150.9z M106.9,150.4h4.5
		c-0.1-1.2-0.8-2.1-2.2-2.1C107.9,148.2,107,149.3,106.9,150.4z M112.4,150.7c0,0.1,0,0.3,0,0.4h-5.4c0,1.3,1.1,2.4,2.4,2.4
		c1,0,1.7-0.5,2.1-1.1l0.7,0.6c-0.8,1-1.7,1.4-2.8,1.4c-1.9,0-3.4-1.5-3.4-3.4s1.4-3.4,3.3-3.4C111.3,147.4,112.4,148.9,112.4,150.7
		z"/>
	<path class="st6" d="M234.9,144c2.5,0,3.2,2.6,3.2,5.2c0,2.6-0.8,5.2-3.2,5.2c-2.5,0-3.2-2.6-3.2-5.2
		C231.7,146.6,232.4,144,234.9,144z M234.9,144.9c-1.8,0-2.2,2.4-2.2,4.4c0,2,0.5,4.3,2.2,4.3c1.7,0,2.2-2.4,2.2-4.3
		C237.1,147.2,236.6,144.9,234.9,144.9z M245.6,144.3v0.9h-4.1l-0.1,3.1c0.4-0.2,0.9-0.2,1.4-0.2c1.9,0,3.2,1.3,3.2,3.1
		c0,1.9-1.3,3.3-3.3,3.3c-1.4,0-2.4-0.7-3-1.8l0.9-0.4c0.3,0.8,1.1,1.3,2,1.3c1.3,0,2.3-1,2.3-2.4c0-1.5-1-2.4-2.5-2.4
		c-0.7,0-1.4,0.2-2.1,0.5l0.1-5.1H245.6z M252.2,144.3l-4.2,10.1l-0.8-0.3l4.2-10.2L252.2,144.3z M259.3,153.3v0.9H253v-1l4.1-4.1
		c0.6-0.6,1.2-1.4,1.2-2.3c0-1.1-0.9-1.9-2-1.9c-1.1,0-1.8,0.7-2,1.8l-1-0.2c0.3-1.4,1.5-2.4,3-2.4c1.6,0,3,0.9,3,2.7
		c0,1.3-0.7,2.1-1.6,3l-3.6,3.5H259.3z M263.4,149.4v-0.9h0.4c1.3,0,2.3-0.5,2.3-1.8c0-1.1-0.9-1.9-2-1.9c-0.8,0-1.5,0.4-1.9,1.2
		l-0.9-0.4c0.6-1.1,1.6-1.6,2.8-1.6c1.6,0,2.9,0.9,2.9,2.7c0,1.2-0.7,2-1.7,2.3v0c1.1,0.2,2,1.1,2,2.5c0,1.9-1.5,3-3.2,3
		c-1.4,0-2.6-0.7-3.1-2l1-0.3c0.3,0.9,1.2,1.5,2.2,1.5c1.1,0,2.2-0.8,2.2-2.1c0-1.5-1.3-2-2.6-2H263.4z"/>
</g>
</svg>
