<?xml version="1.0" encoding="utf-8"?>
<!-- Generator: Adobe Illustrator 28.0.0, SVG Export Plug-In . SVG Version: 6.00 Build 0)  -->
<svg version="1.1" id="Layer_1" xmlns="http://www.w3.org/2000/svg" xmlns:xlink="http://www.w3.org/1999/xlink" x="0px" y="0px"
	 viewBox="0 0 64 64" style="enable-background:new 0 0 64 64;" xml:space="preserve">
<style type="text/css">
	.st0{fill:#F2F4F7;}
	.st1{fill:#475467;}
</style>
<rect y="0" class="st0" width="64" height="64"/>
<path class="st1" d="M42.7,45.3c-0.7,0-1.3-0.6-1.3-1.3c0-1.7,0-2.6-0.2-3.2c-0.4-1.3-1.4-2.3-2.7-2.7C37.9,38,37,38,35.3,38h-6.7
	c-1.7,0-2.6,0-3.2,0.2c-1.3,0.4-2.3,1.4-2.7,2.7c-0.2,0.6-0.2,1.5-0.2,3.2c0,0.7-0.6,1.3-1.3,1.3S20,44.7,20,44c0-2,0-3,0.3-3.9
	c0.6-2.1,2.3-3.8,4.4-4.4c0.9-0.3,1.9-0.3,3.9-0.3h6.7c2,0,3,0,3.9,0.3c2.1,0.6,3.8,2.3,4.4,4.4C44,41,44,42,44,44
	C44,44.7,43.4,45.3,42.7,45.3z M32,33.3c-4,0-7.3-3.3-7.3-7.3s3.3-7.3,7.3-7.3s7.3,3.3,7.3,7.3S36,33.3,32,33.3z M32,21.3
	c-2.6,0-4.7,2.1-4.7,4.7s2.1,4.7,4.7,4.7c2.6,0,4.7-2.1,4.7-4.7S34.6,21.3,32,21.3z"/>
</svg>
