<?xml version="1.0" encoding="utf-8"?>
<!-- Generator: Adobe Illustrator 28.1.0, SVG Export Plug-In . SVG Version: 6.00 Build 0)  -->
<svg version="1.1" id="Layer_1" xmlns="http://www.w3.org/2000/svg" xmlns:xlink="http://www.w3.org/1999/xlink" x="0px" y="0px"
	 viewBox="0 0 512 512" style="enable-background:new 0 0 512 512;" xml:space="preserve">
<style type="text/css">
	.st0{fill:none;}
</style>
<g>
	<rect y="0" class="st0" width="512" height="512"/>
	<path d="M375.4,318.2c-15.9-27.5-16.1-79-16.1-79.5v-8.9c0-20.8-7.6-39.5-8-40.3c-7.6-18.5-21.3-32.6-21.8-33.2
		c-14-14.4-31.8-22.3-32.6-22.6c-18.9-8.3-39.3-8.5-40.1-8.6c-0.1,0-0.3,0-0.5,0c-20.2,0-38.5,7.4-39.3,7.7
		c-18.9,7.8-33.1,21.8-33.8,22.4c-14.5,14.4-22.2,32.9-22.5,33.7c-7.8,18.9-7.9,38.9-7.9,39.7v10.1c0,51-15.9,79.2-16.1,79.5
		c-3,5.2-3.1,11.1-3.1,11.4c0,6,2.9,11.1,3,11.3c3,5.2,8.1,8.2,8.3,8.3c5.2,3,11.1,3.1,11.4,3.1h47c1.2,20.2,14.5,34.4,15.1,34.9
		c15.3,15.4,36.6,15.5,37.5,15.5c21.7,0,36.9-14.9,37.5-15.5c12.5-12.5,14.9-28.9,15.4-34.9h46.8c6,0,11.1-3,11.4-3.1
		c5.2-3,8.2-8.1,8.3-8.4c3-5.2,3-11.1,3-11.3C378.4,323.5,375.5,318.4,375.4,318.2z M283.4,352.3c-1.1,9.9-7.7,17-7.7,17.1
		c-8,8-19.5,8.1-19.6,8.1c-11.3,0-19.5-8-19.6-8.1c-5.8-5.8-7.4-13.2-7.9-17.1H283.4z M160.7,327c17.2-33.6,17.4-86,17.4-88.3v-10.1
		c0-15.4,5.9-29.9,5.9-30c5.9-14.2,16.9-25.3,17-25.4c10.9-10.9,25.4-16.9,25.5-16.9c14.1-5.8,29.5-5.8,30-5.8
		c31.6,0.2,54.5,23.3,54.7,23.5c22.3,23,22.7,55.5,22.7,55.8v8.9c0,47.3,12.5,78,17.5,88.3H160.7z"/>
</g>
</svg>
