<svg width="20" height="20" viewBox="0 0 20 20" fill="none" xmlns="http://www.w3.org/2000/svg">
<path d="M4.39233 8.12508C4.39127 7.38415 4.53683 6.65028 4.82065 5.96584C5.10446 5.28137 5.52087 4.65984 6.04578 4.137C6.57083 3.61416 7.19415 3.20034 7.87973 2.91939C8.56546 2.63847 9.29987 2.49596 10.0408 2.50008C13.1346 2.52354 15.6111 5.09384 15.6111 8.19538V8.75008C15.6111 11.547 16.197 13.172 16.7126 14.0626C16.7674 14.1574 16.7964 14.265 16.7964 14.3745C16.7965 14.4841 16.7678 14.5917 16.7132 14.6866C16.6586 14.7816 16.58 14.8605 16.4854 14.9155C16.3906 14.9706 16.2831 14.9997 16.1736 15.0001H3.8299C3.72034 14.9997 3.61276 14.9706 3.51816 14.9155C3.4234 14.8605 3.34482 14.7816 3.29019 14.6866C3.23557 14.5917 3.20688 14.4841 3.20703 14.3745C3.20718 14.265 3.23602 14.1574 3.2908 14.0626C3.8064 13.172 4.39233 11.547 4.39233 8.75008V8.12508Z" fill="#1C1C1C" fill-opacity="0.1"/>
<path fill-rule="evenodd" clip-rule="evenodd" d="M3.76733 8.75007V8.12507C3.76733 8.12507 3.76558 6.87864 4.24329 5.72645C4.24329 5.72645 4.721 4.57425 5.60481 3.69411C5.60481 3.69411 6.48861 2.81397 7.64279 2.34105C7.64279 2.34105 8.79696 1.86814 10.0442 1.87508C10.0442 1.87508 11.3125 1.88468 12.4674 2.39135C12.4674 2.39135 13.5785 2.87881 14.4339 3.75745C14.4339 3.75745 15.286 4.63266 15.7532 5.76121C15.7532 5.76121 16.2361 6.92735 16.2361 8.19538V8.75007C16.2361 8.75007 16.2361 11.992 17.2535 13.7494C17.2535 13.7494 17.4211 14.0396 17.4214 14.374C17.4214 14.374 17.4217 14.7083 17.255 14.9982C17.255 14.9982 17.0884 15.288 16.7992 15.4559C16.7992 15.4559 16.5101 15.6239 16.1758 15.6251L3.82983 15.6251C3.82983 15.6251 3.49328 15.6239 3.20417 15.4559C3.20417 15.4559 2.91506 15.288 2.7484 14.9982C2.7484 14.9982 2.58174 14.7083 2.58203 14.374C2.58203 14.374 2.58233 14.0396 2.7495 13.7501C2.7495 13.7501 3.76733 11.992 3.76733 8.75007ZM5.01733 8.75007C5.01733 8.75007 5.01733 12.3277 3.83203 14.3751L16.1714 14.3751C16.1714 14.3751 14.9861 12.3272 14.9861 8.75007V8.19538C14.9861 8.19538 14.9861 6.11659 13.5383 4.6294C13.5383 4.6294 12.0889 3.1406 10.0373 3.12506C10.0373 3.12506 9.03978 3.11951 8.11672 3.49772C8.11672 3.49772 7.19367 3.87593 6.48685 4.57982C6.48685 4.57982 5.78002 5.28372 5.39797 6.20519C5.39797 6.20519 5.01593 7.12666 5.01733 8.12507V8.75007Z" fill="#1C1C1C"/>
<path d="M13.125 15.625V15C13.125 14.6548 12.8452 14.375 12.5 14.375C12.1548 14.375 11.875 14.6548 11.875 15V15.625C11.875 16.4016 11.3258 16.9508 11.3258 16.9508C10.7766 17.5 10 17.5 10 17.5C9.22335 17.5 8.67417 16.9508 8.67417 16.9508C8.125 16.4016 8.125 15.625 8.125 15.625V15C8.125 14.6548 7.84518 14.375 7.5 14.375C7.15482 14.375 6.875 14.6548 6.875 15L6.875 15.625C6.875 16.9194 7.79029 17.8347 7.79029 17.8347C8.70558 18.75 10 18.75 10 18.75C11.2944 18.75 12.2097 17.8347 12.2097 17.8347C13.125 16.9194 13.125 15.625 13.125 15.625Z" fill="#1C1C1C"/>
</svg>
