<?xml version="1.0" encoding="utf-8"?>
<!-- Generator: Adobe Illustrator 28.1.0, SVG Export Plug-In . SVG Version: 6.00 Build 0)  -->
<svg version="1.1" id="Layer_1" xmlns="http://www.w3.org/2000/svg" xmlns:xlink="http://www.w3.org/1999/xlink" x="0px" y="0px"
	 viewBox="0 0 512 512" style="enable-background:new 0 0 512 512;" xml:space="preserve">
<style type="text/css">
	.st0{fill:#22B573;}
</style>
<g>
	<path class="st0" d="M404.7,512c-3.8,0-7.5-1.5-10.2-4.2L256,369.3L117.6,507.8c-4.1,4.1-10.3,5.4-15.8,3.1
		c-5.4-2.2-8.9-7.5-8.9-13.4V51.6c0-13.8,5.4-26.7,15.1-36.5S130.7,0,144.5,0h223c13.8,0,26.8,5.4,36.5,15.1
		c9.6,9.6,15.1,22.9,15.1,36.5v445.9c0,5.8-3.5,11.1-8.9,13.4C408.4,511.6,406.5,512,404.7,512z M256,334.5c3.7,0,7.4,1.4,10.2,4.2
		l124,124v-411c0-6-2.4-11.8-6.7-16.1c-4.3-4.3-10-6.6-16.1-6.6h-223c-6.1,0-11.8,2.4-16.1,6.6c-4.3,4.3-6.6,10-6.6,16.1v411
		l124-124C248.6,335.9,252.3,334.5,256,334.5z"/>
</g>
</svg>
