<svg width="82" height="59" viewBox="0 0 82 59" fill="none" xmlns="http://www.w3.org/2000/svg">
<path d="M4.16368 18.9496C4.67056 19.1882 5.02836 19.3969 5.38616 19.546C8.39763 20.8579 11.4091 22.1102 14.3908 23.4818C14.9275 23.7203 15.5238 24.2272 15.6729 24.7042C15.822 25.1813 15.5834 26.1056 15.1958 26.3442C14.7187 26.6721 13.8243 26.7616 13.2577 26.5529C11.0215 25.718 8.8747 24.7042 6.69809 23.7501C5.56506 23.273 4.46184 22.7363 3.32881 22.2891C1.77835 21.6928 0.824219 20.6194 0.824219 18.9496C0.824219 17.2799 1.77835 16.2363 3.299 15.5804C13.9137 10.9886 24.5284 6.36705 35.1431 1.74548C35.7096 1.50694 36.306 1.26841 36.8725 1.00006C39.6454 -0.341686 42.3587 -0.252236 45.1615 0.970244C55.5078 5.50237 65.884 10.0047 76.2602 14.507C77.2441 14.9244 78.2579 15.3418 79.212 15.8189C80.5239 16.4451 81.1799 17.5184 81.1799 18.9496C81.1799 20.351 80.5239 21.4841 79.1822 22.0506C76.3198 23.3327 73.4574 24.585 70.595 25.8075C69.8496 26.1354 69.5515 26.4932 69.5515 27.3579C69.5813 33.3212 69.5813 39.2846 69.5515 45.2479C69.5515 45.9038 69.7005 46.2915 70.3565 46.6194C72.1753 47.5438 73.0698 49.1538 73.1294 51.1516C73.1891 52.8511 73.1593 54.5805 73.1294 56.28C73.0996 57.6218 72.4735 58.2479 71.1317 58.2777C68.9253 58.3075 66.7487 58.3075 64.5423 58.2777C63.2303 58.2479 62.6638 57.6516 62.634 56.3396C62.6042 54.6699 62.634 53.0002 62.634 51.3006C62.634 49.124 63.6776 47.5736 65.5262 46.5002C65.8244 46.3213 66.1822 45.9337 66.1822 45.6653C66.212 39.7914 66.212 33.8878 66.212 27.7754C64.9299 28.3419 63.7968 28.7891 62.6638 29.3556C62.4849 29.4451 62.3955 29.9221 62.3955 30.2203C62.3657 31.741 62.3955 33.2616 62.3657 34.8121C62.3358 37.1378 60.9046 38.5988 58.5789 38.5988C46.8312 38.6286 35.1133 38.6286 23.3656 38.5988C20.9802 38.5988 19.549 37.1378 19.549 34.7524C19.5192 30.3694 19.6087 25.9565 19.5192 21.5735C19.4894 19.7249 20.2945 18.5024 21.9344 17.9657C24.0215 17.2799 26.1385 16.6538 28.2853 16.3556C37.111 15.1629 45.9665 15.1331 54.7922 16.5345C56.6409 16.8327 58.4597 17.429 60.2487 18.0551C61.7693 18.5918 62.4849 19.7845 62.3955 21.4542C62.3358 22.8258 62.3955 24.1974 62.3955 25.718C67.5836 23.4519 72.6226 21.2753 77.8405 19.0093C77.4827 18.7707 77.2739 18.6217 77.0056 18.5024C65.884 13.6721 54.7624 8.84182 43.6408 3.98172C41.9115 3.2363 40.2417 3.14686 38.4527 3.92209C27.4206 8.75237 16.3587 13.523 5.29671 18.3533C5.02836 18.5024 4.67056 18.6813 4.16368 18.9496ZM22.9481 27.9543C35.0835 27.9543 47.0101 27.9543 59.056 27.9543C59.056 25.9267 59.0262 23.9588 59.0858 21.9909C59.1156 21.2455 58.8175 20.8877 58.1615 20.7088C56.4918 20.3212 54.8519 19.8441 53.1523 19.6056C46.2349 18.5918 39.2578 18.562 32.3105 19.218C29.478 19.4863 26.6752 20.1721 23.8724 20.7386C23.5146 20.7983 22.9779 21.3052 22.9779 21.6331C22.9183 23.7203 22.9481 25.7776 22.9481 27.9543ZM22.9481 31.4428C22.9481 32.3075 23.0078 33.1125 22.9183 33.9176C22.799 34.9612 23.2165 35.2295 24.2302 35.1997C35.4115 35.1699 46.5927 35.1699 57.7739 35.1699C57.9826 35.1699 58.251 35.2295 58.4299 35.1401C58.6684 35.0208 59.0262 34.7823 59.0262 34.5437C59.0858 33.5001 59.056 32.4864 59.056 31.3832C46.9803 31.4428 35.0537 31.4428 22.9481 31.4428ZM69.79 54.8488C69.79 53.5071 69.8794 52.1951 69.7602 50.913C69.6707 49.9291 68.9849 49.3327 67.9414 49.3029C66.9574 49.3029 66.212 49.8098 66.1225 50.7639C66.0033 52.1057 66.0927 53.4772 66.0927 54.8488C67.3748 54.8488 68.5377 54.8488 69.79 54.8488Z" fill="#FBFBFB"/>
</svg>
