<svg width="62" height="70" viewBox="0 0 62 70" fill="none" xmlns="http://www.w3.org/2000/svg">
<path d="M60.9475 41.1919C60.1505 39.9746 59.3535 38.7394 58.575 37.54C57.7409 36.2511 56.8882 34.9263 56.0356 33.6374C54.8122 31.7757 54.182 29.7349 54.0708 27.3719C54.0152 25.8682 53.9225 24.3823 53.7001 22.9323C52.0319 12.5494 43.7279 4.06411 33.0699 1.79062C32.1617 1.5937 31.2164 1.46839 30.2896 1.34308C29.8633 1.28937 29.4369 1.21777 29.0106 1.16406H25.322C24.9142 1.23567 24.4879 1.28937 24.0616 1.36098C23.1719 1.48629 22.2266 1.6295 21.3369 1.82642C9.30723 4.35053 0.484262 14.8587 0.391583 26.7632C0.354512 31.0775 1.39251 35.177 3.56118 39.2943C6.50835 44.8975 8.13948 50.7871 8.43605 56.7841C8.5658 59.344 8.5658 61.9397 8.5658 64.4639C8.5658 65.5738 8.5658 66.7374 8.58434 67.8652C8.60287 68.8318 8.91798 69.1541 9.90037 69.1541C19.8911 69.1541 29.8633 69.1541 39.854 69.1541C40.8734 69.1541 41.2071 68.8318 41.2071 67.8293C41.2071 65.8602 41.2071 63.891 41.2071 61.9039V58.3952H41.5778C42.2451 58.3952 42.8938 58.3952 43.5426 58.3952C44.9883 58.3952 46.3414 58.4132 47.7131 58.3773C50.9012 58.3415 53.6074 56.0859 53.9967 53.1322C54.1635 51.897 54.145 50.626 54.145 49.3908C54.145 48.8358 54.145 48.263 54.145 47.6901C54.145 47.4932 54.145 47.2963 54.145 47.0636V46.3117H55.6463C56.4804 46.3117 57.2775 46.3117 58.0745 46.3117C58.093 46.3117 58.093 46.3117 58.1116 46.3117C59.5574 46.3117 60.5583 45.7747 61.207 44.6469C61.8187 43.5549 61.7446 42.4092 60.9475 41.1919ZM59.4091 43.5907C59.2052 44.3784 58.3526 44.3783 57.8892 44.3783C56.1097 44.3963 54.6454 44.4142 53.3108 44.45C52.3841 44.4679 52.0875 44.7722 52.0875 45.6852C52.0875 46.6518 52.0875 47.6185 52.0875 48.5852C52.0875 49.6951 52.0875 50.8229 52.0875 51.9328C52.069 54.6001 50.1413 56.444 47.398 56.4619C46.2117 56.4619 45.0069 56.4619 43.8206 56.4619C42.6899 56.4619 41.5778 56.4619 40.4471 56.4619C39.4833 56.4619 39.1682 56.7662 39.1682 57.6971C39.1682 59.8453 39.1682 62.0114 39.1682 64.1953V67.1849H10.6233V66.5762C10.6233 66.4151 10.6233 66.254 10.6233 66.0929C10.6047 65.1262 10.6047 64.1416 10.6047 63.1929C10.6047 61.0805 10.6047 58.9144 10.4935 56.7841C10.1599 50.447 8.43605 44.2888 5.41474 38.4708C3.39436 34.5862 2.41197 30.7374 2.44904 26.6916C2.50465 21.1959 4.59918 15.8075 8.36191 11.5469C12.1061 7.26848 17.259 4.42214 22.8753 3.50916C35.9059 1.37888 48.1023 9.00493 51.2534 21.2138C51.7909 23.2724 51.9207 25.4564 52.0319 27.3898C52.1987 30.2182 52.9587 32.5991 54.3303 34.6936C56.0541 37.3072 57.6111 39.7419 59.131 42.1586C59.4091 42.5703 59.5203 43.161 59.4091 43.5907Z" fill="white" stroke="white" stroke-width="0.4"/>
<path d="M28.0863 13.5334C28.976 14.6075 30.5516 17.0063 30.5516 20.6582C30.5516 24.1669 28.9946 26.6194 28.0863 27.7472C27.1781 26.6373 25.6026 24.2206 25.6026 20.6582C25.6026 16.9705 27.1781 14.5896 28.0863 13.5334ZM28.1049 12.2266C28.1049 12.2266 24.6758 15.0729 24.6758 20.6582C24.6758 26.136 28.1049 29.0898 28.1049 29.0898C28.1049 29.0898 31.4784 26.0465 31.4784 20.6582C31.4784 15.1266 28.1049 12.2266 28.1049 12.2266Z" fill="white" stroke="white" stroke-width="0.1"/>
<path d="M16.3925 17.4175C17.0969 17.4712 18.0236 17.5786 18.728 17.8293C20.6557 18.5095 21.5825 19.0824 21.9717 19.3509C22.3054 19.6015 22.6576 19.9058 22.9171 20.1207C22.8985 20.5145 22.88 21.1231 22.9541 21.8571C23.0653 23.0386 23.1766 24.3633 23.8438 25.7775C24.0292 26.1893 24.2331 26.5473 24.3999 26.8516C24.3072 26.8158 24.2145 26.7979 24.1404 26.7621C24.0292 26.7084 23.8994 26.6726 23.7697 26.6189C22.8985 26.2788 21.8235 25.8671 20.7484 25.0257C19.5806 24.1306 18.6724 23.146 17.4305 20.8725C16.8003 19.7268 16.5223 18.3305 16.3925 17.4175ZM15.373 16.4688C15.373 16.4688 15.4843 19.1898 16.6149 21.2843C17.8939 23.6652 18.9134 24.7393 20.1738 25.7238C21.5083 26.7621 22.88 27.2276 23.7882 27.5856C24.6965 27.9436 26.3461 28.2301 26.3461 28.2301C26.3461 28.2301 26.3461 28.1047 26.0681 27.7288C25.7901 27.3708 25.2711 26.6368 24.6779 25.4016C24.0848 24.1485 23.9736 22.967 23.8809 21.7676C23.7697 20.5861 23.8809 19.7447 23.8809 19.7447C23.8809 19.7447 23.1766 19.0824 22.5463 18.6169C21.9161 18.1515 20.804 17.5786 19.0616 16.97C17.5788 16.4688 15.373 16.4688 15.373 16.4688Z" fill="white" stroke="white" stroke-width="0.1"/>
<path d="M39.6724 17.4175C39.5426 18.3305 39.2646 19.7268 38.6344 20.8725C37.3925 23.1639 36.4843 24.1306 35.3165 25.0436C34.2414 25.8671 33.1664 26.2967 32.2952 26.6368C32.1655 26.6905 32.0357 26.7263 31.9245 26.78C31.8504 26.8158 31.7577 26.8337 31.665 26.8695C31.8318 26.5652 32.0357 26.2072 32.2211 25.7954C32.8883 24.3812 32.9996 23.0565 33.1108 21.875C33.1849 21.141 33.1664 20.5324 33.1478 20.1386C33.3888 19.9237 33.7595 19.6015 34.0932 19.3688C34.4824 19.0824 35.4092 18.5274 37.3369 17.8472C38.0413 17.5786 38.968 17.4712 39.6724 17.4175ZM40.6918 16.4688C40.6918 16.4688 38.4676 16.4688 37.0033 16.9879C35.2794 17.5965 34.1673 18.1694 33.5186 18.6348C32.8883 19.1003 32.184 19.7626 32.184 19.7626C32.184 19.7626 32.2952 20.5861 32.184 21.7855C32.0728 22.967 31.9616 24.1664 31.387 25.4195C30.7938 26.6726 30.2748 27.3887 29.9968 27.7467C29.7188 28.1047 29.7188 28.248 29.7188 28.248C29.7188 28.248 31.3684 27.9615 32.2767 27.6035C33.1849 27.2455 34.5566 26.78 35.8911 25.7417C37.1515 24.7572 38.171 23.6831 39.45 21.3022C40.5806 19.1898 40.6918 16.4688 40.6918 16.4688Z" fill="white" stroke="white" stroke-width="0.1"/>
<path d="M39.3009 24.7544C39.6902 24.7724 40.3389 24.8261 41.1174 24.9872C42.3222 25.2557 43.8792 25.9001 44.1943 26.0434H44.2129C44.1387 26.1329 44.0646 26.2224 43.9719 26.3119C43.5827 26.7236 42.8042 27.5113 41.7847 28.0841C40.7282 28.6749 39.7458 29.0866 38.6522 29.373C37.5956 29.6595 36.3352 29.8206 35.2416 29.8206C34.9636 29.8206 34.7041 29.8027 34.4446 29.7848C33.6846 29.7311 32.9247 29.6237 32.2574 29.4805C33.3324 29.1761 34.2592 28.7823 35.7791 27.8514C37.2805 26.9921 38.6892 25.4526 39.3009 24.7544ZM39.0229 23.8594C38.9117 23.8594 38.8561 23.8594 38.8561 23.8594C38.8561 23.8594 37.1137 26.0434 35.3158 27.1175C33.4807 28.2273 32.6095 28.5138 31.3306 28.836C30.1628 29.1224 28.9766 29.194 28.9766 29.194C28.9766 29.194 29.4956 29.4805 30.2926 29.8564C31.0896 30.2144 32.7578 30.5903 34.389 30.7157C34.667 30.7336 34.9636 30.7515 35.2416 30.7515C36.5947 30.7515 37.9293 30.5366 38.8931 30.2681C40.0794 29.9459 41.1359 29.5163 42.2481 28.8897C43.3417 28.2632 44.1943 27.4397 44.6577 26.9384C45.1211 26.4372 45.5289 25.8285 45.5289 25.8285L44.6206 25.2736C44.6206 25.2736 42.7485 24.4501 41.3028 24.1458C40.2277 23.8952 39.3751 23.8594 39.0229 23.8594Z" fill="white" stroke="white" stroke-width="0.1"/>
<path d="M16.8735 24.7958C17.4666 25.494 18.8753 27.0156 20.3582 27.9107C21.8781 28.8236 22.8049 29.2354 23.8799 29.5397C23.2312 29.6829 22.4712 29.7903 21.7113 29.844C21.4518 29.8619 21.1923 29.8798 20.9328 29.8798C19.8392 29.8798 18.5787 29.7187 17.5222 29.4323C16.4471 29.1459 15.4462 28.7341 14.3897 28.1434C13.3888 27.5705 12.5917 26.7829 12.2025 26.3711C12.1283 26.2816 12.0357 26.1921 11.9615 26.1026H11.9801C12.2952 25.9594 13.8707 25.3149 15.057 25.0464C15.8355 24.8674 16.4842 24.8137 16.8735 24.7958ZM17.133 23.9007C16.7808 23.9007 15.9467 23.9365 14.8531 24.1692C13.4073 24.4915 11.5352 25.297 11.5352 25.297L10.627 25.852C10.627 25.852 11.0533 26.4427 11.4981 26.9619C11.9615 27.4631 12.8142 28.3045 13.9078 28.9131C15.0014 29.5397 16.0764 29.9693 17.2627 30.2916C18.2451 30.5422 19.5797 30.7749 20.9142 30.7749C21.1923 30.7749 21.4888 30.757 21.7669 30.7391C23.398 30.6138 25.0477 30.2558 25.8632 29.8798C26.6603 29.5218 27.1793 29.2175 27.1793 29.2175C27.1793 29.2175 26.0115 29.128 24.8253 28.8594C23.5463 28.5372 22.6751 28.2687 20.8401 27.1409C19.0421 26.0668 17.2998 23.8828 17.2998 23.8828C17.2998 23.8828 17.2627 23.9007 17.133 23.9007Z" fill="white" stroke="white" stroke-width="0.1"/>
</svg>
