<svg width="50" height="50" viewBox="0 0 50 50" fill="none" xmlns="http://www.w3.org/2000/svg">
<path d="M4.3408 19.4491V22.8407V22.8407C4.3408 22.8887 4.3408 22.9352 4.3392 22.9832L4.33915 22.9864C4.33757 23.0925 4.33608 23.1923 4.344 23.2842C4.39366 23.9376 4.71079 24.3651 5.31462 24.5925C5.75028 24.7574 6.19234 24.7094 6.55592 24.458C6.97877 24.1666 7.22222 23.6589 7.22222 23.0665C7.22543 18.5844 7.22543 14.1023 7.22383 9.61862V3.57045H42.7811V21.3466C42.7811 21.4419 42.7807 21.5372 42.7803 21.6325C42.7799 21.7278 42.7795 21.823 42.7795 21.9183C42.7794 21.9613 42.7792 22.0044 42.779 22.0476C42.7775 22.447 42.7758 22.8551 42.7859 23.2554C42.802 23.8831 43.1639 24.3843 43.7534 24.5973C44.197 24.7574 44.6407 24.7046 45.0043 24.45C45.4223 24.157 45.661 23.6509 45.661 23.0601C45.6642 17.3898 45.6642 11.7195 45.6626 6.04928V2.46714C45.6626 1.17008 45.1612 0.664062 43.8751 0.664062H23.0805H6.16511C4.83572 0.664062 4.3424 1.15887 4.3424 2.48796C4.3408 8.1422 4.3408 13.7948 4.3408 19.4491Z" fill="white"/>
<path d="M4.3408 19.4491V22.8407V22.8407C4.3408 22.8887 4.3408 22.9352 4.3392 22.9832L4.33915 22.9864C4.33757 23.0925 4.33608 23.1923 4.344 23.2842C4.39366 23.9376 4.71079 24.3651 5.31462 24.5925C5.75028 24.7574 6.19234 24.7094 6.55592 24.458C6.97877 24.1666 7.22222 23.6589 7.22222 23.0665C7.22543 18.5844 7.22543 14.1023 7.22383 9.61862V3.57045H42.7811V21.3466C42.7811 21.4419 42.7807 21.5372 42.7803 21.6325C42.7799 21.7278 42.7795 21.823 42.7795 21.9183C42.7794 21.9613 42.7792 22.0044 42.779 22.0476C42.7775 22.447 42.7758 22.8551 42.7859 23.2554C42.802 23.8831 43.1639 24.3843 43.7534 24.5973C44.197 24.7574 44.6407 24.7046 45.0043 24.45C45.4223 24.157 45.661 23.6509 45.661 23.0601C45.6642 17.3898 45.6642 11.7195 45.6626 6.04928V2.46714C45.6626 1.17008 45.1612 0.664062 43.8751 0.664062H23.0805H6.16511C4.83572 0.664062 4.3424 1.15887 4.3424 2.48796C4.3408 8.1422 4.3408 13.7948 4.3408 19.4491Z" stroke="white"/>
<path d="M14.9051 48.113C14.8571 46.2555 14.1716 44.6173 12.8694 43.2418L12.139 42.4748L12.477 42.1433C14.572 40.0904 14.95 37.9158 14.8971 36.4522C14.8267 34.4442 13.8769 32.4281 12.4193 31.1887C9.54271 28.7435 5.21176 28.9261 2.55938 31.6051C1.22518 32.9534 0.47559 34.8301 0.502818 36.7549C0.522039 38.1528 0.962501 40.2169 2.94698 42.1113L3.31697 42.4652L2.93898 42.8127C1.37413 44.2522 0.576496 45.9721 0.501217 48.0666C0.4852 48.5197 0.62775 48.9313 0.903239 49.2243C1.1547 49.4933 1.50387 49.6471 1.88667 49.6599C2.71634 49.6823 3.33459 49.069 3.37944 48.1562C3.49796 45.7287 5.35591 43.9 7.70398 43.9H7.71038C10.0889 43.9032 11.9036 45.6982 12.0269 48.1691C12.0718 49.0658 12.706 49.6983 13.5293 49.6599C14.3365 49.6311 14.9276 48.9649 14.9051 48.113ZM10.7632 39.7461C9.94633 40.566 8.85879 41.0176 7.70237 41.0176H7.69917C6.54596 41.0176 5.46162 40.5644 4.64316 39.7429C3.8231 38.9199 3.37463 37.831 3.38104 36.6764C3.39385 34.2985 5.33669 32.3721 7.71679 32.3721H7.73921C10.0985 32.3849 12.0237 34.3161 12.0285 36.6796C12.0301 37.8374 11.58 38.9263 10.7632 39.7461Z" fill="white"/>
<path d="M14.9051 48.113C14.8571 46.2555 14.1716 44.6173 12.8694 43.2418L12.139 42.4748L12.477 42.1433C14.572 40.0904 14.95 37.9158 14.8971 36.4522C14.8267 34.4442 13.8769 32.4281 12.4193 31.1887C9.54271 28.7435 5.21176 28.9261 2.55938 31.6051C1.22518 32.9534 0.47559 34.8301 0.502818 36.7549C0.522039 38.1528 0.962501 40.2169 2.94698 42.1113L3.31697 42.4652L2.93898 42.8127C1.37413 44.2522 0.576496 45.9721 0.501217 48.0666C0.4852 48.5197 0.62775 48.9313 0.903239 49.2243C1.1547 49.4933 1.50387 49.6471 1.88667 49.6599C2.71634 49.6823 3.33459 49.069 3.37944 48.1562C3.49796 45.7287 5.35591 43.9 7.70398 43.9H7.71038C10.0889 43.9032 11.9036 45.6982 12.0269 48.1691C12.0718 49.0658 12.706 49.6983 13.5293 49.6599C14.3365 49.6311 14.9276 48.9649 14.9051 48.113ZM10.7632 39.7461C9.94633 40.566 8.85879 41.0176 7.70237 41.0176H7.69917C6.54596 41.0176 5.46162 40.5644 4.64316 39.7429C3.8231 38.9199 3.37463 37.831 3.38104 36.6764C3.39385 34.2985 5.33669 32.3721 7.71679 32.3721H7.73921C10.0985 32.3849 12.0237 34.3161 12.0285 36.6796C12.0301 37.8374 11.58 38.9263 10.7632 39.7461Z" stroke="white"/>
<path d="M32.2042 48.0813C32.1481 46.2237 31.4562 44.5888 30.1492 43.2181C30.0563 43.1204 29.9634 43.0195 29.8721 42.9202L29.4301 42.443L29.7712 42.1164C31.7814 40.1836 32.2042 38.0843 32.2058 36.6639C32.2074 34.7039 31.413 32.8143 30.0259 31.4788C27.287 28.8399 22.9369 28.7822 20.1211 31.3475C18.6972 32.643 17.8323 34.603 17.8035 36.587C17.7827 38.0234 18.1863 40.1484 20.2252 42.1132L20.4078 42.2893L20.3678 42.5199C20.3566 42.6496 20.3101 42.7585 20.2284 42.8434C20.1628 42.9122 20.0987 42.9779 20.033 43.0435C20.0127 43.0644 19.9922 43.0852 19.9718 43.106C19.9308 43.1476 19.8899 43.1893 19.8504 43.2309C18.5595 44.5824 17.8708 46.1997 17.8051 48.038C17.7731 48.9396 18.3465 49.6201 19.1681 49.6602C20.0122 49.7018 20.6385 49.0693 20.6817 48.1261C20.7954 45.7273 22.6422 43.9098 24.979 43.9002H24.9998C27.3527 43.9002 29.2107 45.7193 29.326 48.1421C29.3692 49.0437 29.9586 49.6634 30.7675 49.6634H30.8075C31.1919 49.6538 31.5427 49.5016 31.7974 49.2326C32.0729 48.9396 32.217 48.5296 32.2042 48.0813ZM28.0735 39.732C27.2614 40.5551 26.1819 41.0115 25.0335 41.0163H25.0143C23.8642 41.0163 22.7815 40.5711 21.963 39.7608C21.1398 38.9458 20.6849 37.8617 20.6801 36.7055C20.6753 35.5526 21.1222 34.4653 21.9406 33.6438C22.7591 32.8223 23.8482 32.3692 25.0062 32.3692C27.3671 32.3692 29.3052 34.2875 29.326 36.6447C29.3356 37.8072 28.8919 38.9025 28.0735 39.732Z" fill="white"/>
<path d="M32.2042 48.0813C32.1481 46.2237 31.4562 44.5888 30.1492 43.2181C30.0563 43.1204 29.9634 43.0195 29.8721 42.9202L29.4301 42.443L29.7712 42.1164C31.7814 40.1836 32.2042 38.0843 32.2058 36.6639C32.2074 34.7039 31.413 32.8143 30.0259 31.4788C27.287 28.8399 22.9369 28.7822 20.1211 31.3475C18.6972 32.643 17.8323 34.603 17.8035 36.587C17.7827 38.0234 18.1863 40.1484 20.2252 42.1132L20.4078 42.2893L20.3678 42.5199C20.3566 42.6496 20.3101 42.7585 20.2284 42.8434C20.1628 42.9122 20.0987 42.9779 20.033 43.0435C20.0127 43.0644 19.9922 43.0852 19.9718 43.106C19.9308 43.1476 19.8899 43.1893 19.8504 43.2309C18.5595 44.5824 17.8708 46.1997 17.8051 48.038C17.7731 48.9396 18.3465 49.6201 19.1681 49.6602C20.0122 49.7018 20.6385 49.0693 20.6817 48.1261C20.7954 45.7273 22.6422 43.9098 24.979 43.9002H24.9998C27.3527 43.9002 29.2107 45.7193 29.326 48.1421C29.3692 49.0437 29.9586 49.6634 30.7675 49.6634H30.8075C31.1919 49.6538 31.5427 49.5016 31.7974 49.2326C32.0729 48.9396 32.217 48.5296 32.2042 48.0813ZM28.0735 39.732C27.2614 40.5551 26.1819 41.0115 25.0335 41.0163H25.0143C23.8642 41.0163 22.7815 40.5711 21.963 39.7608C21.1398 38.9458 20.6849 37.8617 20.6801 36.7055C20.6753 35.5526 21.1222 34.4653 21.9406 33.6438C22.7591 32.8223 23.8482 32.3692 25.0062 32.3692C27.3671 32.3692 29.3052 34.2875 29.326 36.6447C29.3356 37.8072 28.8919 38.9025 28.0735 39.732Z" stroke="white"/>
<path d="M49.5008 48.0826C49.4432 46.2235 48.7512 44.5885 47.4427 43.2194C47.3498 43.1233 47.2585 43.0256 47.1688 42.928L46.7171 42.446L47.0599 42.1177C49.102 40.1609 49.5136 38.0327 49.4992 36.5899C49.48 34.5995 48.6407 32.6972 47.2008 31.3697C44.2937 28.6923 39.8571 28.8236 37.1038 31.6707C35.784 33.0334 35.0553 34.9102 35.1017 36.8189C35.1498 38.7886 36.0211 40.6621 37.5539 42.0969L37.9319 42.4508L37.5507 42.8014C35.9842 44.241 35.1818 45.9544 35.1017 48.041C35.0825 48.5133 35.2282 48.9393 35.5117 49.2387C35.7696 49.511 36.114 49.6583 36.508 49.6647H36.5368C37.3569 49.6647 37.9351 49.0514 37.9783 48.1306C38.092 45.7319 39.9388 43.9144 42.2756 43.9032H42.2981C44.6509 43.9032 46.5089 45.7222 46.6242 48.145C46.6674 49.061 47.2809 49.6791 48.1057 49.6647C48.4902 49.6551 48.8409 49.5029 49.0956 49.2339C49.3695 48.9409 49.5136 48.5326 49.5008 48.0826ZM45.3413 39.7638C44.5228 40.574 43.4401 41.0192 42.29 41.0192H42.2612C39.8987 41.0048 37.9767 39.0704 37.9767 36.7068C37.9767 35.5491 38.4268 34.4618 39.2436 33.6435C40.0605 32.8253 41.148 32.3737 42.3045 32.3737H42.3061C43.4577 32.3737 44.542 32.8253 45.3589 33.6451C46.1789 34.4682 46.6274 35.5587 46.6226 36.7181C46.6178 37.8694 46.1629 38.9503 45.3413 39.7638Z" fill="white"/>
<path d="M49.5008 48.0826C49.4432 46.2235 48.7512 44.5885 47.4427 43.2194C47.3498 43.1233 47.2585 43.0256 47.1688 42.928L46.7171 42.446L47.0599 42.1177C49.102 40.1609 49.5136 38.0327 49.4992 36.5899C49.48 34.5995 48.6407 32.6972 47.2008 31.3697C44.2937 28.6923 39.8571 28.8236 37.1038 31.6707C35.784 33.0334 35.0553 34.9102 35.1017 36.8189C35.1498 38.7886 36.0211 40.6621 37.5539 42.0969L37.9319 42.4508L37.5507 42.8014C35.9842 44.241 35.1818 45.9544 35.1017 48.041C35.0825 48.5133 35.2282 48.9393 35.5117 49.2387C35.7696 49.511 36.114 49.6583 36.508 49.6647H36.5368C37.3569 49.6647 37.9351 49.0514 37.9783 48.1306C38.092 45.7319 39.9388 43.9144 42.2756 43.9032H42.2981C44.6509 43.9032 46.5089 45.7222 46.6242 48.145C46.6674 49.061 47.2809 49.6791 48.1057 49.6647C48.4902 49.6551 48.8409 49.5029 49.0956 49.2339C49.3695 48.9409 49.5136 48.5326 49.5008 48.0826ZM45.3413 39.7638C44.5228 40.574 43.4401 41.0192 42.29 41.0192H42.2612C39.8987 41.0048 37.9767 39.0704 37.9767 36.7068C37.9767 35.5491 38.4268 34.4618 39.2436 33.6435C40.0605 32.8253 41.148 32.3737 42.3045 32.3737H42.3061C43.4577 32.3737 44.542 32.8253 45.3589 33.6451C46.1789 34.4682 46.6274 35.5587 46.6226 36.7181C46.6178 37.8694 46.1629 38.9503 45.3413 39.7638Z" stroke="white"/>
<path d="M37.1407 8.47812C36.5561 8.2075 35.9635 8.326 35.4766 8.80959C33.167 11.1043 31.2321 13.0371 29.2893 15.0067C28.9273 15.375 28.45 15.6952 27.6652 15.2853C26.0833 14.4602 24.4541 13.6579 22.8744 12.88L22.7576 12.8225L21.9952 12.4462C21.1736 12.041 20.653 12.1035 20.0764 12.6768C17.7203 15.0195 15.0503 17.6745 12.4941 20.2782C12.3205 20.4549 12.1944 20.725 12.0607 21.0114L12.0584 21.0164L11.9863 21.1701L11.9991 21.2406C12.0066 21.2812 12.0127 21.3217 12.0187 21.3623C12.0217 21.3826 12.0248 21.4029 12.028 21.4231L12.0303 21.439C12.0454 21.5403 12.0596 21.6353 12.0824 21.713C12.2362 22.2302 12.603 22.5969 13.0883 22.7218C13.5992 22.8531 14.1294 22.6914 14.5474 22.2799C16.6889 20.1645 18.7855 18.0668 20.778 16.0427C21.2456 15.5671 21.7037 15.4951 22.3076 15.8073C24.182 16.7724 26.0898 17.7131 27.9393 18.6252L28.0896 18.6993C28.8376 19.0676 29.3774 18.9859 29.9508 18.4143L30.3032 18.0636C32.6688 15.7097 35.1146 13.2757 37.4899 10.8529C37.7109 10.6287 37.8951 10.2348 37.9624 9.85045C38.0521 9.31881 37.7077 8.74074 37.1407 8.47812Z" fill="white"/>
<path d="M37.1407 8.47812C36.5561 8.2075 35.9635 8.326 35.4766 8.80959C33.167 11.1043 31.2321 13.0371 29.2893 15.0067C28.9273 15.375 28.45 15.6952 27.6652 15.2853C26.0833 14.4602 24.4541 13.6579 22.8744 12.88L22.7576 12.8225L21.9952 12.4462C21.1736 12.041 20.653 12.1035 20.0764 12.6768C17.7203 15.0195 15.0503 17.6745 12.4941 20.2782C12.3205 20.4549 12.1944 20.725 12.0607 21.0114L12.0584 21.0164L11.9863 21.1701L11.9991 21.2406C12.0066 21.2812 12.0127 21.3217 12.0187 21.3623C12.0217 21.3826 12.0248 21.4029 12.028 21.4231L12.0303 21.439C12.0454 21.5403 12.0596 21.6353 12.0824 21.713C12.2362 22.2302 12.603 22.5969 13.0883 22.7218C13.5992 22.8531 14.1294 22.6914 14.5474 22.2799C16.6889 20.1645 18.7855 18.0668 20.778 16.0427C21.2456 15.5671 21.7037 15.4951 22.3076 15.8073C24.182 16.7724 26.0898 17.7131 27.9393 18.6252L28.0896 18.6993C28.8376 19.0676 29.3774 18.9859 29.9508 18.4143L30.3032 18.0636C32.6688 15.7097 35.1146 13.2757 37.4899 10.8529C37.7109 10.6287 37.8951 10.2348 37.9624 9.85045C38.0521 9.31881 37.7077 8.74074 37.1407 8.47812Z" stroke="white"/>
</svg>
