<svg width="20" height="21" viewBox="0 0 20 21" fill="none" xmlns="http://www.w3.org/2000/svg">
<path d="M17.5 9.10417H2.5M13.3333 2.4375V5.77083M6.66667 2.4375V5.77083M7.5 14.1042L9.16667 15.7708L12.9167 12.0208M6.5 19.1042H13.5C14.9001 19.1042 15.6002 19.1042 16.135 18.8317C16.6054 18.592 16.9878 18.2095 17.2275 17.7391C17.5 17.2044 17.5 16.5043 17.5 15.1042V8.10417C17.5 6.70404 17.5 6.00397 17.2275 5.46919C16.9878 4.99879 16.6054 4.61633 16.135 4.37665C15.6002 4.10417 14.9001 4.10417 13.5 4.10417H6.5C5.09987 4.10417 4.3998 4.10417 3.86502 4.37665C3.39462 4.61633 3.01217 4.99879 2.77248 5.46919C2.5 6.00397 2.5 6.70404 2.5 8.10417V15.1042C2.5 16.5043 2.5 17.2044 2.77248 17.7391C3.01217 18.2095 3.39462 18.592 3.86502 18.8317C4.3998 19.1042 5.09987 19.1042 6.5 19.1042Z" stroke="#667085" stroke-width="1.66667" stroke-linecap="round" stroke-linejoin="round"/>
</svg>
