<svg width="18" height="18" viewBox="0 0 18 18" fill="none" xmlns="http://www.w3.org/2000/svg">
<path fill-rule="evenodd" clip-rule="evenodd" d="M17.9906 4.44258C17.9957 4.62402 17.9978 4.80475 17.9993 4.9862C18 5.20077 18 5.41534 18 5.63135V12.3701C18 12.5847 18 12.8 17.9993 13.0145C17.9978 13.196 17.9957 13.3767 17.9906 13.5581C17.9806 13.9527 17.9568 14.3502 17.887 14.7404C17.8157 15.1364 17.6998 15.5051 17.5162 15.8651C17.3369 16.2179 17.1014 16.5412 16.8214 16.8213C16.5406 17.1021 16.2173 17.3369 15.8638 17.5169C15.5045 17.6997 15.1358 17.8164 14.7406 17.8877C14.3503 17.9575 13.9522 17.9813 13.5576 17.9921C13.3769 17.9957 13.1954 17.9986 13.0147 17.9993C12.8596 18 12.7052 18 12.5501 18H12.5489H5.45184H5.45061C5.29551 18 5.14111 18 4.986 17.9993C4.80456 17.9986 4.62384 17.9957 4.4424 17.9921C4.04856 17.9813 3.6504 17.9575 3.26016 17.8877C2.86488 17.8164 2.49552 17.6997 2.13624 17.5169C1.78344 17.3369 1.45944 17.1021 1.17936 16.8213C0.89928 16.5412 0.66384 16.2179 0.48384 15.8651C0.30096 15.5051 0.18432 15.1364 0.11376 14.7404C0.0432 14.3502 0.02016 13.9527 0.01008 13.5581C0.00432 13.3767 0.00216 13.196 0.00144 13.0145C0 12.8 0 12.5847 0 12.3701V5.63135C0 5.41534 0 5.20077 0.00144 4.9862C0.00216 4.80475 0.00432 4.62402 0.01008 4.44258C0.02016 4.048 0.0432 3.65055 0.11376 3.26101C0.18432 2.86427 0.30096 2.49634 0.48384 2.13633C0.66384 1.78207 0.89928 1.4595 1.17936 1.17941C1.45944 0.898596 1.78344 0.663146 2.13624 0.483859C2.49552 0.300972 2.86488 0.185047 3.26016 0.113765C3.6504 0.0432017 4.04856 0.0201608 4.4424 0.00936037C4.62384 0.00432017 4.80456 0.00216009 4.986 0.000720029C5.17176 0 5.3568 0 5.54256 0H12.4582C12.6439 0 12.829 0 13.0147 0.000720029C13.1954 0.00216009 13.3769 0.00432017 13.5576 0.00936037C13.9522 0.0201608 14.3503 0.0432017 14.7406 0.113765C15.1358 0.185047 15.5045 0.300972 15.8638 0.483859C16.2173 0.663146 16.5406 0.898596 16.8214 1.17941C17.1014 1.4595 17.3369 1.78207 17.5162 2.13633C17.6998 2.49634 17.8157 2.86427 17.887 3.26101C17.9568 3.65055 17.9806 4.048 17.9906 4.44258ZM16.9181 13.0081C16.9188 12.7957 16.9188 12.5825 16.9188 12.3701V5.76387L1.07879 5.77035V12.3701V12.4011C1.07879 12.6041 1.07879 12.8057 1.08023 13.0081C1.08095 13.1823 1.08311 13.3551 1.08815 13.5287C1.09607 13.8404 1.11335 14.204 1.17527 14.5489C1.23143 14.8607 1.31711 15.1221 1.44527 15.3748C1.57415 15.6268 1.74047 15.8572 1.94135 16.0574C2.14295 16.259 2.37263 16.4268 2.62535 16.5549C2.87735 16.6824 3.13943 16.7688 3.44975 16.8249C3.79391 16.8862 4.15895 16.9034 4.47143 16.9128C4.64279 16.9164 4.81631 16.9186 4.99055 16.9193C5.14463 16.9207 5.29799 16.9207 5.45063 16.9207H12.5477C12.7003 16.9207 12.853 16.9207 13.0056 16.9193C13.1813 16.9186 13.3548 16.9164 13.529 16.9128C13.8394 16.9034 14.2044 16.8862 14.5486 16.8249C14.8589 16.7688 15.1202 16.6824 15.3737 16.5542C15.6257 16.4268 15.8546 16.259 16.0562 16.0574C16.2578 15.8572 16.4242 15.6268 16.5523 15.3748C16.6812 15.1221 16.7669 14.8607 16.8223 14.5489C16.885 14.2048 16.9015 13.8404 16.9102 13.5294C16.9152 13.3552 16.9166 13.1818 16.9181 13.0084V13.0081ZM6.12 11.8807C6.51816 11.8807 6.84 11.5589 6.84 11.1607C6.84 10.7632 6.51816 10.4407 6.12 10.4407C5.72256 10.4407 5.4 10.7632 5.4 11.1607C5.4 11.5589 5.72256 11.8807 6.12 11.8807ZM9.7208 11.1607C9.7208 11.5589 9.39896 11.8807 9.0008 11.8807C8.60336 11.8807 8.2808 11.5589 8.2808 11.1607C8.2808 10.7632 8.60336 10.4407 9.0008 10.4407C9.39896 10.4407 9.7208 10.7632 9.7208 11.1607ZM14.7624 11.8807C15.1599 11.8807 15.4824 11.5589 15.4824 11.1607C15.4824 10.7632 15.1599 10.4407 14.7624 10.4407C14.365 10.4407 14.0424 10.7632 14.0424 11.1607C14.0424 11.5589 14.365 11.8807 14.7624 11.8807ZM3.9592 11.1607C3.9592 11.5589 3.63736 11.8807 3.2392 11.8807C2.84176 11.8807 2.5192 11.5589 2.5192 11.1607C2.5192 10.7632 2.84176 10.4407 3.2392 10.4407C3.63736 10.4407 3.9592 10.7632 3.9592 11.1607ZM11.8816 13.6808C11.4842 13.6808 11.1616 14.0034 11.1616 14.4001C11.1616 14.7983 11.4842 15.1209 11.8816 15.1209C12.2798 15.1209 12.6016 14.7983 12.6016 14.4001C12.6016 14.0034 12.2798 13.6808 11.8816 13.6808ZM6.84 14.4001C6.84 14.7983 6.51816 15.1209 6.12 15.1209C5.72256 15.1209 5.4 14.7983 5.4 14.4001C5.4 14.0034 5.72256 13.6808 6.12 13.6808C6.51816 13.6808 6.84 14.0034 6.84 14.4001ZM9.0008 15.1209C9.39896 15.1209 9.7208 14.7983 9.7208 14.4001C9.7208 14.0034 9.39896 13.6808 9.0008 13.6808C8.60336 13.6808 8.2808 14.0034 8.2808 14.4001C8.2808 14.7983 8.60336 15.1209 9.0008 15.1209ZM15.4824 14.4001C15.4824 14.7983 15.1599 15.1209 14.7624 15.1209C14.365 15.1209 14.0424 14.7983 14.0424 14.4001C14.0424 14.0034 14.365 13.6808 14.7624 13.6808C15.1599 13.6808 15.4824 14.0034 15.4824 14.4001ZM3.2392 15.1209C3.63736 15.1209 3.9592 14.7983 3.9592 14.4001C3.9592 14.0034 3.63736 13.6808 3.2392 13.6808C2.84176 13.6808 2.5192 14.0034 2.5192 14.4001C2.5192 14.7983 2.84176 15.1209 3.2392 15.1209ZM13.3184 11.1605C13.3184 11.9554 12.674 12.6006 11.8784 12.6006C11.0835 12.6006 10.4384 11.9554 10.4384 11.1605C10.4384 10.3656 11.0835 9.72045 11.8784 9.72045C12.674 9.72045 13.3184 10.3656 13.3184 11.1605Z" fill="#008548"/>
</svg>
