<?xml version="1.0" encoding="utf-8"?>
<!-- Generator: Adobe Illustrator 28.1.0, SVG Export Plug-In . SVG Version: 6.00 Build 0)  -->
<svg version="1.1" id="Layer_1" xmlns="http://www.w3.org/2000/svg" xmlns:xlink="http://www.w3.org/1999/xlink" x="0px" y="0px"
	 viewBox="0 0 18 18" style="enable-background:new 0 0 18 18;" xml:space="preserve">
<style type="text/css">
	.st0{fill-rule:evenodd;clip-rule:evenodd;fill:#FFFFFF;}
</style>
<path class="st0" d="M18,4.4c0,0.2,0,0.4,0,0.5c0,0.2,0,0.4,0,0.6v6.7c0,0.2,0,0.4,0,0.6c0,0.2,0,0.4,0,0.5c0,0.4,0,0.8-0.1,1.2
	c-0.1,0.4-0.2,0.8-0.4,1.1c-0.2,0.4-0.4,0.7-0.7,1c-0.3,0.3-0.6,0.5-1,0.7c-0.4,0.2-0.7,0.3-1.1,0.4C14.4,18,14,18,13.6,18
	c-0.2,0-0.4,0-0.5,0c-0.2,0-0.3,0-0.5,0h0H5.5h0c-0.2,0-0.3,0-0.5,0c-0.2,0-0.4,0-0.5,0c-0.4,0-0.8,0-1.2-0.1
	c-0.4-0.1-0.8-0.2-1.1-0.4c-0.4-0.2-0.7-0.4-1-0.7c-0.3-0.3-0.5-0.6-0.7-1c-0.2-0.4-0.3-0.7-0.4-1.1C0,14.4,0,14,0,13.6
	c0-0.2,0-0.4,0-0.5c0-0.2,0-0.4,0-0.6V5.6C0,5.4,0,5.2,0,5c0-0.2,0-0.4,0-0.5C0,4,0,3.7,0.1,3.3c0.1-0.4,0.2-0.8,0.4-1.1
	c0.2-0.4,0.4-0.7,0.7-1c0.3-0.3,0.6-0.5,1-0.7c0.4-0.2,0.7-0.3,1.1-0.4C3.7,0,4,0,4.4,0C4.6,0,4.8,0,5,0c0.2,0,0.4,0,0.6,0h6.9
	c0.2,0,0.4,0,0.6,0c0.2,0,0.4,0,0.5,0c0.4,0,0.8,0,1.2,0.1c0.4,0.1,0.8,0.2,1.1,0.4c0.4,0.2,0.7,0.4,1,0.7c0.3,0.3,0.5,0.6,0.7,1
	c0.2,0.4,0.3,0.7,0.4,1.1C18,3.7,18,4,18,4.4z M16.9,13c0-0.2,0-0.4,0-0.6V5.8l-15.8,0v6.6v0c0,0.2,0,0.4,0,0.6c0,0.2,0,0.3,0,0.5
	c0,0.3,0,0.7,0.1,1c0.1,0.3,0.1,0.6,0.3,0.8c0.1,0.3,0.3,0.5,0.5,0.7c0.2,0.2,0.4,0.4,0.7,0.5c0.3,0.1,0.5,0.2,0.8,0.3
	c0.3,0.1,0.7,0.1,1,0.1c0.2,0,0.3,0,0.5,0c0.2,0,0.3,0,0.5,0h7.1c0.2,0,0.3,0,0.5,0c0.2,0,0.3,0,0.5,0c0.3,0,0.7,0,1-0.1
	c0.3-0.1,0.6-0.1,0.8-0.3c0.3-0.1,0.5-0.3,0.7-0.5c0.2-0.2,0.4-0.4,0.5-0.7c0.1-0.3,0.2-0.5,0.3-0.8c0.1-0.3,0.1-0.7,0.1-1
	C16.9,13.4,16.9,13.2,16.9,13L16.9,13z M6.1,11.9c0.4,0,0.7-0.3,0.7-0.7c0-0.4-0.3-0.7-0.7-0.7c-0.4,0-0.7,0.3-0.7,0.7
	C5.4,11.6,5.7,11.9,6.1,11.9z M9.7,11.2c0,0.4-0.3,0.7-0.7,0.7c-0.4,0-0.7-0.3-0.7-0.7c0-0.4,0.3-0.7,0.7-0.7
	C9.4,10.4,9.7,10.8,9.7,11.2z M14.8,11.9c0.4,0,0.7-0.3,0.7-0.7c0-0.4-0.3-0.7-0.7-0.7c-0.4,0-0.7,0.3-0.7,0.7
	C14,11.6,14.4,11.9,14.8,11.9z M4,11.2c0,0.4-0.3,0.7-0.7,0.7c-0.4,0-0.7-0.3-0.7-0.7c0-0.4,0.3-0.7,0.7-0.7C3.6,10.4,4,10.8,4,11.2
	z M11.9,13.7c-0.4,0-0.7,0.3-0.7,0.7c0,0.4,0.3,0.7,0.7,0.7c0.4,0,0.7-0.3,0.7-0.7C12.6,14,12.3,13.7,11.9,13.7z M6.8,14.4
	c0,0.4-0.3,0.7-0.7,0.7c-0.4,0-0.7-0.3-0.7-0.7c0-0.4,0.3-0.7,0.7-0.7C6.5,13.7,6.8,14,6.8,14.4z M9,15.1c0.4,0,0.7-0.3,0.7-0.7
	c0-0.4-0.3-0.7-0.7-0.7c-0.4,0-0.7,0.3-0.7,0.7C8.3,14.8,8.6,15.1,9,15.1z M15.5,14.4c0,0.4-0.3,0.7-0.7,0.7c-0.4,0-0.7-0.3-0.7-0.7
	c0-0.4,0.3-0.7,0.7-0.7C15.2,13.7,15.5,14,15.5,14.4z M3.2,15.1c0.4,0,0.7-0.3,0.7-0.7c0-0.4-0.3-0.7-0.7-0.7
	c-0.4,0-0.7,0.3-0.7,0.7C2.5,14.8,2.8,15.1,3.2,15.1z M13.3,11.2c0,0.8-0.6,1.4-1.4,1.4c-0.8,0-1.4-0.6-1.4-1.4
	c0-0.8,0.6-1.4,1.4-1.4C12.7,9.7,13.3,10.4,13.3,11.2z"/>
</svg>
