<?xml version="1.0" encoding="utf-8"?>
<!-- Generator: Adobe Illustrator 28.1.0, SVG Export Plug-In . SVG Version: 6.00 Build 0)  -->
<svg version="1.1" id="Layer_1" xmlns="http://www.w3.org/2000/svg" xmlns:xlink="http://www.w3.org/1999/xlink" x="0px" y="0px"
	 viewBox="0 0 512 512" style="enable-background:new 0 0 512 512;" xml:space="preserve">
<style type="text/css">
	.st0{fill-rule:evenodd;clip-rule:evenodd;fill:#22B573;}
</style>
<path class="st0" d="M511.7,126.4c0.1,5.2,0.2,10.3,0.2,15.5c0,6.1,0,12.2,0,18.4v191.7c0,6.1,0,12.2,0,18.3
	c0,5.2-0.1,10.3-0.2,15.5c-0.3,11.2-1,22.5-2.9,33.6c-2,11.3-5.3,21.8-10.5,32c-5.1,10-11.8,19.2-19.8,27.2
	c-8,8-17.2,14.7-27.2,19.8c-10.2,5.2-20.7,8.5-31.9,10.5c-11.1,2-22.4,2.7-33.6,3c-5.1,0.1-10.3,0.2-15.4,0.2c-4.4,0-8.8,0-13.3,0
	H155.1c-4.4,0-8.8,0-13.3,0c-5.2,0-10.3-0.1-15.5-0.2c-11.2-0.3-22.5-1-33.6-3c-11.2-2-21.7-5.3-32-10.5
	c-10-5.1-19.3-11.8-27.2-19.8c-8-8-14.7-17.2-19.8-27.2c-5.2-10.2-8.5-20.7-10.5-32c-2-11.1-2.7-22.4-2.9-33.6
	c-0.2-5.2-0.2-10.3-0.2-15.5c0-6.1,0-12.2,0-18.3V160.2c0-6.1,0-12.2,0-18.4c0-5.2,0.1-10.3,0.2-15.5c0.3-11.2,0.9-22.5,2.9-33.6
	c2-11.3,5.3-21.8,10.5-32c5.1-10.1,11.8-19.3,19.8-27.2c8-8,17.2-14.7,27.2-19.8C71,8.6,81.5,5.3,92.7,3.2c11.1-2,22.4-2.7,33.6-3
	c5.2-0.1,10.3-0.2,15.5-0.2c5.3,0,10.5,0,15.8,0h196.7c5.3,0,10.5,0,15.8,0c5.1,0,10.3,0.1,15.4,0.2c11.2,0.3,22.5,1,33.6,3
	c11.2,2,21.7,5.3,31.9,10.5c10.1,5.1,19.3,11.8,27.2,19.8c8,8,14.7,17.1,19.8,27.2c5.2,10.2,8.5,20.7,10.5,32
	C510.8,103.8,511.4,115.1,511.7,126.4z M481.2,370c0-6,0-12.1,0-18.1V163.9l-450.6,0.2v187.7v0.9c0,5.8,0,11.5,0,17.3
	c0,5,0.1,9.9,0.2,14.8c0.2,8.9,0.7,19.2,2.5,29c1.6,8.9,4,16.3,7.7,23.5c3.7,7.2,8.4,13.7,14.1,19.4c5.7,5.7,12.3,10.5,19.5,14.2
	c7.2,3.6,14.6,6.1,23.4,7.7c9.8,1.7,20.2,2.2,29.1,2.5c4.9,0.1,9.8,0.2,14.8,0.2c4.4,0,8.7,0,13.1,0h201.9c4.3,0,8.7,0,13,0
	c5,0,9.9-0.1,14.9-0.2c8.8-0.3,19.2-0.8,29-2.5c8.8-1.6,16.3-4.1,23.5-7.7c7.2-3.6,13.7-8.4,19.4-14.1c5.7-5.7,10.5-12.2,14.1-19.4
	c3.7-7.2,6.1-14.6,7.7-23.5c1.8-9.8,2.3-20.2,2.5-29C481.2,379.9,481.2,374.9,481.2,370L481.2,370z M174.1,338
	c11.3,0,20.5-9.2,20.5-20.5c0-11.3-9.2-20.5-20.5-20.5c-11.3,0-20.5,9.2-20.5,20.5C153.6,328.8,162.8,338,174.1,338z M276.5,317.5
	c0,11.3-9.2,20.5-20.5,20.5c-11.3,0-20.5-9.2-20.5-20.5c0-11.3,9.2-20.5,20.5-20.5C267.4,297,276.5,306.2,276.5,317.5z M419.9,338
	c11.3,0,20.5-9.2,20.5-20.5c0-11.3-9.2-20.5-20.5-20.5c-11.3,0-20.5,9.2-20.5,20.5C399.4,328.8,408.6,338,419.9,338z M112.6,317.5
	c0,11.3-9.2,20.5-20.5,20.5c-11.3,0-20.5-9.2-20.5-20.5c0-11.3,9.2-20.5,20.5-20.5C103.5,297,112.6,306.2,112.6,317.5z M338,389.2
	c-11.3,0-20.5,9.2-20.5,20.5c0,11.3,9.2,20.5,20.5,20.5c11.3,0,20.5-9.2,20.5-20.5C358.4,398.3,349.3,389.2,338,389.2z M194.6,409.6
	c0,11.3-9.2,20.5-20.5,20.5c-11.3,0-20.5-9.2-20.5-20.5c0-11.3,9.2-20.5,20.5-20.5C185.4,389.2,194.6,398.3,194.6,409.6z M256,430.1
	c11.3,0,20.5-9.2,20.5-20.5c0-11.3-9.2-20.5-20.5-20.5c-11.3,0-20.5,9.2-20.5,20.5C235.6,421,244.7,430.1,256,430.1z M440.4,409.6
	c0,11.3-9.2,20.5-20.5,20.5c-11.3,0-20.5-9.2-20.5-20.5c0-11.3,9.2-20.5,20.5-20.5C431.2,389.2,440.4,398.3,440.4,409.6z
	 M92.1,430.1c11.3,0,20.5-9.2,20.5-20.5c0-11.3-9.2-20.5-20.5-20.5c-11.3,0-20.5,9.2-20.5,20.5C71.7,421,80.8,430.1,92.1,430.1z
	 M378.8,317.5c0,22.6-18.3,41-41,41c-22.6,0-41-18.3-41-41s18.3-41,41-41C360.5,276.5,378.8,294.9,378.8,317.5z"/>
</svg>
