<svg width="24" height="25" viewBox="0 0 24 25" fill="none" xmlns="http://www.w3.org/2000/svg">
<path d="M21 10.7715H3M16 2.77148V6.77148M8 2.77148V6.77148M7.8 22.7715H16.2C17.8802 22.7715 18.7202 22.7715 19.362 22.4445C19.9265 22.1569 20.3854 21.6979 20.673 21.1335C21 20.4917 21 19.6516 21 17.9715V9.57148C21 7.89133 21 7.05125 20.673 6.40951C20.3854 5.84503 19.9265 5.38608 19.362 5.09846C18.7202 4.77148 17.8802 4.77148 16.2 4.77148H7.8C6.11984 4.77148 5.27976 4.77148 4.63803 5.09846C4.07354 5.38608 3.6146 5.84503 3.32698 6.40951C3 7.05125 3 7.89133 3 9.57148V17.9715C3 19.6516 3 20.4917 3.32698 21.1335C3.6146 21.6979 4.07354 22.1569 4.63803 22.4445C5.27976 22.7715 6.11984 22.7715 7.8 22.7715Z" stroke="#008548" stroke-width="2" stroke-linecap="round" stroke-linejoin="round"/>
</svg>
