<?xml version="1.0" encoding="utf-8"?>
<!-- Generator: Adobe Illustrator 28.1.0, SVG Export Plug-In . SVG Version: 6.00 Build 0)  -->
<svg version="1.1" id="Layer_1" xmlns="http://www.w3.org/2000/svg" xmlns:xlink="http://www.w3.org/1999/xlink" x="0px" y="0px"
	 viewBox="0 0 512 512" style="enable-background:new 0 0 512 512;" xml:space="preserve">
<style type="text/css">
	.st0{fill-rule:evenodd;clip-rule:evenodd;fill:#979797;}
</style>
<path class="st0" d="M511.7,126.4c0.1,5.2,0.2,10.3,0.2,15.5c0,6.1,0,12.2,0,18.3v0v191.7v0c0,6.1,0,12.2,0,18.3
	c0,5.2-0.1,10.3-0.2,15.5c-0.3,11.2-1,22.5-3,33.6c-2,11.3-5.3,21.8-10.5,32c-5.1,10-11.8,19.2-19.8,27.2c-8,8-17.2,14.7-27.2,19.8
	c-10.2,5.2-20.7,8.5-31.9,10.5c-11.1,2-22.4,2.7-33.6,3c-5.1,0.1-10.3,0.2-15.4,0.2c-4.4,0-8.8,0-13.2,0h0H155.1h0
	c-4.4,0-8.8,0-13.2,0c-5.2,0-10.3-0.1-15.5-0.2c-11.2-0.3-22.5-1-33.6-3c-11.2-2-21.7-5.3-32-10.5c-10-5.1-19.3-11.8-27.2-19.8
	c-8-8-14.7-17.2-19.8-27.2c-5.2-10.2-8.5-20.7-10.5-32c-2-11.1-2.7-22.4-2.9-33.6c-0.2-5.2-0.2-10.3-0.2-15.5c0-6.1,0-12.2,0-18.3
	V160.2c0-6.1,0-12.2,0-18.4c0-5.2,0.1-10.3,0.2-15.5c0.3-11.2,0.9-22.5,2.9-33.6c2-11.3,5.3-21.8,10.5-32
	c5.1-10.1,11.8-19.3,19.8-27.2c8-8,17.2-14.7,27.2-19.8C71,8.6,81.5,5.3,92.7,3.2c11.1-2,22.4-2.7,33.6-3c5.2-0.1,10.3-0.2,15.5-0.2
	c5.3,0,10.5,0,15.8,0h196.7c5.3,0,10.5,0,15.8,0c5.1,0,10.3,0.1,15.4,0.2c11.2,0.3,22.5,1,33.6,3c11.2,2,21.7,5.3,31.9,10.5
	c10.1,5.1,19.3,11.8,27.2,19.8c8,8,14.7,17.1,19.8,27.2c5.2,10.2,8.5,20.7,10.5,32C510.8,103.8,511.4,115.1,511.7,126.4z M481.3,370
	c0-6,0-12.1,0-18.1V163.9l-450.6,0.2v187.7v0.9c0,5.8,0,11.5,0,17.3c0,5,0.1,9.9,0.2,14.8c0.2,8.9,0.7,19.2,2.5,29
	c1.6,8.9,4,16.3,7.7,23.5c3.7,7.2,8.4,13.7,14.1,19.4c5.7,5.7,12.3,10.5,19.5,14.2c7.2,3.6,14.6,6.1,23.4,7.7
	c9.8,1.7,20.2,2.2,29.1,2.5c4.9,0.1,9.8,0.2,14.8,0.2c4.4,0,8.7,0,13.1,0H357c4.3,0,8.7,0,13,0c5,0,9.9-0.1,14.9-0.2
	c8.8-0.3,19.2-0.8,29-2.5c8.8-1.6,16.3-4.1,23.5-7.7c7.2-3.6,13.7-8.4,19.4-14.1c5.7-5.7,10.5-12.2,14.1-19.4
	c3.7-7.2,6.1-14.6,7.7-23.5c1.8-9.8,2.3-20.2,2.5-29C481.2,379.9,481.2,374.9,481.3,370z M174.1,337.9c11.3,0,20.5-9.2,20.5-20.5
	c0-11.3-9.2-20.5-20.5-20.5c-11.3,0-20.5,9.2-20.5,20.5C153.6,328.8,162.8,337.9,174.1,337.9z M276.5,317.4
	c0,11.3-9.2,20.5-20.5,20.5c-11.3,0-20.5-9.2-20.5-20.5c0-11.3,9.2-20.5,20.5-20.5C267.3,297,276.5,306.1,276.5,317.4z M419.8,337.9
	c11.3,0,20.5-9.2,20.5-20.5c0-11.3-9.2-20.5-20.5-20.5c-11.3,0-20.5,9.2-20.5,20.5C399.3,328.8,408.5,337.9,419.8,337.9z
	 M112.6,317.4c0,11.3-9.2,20.5-20.5,20.5c-11.3,0-20.5-9.2-20.5-20.5c0-11.3,9.2-20.5,20.5-20.5C103.5,297,112.6,306.1,112.6,317.4z
	 M337.9,389.1c-11.3,0-20.5,9.2-20.5,20.5c0,11.3,9.2,20.5,20.5,20.5c11.3,0,20.5-9.2,20.5-20.5
	C358.4,398.3,349.2,389.1,337.9,389.1z M194.6,409.6c0,11.3-9.2,20.5-20.5,20.5c-11.3,0-20.5-9.2-20.5-20.5
	c0-11.3,9.2-20.5,20.5-20.5C185.4,389.1,194.6,398.3,194.6,409.6z M256,430.1c11.3,0,20.5-9.2,20.5-20.5c0-11.3-9.2-20.5-20.5-20.5
	c-11.3,0-20.5,9.2-20.5,20.5C235.5,420.9,244.7,430.1,256,430.1z M440.3,409.6c0,11.3-9.2,20.5-20.5,20.5
	c-11.3,0-20.5-9.2-20.5-20.5c0-11.3,9.2-20.5,20.5-20.5C431.1,389.1,440.3,398.3,440.3,409.6z M92.1,430.1
	c11.3,0,20.5-9.2,20.5-20.5c0-11.3-9.2-20.5-20.5-20.5c-11.3,0-20.5,9.2-20.5,20.5C71.7,420.9,80.8,430.1,92.1,430.1z M378.9,317.5
	c0,22.6-18.3,41-41,41c-22.6,0-41-18.4-41-41c0-22.6,18.4-41,41-41C360.5,276.5,378.9,294.9,378.9,317.5z"/>
</svg>
