<?xml version="1.0" encoding="utf-8"?>
<!-- Generator: Adobe Illustrator 28.1.0, SVG Export Plug-In . SVG Version: 6.00 Build 0)  -->
<svg version="1.1" id="Layer_1" xmlns="http://www.w3.org/2000/svg" xmlns:xlink="http://www.w3.org/1999/xlink" x="0px" y="0px"
	 viewBox="0 0 512 512" style="enable-background:new 0 0 512 512;" xml:space="preserve">
<style type="text/css">
	.st0{fill-rule:evenodd;clip-rule:evenodd;fill:none;}
	.st1{fill-rule:evenodd;clip-rule:evenodd;}
</style>
<g>
	<rect class="st0" width="512" height="512"/>
	<path class="st1" d="M115.7,126.7c0-7.7,6.2-13.9,13.9-13.9h22.5c16.2,0,29.8,10.2,35.3,24.2h158.5c29.6,0,52.4,24.3,50.2,53.8
		c0,0,0,0,0,0l-7,97l0,0.1c-2,25.7-24.3,46.6-50.2,46.6H201.3c0,0,0,0,0,0c-6.9,0-13.8-1.4-20.2-4.2c-6.4-2.8-12.1-6.9-16.8-12
		s-8.3-11.1-10.5-17.7c-2.2-6.6-3.1-13.5-2.5-20.4L162,151.4c0.5-5.7-4.1-10.8-9.9-10.8h-22.5C121.9,140.7,115.7,134.4,115.7,126.7z
		 M188.9,164.8l-9.8,117.7c-0.3,3.1,0.1,6.2,1.1,9.1c1,2.9,2.6,5.6,4.7,7.8c2.1,2.3,4.6,4.1,7.4,5.3c2.8,1.2,5.9,1.9,8.9,1.9h137.7
		c11.3,0,21.5-9.6,22.4-20.8c0,0,0,0,0,0l4.9-67.5H220.1c-7.7,0-13.9-6.2-13.9-13.9c0-7.7,6.2-13.9,13.9-13.9h148.1l0.1-1.5
		c1-13.3-8.9-24-22.4-24H188.9z M189.2,347.8c5.6-5.6,13.3-8.8,21.3-8.8c8,0,15.6,3.2,21.3,8.8c5.6,5.6,8.8,13.3,8.8,21.3
		c0,8-3.2,15.6-8.8,21.3c-5.6,5.6-13.3,8.8-21.3,8.8c-8,0-15.6-3.2-21.3-8.8c-5.6-5.6-8.8-13.3-8.8-21.3
		C180.3,361.1,183.5,353.5,189.2,347.8z M210.4,366.9c-0.6,0-1.2,0.2-1.6,0.7s-0.7,1-0.7,1.6c0,0.6,0.2,1.2,0.7,1.6s1,0.7,1.6,0.7
		c0.6,0,1.2-0.2,1.6-0.7c0.4-0.4,0.7-1,0.7-1.6c0-0.6-0.2-1.2-0.7-1.6C211.6,367.1,211,366.9,210.4,366.9z M292.6,347.8
		c5.6-5.6,13.3-8.8,21.3-8.8c8,0,15.6,3.2,21.3,8.8c5.6,5.6,8.8,13.3,8.8,21.3c0,8-3.2,15.6-8.8,21.3c-5.6,5.6-13.3,8.8-21.3,8.8
		c-8,0-15.6-3.2-21.3-8.8c-5.6-5.6-8.8-13.3-8.8-21.3C283.8,361.1,286.9,353.5,292.6,347.8z M313.9,366.9c-0.6,0-1.2,0.2-1.6,0.7
		c-0.4,0.4-0.7,1-0.7,1.6c0,0.6,0.2,1.2,0.7,1.6c0.4,0.4,1,0.7,1.6,0.7c0.6,0,1.2-0.2,1.6-0.7c0.4-0.4,0.7-1,0.7-1.6
		c0-0.6-0.2-1.2-0.7-1.6C315,367.1,314.4,366.9,313.9,366.9z"/>
</g>
</svg>
