<svg width="20" height="20" viewBox="0 0 20 20" fill="none" xmlns="http://www.w3.org/2000/svg">
<path d="M16.2576 19.9997C17.1701 19.9997 17.9098 19.26 17.9098 18.3475C17.9098 17.435 17.1701 16.6953 16.2576 16.6953C15.3452 16.6953 14.6055 17.435 14.6055 18.3475C14.6055 19.26 15.3452 19.9997 16.2576 19.9997Z" fill="#008548"/>
<path d="M5.82405 19.9997C6.73652 19.9997 7.47622 19.26 7.47622 18.3475C7.47622 17.435 6.73652 16.6953 5.82405 16.6953C4.91158 16.6953 4.17188 17.435 4.17188 18.3475C4.17188 19.26 4.91158 19.9997 5.82405 19.9997Z" fill="#008548"/>
<path d="M19.3898 2.08611C19.2159 1.99915 19.1289 1.91219 19.1289 1.73828C19.1289 1.91219 19.3028 2.08611 19.3898 2.08611Z" fill="#008548"/>
<path d="M19.9106 2.95652C19.9106 2.95652 19.9106 2.86957 19.9975 2.78261V2.69565C19.9975 2.6087 19.9106 2.6087 19.9106 2.52174C19.9106 2.43478 19.8236 2.43478 19.8236 2.34783C19.7367 2.26087 19.7367 2.26087 19.7367 2.17391C19.7367 2.17391 19.6497 2.17391 19.6497 2.08696C19.5628 2.08696 19.4759 2.08696 19.4759 2H3.99951C3.82561 2 3.65172 1.91304 3.56478 1.73913L2.69532 0H0V1.21739H1.65197C1.82586 1.21739 1.99975 1.30435 2.0867 1.47826L5.82537 9.3913C5.91231 9.47826 5.91231 9.65217 5.82537 9.82609L4.43423 12.4348C4.1734 12.9565 4.1734 13.5652 4.43423 14.087C4.69507 14.6087 5.21675 14.8696 5.82537 14.8696H17.9108V13.6522H5.82537C5.65147 13.6522 5.56453 13.5652 5.47758 13.4783C5.39064 13.3043 5.39064 13.2174 5.47758 13.0435L6.69482 10.9565C6.78177 10.7826 6.95566 10.6957 7.04261 10.6957H14.5199C14.6069 10.6957 14.6938 10.6087 14.6938 10.6087C15.3025 10.6087 15.8241 10.2609 16.085 9.82609L19.9106 2.95652ZM17.9978 3.91304L15.1286 9.13043C15.0416 9.30435 14.8677 9.3913 14.7808 9.3913H7.39039C7.2165 9.3913 7.04261 9.30435 6.95566 9.13043L4.43423 3.91304C4.43423 3.82609 4.43423 3.65217 4.52118 3.47826C4.60813 3.3913 4.78202 3.30435 4.86896 3.30435H17.563C17.7369 3.30435 17.8239 3.3913 17.9108 3.47826C18.0847 3.65217 18.0847 3.82609 17.9978 3.91304Z" fill="#008548"/>
</svg>
