<svg width="24" height="25" viewBox="0 0 24 25" fill="none" xmlns="http://www.w3.org/2000/svg">
<path d="M6.5 20.7715H5C3.89543 20.7715 3 19.8761 3 18.7715V4.77148C3 3.66691 3.89543 2.77148 5 2.77148H19C20.1046 2.77148 21 3.66691 21 4.77148V18.7715C21 19.8761 20.1046 20.7715 19 20.7715H17.5M12 19.7715C13.6569 19.7715 15 18.4283 15 16.7715C15 15.1146 13.6569 13.7715 12 13.7715C10.3431 13.7715 9 15.1146 9 16.7715C9 18.4283 10.3431 19.7715 12 19.7715ZM12 19.7715L12.0214 19.7713L8.82867 22.964L6.00024 20.1356L9.01965 17.1162M12 19.7715L15.1928 22.964L18.0212 20.1356L15.0018 17.1162M9 6.77148H15M7 10.2715H17" stroke="#008548" stroke-width="2" stroke-linecap="round" stroke-linejoin="round"/>
</svg>
