<svg width="24" height="25" viewBox="0 0 24 25" fill="none" xmlns="http://www.w3.org/2000/svg">
<path d="M11 3.77344H7.8C6.11984 3.77344 5.27976 3.77344 4.63803 4.10042C4.07354 4.38804 3.6146 4.84698 3.32698 5.41147C3 6.0532 3 6.89328 3 8.57344V16.9734C3 18.6536 3 19.4937 3.32698 20.1354C3.6146 20.6999 4.07354 21.1588 4.63803 21.4465C5.27976 21.7734 6.11984 21.7734 7.8 21.7734H16.2C17.8802 21.7734 18.7202 21.7734 19.362 21.4465C19.9265 21.1588 20.3854 20.6999 20.673 20.1354C21 19.4937 21 18.6536 21 16.9734V13.7734M12 8.77344H16V12.7734M15.5 4.27344V2.77344M19.4393 5.3341L20.5 4.27344M20.5103 9.27344H22.0103M3 14.1205C3.65194 14.2212 4.31987 14.2734 5 14.2734C9.38636 14.2734 13.2653 12.101 15.6197 8.77344" stroke="#008548" stroke-width="2" stroke-linecap="round" stroke-linejoin="round"/>
</svg>
