<?xml version="1.0" encoding="utf-8"?>
<!-- Generator: Adobe Illustrator 28.1.0, SVG Export Plug-In . SVG Version: 6.00 Build 0)  -->
<svg version="1.1" id="Layer_1" xmlns="http://www.w3.org/2000/svg" xmlns:xlink="http://www.w3.org/1999/xlink" x="0px" y="0px"
	 viewBox="0 0 20 20" style="enable-background:new 0 0 20 20;" xml:space="preserve">
<style type="text/css">
	.st0{fill:#008548;}
</style>
<path class="st0" d="M17.1,3.3c0.5-0.5,1.2-0.5,1.7,0c0,0,0,0,0,0c0.5,0.5,0.5,1.3,0,1.8L9,16.7c-0.5,0.5-1.2,0.5-1.7,0.1
	c0,0,0,0,0,0l-6-6.1c-0.5-0.5-0.5-1.3,0-1.8c0.5-0.5,1.2-0.5,1.7,0c0,0,0,0,0,0L8,14L17.1,3.3C17,3.3,17,3.3,17.1,3.3"/>
</svg>
