<?xml version="1.0" encoding="utf-8"?>
<!-- Generator: Adobe Illustrator 28.1.0, SVG Export Plug-In . SVG Version: 6.00 Build 0)  -->
<svg version="1.1" id="Layer_1" xmlns="http://www.w3.org/2000/svg" xmlns:xlink="http://www.w3.org/1999/xlink" x="0px" y="0px"
	 viewBox="0 0 512 512" style="enable-background:new 0 0 512 512;" xml:space="preserve">
<style type="text/css">
	.st0{fill:none;}
	.st1{fill:#1C1B1F;}
</style>
<g>
	<rect y="0" class="st0" width="512" height="512"/>
	<path class="st1" d="M169.4,327.8c12-9.2,25.3-16.4,40.1-21.7c14.8-5.3,30.3-7.9,46.5-7.9s31.7,2.6,46.5,7.9
		c14.8,5.3,28.2,12.5,40.1,21.7c8.2-9.6,14.6-20.5,19.2-32.7c4.6-12.2,6.9-25.2,6.9-39.1c0-31.2-11-57.8-32.9-79.7
		c-21.9-21.9-48.5-32.9-79.7-32.9c-31.2,0-57.8,11-79.7,32.9c-21.9,21.9-32.9,48.5-32.9,79.7c0,13.8,2.3,26.9,6.9,39.1
		C154.8,307.3,161.2,318.2,169.4,327.8z M256,270.1c-13.8,0-25.5-4.7-35-14.2c-9.5-9.5-14.2-21.2-14.2-35c0-13.8,4.7-25.5,14.2-35
		c9.5-9.5,21.2-14.2,35-14.2c13.8,0,25.5,4.7,35,14.2c9.5,9.5,14.2,21.2,14.2,35c0,13.8-4.7,25.5-14.2,35
		C281.5,265.3,269.8,270.1,256,270.1z M256,396.8c-19.5,0-37.8-3.7-54.9-11.1c-17.1-7.4-32-17.4-44.7-30.1s-22.7-27.6-30.1-44.7
		c-7.4-17.1-11.1-35.4-11.1-54.9c0-19.5,3.7-37.8,11.1-54.9c7.4-17.1,17.4-32,30.1-44.7s27.6-22.7,44.7-30.1
		c17.1-7.4,35.4-11.1,54.9-11.1c19.5,0,37.8,3.7,54.9,11.1c17.1,7.4,32,17.4,44.7,30.1s22.7,27.6,30.1,44.7
		c7.4,17.1,11.1,35.4,11.1,54.9c0,19.5-3.7,37.8-11.1,54.9c-7.4,17.1-17.4,32-30.1,44.7s-27.6,22.7-44.7,30.1
		C293.8,393.1,275.5,396.8,256,396.8z M256,368.6c12.4,0,24.2-1.8,35.2-5.4c11-3.6,21.1-8.9,30.3-15.7c-9.2-6.8-19.2-12-30.3-15.7
		c-11-3.6-22.8-5.4-35.2-5.4c-12.4,0-24.2,1.8-35.2,5.4c-11,3.6-21.1,8.9-30.3,15.7c9.2,6.8,19.2,12,30.3,15.7
		C231.8,366.8,243.6,368.6,256,368.6z M256,241.9c6.1,0,11.1-2,15.1-6c4-4,6-9,6-15.1s-2-11.1-6-15.1c-4-4-9-6-15.1-6
		c-6.1,0-11.1,2-15.1,6c-4,4-6,9-6,15.1s2,11.1,6,15.1C244.9,239.9,249.9,241.9,256,241.9z"/>
</g>
</svg>
