<?xml version="1.0" encoding="utf-8"?>
<!-- Generator: Adobe Illustrator 28.1.0, SVG Export Plug-In . SVG Version: 6.00 Build 0)  -->
<svg version="1.1" id="Layer_1" xmlns="http://www.w3.org/2000/svg" xmlns:xlink="http://www.w3.org/1999/xlink" x="0px" y="0px"
	 viewBox="0 0 512 512" style="enable-background:new 0 0 512 512;" xml:space="preserve">
<style type="text/css">
	.st0{fill:none;}
</style>
<g>
	<rect class="st0" width="512" height="512"/>
	<path d="M256.1,341.8h24.6v-17.6c11.7-2.1,21.8-6.7,30.3-13.7c8.4-7,12.7-17.5,12.7-31.3c0-9.9-2.8-18.9-8.4-27.1
		c-5.6-8.2-16.9-15.4-33.8-21.5c-14.1-4.7-23.8-8.8-29.2-12.3c-5.4-3.5-8.1-8.3-8.1-14.4s2.2-10.9,6.5-14.4
		c4.3-3.5,10.6-5.3,18.8-5.3c7.5,0,13.4,1.8,17.6,5.5c4.2,3.6,7.3,8.1,9.2,13.5l22.5-9.2c-2.6-8.2-7.3-15.4-14.2-21.5
		c-6.9-6.1-14.6-9.5-23.1-10.2v-17.6h-24.6v17.6c-11.7,2.6-20.9,7.7-27.5,15.5c-6.6,7.7-9.9,16.4-9.9,26c0,11,3.2,19.9,9.7,26.8
		c6.4,6.8,16.6,12.7,30.4,17.6c14.8,5.4,25.1,10.2,30.8,14.4c5.7,4.2,8.6,9.7,8.6,16.5c0,7.7-2.8,13.4-8.3,17.1
		c-5.5,3.6-12.1,5.5-19.9,5.5c-7.7,0-14.6-2.4-20.6-7.2c-6-4.8-10.4-12-13.2-21.6l-23.2,9.2c3.3,11.3,8.4,20.4,15.3,27.3
		c6.9,6.9,15.9,11.7,26.9,14.2V341.8z M268.8,384c-19.5,0-37.8-3.7-54.9-11.1c-17.1-7.4-32-17.4-44.7-30.1
		c-12.7-12.7-22.7-27.6-30.1-44.7c-7.4-17.1-11.1-35.4-11.1-54.9c0-19.5,3.7-37.8,11.1-54.9c7.4-17.1,17.4-32,30.1-44.7
		c12.7-12.7,27.6-22.7,44.7-30.1c17.1-7.4,35.4-11.1,54.9-11.1c19.5,0,37.8,3.7,54.9,11.1c17.1,7.4,32,17.4,44.7,30.1
		c12.7,12.7,22.7,27.6,30.1,44.7c7.4,17.1,11.1,35.4,11.1,54.9c0,19.5-3.7,37.8-11.1,54.9c-7.4,17.1-17.4,32-30.1,44.7
		s-27.6,22.7-44.7,30.1C306.6,380.3,288.3,384,268.8,384z M268.8,355.8c31.4,0,58.1-10.9,79.9-32.7c21.8-21.8,32.7-48.5,32.7-79.9
		c0-31.4-10.9-58.1-32.7-79.9c-21.8-21.8-48.5-32.7-79.9-32.7c-31.4,0-58.1,10.9-79.9,32.7s-32.7,48.5-32.7,79.9
		c0,31.4,10.9,58.1,32.7,79.9C210.7,344.9,237.4,355.8,268.8,355.8z"/>
</g>
</svg>
