<?xml version="1.0" encoding="utf-8"?>
<!-- Generator: Adobe Illustrator 28.1.0, SVG Export Plug-In . SVG Version: 6.00 Build 0)  -->
<svg version="1.1" id="Layer_1" xmlns="http://www.w3.org/2000/svg" xmlns:xlink="http://www.w3.org/1999/xlink" x="0px" y="0px"
	 viewBox="0 0 512 512" style="enable-background:new 0 0 512 512;" xml:space="preserve">
<style type="text/css">
	.st0{fill:#22B573;}
</style>
<g>
	<path class="st0" d="M441.2,52c-9.1-9.1-21.6-14.3-34.4-14.3h-46.9C354.8,16.1,335.6,0,312.5,0H199.5c-23.1,0-42.3,16.1-47.3,37.7
		h-46.9c-13,0-25.2,5.1-34.4,14.3c-9.2,9.2-14.2,21.4-14.2,34.4v376.9c0,12.8,5.2,25.4,14.3,34.4c9.2,9.2,21.4,14.3,34.4,14.3h301.5
		c12.8,0,25.4-5.2,34.4-14.3s14.3-21.6,14.3-34.4V86.4C455.5,73.4,450.4,61.2,441.2,52z M199.5,22h113.1c14.7,0,26.7,12,26.7,26.7
		v18.8c0,14.7-12,26.7-26.7,26.7H199.5c-14.7,0-26.7-12-26.7-26.7V48.8c0,0,0,0,0-0.1c0,0,0,0,0,0C172.8,34,184.7,22,199.5,22z
		 M433.5,463.3c0,7-2.9,13.9-7.8,18.9c-5,5-11.9,7.8-18.9,7.8H105.2c-7.1,0-13.8-2.8-18.9-7.8c-5-5-7.8-11.9-7.8-18.9V86.4
		c0-7.1,2.8-13.8,7.8-18.9c5-5,11.8-7.8,18.9-7.8h45.5v7.8c0,26.9,21.8,48.7,48.7,48.7h113.1c26.8,0,48.7-21.8,48.7-48.7v-7.8h45.6
		c7,0,13.9,2.8,18.9,7.8c5,5,7.8,11.8,7.8,18.9V463.3z"/>
	<path class="st0" d="M350.2,188.4H161.8c-6.1,0-11,4.9-11,11c0,6.1,4.9,11,11,11h188.5c6.1,0,11-4.9,11-11
		C361.2,193.4,356.3,188.4,350.2,188.4z"/>
	<path class="st0" d="M350.2,282.7H161.8c-6.1,0-11,4.9-11,11c0,6.1,4.9,11,11,11h188.5c6.1,0,11-4.9,11-11
		C361.2,287.6,356.3,282.7,350.2,282.7z"/>
	<path class="st0" d="M350.2,377H161.8c-6.1,0-11,4.9-11,11c0,6.1,4.9,11,11,11h188.5c6.1,0,11-4.9,11-11
		C361.2,381.9,356.3,377,350.2,377z"/>
</g>
</svg>
