<svg width="24" height="25" viewBox="0 0 24 25" fill="none" xmlns="http://www.w3.org/2000/svg">
<path d="M16 4.77148C16.93 4.77148 17.395 4.77148 17.7765 4.87371C18.8117 5.15111 19.6204 5.95975 19.8978 6.99503C20 7.37653 20 7.84151 20 8.77148V17.9715C20 19.6516 20 20.4917 19.673 21.1335C19.3854 21.6979 18.9265 22.1569 18.362 22.4445C17.7202 22.7715 16.8802 22.7715 15.2 22.7715H8.8C7.11984 22.7715 6.27976 22.7715 5.63803 22.4445C5.07354 22.1569 4.6146 21.6979 4.32698 21.1335C4 20.4917 4 19.6516 4 17.9715V8.77148C4 7.84151 4 7.37653 4.10222 6.99503C4.37962 5.95975 5.18827 5.15111 6.22354 4.87371C6.60504 4.77148 7.07003 4.77148 8 4.77148M12 16.2715V11.7715C12 10.9431 12.6716 10.2715 13.5 10.2715C14.3284 10.2715 15 10.9431 15 11.7715V16.2715C15 17.9283 13.6569 19.2715 12 19.2715C10.3431 19.2715 9 17.9283 9 16.2715V12.2715M9.6 6.77148H14.4C14.9601 6.77148 15.2401 6.77148 15.454 6.66249C15.6422 6.56662 15.7951 6.41364 15.891 6.22548C16 6.01156 16 5.73154 16 5.17148V4.37148C16 3.81143 16 3.53141 15.891 3.31749C15.7951 3.12933 15.6422 2.97635 15.454 2.88048C15.2401 2.77148 14.9601 2.77148 14.4 2.77148H9.6C9.03995 2.77148 8.75992 2.77148 8.54601 2.88048C8.35785 2.97635 8.20487 3.12933 8.10899 3.31749C8 3.53141 8 3.81143 8 4.37148V5.17148C8 5.73154 8 6.01156 8.10899 6.22548C8.20487 6.41364 8.35785 6.56662 8.54601 6.66249C8.75992 6.77148 9.03995 6.77148 9.6 6.77148Z" stroke="#008548" stroke-width="2" stroke-linecap="round" stroke-linejoin="round"/>
</svg>
