<?xml version="1.0" encoding="utf-8"?>
<!-- Generator: Adobe Illustrator 28.1.0, SVG Export Plug-In . SVG Version: 6.00 Build 0)  -->
<svg version="1.1" id="Layer_1" xmlns="http://www.w3.org/2000/svg" xmlns:xlink="http://www.w3.org/1999/xlink" x="0px" y="0px"
	 viewBox="0 0 512 512" style="enable-background:new 0 0 512 512;" xml:space="preserve">
<style type="text/css">
	.st0{fill:#979797;}
</style>
<g>
	<path class="st0" d="M256,512C114.8,512,0,397.2,0,256C0,114.8,114.8,0,256,0c141.2,0,256,114.8,256,256
		C512,397.2,397.2,512,256,512z M256,22C127,22,22,127,22,256s105,234,234,234s234-105,234-234S385,22,256,22z"/>
	<path class="st0" d="M351.8,378.6c-3.1,0-6.2-1.3-8.4-3.8l-95.7-111.6c-1.7-2-2.7-4.5-2.7-7.2v-94.2c0-6.1,4.9-11,11-11
		c6.1,0,11,4.9,11,11v90.2l93.1,108.5c4,4.6,3.4,11.5-1.2,15.5C356.9,377.7,354.3,378.6,351.8,378.6z"/>
</g>
</svg>
