<svg width="20" height="20" viewBox="0 0 20 20" fill="none" xmlns="http://www.w3.org/2000/svg">
<path d="M16.875 10C16.875 13.7969 13.797 16.875 10 16.875C6.203 16.875 3.125 13.7969 3.125 10C3.125 6.20308 6.203 3.125 10 3.125C13.797 3.125 16.875 6.20308 16.875 10Z" fill="#1C1C1C" fill-opacity="0.1"/>
<path d="M9.375 6.25V10C9.375 10.3452 9.65482 10.625 10 10.625C10.3452 10.625 10.625 10.3452 10.625 10V6.25C10.625 5.90482 10.3452 5.625 10 5.625C9.65482 5.625 9.375 5.90482 9.375 6.25Z" fill="#1C1C1C"/>
<path d="M10.3124 9.45868L13.5623 11.3336C13.7451 11.4391 13.8623 11.6295 13.874 11.8402C13.8747 11.8518 13.875 11.8634 13.875 11.875C13.875 11.9846 13.8462 12.0924 13.7914 12.1873C13.6859 12.3701 13.4955 12.4873 13.2848 12.499C13.2732 12.4997 13.2616 12.5 13.25 12.5C13.1404 12.5 13.0326 12.4712 12.9377 12.4164L9.68776 10.5414C9.54721 10.4603 9.44375 10.3279 9.39913 10.172L9.39635 10.162C9.38218 10.1091 9.375 10.0547 9.375 10C9.375 9.90011 9.39894 9.80167 9.44482 9.71294C9.44923 9.70441 9.45384 9.69599 9.45863 9.68767C9.53967 9.54721 9.67213 9.44375 9.82803 9.39913L9.83804 9.39635C9.89086 9.38218 9.94531 9.375 10 9.375C10.0999 9.375 10.1983 9.39894 10.2871 9.44482C10.2956 9.44923 10.304 9.45384 10.3124 9.45868Z" fill="#1C1C1C"/>
<path d="M3.10937 7.16406V4.66406C3.10937 4.31888 2.82955 4.03906 2.48437 4.03906C2.1392 4.03906 1.85938 4.31888 1.85938 4.66406V7.78906C1.85938 8.13424 2.1392 8.41406 2.48437 8.41406H5.60938C5.95455 8.41406 6.23438 8.13424 6.23438 7.78906C6.23438 7.44388 5.95455 7.16406 5.60938 7.16406H3.10937Z" fill="#1C1C1C"/>
<path d="M4.69933 4.6999L2.04308 7.34834C1.92548 7.4656 1.85938 7.62485 1.85938 7.79093C1.85938 7.80141 1.85964 7.81188 1.86017 7.82235C1.86794 7.97673 1.93264 8.12276 2.04178 8.23222C2.15905 8.34983 2.3183 8.41593 2.48438 8.41593C2.49485 8.41593 2.50533 8.41566 2.51579 8.41514C2.67018 8.40737 2.8162 8.34266 2.92567 8.23352L2.92602 8.23317L5.58192 5.58508C6.92306 4.24284 8.78278 3.87233 8.78278 3.87233C10.6425 3.50182 12.3946 4.22713 12.3946 4.22713C14.1466 4.95244 15.2003 6.52902 15.2003 6.52902C16.254 8.1056 16.254 10.0019 16.254 10.0019C16.254 11.8981 15.2003 13.4747 15.2003 13.4747C14.1466 15.0513 12.3946 15.7766 12.3946 15.7766C10.6425 16.5019 8.78278 16.1314 8.78278 16.1314C6.92306 15.7609 5.58275 14.4195 5.58275 14.4195C5.46552 14.3022 5.30648 14.2362 5.14063 14.2362C5.12993 14.2362 5.11923 14.2365 5.10854 14.2371C4.95417 14.245 4.80821 14.3099 4.69886 14.4191C4.58161 14.5363 4.51569 14.6952 4.51562 14.861L4.51563 14.8612C4.51562 14.8712 4.51586 14.8811 4.51633 14.891C4.52373 15.0462 4.58868 15.1931 4.6985 15.303L4.69868 15.3032C6.30701 16.9127 8.53854 17.3573 8.53854 17.3573C10.7702 17.8019 12.8727 16.9316 12.8727 16.9316C14.9752 16.0612 16.2396 14.1693 16.2396 14.1693C17.504 12.2774 17.504 10.0019 17.504 10.0019C17.504 7.72635 16.2396 5.83445 16.2396 5.83445C14.9752 3.94256 12.8727 3.07218 12.8727 3.07218C10.7702 2.20181 8.53854 2.64642 8.53854 2.64642C6.30688 3.09104 4.69933 4.6999 4.69933 4.6999Z" fill="#1C1C1C"/>
</svg>
