<?xml version="1.0" encoding="utf-8"?>
<!-- Generator: Adobe Illustrator 28.1.0, SVG Export Plug-In . SVG Version: 6.00 Build 0)  -->
<svg version="1.1" id="Layer_1" xmlns="http://www.w3.org/2000/svg" xmlns:xlink="http://www.w3.org/1999/xlink" x="0px" y="0px"
	 viewBox="0 0 512 512" style="enable-background:new 0 0 512 512;" xml:space="preserve">
<g>
	<path d="M256,511.8C114.8,511.8,0,397.2,0,256.3S114.8,0.7,256,0.7c141.2,0,256,114.7,256,255.6S397.1,511.8,256,511.8z M256,23.5
		c-128.6,0-233.2,104.4-233.2,232.8c0,128.4,104.6,232.8,233.2,232.8s233.2-104.4,233.2-232.8C489.2,127.9,384.6,23.5,256,23.5z"/>
	<path d="M353.8,316.5c-1.7,0-3.4-0.4-5.1-1.2l-97.8-48.8c-3.9-1.9-6.3-5.9-6.3-10.2V109.7c0-6.3,5.1-11.4,11.4-11.4
		s11.4,5.1,11.4,11.4v139.5l91.6,45.7c5.6,2.8,7.9,9.6,5.1,15.3C362,314.2,358,316.5,353.8,316.5z"/>
</g>
</svg>
