<?xml version="1.0" encoding="utf-8"?>
<!-- Generator: Adobe Illustrator 28.1.0, SVG Export Plug-In . SVG Version: 6.00 Build 0)  -->
<svg version="1.1" id="Layer_1" xmlns="http://www.w3.org/2000/svg" xmlns:xlink="http://www.w3.org/1999/xlink" x="0px" y="0px"
	 viewBox="0 0 512 512" style="enable-background:new 0 0 512 512;" xml:space="preserve">
<style type="text/css">
	.st0{fill:none;}
</style>
<g>
	<rect class="st0" width="512" height="512"/>
	<path d="M303.2,255.9c0-26-21.2-47.2-47.2-47.2c-26,0-47.2,21.2-47.2,47.2c0,26,21.2,47.2,47.2,47.2
		C282.1,303.1,303.2,282,303.2,255.9z M232.5,255.9c0-13,10.6-23.6,23.5-23.6c13,0,23.6,10.6,23.6,23.6c0,13-10.6,23.6-23.6,23.6
		C243.1,279.5,232.5,269,232.5,255.9z M354.2,296c0.6-1.4,1.6-2.5,2.8-3.3c1.3-0.8,2.7-1.3,4.2-1.3h1c9.5,0,18.4-3.7,25.1-10.4
		c6.7-6.7,10.4-15.6,10.4-25c0-9.3-3.8-18.4-10.4-25.1c-6.7-6.7-15.6-10.4-25.1-10.4h-1.9c-1.5,0-3-0.4-4.2-1.2
		c-0.8-0.6-1.5-1.2-2.1-2.1c-0.2-0.8-0.4-1.6-0.8-2.4c-0.6-1.4-0.8-2.9-0.5-4.4c0.2-1.5,1-2.8,2-3.9l0.7-0.7
		c3.3-3.3,5.9-7.2,7.7-11.5c1.8-4.3,2.7-8.9,2.7-13.6s-0.9-9.2-2.7-13.6c-1.8-4.3-4.4-8.2-7.7-11.5c-3.3-3.3-7.1-5.9-11.5-7.7
		c-8.7-3.6-18.5-3.6-27.1,0c-4.3,1.8-8.2,4.4-11.5,7.7c0,0,0,0-0.1,0l-0.6,0.6c-1.1,1.1-2.5,1.8-4,2c-1.5,0.3-3.1,0.1-4.5-0.6
		c-1.4-0.6-2.6-1.6-3.4-2.8c-0.8-1.3-1.3-2.7-1.3-4.2v-1c0-9.4-3.7-18.4-10.4-25.1c-6.7-6.7-15.6-10.4-25-10.4
		c-9.3,0-18.5,3.8-25.1,10.4c-6.7,6.7-10.4,15.6-10.4,25.1v2c0,1.5-0.4,2.9-1.2,4.2c-0.6,0.8-1.3,1.5-2.1,2.1
		c-0.8,0.2-1.6,0.4-2.4,0.8c-1.4,0.6-2.9,0.8-4.4,0.5c-1.5-0.3-2.9-1-3.9-2l-0.7-0.7c0,0,0,0,0,0c-3.3-3.3-7.2-5.9-11.5-7.7
		c-8.6-3.6-18.5-3.6-27.1,0c-4.3,1.8-8.2,4.4-11.5,7.7c-3.3,3.3-5.9,7.2-7.7,11.5c-1.8,4.3-2.7,8.9-2.7,13.6s0.9,9.2,2.7,13.6
		c1.8,4.3,4.4,8.2,7.7,11.5l0.6,0.6c1.1,1.1,1.8,2.5,2,4c0.3,1.5,0.1,3-0.5,4.5c0,0.1-0.3,0.6-0.3,0.7c-0.5,1.4-1.5,2.7-2.7,3.6
		c-1.2,0.9-2.7,1.4-4.1,1.4h-0.9c-9.5,0-18.4,3.7-25.1,10.4c-6.6,6.6-10.4,15.7-10.4,25.1c0,9.3,3.8,18.4,10.4,25
		c6.7,6.7,15.6,10.4,25.1,10.4h1.9c1.5,0,3,0.5,4.2,1.3c1.2,0.9,2.2,2,2.9,3.5c0.6,1.4,0.8,2.9,0.5,4.4c-0.3,1.5-1,2.9-2,3.9
		l-0.7,0.6c0,0,0,0-0.1,0c-3.3,3.3-5.9,7.2-7.7,11.5c-1.8,4.3-2.7,8.9-2.7,13.6c0,4.7,0.9,9.2,2.7,13.5c1.8,4.4,4.4,8.2,7.7,11.5
		c3.3,3.3,7.2,5.9,11.5,7.7c8.6,3.5,18.5,3.5,27.1,0c4.3-1.8,8.2-4.4,11.5-7.7l0.6-0.6c1.1-1.1,2.5-1.8,4-2c1.5-0.3,3-0.1,4.4,0.5
		c0,0,0.6,0.2,0.6,0.2c1.5,0.5,2.7,1.5,3.6,2.8c0.9,1.2,1.4,2.6,1.4,4.1v0.9c0,9.5,3.7,18.4,10.4,25.1c6.6,6.6,15.7,10.4,25.1,10.4
		c9.3,0,18.4-3.8,25-10.4c6.7-6.7,10.4-15.6,10.4-25.1v-1.9c0-1.5,0.5-3,1.3-4.2c0.8-1.2,2-2.2,3.5-2.9c1.4-0.6,2.9-0.9,4.4-0.5
		c1.5,0.2,2.9,1,3.9,2l0.7,0.7c3.3,3.3,7.2,5.9,11.5,7.7c8.6,3.5,18.5,3.5,27.1,0c4.1-1.7,7.9-4.1,11.1-7.3c0.4-0.2,0.8-0.6,1-1
		c3-3.2,5.4-6.9,7.1-10.9c1.8-4.3,2.7-8.9,2.7-13.6s-0.9-9.2-2.7-13.5c-1.8-4.4-4.4-8.2-7.7-11.5l-0.6-0.6c-1-1.1-1.8-2.5-2-4
		c-0.3-1.5-0.1-3,0.5-4.5C354.1,296.1,354.2,296,354.2,296z M239.4,343.4c-3.6-5-8.6-8.9-14.2-11c-3.9-1.7-8.1-2.6-12.4-2.6
		c-1.9,0-3.7,0.2-5.6,0.5c-6.2,1.1-11.8,4-16.3,8.5l-0.7,0.8c-1.1,1.1-2.4,2-3.8,2.6c-2.8,1.2-6.1,1.2-9,0c-1.5-0.6-2.8-1.5-3.8-2.6
		c-1.1-1.1-1.9-2.4-2.6-3.8c-0.6-1.4-0.9-2.9-0.9-4.5c0-1.6,0.3-3.1,0.9-4.5c0.6-1.4,1.5-2.7,2.6-3.8l0.8-0.8
		c4.4-4.5,7.3-10.1,8.4-16.3c1.1-6.2,0.4-12.4-2.1-18.1c-2.4-5.6-6.4-10.4-11.5-13.7c-5.1-3.4-11-5.2-17.2-5.2h-2
		c-3.1,0-6.1-1.2-8.3-3.4c-2.2-2.2-3.4-5.2-3.4-8.3c0-3.2,1.2-6.1,3.4-8.3c2.2-2.2,5.2-3.4,8.3-3.4h1.4c6.3-0.1,12.3-2.2,17.5-5.8
		c5-3.6,8.8-8.6,11-14.2c2.4-5.7,3.1-11.9,2-17.9c-1.1-6.2-4-11.8-8.4-16.3l-0.8-0.8c-1.1-1.1-2-2.4-2.6-3.8c-0.6-1.4-0.9-3-0.9-4.5
		c0-1.6,0.3-3.1,0.9-4.5c0.6-1.4,1.5-2.8,2.6-3.8c1.1-1.1,2.4-1.9,3.8-2.6c2.8-1.2,6.2-1.1,9,0c1.5,0.6,2.8,1.5,3.8,2.6l0.8,0.8
		c4.5,4.4,10.1,7.3,16.3,8.4c5.3,0.9,10.8,0.5,15.9-1.3c1.1-0.1,2.1-0.4,3.1-0.9c5.6-2.4,10.4-6.4,13.8-11.5
		c3.4-5.1,5.2-11,5.2-17.2v-2c0-3.1,1.2-6.1,3.4-8.3c4.4-4.4,12.2-4.4,16.6,0c2.2,2.2,3.4,5.2,3.4,8.3v1.1c0,6.1,1.8,12.1,5.2,17.2
		c3.4,5.1,8.1,9,13.7,11.4c5.7,2.5,12,3.3,18.2,2.1c6.2-1.1,11.8-4,16.3-8.4l0.8-0.8c1.1-1.1,2.4-2,3.8-2.6c2.9-1.2,6.2-1.2,9,0
		c1.5,0.6,2.8,1.5,3.9,2.6c1.1,1.1,1.9,2.4,2.5,3.8c0.6,1.4,0.9,2.9,0.9,4.5c0,1.6-0.3,3.1-0.9,4.5c-0.6,1.5-1.5,2.8-2.5,3.8
		l-0.8,0.8c-4.4,4.5-7.3,10.1-8.4,16.3c-1,5.4-0.5,11,1.2,15.6c0.1,1.2,0.4,2.4,0.9,3.4c2.4,5.6,6.4,10.4,11.5,13.8
		c5.1,3.4,11,5.2,17.2,5.2h2c3.1,0,6.1,1.2,8.3,3.4c2.2,2.2,3.4,5.2,3.4,8.3c0,3.1-1.2,6.1-3.4,8.3c-2.2,2.2-5.2,3.4-8.4,3.4H361
		c-6.1,0-12,1.8-17.1,5.2c-5.1,3.4-9.1,8.1-11.5,13.7c-2.5,5.7-3.3,12-2.2,18.2c1.1,6.1,4,11.8,8.5,16.4l0.8,0.7
		c1.1,1.1,1.9,2.4,2.6,3.9c0.6,1.4,0.9,3,0.9,4.5s-0.3,3.1-0.9,4.5c-0.6,1.5-1.5,2.8-2.6,3.9c-1.1,1.1-2.4,1.9-3.9,2.5
		c-2.8,1.1-6.1,1.2-9,0c-1.4-0.6-2.7-1.5-3.8-2.5l-0.8-0.9c-4.5-4.4-10.2-7.3-16.3-8.4c-6.2-1.1-12.5-0.4-18.1,2.1
		c-5.6,2.4-10.4,6.4-13.7,11.5c-3.4,5.1-5.2,11-5.2,17.2v2c0,3.1-1.2,6.1-3.4,8.3c-4.4,4.4-12.2,4.4-16.6,0
		c-2.2-2.2-3.4-5.2-3.4-8.3v-1.3C245,354.5,243,348.5,239.4,343.4z"/>
</g>
</svg>
