<?xml version="1.0" encoding="utf-8"?>
<!-- Generator: Adobe Illustrator 28.1.0, SVG Export Plug-In . SVG Version: 6.00 Build 0)  -->
<svg version="1.1" id="Layer_1" xmlns="http://www.w3.org/2000/svg" xmlns:xlink="http://www.w3.org/1999/xlink" x="0px" y="0px"
	 viewBox="0 0 512 512" style="enable-background:new 0 0 512 512;" xml:space="preserve">
<style type="text/css">
	.st0{fill:none;}
	.st1{fill:#344054;}
</style>
<g>
	<rect class="st0" width="512" height="512"/>
	<path class="st1" d="M256,344c-48.5,0-88-39.5-88-88c0-48.5,39.5-88,88-88c48.5,0,88,39.5,88,88C344,304.6,304.5,344,256,344z
		 M256,216c-22.1,0-40,17.9-40,40s17.9,40,40,40s40-18,40-40S278,216,256,216z M257.5,493.3c-16.8,0-32.6-6.5-44.4-18.4
		c-11.7-11.7-18.4-27.9-18.4-44.4c0-2.8-0.5-4.3-1.5-5.6c-1-1.3-2.2-2.3-3.8-2.9c-2.8-1.2-4.5-1.3-6.1-1.1c-1.5,0.3-2.9,1-4.1,2.2
		c-6.7,6.8-13.6,11.3-21.3,14.6c-15.6,6.4-32.8,6.4-48.1,0.1c-7.9-3.3-14.7-7.9-20.5-13.7c-5.8-5.8-10.4-12.6-13.5-20.3
		c-3.2-7.6-4.8-15.7-4.8-24s1.6-16.4,4.8-24.1c3.2-7.7,7.8-14.5,13.6-20.4c2-2.1,2.8-3.5,3.1-5.1c0.3-1.6,0.1-3.2-0.5-4.7
		c-0.7-1.7-1.7-2.9-3-3.7c-1.3-0.9-2.8-1.3-4.3-1.3h-3.3c-16.8,0-32.5-6.5-44.4-18.4s-18.4-27.6-18.4-44.4s6.5-32.5,18.4-44.4
		c11.9-11.9,27.7-18.4,44.4-18.4c2.8,0,4.4-0.5,5.7-1.5c1.3-0.9,2.3-2.2,2.8-3.7c1.2-2.9,1.4-4.5,1.1-6.1c-0.3-1.5-1-3-2.1-4.1
		c-6.8-6.8-11.4-13.7-14.6-21.3c-3.2-7.8-4.8-15.8-4.8-24.1s1.6-16.3,4.8-24c3.2-7.8,7.8-14.6,13.7-20.5
		c5.8-5.8,12.7-10.4,20.3-13.6c15.3-6.3,32.8-6.3,48.1,0c7.6,3.2,14.5,7.8,20.4,13.6c2.1,2.1,3.6,2.8,5.1,3.1
		c1.6,0.3,3.2,0.1,4.7-0.5c1.2-0.5,2.5-1,3.7-1.3c0.6-0.5,1.1-1.1,1.5-1.7c0.9-1.3,1.4-2.8,1.4-4.4v-3.2c0-16.8,6.5-32.5,18.4-44.4
		c23.8-23.7,65-23.7,88.8,0c11.9,11.9,18.4,27.7,18.4,44.4c0,3.2,0.5,4.8,1.3,6.1c0.8,1.3,2.1,2.3,3.5,2.9c1.7,0.8,3.4,1,4.9,0.7
		c1.6-0.3,3-1,4.2-2.1c6.8-6.8,13.7-11.4,21.3-14.6c15.5-6.4,32.7-6.4,48,0c7.7,3.2,14.5,7.8,20.4,13.6c5.8,5.9,10.4,12.7,13.6,20.3
		c3.2,7.8,4.8,15.9,4.8,24.1c0,8.2-1.6,16.3-4.8,24c-3.2,7.7-7.8,14.5-13.6,20.4c-2.1,2.1-2.9,3.6-3.2,5.1c-0.3,1.7-0.1,3.2,0.5,4.7
		c0.6,1.2,1,2.5,1.3,3.8c0.5,0.6,1.1,1.1,1.7,1.5c1.3,0.9,2.8,1.3,4.4,1.3h3.2c16.8,0,32.6,6.5,44.4,18.4
		c11.8,11.8,18.4,27.6,18.4,44.4s-6.5,32.5-18.4,44.4c-11.7,11.7-27.9,18.4-44.4,18.4c-3.2,0-4.8,0.5-6,1.3c-1.3,0.9-2.3,2.1-3,3.6
		c0,0,0,0.1,0,0.1c-0.7,1.6-0.9,3.2-0.6,4.8c0.3,1.5,1,2.9,2.2,4.1c6.8,6.7,11.4,13.6,14.6,21.3c3.2,7.8,4.8,15.8,4.8,24.1
		s-1.6,16.3-4.8,24c-3.3,7.8-7.8,14.6-13.7,20.4c-5.9,5.9-12.8,10.5-20.4,13.6c-15.3,6.3-32.6,6.3-48,0c-7.6-3.1-14.5-7.7-20.4-13.6
		c-2.1-2.1-3.5-2.8-5.1-3.1c-1.7-0.3-3.3-0.1-4.8,0.5c-1.6,0.7-2.8,1.8-3.7,3c-0.9,1.3-1.3,2.8-1.3,4.3v3.3
		c0,16.5-6.7,32.7-18.4,44.4C290.1,486.8,274.3,493.3,257.5,493.3z M184.8,372.8c7.8,0,15.4,1.6,22.5,4.7
		c9.3,3.4,18.3,10.3,24.9,19.5c6.6,9.2,10.2,20,10.4,31.2c0,6.2,1.6,10,4.3,12.8c5.5,5.5,15.3,5.5,20.9,0c2.8-2.8,4.3-6.6,4.3-10.5
		v-3.3c0-11,3.2-21.7,9.3-30.8c6-9.1,14.5-16.2,24.5-20.5c10.2-4.5,21.5-5.8,32.5-3.8c10.9,1.9,21,7.1,29.1,15
		c2.8,2.8,4.4,3.9,6.1,4.6c3.8,1.5,7.7,1.5,11.4,0c1.8-0.7,3.4-1.8,4.8-3.2c1.4-1.4,2.5-3,3.3-4.9c0.7-1.7,1.1-3.6,1.1-5.6
		s-0.4-3.9-1.1-5.7c-0.7-1.7-1.8-3.3-3.2-4.7c-9.2-9.4-14.4-19.5-16.5-30.5c-2-11.1-0.7-22.3,3.8-32.6c4.4-10.1,11.5-18.5,20.6-24.5
		c9-6,19.6-9.2,30.6-9.3c5.8,0,9.6-1.6,12.4-4.3c2.8-2.8,4.3-6.5,4.3-10.5c0-4-1.5-7.7-4.3-10.5c-2.8-2.8-6.6-4.3-10.5-4.3h-3.3
		c-11.1-0.1-21.7-3.3-30.8-9.3c-9.2-6.1-16.3-14.6-20.6-24.7c-0.8-1.9-1.3-3.8-1.6-5.8c-3.1-9-3.8-18.7-2.1-28.1
		c1.9-10.9,7.2-21,15-29.1c2.8-2.7,3.8-4.4,4.6-6.2c0.7-1.8,1.1-3.7,1.1-5.6c0-1.9-0.4-3.8-1.2-5.7c-0.8-1.8-1.8-3.4-3.2-4.8
		c-1.3-1.3-3-2.4-4.8-3.2c-3.5-1.4-7.7-1.5-11.4,0c-1.8,0.7-3.3,1.8-4.7,3.2c-9.4,9.2-19.5,14.5-30.5,16.5
		c-11.1,2.1-22.3,0.7-32.6-3.9c-9.8-4.2-18.4-11.3-24.4-20.5c-6-9.1-9.2-19.7-9.3-30.7c0-5.8-1.5-9.5-4.3-12.3
		c-5.6-5.5-15.3-5.6-20.9,0c-2.8,2.8-4.3,6.5-4.3,10.4v3.3c-0.1,11.1-3.3,21.7-9.3,30.8c-6,9.1-14.5,16.2-24.6,20.5
		c-1.9,0.8-3.9,1.4-5.9,1.7c-9,3-18.6,3.8-28.1,2.1c-11-2-21.1-7.2-29.2-15c-2.8-2.8-4.4-3.8-6.2-4.6c-3.6-1.5-7.8-1.5-11.3,0
		c-1.8,0.8-3.4,1.8-4.8,3.2c-1.4,1.4-2.5,3-3.2,4.8c-0.7,1.8-1.1,3.7-1.1,5.7c0,2,0.4,3.9,1.2,5.8c0.7,1.7,1.8,3.3,3.2,4.7
		c9.2,9.4,14.5,19.5,16.5,30.5c2,11.1,0.7,22.4-3.9,32.6c-3.3,9.1-10.2,18.2-19.4,24.8c-9.3,6.6-20.1,10.2-31.3,10.5
		c-6.2,0-9.9,1.5-12.8,4.3c-2.8,2.8-4.3,6.5-4.3,10.5c0,3.9,1.5,7.7,4.3,10.5c2.8,2.8,6.5,4.3,10.4,4.3h3.3c11,0,21.7,3.2,30.9,9.3
		c9,6,16.1,14.5,20.5,24.5c4.5,10.1,5.8,21.3,3.8,32.4c-2,11-7.2,21.1-15,29.2c-2.8,2.8-3.9,4.4-4.6,6.2c-0.8,1.8-1.1,3.7-1.1,5.7
		s0.4,3.9,1.1,5.6c0.8,1.8,1.8,3.4,3.2,4.8c1.4,1.4,3.1,2.5,4.9,3.3c3.4,1.4,7.7,1.4,11.3-0.1c1.7-0.7,3.3-1.8,4.6-3.2
		c9.4-9.2,19.5-14.4,30.5-16.5C178.1,373.1,181.5,372.8,184.8,372.8z M399.5,314.2h0.3H399.5z"/>
</g>
</svg>
