<svg width="24" height="25" viewBox="0 0 24 25" fill="none" xmlns="http://www.w3.org/2000/svg">
<path d="M9 9.77344V6.77344C9 5.11658 7.65685 3.77344 6 3.77344C4.34315 3.77344 3 5.11658 3 6.77344C3 8.43029 4.34315 9.77344 6 9.77344H9ZM9 9.77344V15.7734M9 9.77344H15M9 15.7734V18.7734C9 20.4303 7.65685 21.7734 6 21.7734C4.34315 21.7734 3 20.4303 3 18.7734C3 17.1166 4.34315 15.7734 6 15.7734H9ZM9 15.7734H15M15 15.7734H18C19.6569 15.7734 21 17.1166 21 18.7734C21 20.4303 19.6569 21.7734 18 21.7734C16.3431 21.7734 15 20.4303 15 18.7734V15.7734ZM15 15.7734V9.77344M15 9.77344V6.77344C15 5.11658 16.3431 3.77344 18 3.77344C19.6569 3.77344 21 5.11658 21 6.77344C21 8.43029 19.6569 9.77344 18 9.77344H15Z" stroke="#008548" stroke-width="2" stroke-linecap="round" stroke-linejoin="round"/>
</svg>
