<svg width="20" height="20" viewBox="0 0 20 20" fill="none" xmlns="http://www.w3.org/2000/svg">
<path d="M19.0691 9.29633C19.0725 10.6213 18.763 11.9283 18.1656 13.1109C17.4574 14.5281 16.3685 15.7201 15.0211 16.5534C13.6736 17.3867 12.1208 17.8283 10.5365 17.829C9.21153 17.8324 7.90452 17.5229 6.72188 16.9255L1 18.8328L2.90729 13.1109C2.30994 11.9283 2.00038 10.6213 2.00384 9.29633C2.00445 7.71203 2.44614 6.15918 3.27944 4.81173C4.11273 3.46428 5.30471 2.37543 6.72188 1.66716C7.90452 1.0698 9.21153 0.760246 10.5365 0.7637H11.0384C13.1307 0.879134 15.107 1.76228 16.5887 3.24404C18.0705 4.72581 18.9537 6.70206 19.0691 8.79441V9.29633Z" stroke="black" stroke-width="1.5" stroke-linecap="round" stroke-linejoin="round"/>
</svg>
