<?xml version="1.0" encoding="utf-8"?>
<!-- Generator: Adobe Illustrator 27.2.0, SVG Export Plug-In . SVG Version: 6.00 Build 0)  -->
<svg version="1.1" id="Layer_1" xmlns="http://www.w3.org/2000/svg" xmlns:xlink="http://www.w3.org/1999/xlink" x="0px" y="0px"
	 viewBox="0 0 512 512" style="enable-background:new 0 0 512 512;" xml:space="preserve">
<style type="text/css">
	.st0{fill:#C4E5D6;}
	.st1{fill:#4CAF50;}
</style>
<g>
	<path class="st0" d="M256,5.1c-49.6,0-98.1,14.7-139.4,42.3C75.4,75,43.2,114.1,24.2,160s-24,96.3-14.3,145
		c9.7,48.7,33.6,93.4,68.7,128.5c35.1,35.1,79.8,59,128.5,68.7c48.7,9.7,99.1,4.7,145-14.3c45.8-19,85-51.1,112.6-92.4
		c27.6-41.3,42.3-89.8,42.3-139.4c0-66.5-26.4-130.3-73.5-177.4C386.4,31.5,322.6,5.1,256,5.1z"/>
	<path class="st1" d="M437,75C388.7,26.6,324.4,0,256,0c-50.8,0-100,14.9-142.2,43.1C71.6,71.4,39,111.1,19.5,158
		C0.1,205-5,256.1,4.9,305.9S39.1,401.1,75,437c35.9,35.9,81.2,60.1,131.1,70.1c16.6,3.3,33.4,5,50.1,5c33.4,0,66.5-6.6,97.8-19.5
		c46.9-19.4,86.7-52,114.9-94.3C497.1,356,512,306.8,512,256C512,187.6,485.4,123.3,437,75z M485.6,256c0,61.3-23.9,119-67.2,162.3
		c-43.4,43.4-101,67.2-162.3,67.2c-45.6,0-89.7-13.4-127.5-38.7c-37.9-25.3-67.1-60.9-84.6-103s-22-88-13.1-132.6
		c8.9-44.7,30.6-85.3,62.8-117.6c32.2-32.2,72.9-53.9,117.6-62.8c14.9-3,29.9-4.4,44.9-4.4c29.9,0,59.7,5.9,87.7,17.5
		c42.1,17.4,77.7,46.7,103,84.6C472.2,166.3,485.6,210.4,485.6,256z M398.6,171c0,3.5-1.2,6.8-3.6,9.3l-170,170
		c-2.5,2.5-5.8,3.9-9.3,3.9c-3.5,0-6.9-1.4-9.3-3.9l-89-89c-2.5-2.6-3.7-5.9-3.7-9.4c0.1-3.4,1.4-6.7,3.9-9.1
		c2.4-2.4,5.7-3.8,9.1-3.9c3.4,0.1,6.7,1.2,9.2,3.6l79.8,79.8L376.9,161c2.4-2,5.3-3.1,8.5-3.1c0.1,0,0.1,0,0.2,0
		c3.5,0,6.7,1.4,9.2,3.9C397.1,164.3,398.5,167.5,398.6,171z"/>
</g>
</svg>
