<svg width="25" height="25" viewBox="0 0 25 25" fill="none" xmlns="http://www.w3.org/2000/svg">
<path d="M22.2422 10.9609H2.24219M11.2422 19.9609L19.0422 19.9609C20.1623 19.9609 20.7223 19.9609 21.1502 19.743C21.5265 19.5512 21.8325 19.2452 22.0242 18.8689C22.2422 18.4411 22.2422 17.881 22.2422 16.7609V9.16094C22.2422 8.04083 22.2422 7.48078 22.0242 7.05296C21.8325 6.67663 21.5265 6.37067 21.1502 6.17893C20.7223 5.96094 20.1623 5.96094 19.0422 5.96094H17.2422M11.2422 19.9609L13.2422 21.9609M11.2422 19.9609L13.2422 17.9609M7.24219 19.9609H5.44219C4.32208 19.9609 3.76203 19.9609 3.33421 19.7429C2.95788 19.5512 2.65192 19.2452 2.46017 18.8689C2.24219 18.4411 2.24219 17.881 2.24219 16.7609V9.16094C2.24219 8.04083 2.24219 7.48078 2.46017 7.05296C2.65192 6.67663 2.95788 6.37067 3.33421 6.17892C3.76203 5.96094 4.32208 5.96094 5.44219 5.96094H13.2422M13.2422 5.96094L11.2422 7.96094M13.2422 5.96094L11.2422 3.96094" stroke="#344054" stroke-width="2" stroke-linecap="round" stroke-linejoin="round"/>
</svg>
