<?xml version="1.0" encoding="utf-8"?>
<!-- Generator: Adobe Illustrator 28.1.0, SVG Export Plug-In . SVG Version: 6.00 Build 0)  -->
<svg version="1.1" id="Layer_1" xmlns="http://www.w3.org/2000/svg" xmlns:xlink="http://www.w3.org/1999/xlink" x="0px" y="0px"
	 viewBox="0 0 512 512" style="enable-background:new 0 0 512 512;" xml:space="preserve">
<style type="text/css">
	.st0{fill:none;}
	.st1{fill:#1C1B1F;}
</style>
<g>
	<rect class="st0" width="512" height="512"/>
	<path class="st1" d="M256,398c-17.9,0-34.7-3.4-50.4-10.2c-15.7-6.8-29.4-16-41-27.6c-11.6-11.6-20.8-25.3-27.6-41
		c-6.8-15.7-10.2-32.5-10.2-50.4c0-24.5,6.4-47.2,19.2-68c12.8-20.8,30.2-36.6,52.1-47.6c0.2,4.1,0.6,8.2,1.3,12.4
		c0.6,4.2,1.7,9.1,3.2,14.7c-15.5,9.5-27.7,22-36.7,37.6c-8.9,15.6-13.4,32.6-13.4,50.9c0,28.8,10,53.3,30,73.3
		c20,20,44.4,30,73.3,30c28.8,0,53.3-10,73.3-30c20-20,30-44.5,30-73.3c0-18.3-4.5-35.3-13.4-51c-8.9-15.7-21.3-28.3-37-37.8
		c1.5-5.6,2.6-10.5,3.2-14.7c0.6-4.2,1.2-8.2,1.6-12.1c22,11,39.3,26.8,52.1,47.5c12.8,20.7,19.2,43.4,19.2,68.1
		c0,17.9-3.4,34.7-10.2,50.4c-6.8,15.7-16,29.4-27.6,41c-11.6,11.6-25.3,20.8-41,27.6C290.6,394.6,273.8,398,256,398z M256,346.4
		c-21.5,0-39.8-7.5-54.9-22.6c-15.1-15.1-22.6-33.4-22.6-54.9c0-12.5,2.7-24.2,8.2-35.2c5.5-11,13.3-20.1,23.4-27.4
		c1.1,3.2,2.3,6.9,3.6,11.1c1.3,4.2,3,9.4,5.2,15.7c-4.7,5-8.3,10.4-10.8,16.5c-2.5,6-3.7,12.5-3.7,19.4c0,14.2,5.1,26.4,15.2,36.5
		c10.1,10.1,22.3,15.2,36.5,15.2c14.2,0,26.4-5.1,36.5-15.2c10.1-10.1,15.2-22.3,15.2-36.5c0-6.9-1.2-13.3-3.7-19.4
		c-2.5-6-6.1-11.5-10.8-16.5c1.7-5.2,3.3-10,4.7-14.4c1.4-4.4,2.6-8.5,3.7-12.4c10.1,7.3,18,16.5,23.6,27.4
		c5.6,11,8.4,22.7,8.4,35.2c0,21.5-7.5,39.8-22.6,54.9C295.8,338.8,277.5,346.4,256,346.4z M243,223.7c-8-24.1-13.2-41.1-15.7-50.9
		c-2.5-9.8-3.7-18.7-3.7-26.6c0-9,3.1-16.7,9.4-22.9c6.2-6.2,13.9-9.4,22.9-9.4c9,0,16.7,3.1,22.9,9.4c6.2,6.2,9.4,13.9,9.4,22.9
		c0,8-1.2,16.8-3.7,26.6c-2.5,9.8-7.7,26.8-15.7,50.9H243z M256,294.7c-7.1,0-13.2-2.5-18.2-7.6c-5.1-5.1-7.6-11.1-7.6-18.2
		c0-7.1,2.5-13.2,7.6-18.2c5.1-5.1,11.1-7.6,18.2-7.6c7.1,0,13.2,2.5,18.2,7.6c5.1,5.1,7.6,11.1,7.6,18.2c0,7.1-2.5,13.2-7.6,18.2
		C269.1,292.2,263.1,294.7,256,294.7z"/>
</g>
</svg>
