<svg width="1444" height="426" viewBox="0 0 1444 426" fill="none" xmlns="http://www.w3.org/2000/svg">
<mask id="mask0_6051_195555" style="mask-type:alpha" maskUnits="userSpaceOnUse" x="0" y="0" width="1444" height="426">
<rect y="0.707031" width="1444" height="425.228" fill="#F4FBF8"/>
</mask>
<g mask="url(#mask0_6051_195555)">
<path d="M-37.1016 267.762C-14.5391 273.595 42.1179 260.562 88.2457 161.762C145.905 38.2616 188.022 -7.23836 292.812 -3.73836M-25.5696 334.762C10.1961 338.095 94.1621 318.462 143.9 213.262C206.072 81.7617 238.161 26.7617 421.168 7.26172M-37.1016 167.262C-18.7173 165.595 23.6668 143.562 46.129 68.7617C68.5912 -6.03828 120.669 -32.7383 143.9 -36.7383M1464.06 256.762C1460.55 267.762 1401.88 347.762 1304.11 354.262C1225.9 359.462 1207.35 473.428 1207.85 529.762M1304.11 510.762C1303.11 479.928 1314.84 417.262 1369.8 413.262C1424.75 409.262 1459.54 376.595 1470.07 360.762M1470.07 138.762C1445.67 178.928 1387.61 259.768 1304.11 267.762C1178.77 279.762 1145.17 393.262 1121.61 483.262" stroke="white" stroke-opacity="0.2" stroke-width="3"/>
</g>
</svg>
