<svg width="24" height="25" viewBox="0 0 24 25" fill="none" xmlns="http://www.w3.org/2000/svg">
<path d="M12 13.7715C12.5523 13.7715 13 13.3238 13 12.7715C13 12.2192 12.5523 11.7715 12 11.7715C11.4477 11.7715 11 12.2192 11 12.7715C11 13.3238 11.4477 13.7715 12 13.7715Z" stroke="#004520" stroke-width="2" stroke-linecap="round" stroke-linejoin="round"/>
<path d="M12 6.77148C12.5523 6.77148 13 6.32377 13 5.77148C13 5.2192 12.5523 4.77148 12 4.77148C11.4477 4.77148 11 5.2192 11 5.77148C11 6.32377 11.4477 6.77148 12 6.77148Z" stroke="#004520" stroke-width="2" stroke-linecap="round" stroke-linejoin="round"/>
<path d="M12 20.7715C12.5523 20.7715 13 20.3238 13 19.7715C13 19.2192 12.5523 18.7715 12 18.7715C11.4477 18.7715 11 19.2192 11 19.7715C11 20.3238 11.4477 20.7715 12 20.7715Z" stroke="#004520" stroke-width="2" stroke-linecap="round" stroke-linejoin="round"/>
</svg>
