<?xml version="1.0" encoding="utf-8"?>
<!-- Generator: Adobe Illustrator 28.0.0, SVG Export Plug-In . SVG Version: 6.00 Build 0)  -->
<svg version="1.1" id="Layer_1" xmlns="http://www.w3.org/2000/svg" xmlns:xlink="http://www.w3.org/1999/xlink" x="0px" y="0px"
	 viewBox="0 0 18 18" style="enable-background:new 0 0 18 18;" xml:space="preserve">
<style type="text/css">
	.st0{fill:#008548;}
</style>
<path class="st0" d="M9.4,13.5c-0.7,0-1.4-0.1-2.1-0.3c-0.7-0.2-1.2-0.5-1.7-0.8c-0.2-0.2-0.2-0.4,0-0.6c0.2-0.2,0.4-0.2,0.6,0
	c0.3,0.3,0.8,0.5,1.3,0.7c1.1,0.3,2.5,0.3,3.6,0c0.5-0.2,1-0.4,1.3-0.7c0.2-0.2,0.5-0.1,0.6,0c0.2,0.2,0.1,0.5,0,0.6
	c-0.4,0.4-1,0.6-1.7,0.8C10.9,13.4,10.2,13.5,9.4,13.5z M6.8,5.8C6,5.8,5.4,6.5,5.4,7.2S6,8.6,6.8,8.6s1.4-0.6,1.4-1.4
	S7.5,5.8,6.8,5.8z M12.1,5.8c-0.7,0-1.3,0.6-1.3,1.3s0.6,1.4,1.3,1.4c0.7,0,1.4-0.6,1.4-1.4S12.9,5.8,12.1,5.8z M18,9c0-5-4-9-9-9
	C4,0,0,4,0,9c0,5,4,9,9,9C14,18,18,14,18,9z M17.1,9c0,4.5-3.6,8.1-8.1,8.1c-4.5,0-8.1-3.6-8.1-8.1c0-4.5,3.6-8.1,8.1-8.1
	C13.5,0.9,17.1,4.5,17.1,9z"/>
</svg>
