<?xml version="1.0" encoding="utf-8"?>
<!-- Generator: Adobe Illustrator 27.2.0, SVG Export Plug-In . SVG Version: 6.00 Build 0)  -->
<svg version="1.1" id="Layer_1" xmlns="http://www.w3.org/2000/svg" xmlns:xlink="http://www.w3.org/1999/xlink" x="0px" y="0px"
	 viewBox="0 0 28.1 32" style="enable-background:new 0 0 28.1 32;" xml:space="preserve">
<style type="text/css">
	.st0{fill:#292D32;}
</style>
<g>
	<path class="st0" d="M5.7,25.7c-0.3,0-0.5-0.1-0.7-0.3c-1.4-1.4-2.6-3.1-3.7-5c-1.3-2.4-1.3-6.3,0-8.8c3.2-5.7,7.8-9,12.8-9
		c2.9,0,5.8,1.1,8.3,3.3c0.4,0.4,0.5,1,0.1,1.4c-0.4,0.4-1,0.5-1.4,0.1c-2.1-1.8-4.5-2.8-7-2.8c-4.2,0-8.2,2.9-11,8
		c-1,1.8-1,5,0,6.8c1,1.8,2.1,3.3,3.4,4.5c0.4,0.4,0.4,1,0,1.4C6.2,25.6,6,25.7,5.7,25.7z M26.9,20.4c1.3-2.4,1.3-6.3,0-8.8
		c-0.4-0.8-0.9-1.5-1.4-2.3c-0.3-0.5-0.9-0.6-1.4-0.2c-0.5,0.3-0.6,0.9-0.2,1.4c0.5,0.7,0.9,1.4,1.3,2.1c1,1.8,1,5,0,6.8
		c-3.8,6.8-9.8,9.6-15.3,7c-0.5-0.2-1.1,0-1.3,0.5c-0.2,0.5,0,1.1,0.5,1.3c1.7,0.8,3.4,1.2,5.1,1.2C19,29.4,23.7,26.1,26.9,20.4z"/>
	<path class="st0" d="M18.1,12.9c-0.8,0.8-1.7-0.3-2.1-0.6c-0.6-0.4-1.2-0.6-1.9-0.6c-2,0-3.7,2-3.7,4.4c0,0.8,0.2,1.5,0.5,2.2
		c0.6,1.1,0.9,1.5,0.7,2.1c-0.1,0.3-0.6,0.6-0.8,0.6s-0.6-0.1-0.8-0.3c-1-1.2-1.6-2.8-1.6-4.5c0-3.5,2.5-6.4,5.7-6.4
		c1.5,0,3,0.7,4.1,1.9C18.5,11.9,18.6,12.4,18.1,12.9z M15.2,22.3c2.3-0.5,4.1-2.5,4.5-5.1c0.1-0.5-0.3-1.1-0.8-1.1
		c-0.5-0.1-1.1,0.3-1.1,0.8c-0.3,1.7-1.5,3.1-2.9,3.4c-0.5,0.1-0.9,0.6-0.8,1.2c0.1,0.5,0.5,0.8,1,0.8C15,22.3,15.1,22.3,15.2,22.3z
		"/>
	<path id="ToggleSlash" class="st0" d="M19.7,17.2c-0.4,2.5-2.2,4.6-4.5,5.1c-0.1,0-0.1,0-0.2,0c-0.5,0-0.9-0.3-1-0.8
		c-0.1-0.5,0.2-1.1,0.8-1.2c1.4-0.3,2.6-1.7,2.9-3.4c0.1-0.5,0.6-0.9,1.1-0.8C19.4,16.2,19.7,16.7,19.7,17.2z M27.9,1.7l-9.8,11.2
		c0,0,0,0,0,0l-6.6,7.6c0,0,0,0,0,0L1.8,31.7C1.6,31.9,1.3,32,1,32c-0.2,0-0.5-0.1-0.7-0.2c-0.4-0.4-0.5-1-0.1-1.4l9.2-10.6
		c-0.7-1.1-1.1-2.4-1.1-3.7c0-3.5,2.5-6.4,5.7-6.4c1.2,0,2.3,0.4,3.2,1.1l9.1-10.4c0.4-0.4,1-0.5,1.4-0.1
		C28.2,0.6,28.3,1.2,27.9,1.7z M16,12.3c-0.6-0.4-1.2-0.6-1.9-0.6c-2,0-3.7,2-3.7,4.4c0,0.8,0.2,1.5,0.5,2.2L16,12.3z"/>
</g>
</svg>
