<svg width="33" height="33" viewBox="0 0 33 33" fill="none" xmlns="http://www.w3.org/2000/svg">
<path d="M32.1953 16.7686C32.1953 7.93106 25.0328 0.768555 16.1953 0.768555C7.35781 0.768555 0.195312 7.93106 0.195312 16.7686C0.195312 24.7561 6.04531 31.3748 13.6953 32.5748V21.3936H9.63281V16.7686H13.6953V13.2436C13.6953 9.23418 16.0828 7.01855 19.7391 7.01855C21.4891 7.01855 23.3203 7.33105 23.3203 7.33105V11.2686H21.3016C19.3141 11.2686 18.6953 12.5029 18.6953 13.7686V16.7686H23.1328L22.4234 21.3936H18.6953V32.5748C26.3453 31.3748 32.1953 24.7561 32.1953 16.7686Z" fill="#1877F2"/>
<path d="M22.4234 21.3936L23.1328 16.7686H18.6953V13.7686C18.6953 12.5029 19.3141 11.2686 21.3016 11.2686H23.3203V7.33105C23.3203 7.33105 21.4891 7.01855 19.7391 7.01855C16.0828 7.01855 13.6953 9.23418 13.6953 13.2436V16.7686H9.63281V21.3936H13.6953V32.5748C14.5109 32.7029 15.3453 32.7686 16.1953 32.7686C17.0453 32.7686 17.8797 32.7029 18.6953 32.5748V21.3936H22.4234Z" fill="white"/>
</svg>
