<?xml version="1.0" encoding="utf-8"?>
<!-- Generator: Adobe Illustrator 28.1.0, SVG Export Plug-In . SVG Version: 6.00 Build 0)  -->
<svg version="1.1" id="Layer_1" xmlns="http://www.w3.org/2000/svg" xmlns:xlink="http://www.w3.org/1999/xlink" x="0px" y="0px"
	 viewBox="0 0 40 40" style="enable-background:new 0 0 40 40;" xml:space="preserve">
<style type="text/css">
	.st0{fill:#FFFFFF;}
	.st1{fill:#D0D5DD;}
	.st2{fill:#D92D20;}
</style>
<g>
	<g>
		<path class="st0" d="M7.8,4c0-1.8,1.5-3.3,3.2-3.3h16c0.1,0,0.2,0,0.3,0.1l10.8,10.8c0.1,0.1,0.1,0.2,0.1,0.3v24
			c0,1.8-1.5,3.2-3.2,3.2H11c-1.8,0-3.2-1.5-3.2-3.2V4z"/>
		<path class="st1" d="M35,40H11c-2.2,0-4-1.8-4-4V4c0-2.2,1.8-4,4-4h16c0.3,0,0.6,0.1,0.9,0.4l10.8,10.8c0.2,0.2,0.4,0.5,0.4,0.9
			v24C39,38.2,37.2,40,35,40z M11,1.5C9.6,1.5,8.5,2.6,8.5,4v32c0,1.4,1.1,2.5,2.5,2.5h24c1.4,0,2.5-1.1,2.5-2.5V12.1L26.9,1.5H11z"
			/>
		<path class="st1" d="M38.5,12.8H31c-2.6,0-4.8-2.1-4.8-4.8V0.5h1.5V8c0,1.8,1.5,3.2,3.2,3.2h7.5V12.8z"/>
	</g>
	<path class="st2" d="M3,18h22c1.1,0,2,0.9,2,2v12c0,1.1-0.9,2-2,2H3c-1.1,0-2-0.9-2-2V20C1,18.9,1.9,18,3,18z"/>
	<path class="st0" d="M4.8,30v-7.3h2.9c0.6,0,1,0.1,1.4,0.3c0.4,0.2,0.7,0.5,0.9,0.9c0.2,0.4,0.3,0.8,0.3,1.3c0,0.5-0.1,0.9-0.3,1.3
		c-0.2,0.4-0.5,0.7-0.9,0.9c-0.4,0.2-0.9,0.3-1.4,0.3H5.8v-1.2h1.6c0.3,0,0.5-0.1,0.7-0.2c0.2-0.1,0.3-0.2,0.4-0.4
		c0.1-0.2,0.1-0.4,0.1-0.6c0-0.2,0-0.5-0.1-0.6c-0.1-0.2-0.2-0.3-0.4-0.4C8,24,7.7,24,7.4,24h-1v6H4.8z M13.9,30h-2.6v-7.3h2.6
		c0.7,0,1.4,0.1,1.9,0.4c0.5,0.3,0.9,0.7,1.2,1.2c0.3,0.5,0.4,1.2,0.4,1.9c0,0.8-0.1,1.4-0.4,2c-0.3,0.5-0.7,1-1.2,1.3
		C15.3,29.9,14.6,30,13.9,30z M12.8,28.7h1c0.5,0,0.8-0.1,1.1-0.2c0.3-0.2,0.5-0.4,0.7-0.8c0.2-0.3,0.2-0.8,0.2-1.3
		c0-0.5-0.1-1-0.2-1.3c-0.2-0.3-0.4-0.6-0.7-0.8c-0.3-0.2-0.7-0.2-1.1-0.2h-1V28.7z M18.6,30v-7.3h4.8V24h-3.3v1.7h3V27h-3v3H18.6z"
		/>
</g>
</svg>
