<?xml version="1.0" encoding="utf-8"?>
<!-- Generator: Adobe Illustrator 28.1.0, SVG Export Plug-In . SVG Version: 6.00 Build 0)  -->
<svg version="1.1" id="Layer_1" xmlns="http://www.w3.org/2000/svg" xmlns:xlink="http://www.w3.org/1999/xlink" x="0px" y="0px"
	 viewBox="0 0 512 512" style="enable-background:new 0 0 512 512;" xml:space="preserve">
<style type="text/css">
	.st0{fill:none;}
</style>
<g>
	<rect class="st0" width="512" height="512"/>
	<path d="M391.9,151.8l-56.3-53.2H191.5c-6.7,0-14.1,2.5-22.5,7.9c-5.6,5.3-8.4,12.6-8.4,21.6v122.4h-34.1c-8.1,0-12,3.4-13.9,6.6
		c-4.1,4-6.2,8.3-6.2,12.6v59.8c0,3.9,1.9,10.6,7,13.4c4.2,3.9,8.6,5.8,13.1,5.8h34.1v9.8c0,6.5,2.7,13.5,8.4,21.6
		c5.5,5.2,13.1,7.9,22.5,7.9h173.3c8.4,0,16.6-4.1,22.5-7.9c5.6-5.3,8.5-12.6,8.5-21.6V157C395.8,154.8,394.4,152.5,391.9,151.8z
		 M339.8,149.8v-21.1l21.2,21.1H339.8z M370.5,366.9c-1.2,2.2-3.7,3-5.6,3H191.5c-2.6,0-5.3-1.4-8.2-4c-2.8-2.7-4.2-5.2-4.2-7.5
		v-9.8h106.3c4.1,0,10.9-1.8,13.9-6.6c4.1-4,6.2-8.3,6.2-12.6v-59.8c0-3.8-1.8-10.1-6.5-13.1c-2-3-5.9-6.1-13.6-6.1H179.1V128
		c0-2.3,1.4-4.8,4.2-7.4c2.9-2.7,5.6-4.1,8.2-4.1h129.7v42.3c0,4.7,1.9,6.5,4,7c1.7,1.5,2.8,1.9,5.3,1.9h44.9v190.7
		c0,2.3-1.4,4.8-4.2,7.5L370.5,366.9z M285.4,329H126.8l-0.2-58.9l158.6-0.4L285.4,329z M200.6,170.7c0-3.4,1.8-6.8,5.4-5.1h83
		c3.6,0,5.4,1.7,5.4,5.1c0,3.4-1.8,5.1-5.4,5.1h-83C202.4,175.8,200.6,174.1,200.6,170.7z M200.6,141.7c0-3.4,1.8-5.1,5.4-3.4h83
		c3.6,0,5.4,1.7,5.4,5.1c0,3.4-1.8,5.1-5.4,5.1h-83C202.4,148.5,200.6,145.1,200.6,141.7z M355.8,199.6c0,3.4-1.8,5.1-5.4,5.1H206
		c-3.6,0-5.4-5.1-5.4-6.8c0-1.7,1.8-5.1,5.4-5.1h144.4C352.2,192.8,355.8,196.2,355.8,199.6z M355.8,227c0,3.4-1.8,5.1-5.4,5.1H206
		c-3.6,0-5.4-1.7-5.4-5.1c0-3.4,1.8-5.1,5.4-5.1h144.4C352.2,221.9,355.8,223.6,355.8,227z M206.1,276.5h-12.6
		c-3.6,0-5.4,1.7-5.4,5.1v34.1c0,1.7,0,3.4,1.8,3.4c1.8,0,3.6,3.4,3.6,3.4h12.6c9,0,16.2-5.1,19.9-11.9c3.6-6.8,3.6-15.4,0-22.2
		C222.3,281.6,213.3,276.5,206.1,276.5z M216.9,305.5c-1.8,3.4-5.4,5.1-10.8,5.1h-5.4v-22.2h5.4c3.6,0,9,1.7,10.8,5.1
		C218.7,297,218.7,302.1,216.9,305.5z M164.5,278.2h-18.1c-3.6,0-5.4,1.7-5.4,5.1v34.1c0,3.4,1.8,5.1,5.4,5.1c3.6,0,5.4-1.7,5.4-5.1
		v-5.1h12.6c5.4,0,9-1.7,12.6-5.1c3.6-3.4,5.4-8.5,5.4-11.9c0-5.1-1.8-8.5-5.4-11.9C173.5,279.9,169.9,278.2,164.5,278.2z
		 M164.5,300.4h-12.6v-11.9h12.6c3.6,0,5.4,1.7,5.4,5.1C169.9,298.7,168.1,300.4,164.5,300.4z M271,285c0,3.4-1.8,5.1-5.4,5.1h-18.1
		v5.1h12.6c3.6,0,5.4,1.7,5.4,5.1c0,3.4-1.8,5.1-5.4,5.1h-12.6v11.9c0,1.7,0,1.7-1.8,3.4c0,1.7-1.8,1.7-3.6,1.7s-3.6,0-3.6,0
		c-1.8,0-1.8-1.7-1.8-3.4V285c0-3.4,1.8-5.1,5.4-5.1h23.5C269.2,279.9,271,281.6,271,285z"/>
</g>
</svg>
