<svg width="18" height="22" viewBox="0 0 18 22" fill="none" xmlns="http://www.w3.org/2000/svg">
<g clip-path="url(#clip0_5185_152977)">
<path fill-rule="evenodd" clip-rule="evenodd" d="M1.40283 0.949853C1.14518 0.949853 0.935223 1.16309 0.935223 1.42478V20.4218C0.935223 20.6835 1.14518 20.8968 1.40283 20.8968H16.3664C16.6241 20.8968 16.834 20.6835 16.834 20.4218V6.37066L11.4967 0.949853H1.40283ZM16.3664 21.8466H1.40283C0.629405 21.8466 0 21.2074 0 20.4218V1.42478C0 0.639251 0.629405 0 1.40283 0H11.6903C11.8142 0 11.9334 0.0498673 12.0209 0.139153L17.6322 5.83827C17.7201 5.92708 17.7692 6.04819 17.7692 6.17404V20.4218C17.7692 21.2074 17.1398 21.8466 16.3664 21.8466Z" fill="#008548"/>
<path fill-rule="evenodd" clip-rule="evenodd" d="M17.3016 6.64834H11.6903C11.4321 6.64834 11.2227 6.43557 11.2227 6.17341V0.949219H12.1579V5.69848H17.3016V6.64834Z" fill="#008548"/>
<path fill-rule="evenodd" clip-rule="evenodd" d="M8.88364 8.0729H3.2723C3.01418 8.0729 2.80469 7.86013 2.80469 7.59797C2.80469 7.33581 3.01418 7.12305 3.2723 7.12305H8.88364C9.14176 7.12305 9.35125 7.33581 9.35125 7.59797C9.35125 7.86013 9.14176 8.0729 8.88364 8.0729Z" fill="#008548"/>
<path fill-rule="evenodd" clip-rule="evenodd" d="M14.495 10.9225H3.2723C3.01418 10.9225 2.80469 10.7097 2.80469 10.4476C2.80469 10.1854 3.01418 9.97266 3.2723 9.97266H14.495C14.7531 9.97266 14.9626 10.1854 14.9626 10.4476C14.9626 10.7097 14.7531 10.9225 14.495 10.9225Z" fill="#008548"/>
<path fill-rule="evenodd" clip-rule="evenodd" d="M14.495 13.7721H3.2723C3.01418 13.7721 2.80469 13.5594 2.80469 13.2972C2.80469 13.035 3.01418 12.8223 3.2723 12.8223H14.495C14.7531 12.8223 14.9626 13.035 14.9626 13.2972C14.9626 13.5594 14.7531 13.7721 14.495 13.7721Z" fill="#008548"/>
<path fill-rule="evenodd" clip-rule="evenodd" d="M14.495 16.6217H3.2723C3.01418 16.6217 2.80469 16.409 2.80469 16.1468C2.80469 15.8846 3.01418 15.6719 3.2723 15.6719H14.495C14.7531 15.6719 14.9626 15.8846 14.9626 16.1468C14.9626 16.409 14.7531 16.6217 14.495 16.6217Z" fill="#008548"/>
</g>
<defs>
<clipPath id="clip0_5185_152977">
<rect width="18" height="22" fill="white"/>
</clipPath>
</defs>
</svg>
