<?xml version="1.0" encoding="utf-8"?>
<!-- Generator: Adobe Illustrator 28.1.0, SVG Export Plug-In . SVG Version: 6.00 Build 0)  -->
<svg version="1.1" id="Layer_1" xmlns="http://www.w3.org/2000/svg" xmlns:xlink="http://www.w3.org/1999/xlink" x="0px" y="0px"
	 viewBox="0 0 512 512" style="enable-background:new 0 0 512 512;" xml:space="preserve">
<style type="text/css">
	.st0{fill:none;}
</style>
<g>
	<rect class="st0" width="512" height="512"/>
	<path d="M348.1,167.6l-71.9-68.2c-2.1-2.2-5.1-3.4-8.3-3.4l-97.5,0c-12.8,0-23.2,10.4-23.2,23.2v212.2c0,12.8,10.4,23.2,23.2,23.2
		h26.3l-0.6,22.4c0,5.5,3,10.1,7.6,12.1c0.7,0.3,3,1.4,5.5,1.4c3.2,0,6.8-1.5,8.6-3.4l13-11l12.3,10.6c3.4,3.4,8.6,4.6,14.5,2.9
		c4.9-2.1,8-7,8-12.8l-0.6-22.2h63.6c12.8,0,23.2-10.4,23.2-23.2v-155C352,173.2,350.6,170.1,348.1,167.6z M279.5,164.4v-28.4
		l30.2,28.4H279.5z M230.9,267.1c12.1,0,22.3,10.2,22.3,22.4c0,12.1-10.2,22.4-22.3,22.4c-12.1,0-22.4-10.2-22.4-22.4
		C208.6,277.4,218.8,267.1,230.9,267.1z M277.3,289.5c0-25.6-20.8-46.4-46.4-46.4s-46.4,20.8-46.4,46.4c0,11.9,4.8,23.6,13,32.1
		l-0.2,9l-26.2,0.6L170.4,120h85.1v56.4c0,6.5,5.5,12,12,12H328l0.8,142.2h-64.3l-0.2-8.9C272.7,313,277.3,301.7,277.3,289.5z
		 M220.9,353l0.5-17.8c6.2,1.4,12.9,1.4,19.1,0l0.5,17.5l-0.8-0.7c-5.2-5-13.1-5-18-0.2L220.9,353z M251.5,195.8h-70.7v-24h70.7
		V195.8z M288.8,233.5h-108v-24h108V233.5z"/>
</g>
</svg>
