<svg width="16" height="16" viewBox="0 0 16 16" fill="none" xmlns="http://www.w3.org/2000/svg">
<path d="M3.59896 1.39844H12.399C13.1323 1.39844 13.7323 1.99844 13.7323 2.73177V4.19844C13.7323 4.73177 13.399 5.39844 13.0656 5.73177L10.199 8.2651C9.79896 8.59844 9.53229 9.2651 9.53229 9.79844V12.6651C9.53229 13.0651 9.26563 13.5984 8.93229 13.7984L7.99896 14.3984C7.13229 14.9318 5.93229 14.3318 5.93229 13.2651V9.73177C5.93229 9.2651 5.66563 8.6651 5.39896 8.33177L2.86563 5.6651C2.53229 5.33177 2.26562 4.73177 2.26562 4.33177V2.79844C2.26562 1.99844 2.86563 1.39844 3.59896 1.39844Z" stroke="#292D32" stroke-width="1.5" stroke-miterlimit="10" stroke-linecap="round" stroke-linejoin="round"/>
<path d="M7.28667 1.39844L4 6.6651" stroke="#292D32" stroke-width="1.5" stroke-miterlimit="10" stroke-linecap="round" stroke-linejoin="round"/>
</svg>
