<svg width="37" height="25" viewBox="0 0 37 25" fill="none" xmlns="http://www.w3.org/2000/svg">
<rect x="1.16797" y="1.26855" width="35" height="23" rx="2" fill="white" stroke="#D9D9D9"/>
<path d="M15.3008 23.3184L35.1269 17.5684V21.7684C35.1269 22.6244 34.4329 23.3184 33.5769 23.3184H15.3008Z" fill="#FD6020"/>
<path fill-rule="evenodd" clip-rule="evenodd" d="M31.3381 9.87939C32.4289 9.87939 33.0288 10.3629 33.0288 11.2763C33.0833 11.9747 32.5925 12.5657 31.938 12.6732L33.4105 14.6611H32.2652L31.0109 12.7269H30.9018V14.6611H29.9747V9.87939H31.3381ZM30.9018 12.0822H31.1745C31.7744 12.0822 32.0471 11.8136 32.0471 11.33C32.0471 10.9002 31.7744 10.6316 31.1745 10.6316H30.9018V12.0822ZM26.757 14.6611H29.3748V13.8552H27.6841V12.5657H29.3203V11.7598H27.6841V10.6853H29.3748V9.87939H26.757V14.6611ZM24.0301 13.103L22.7758 9.87939H21.7941L23.812 14.7685H24.3028L26.3207 9.87939H25.339L24.0301 13.103ZM12.9591 12.2971C12.9591 13.6403 14.0499 14.7686 15.4133 14.7686C15.8496 14.7686 16.2313 14.6611 16.6131 14.4999V13.4254C16.3404 13.7477 15.9587 13.9627 15.5224 13.9627C14.6498 13.9627 13.9408 13.3179 13.9408 12.4583V12.3508C13.8863 11.4912 14.5952 10.739 15.4678 10.6853C15.9041 10.6853 16.3404 10.9002 16.6131 11.2226V10.148C16.2859 9.93313 15.8496 9.8794 15.4678 9.8794C14.0499 9.77195 12.9591 10.9002 12.9591 12.2971ZM11.2685 11.7061C10.7231 11.4912 10.5595 11.3838 10.5595 11.1151C10.614 10.7928 10.8867 10.5241 11.2139 10.5779C11.4866 10.5779 11.7593 10.739 11.9775 10.9539L12.4683 10.3092C12.0865 9.98686 11.5957 9.77195 11.1049 9.77195C10.3413 9.71822 9.68689 10.3092 9.63236 11.0614V11.1151C9.63236 11.7598 9.90504 12.1359 10.7776 12.4046C10.9958 12.4583 11.2139 12.5658 11.4321 12.6732C11.5957 12.7807 11.7048 12.9418 11.7048 13.1567C11.7048 13.5328 11.3775 13.8552 11.0503 13.8552H10.9958C10.5595 13.8552 10.1777 13.5866 10.0141 13.2105L9.41421 13.8015C9.74143 14.3925 10.3959 14.7148 11.0503 14.7148C11.9229 14.7686 12.6319 14.1238 12.6864 13.2642V13.103C12.6319 12.4583 12.3592 12.1359 11.2685 11.7061ZM8.10531 14.6611H9.03244V9.87939H8.10531V14.6611ZM3.79688 9.87942H5.1603H5.43299C6.74188 9.93314 7.77808 11.0077 7.72355 12.2971C7.72355 12.9956 7.39632 13.6403 6.85095 14.1238C6.36012 14.4999 5.76021 14.7148 5.1603 14.6611H3.79688V9.87942ZM4.9967 13.8552C5.433 13.9089 5.92383 13.7477 6.25105 13.4791C6.57828 13.1567 6.74189 12.7269 6.74189 12.2434C6.74189 11.8136 6.57828 11.3838 6.25105 11.0614C5.92383 10.7928 5.433 10.6316 4.9967 10.6853H4.72401V13.8552H4.9967Z" fill="#004520"/>
<path fill-rule="evenodd" clip-rule="evenodd" d="M19.3954 9.76855C18.032 9.76855 16.8867 10.8431 16.8867 12.24C16.8867 13.5832 17.9775 14.7114 19.3954 14.7652C20.8134 14.8189 21.9041 13.6906 21.9587 12.2937C21.9041 10.8968 20.8134 9.76855 19.3954 9.76855V9.76855Z" fill="#FD6020"/>
</svg>
