<svg width="37" height="25" viewBox="0 0 37 25" fill="none" xmlns="http://www.w3.org/2000/svg">
<rect x="1.16797" y="1.26855" width="35" height="23" rx="2" fill="white" stroke="#D9D9D9"/>
<path fill-rule="evenodd" clip-rule="evenodd" d="M9.2543 9.70151C9.73777 9.74116 10.2212 9.46361 10.5234 9.11171C10.8205 8.7499 11.017 8.26419 10.9666 7.76855C10.5385 7.78838 10.0097 8.04611 9.70755 8.40792C9.43056 8.72016 9.19386 9.22571 9.2543 9.70151ZM15.0056 16.0852V8.35835H17.9518C19.4727 8.35835 20.5353 9.38926 20.5353 10.896C20.5353 12.4027 19.4525 13.4435 17.9115 13.4435H16.2244V16.0852H15.0056ZM10.9615 9.7957C10.5356 9.77158 10.147 9.92176 9.83304 10.0431C9.63103 10.1211 9.45996 10.1872 9.32982 10.1872C9.18377 10.1872 9.00564 10.1176 8.80564 10.0394C8.54357 9.93695 8.24396 9.81982 7.92977 9.82544C7.2096 9.83535 6.53979 10.2368 6.17215 10.8762C5.41673 12.1549 5.97574 14.0482 6.70598 15.089C7.06355 15.6045 7.49162 16.1695 8.05567 16.1497C8.30382 16.1405 8.48232 16.0659 8.66706 15.9888C8.87973 15.9 9.10067 15.8077 9.44565 15.8077C9.77867 15.8077 9.98994 15.8976 10.1928 15.9838C10.3856 16.0658 10.5708 16.1446 10.8457 16.1398C11.4299 16.1299 11.7975 15.6243 12.1551 15.1089C12.541 14.5556 12.7105 14.0157 12.7363 13.9338L12.7363 13.9338L12.7393 13.9243C12.7387 13.9237 12.7339 13.9215 12.7255 13.9178C12.5965 13.8596 11.6106 13.4154 11.6011 12.2243C11.5916 11.2245 12.3831 10.7179 12.5077 10.6382L12.5077 10.6382C12.5153 10.6333 12.5204 10.6301 12.5227 10.6284C12.0191 9.89483 11.2335 9.81553 10.9615 9.7957ZM22.7613 16.1447C23.5268 16.1447 24.2369 15.763 24.5592 15.1584H24.5844V16.0852H25.7125V12.2391C25.7125 11.1239 24.806 10.4053 23.411 10.4053C22.1167 10.4053 21.1598 11.1339 21.1246 12.135H22.2225C22.3131 11.6592 22.7613 11.347 23.3757 11.347C24.1211 11.347 24.5391 11.689 24.5391 12.3184V12.7447L23.0182 12.8339C21.603 12.9181 20.8375 13.4881 20.8375 14.4794C20.8375 15.4805 21.6282 16.1447 22.7613 16.1447ZM23.0886 15.2278C22.4389 15.2278 22.026 14.9205 22.026 14.4496C22.026 13.9639 22.4238 13.6814 23.1843 13.6368L24.539 13.5525V13.9887C24.539 14.7123 23.9145 15.2278 23.0886 15.2278ZM29.4544 16.3876C28.9658 17.7406 28.4068 18.1867 27.2183 18.1867C27.1277 18.1867 26.8255 18.1768 26.755 18.157V17.2301C26.8305 17.24 27.0169 17.2499 27.1125 17.2499C27.6514 17.2499 27.9536 17.0269 28.1399 16.447L28.2507 16.105L26.1859 10.4796H27.46L28.8953 15.0444H28.9205L30.3558 10.4796H31.5947L29.4544 16.3876ZM16.2242 9.36945H17.6293C18.6869 9.36945 19.2913 9.92456 19.2913 10.9009C19.2913 11.8773 18.6869 12.4374 17.6243 12.4374H16.2242V9.36945Z" fill="#004520"/>
</svg>
