<svg width="37" height="25" viewBox="0 0 37 25" fill="none" xmlns="http://www.w3.org/2000/svg">
<rect x="1.16797" y="1.26855" width="35" height="23" rx="2" fill="white" stroke="#D9D9D9"/>
<path d="M20.4463 20.2685C24.6249 20.2881 28.439 16.9248 28.439 12.8334C28.439 8.35964 24.6249 5.26689 20.4463 5.26856H16.8499C12.6215 5.26689 9.14062 8.36047 9.14062 12.8334C9.14062 16.9256 12.6215 20.2881 16.8499 20.2685H20.4463Z" fill="#0079BE"/>
<path d="M16.8676 5.88867C13.0033 5.88992 9.87238 8.96263 9.87109 12.7551C9.87238 16.5471 13.0033 19.6198 16.8676 19.6211C20.7323 19.6198 23.8645 16.5471 23.8649 12.7551C23.8645 8.96263 20.7327 5.88992 16.8676 5.88867ZM12.433 12.7551C12.4322 11.8782 12.7035 11.0216 13.2114 10.297C13.7193 9.57241 14.4403 9.01366 15.28 8.69377V16.816C14.4402 16.4963 13.7192 15.9377 13.2112 15.2132C12.7033 14.4886 12.432 13.6319 12.433 12.7551ZM18.4547 16.8177V8.69335C19.2951 9.01279 20.0166 9.57149 20.5249 10.2963C21.0332 11.0211 21.3046 11.8783 21.3034 12.7555C21.3044 13.6327 21.033 14.4898 20.5247 15.2146C20.0164 15.9393 19.295 16.4981 18.4547 16.8177Z" fill="white"/>
<path d="M20.4463 20.2685C24.6249 20.2881 28.439 16.9248 28.439 12.8334C28.439 8.35964 24.6249 5.26689 20.4463 5.26856H16.8499C12.6215 5.26689 9.14062 8.36047 9.14062 12.8334C9.14062 16.9256 12.6215 20.2881 16.8499 20.2685H20.4463Z" fill="#0079BE"/>
<path d="M16.8676 5.88867C13.0033 5.88992 9.87238 8.96263 9.87109 12.7551C9.87238 16.5471 13.0033 19.6198 16.8676 19.6211C20.7323 19.6198 23.8645 16.5471 23.8649 12.7551C23.8645 8.96263 20.7327 5.88992 16.8676 5.88867ZM12.433 12.7551C12.4322 11.8782 12.7035 11.0216 13.2114 10.297C13.7193 9.57241 14.4403 9.01366 15.28 8.69377V16.816C14.4402 16.4963 13.7192 15.9377 13.2112 15.2132C12.7033 14.4886 12.432 13.6319 12.433 12.7551ZM18.4547 16.8177V8.69335C19.2951 9.01279 20.0166 9.57149 20.5249 10.2963C21.0332 11.0211 21.3046 11.8783 21.3034 12.7555C21.3044 13.6327 21.033 14.4898 20.5247 15.2146C20.0164 15.9393 19.295 16.4981 18.4547 16.8177Z" fill="white"/>
</svg>
