<svg width="37" height="25" viewBox="0 0 37 25" fill="none" xmlns="http://www.w3.org/2000/svg">
<rect x="1.16797" y="1.26855" width="35" height="23" rx="2" fill="white" stroke="#D9D9D9"/>
<path fill-rule="evenodd" clip-rule="evenodd" d="M10.9965 16.0098H9.37329C9.26221 16.0098 9.16774 16.0871 9.15042 16.1922L8.49389 20.1813C8.48084 20.26 8.54445 20.3309 8.62776 20.3309H9.40272C9.5138 20.3309 9.60827 20.2536 9.62559 20.1483L9.80267 19.0724C9.81975 18.967 9.91445 18.8898 10.0253 18.8898H10.5392C11.6085 18.8898 12.2255 18.3939 12.3868 17.4112C12.4594 16.9813 12.3899 16.6436 12.1797 16.4069C11.9491 16.1472 11.5398 16.0098 10.9965 16.0098ZM11.1838 17.4667C11.0951 18.0249 10.65 18.0249 10.2197 18.0249H9.97474L10.1466 16.9824C10.1568 16.9195 10.2138 16.873 10.2802 16.873H10.3925C10.6856 16.873 10.9622 16.873 11.1051 17.0331C11.1902 17.1287 11.2163 17.2706 11.1838 17.4667ZM15.8488 17.4488H15.0715C15.0053 17.4488 14.948 17.4952 14.9378 17.5583L14.9034 17.7666L14.8491 17.6911C14.6808 17.457 14.3056 17.3788 13.931 17.3788C13.072 17.3788 12.3383 18.0023 12.1954 18.8769C12.1212 19.3131 12.2268 19.7303 12.485 20.0212C12.7219 20.2887 13.0609 20.4002 13.4641 20.4002C14.1562 20.4002 14.5401 19.9737 14.5401 19.9737L14.5054 20.1807C14.4923 20.2599 14.5559 20.3308 14.6387 20.3308H15.339C15.4503 20.3308 15.5443 20.2535 15.5618 20.1482L15.982 17.5985C15.9953 17.5201 15.9319 17.4488 15.8488 17.4488ZM14.7653 18.8987C14.6902 19.3243 14.3378 19.61 13.8883 19.61C13.6626 19.61 13.4821 19.5406 13.3663 19.4091C13.2514 19.2786 13.2077 19.0927 13.2443 18.8858C13.3144 18.4638 13.6728 18.1688 14.1155 18.1688C14.3361 18.1688 14.5156 18.239 14.6338 18.3717C14.7522 18.5057 14.7992 18.6926 14.7653 18.8987ZM19.2076 17.4487H19.9888C20.0982 17.4487 20.162 17.5663 20.0999 17.6523L17.5018 21.2462C17.4598 21.3044 17.3904 21.339 17.3164 21.339H16.5362C16.4264 21.339 16.3622 21.2205 16.4258 21.1343L17.2348 20.04L16.3744 17.6202C16.3447 17.5361 16.4095 17.4487 16.5028 17.4487H17.2704C17.3701 17.4487 17.4581 17.5115 17.4869 17.6029L17.9435 19.0644L19.0209 17.5436C19.0631 17.4842 19.1332 17.4487 19.2076 17.4487Z" fill="#253B80"/>
<path fill-rule="evenodd" clip-rule="evenodd" d="M27.6767 20.1815L28.3429 16.1195C28.3531 16.0564 28.4101 16.01 28.4763 16.0098H29.2263C29.3091 16.0098 29.3727 16.0809 29.3597 16.1597L28.7027 20.1485C28.6856 20.2538 28.5911 20.3311 28.4798 20.3311H27.81C27.7272 20.3311 27.6636 20.2602 27.6767 20.1815ZM22.5747 16.01H20.9512C20.8404 16.01 20.7459 16.0873 20.7285 16.1924L20.072 20.1815C20.059 20.2602 20.1225 20.3311 20.2055 20.3311H21.0385C21.1159 20.3311 21.1822 20.277 21.1943 20.2034L21.3805 19.0726C21.3977 18.9672 21.4924 18.89 21.6032 18.89H22.1168C23.1863 18.89 23.8033 18.3941 23.9646 17.4115C24.0375 16.9816 23.9675 16.6438 23.7575 16.4071C23.5269 16.1474 23.118 16.01 22.5747 16.01ZM22.762 17.4669C22.6735 18.0251 22.2284 18.0251 21.7978 18.0251H21.5531L21.7252 16.9826C21.7354 16.9197 21.7919 16.8732 21.8586 16.8732H21.9708C22.2638 16.8732 22.5406 16.8732 22.6834 17.0333C22.7686 17.1289 22.7945 17.2708 22.762 17.4669ZM27.4266 17.449H26.6498C26.583 17.449 26.5263 17.4955 26.5163 17.5585L26.482 17.7668L26.4274 17.6913C26.2591 17.4572 25.8841 17.379 25.5095 17.379C24.6505 17.379 23.9171 18.0025 23.7742 18.8771C23.7002 19.3134 23.8053 19.7305 24.0635 20.0215C24.3009 20.2889 24.6394 20.4004 25.0426 20.4004C25.7347 20.4004 26.1185 19.9739 26.1185 19.9739L26.0839 20.1809C26.0708 20.2601 26.1344 20.331 26.2178 20.331H26.9177C27.0285 20.331 27.123 20.2537 27.1403 20.1484L27.5607 17.5987C27.5736 17.5203 27.51 17.449 27.4266 17.449ZM26.3431 18.8989C26.2685 19.3245 25.9156 19.6102 25.4661 19.6102C25.2408 19.6102 25.06 19.5408 24.9441 19.4094C24.8292 19.2788 24.786 19.0929 24.8222 18.886C24.8926 18.464 25.2505 18.169 25.6932 18.169C25.914 18.169 26.0933 18.2392 26.2116 18.3719C26.3305 18.5059 26.3775 18.6928 26.3431 18.8989Z" fill="#179BD7"/>
<path d="M17.0043 14.5824L17.2039 13.3676L16.7594 13.3577H14.6367L16.1119 4.3939C16.1164 4.36684 16.1313 4.3416 16.1531 4.32369C16.1748 4.30577 16.2027 4.2959 16.2317 4.2959H19.8108C20.9991 4.2959 21.8191 4.53286 22.2472 5.00055C22.4479 5.21996 22.5757 5.44924 22.6376 5.70155C22.7024 5.96631 22.7036 6.28262 22.6402 6.66841L22.6356 6.69657V6.94376L22.8364 7.05274C23.0054 7.13866 23.1397 7.23703 23.2427 7.34966C23.4145 7.53725 23.5255 7.77567 23.5724 8.05834C23.6209 8.34906 23.6048 8.69498 23.5255 9.08663C23.4339 9.53714 23.2859 9.92951 23.0859 10.2506C22.902 10.5464 22.6677 10.7917 22.3896 10.9819C22.124 11.1626 21.8084 11.2997 21.4516 11.3875C21.1059 11.4737 20.7118 11.5173 20.2794 11.5173H20.0009C19.8017 11.5173 19.6082 11.586 19.4564 11.7093C19.3042 11.8351 19.2033 12.0069 19.1725 12.1949L19.1515 12.3043L18.7989 14.4452L18.7829 14.5238C18.7787 14.5488 18.7714 14.5612 18.7608 14.5696C18.7512 14.5772 18.7375 14.5824 18.7241 14.5824H17.0043Z" fill="#253B80"/>
<path d="M23.027 6.72559C23.0163 6.79104 23.0041 6.85795 22.9904 6.9267C22.5183 9.24912 20.9036 10.0514 18.8411 10.0514H17.791C17.5388 10.0514 17.3263 10.2269 17.287 10.4654L16.7493 13.7331L16.5971 14.6593C16.5715 14.8158 16.6975 14.957 16.8622 14.957H18.7248C18.9453 14.957 19.1326 14.8034 19.1673 14.595L19.1857 14.5042L19.5364 12.3716L19.5589 12.2547C19.5932 12.0455 19.7809 11.8919 20.0014 11.8919H20.28C22.0845 11.8919 23.4971 11.1898 23.91 9.15806C24.0824 8.30933 23.9931 7.60065 23.5368 7.10223C23.3987 6.95193 23.2273 6.82724 23.027 6.72559Z" fill="#179BD7"/>
<path d="M22.5315 6.53736C22.4594 6.51724 22.3849 6.49896 22.3086 6.48251C22.2319 6.46642 22.1533 6.45216 22.0724 6.43973C21.7893 6.39584 21.4791 6.375 21.1467 6.375H18.3414C18.2723 6.375 18.2067 6.38999 18.1479 6.41705C18.0186 6.47665 17.9224 6.59404 17.8992 6.73775L17.3023 10.3601L17.2852 10.4658C17.3245 10.2274 17.537 10.0519 17.7892 10.0519H18.8393C20.9018 10.0519 22.5166 9.24922 22.9886 6.92717C23.0027 6.85842 23.0145 6.79151 23.0252 6.72605C22.9058 6.66535 22.7764 6.61342 22.6371 6.56917C22.6028 6.5582 22.5674 6.5476 22.5315 6.53736Z" fill="#222D65"/>
<path d="M17.8989 6.73722C17.9222 6.5935 18.0184 6.47612 18.1477 6.41688C18.2069 6.38982 18.2721 6.37483 18.3411 6.37483H21.1465C21.4789 6.37483 21.7891 6.39567 22.0721 6.43955C22.1531 6.45199 22.2317 6.46625 22.3084 6.48233C22.3848 6.4988 22.4591 6.51708 22.5313 6.53719C22.5671 6.54743 22.6026 6.55803 22.6373 6.56864C22.7766 6.61288 22.9059 6.66518 23.0253 6.72551C23.1658 5.86727 23.0242 5.28292 22.5401 4.75378C22.0062 4.17126 21.0427 3.92188 19.8099 3.92188H16.2306C15.9788 3.92188 15.764 4.09739 15.725 4.33618L14.2343 13.3922C14.2049 13.5713 14.3491 13.733 14.5376 13.733H16.7473L17.3021 10.3596L17.8989 6.73722Z" fill="#253B80"/>
</svg>
