<svg width="37" height="25" viewBox="0 0 37 25" fill="none" xmlns="http://www.w3.org/2000/svg">
<rect x="1.16797" y="1.26855" width="35" height="23" rx="2" fill="white" stroke="#D9D9D9"/>
<path fill-rule="evenodd" clip-rule="evenodd" d="M19.0041 18.3143C17.6304 19.4187 15.8486 20.0854 13.9015 20.0854C9.55706 20.0854 6.03516 16.7659 6.03516 12.6711C6.03516 8.57633 9.55706 5.25684 13.9015 5.25684C15.8486 5.25684 17.6304 5.92358 19.0041 7.02803C20.3777 5.92359 22.1596 5.25686 24.1066 5.25686C28.4511 5.25686 31.973 8.57635 31.973 12.6712C31.973 16.766 28.4511 20.0855 24.1066 20.0855C22.1595 20.0855 20.3777 19.4187 19.0041 18.3143Z" fill="#ED0006"/>
<path fill-rule="evenodd" clip-rule="evenodd" d="M19.0039 18.3143C20.6953 16.9543 21.7678 14.9308 21.7678 12.6711C21.7678 10.4115 20.6953 8.38793 19.0039 7.02801C20.3775 5.92356 22.1594 5.25684 24.1064 5.25684C28.4509 5.25684 31.9728 8.57633 31.9728 12.6711C31.9728 16.7659 28.4509 20.0854 24.1064 20.0854C22.1594 20.0854 20.3775 19.4187 19.0039 18.3143Z" fill="#F9A000"/>
<path fill-rule="evenodd" clip-rule="evenodd" d="M19.006 18.3145C20.6974 16.9546 21.7698 14.931 21.7698 12.6714C21.7698 10.4118 20.6974 8.38824 19.006 7.02832C17.3147 8.38824 16.2422 10.4118 16.2422 12.6714C16.2422 14.931 17.3147 16.9546 19.006 18.3145Z" fill="#FF5E00"/>
</svg>
