<svg width="36" height="25" viewBox="0 0 36 25" fill="none" xmlns="http://www.w3.org/2000/svg">
<rect x="1.16797" y="1.26855" width="34" height="23" rx="2" fill="#1F72CD" stroke="#D9D9D9"/>
<path fill-rule="evenodd" clip-rule="evenodd" d="M6.97401 9.19922L3.71094 16.6327H7.61729L8.10156 15.4475H9.20851L9.69278 16.6327H13.9926V15.7281L14.3757 16.6327H16.5999L16.9831 15.709V16.6327H25.9255L27.0128 15.4782L28.031 16.6327L32.624 16.6422L29.3506 12.9367L32.624 9.19922H28.1022L27.0437 10.3323L26.0576 9.19922H16.3295L15.4941 11.1179L14.6391 9.19922H10.7409V10.073L10.3073 9.19922H6.97401ZM20.3277 10.2548H25.4628L27.0334 12.0012L28.6547 10.2548H30.2253L27.8389 12.9356L30.2253 15.5856H28.5834L27.0128 13.8189L25.3833 15.5856H20.3277V10.2548ZM21.5958 12.3329V11.3592V11.3583H24.8L26.1981 12.9155L24.7381 14.4812H21.5958V13.4182H24.3973V12.3329H21.5958ZM7.72982 10.2548H9.63396L11.7984 15.2954V10.2548H13.8843L15.556 13.8689L17.0967 10.2548H19.1722V15.5888H17.9093L17.899 11.4091L16.0578 15.5888H14.9281L13.0767 11.4091V15.5888H10.4786L9.98607 14.393H7.32505L6.83353 15.5877H5.44153L7.72982 10.2548ZM7.77944 13.2875L8.65614 11.1573L9.53182 13.2875H7.77944Z" fill="white"/>
</svg>
