<svg width="37" height="25" viewBox="0 0 37 25" fill="none" xmlns="http://www.w3.org/2000/svg">
<rect x="1.16797" y="1.26855" width="35" height="23" rx="2" fill="white" stroke="#D9D9D9"/>
<path fill-rule="evenodd" clip-rule="evenodd" d="M11.6635 17.0268H9.48264L7.84723 10.9609C7.76961 10.6819 7.60479 10.4352 7.36235 10.319C6.75731 10.0268 6.0906 9.79426 5.36328 9.67699V9.44345H8.87654C9.36142 9.44345 9.72509 9.79426 9.7857 10.2017L10.6342 14.5772L12.8141 9.44345H14.9344L11.6635 17.0268ZM16.1466 17.0268H14.0869L15.7829 9.44345H17.8426L16.1466 17.0268ZM20.5073 11.5443C20.5679 11.1358 20.9316 10.9023 21.3559 10.9023C22.0226 10.8437 22.7488 10.9609 23.3549 11.2521L23.7186 9.61936C23.1125 9.38583 22.4458 9.26855 21.8407 9.26855C19.8417 9.26855 18.387 10.319 18.387 11.7768C18.387 12.8858 19.4174 13.4682 20.1447 13.819C20.9316 14.1688 21.2346 14.4023 21.174 14.7521C21.174 15.2768 20.5679 15.5103 19.9629 15.5103C19.2356 15.5103 18.5082 15.3354 17.8426 15.0433L17.4789 16.677C18.2063 16.9682 18.9931 17.0854 19.7205 17.0854C21.962 17.1431 23.3549 16.0937 23.3549 14.5186C23.3549 12.535 20.5073 12.4188 20.5073 11.5443ZM30.5633 17.0268L28.9279 9.44345H27.1713C26.8076 9.44345 26.4439 9.67699 26.3227 10.0268L23.2943 17.0268H25.4146L25.8378 15.9188H28.443L28.6854 17.0268H30.5633ZM27.4743 11.4856L28.0793 14.3437H26.3833L27.4743 11.4856Z" fill="#172B85"/>
</svg>
