<?xml version="1.0" encoding="utf-8"?>
<!-- Generator: Adobe Illustrator 27.2.0, SVG Export Plug-In . SVG Version: 6.00 Build 0)  -->
<svg version="1.1" id="Layer_1" xmlns="http://www.w3.org/2000/svg" xmlns:xlink="http://www.w3.org/1999/xlink" x="0px" y="0px"
	 viewBox="0 0 512 474.3" style="enable-background:new 0 0 512 474.3;" xml:space="preserve">
<style type="text/css">
	.st0{fill:#C4E6D6;}
	.st1{fill:#4CAF50;}
	.st2{fill:#83C38E;}
	.st3{fill:#FFFFFF;}
</style>
<path class="st0" d="M291,32.3L291,32.3c122,0,221,98.9,221,221l0,0c0,122-98.9,221-221,221l0,0c-122,0-221-98.9-221-221l0,0
	C70.1,131.3,169,32.3,291,32.3z"/>
<path class="st1" d="M419,176.1c-3.1-5.5-10.1-7.3-15.5-4.2L283,241c-0.2,0.1-0.3,0.2-0.5,0.4c-6.6-6.6-14.9-11.5-24.2-14
	c-14-3.7-28.6-1.8-41.1,5.4c-12.5,7.2-21.5,18.9-25.3,32.9c-7.7,28.9,9.5,58.6,38.3,66.4c4.7,1.2,9.4,1.9,14.1,1.9
	c9.4,0,18.7-2.5,27-7.3c12.5-7.2,21.5-18.9,25.2-32.9c3-11.2,2.3-22.7-1.8-33.3l49.4-28.3l7.9,13.7c2.1,3.7,5.9,5.7,9.9,5.7
	c1.9,0,3.9-0.5,5.7-1.5c5.4-3.1,7.3-10.1,4.2-15.6l-7.9-13.6l20-11.5l7.8,13.6c2.1,3.7,5.9,5.7,9.9,5.7c1.9,0,3.9-0.5,5.7-1.5
	c5.4-3.1,7.3-10.1,4.2-15.6l-7.8-13.5l11.1-6.4C420.3,188.5,422.2,181.6,419,176.1z M274.6,287.9c-2.2,8.1-7.4,14.9-14.6,19.1
	c-7.3,4.2-15.7,5.3-23.8,3.1c-16.7-4.5-26.7-21.7-22.2-38.5c3.8-14,16.5-23.3,30.4-23.3c2.7,0,5.4,0.3,8.1,1.1
	c8.1,2.2,14.9,7.4,19.1,14.6C275.6,271.3,276.7,279.8,274.6,287.9z"/>
<path class="st2" d="M140.1,16.2L140.1,16.2c62.5,0,113.2,50.7,113.2,113.2l0,0c0,62.5-50.7,113.2-113.2,113.2l0,0
	c-62.5,0-113.2-50.7-113.2-113.2l0,0C26.9,66.8,77.6,16.2,140.1,16.2z"/>
<path class="st1" d="M113.2,0L113.2,0c62.5,0,113.2,50.7,113.2,113.2l0,0c0,62.5-50.7,113.2-113.2,113.2l0,0
	C50.7,226.4,0,175.7,0,113.2l0,0C0,50.7,50.7,0,113.2,0z"/>
<path class="st3" d="M103.7,111.8v-3.3c0-2,0.3-3.8,0.8-5.3c0.6-1.6,1.5-3.1,2.7-4.4c1.2-1.4,2.9-2.9,4.9-4.4
	c1.8-1.3,3.3-2.5,4.4-3.5c1.1-1,1.9-2.1,2.4-3.1c0.5-1,0.8-2.2,0.8-3.5c0-1.9-0.7-3.4-2.1-4.4c-1.4-1-3.4-1.5-6-1.5
	s-5.1,0.4-7.6,1.2c-2.5,0.8-5,1.9-7.6,3.2L91.7,73c3-1.7,6.2-3,9.7-4c3.5-1,7.3-1.6,11.4-1.6c6.3,0,11.3,1.5,14.7,4.6
	c3.5,3,5.2,6.9,5.2,11.6c0,2.5-0.4,4.7-1.2,6.5c-0.8,1.8-2,3.5-3.6,5.1c-1.6,1.5-3.5,3.2-5.9,4.9c-1.8,1.3-3.1,2.4-4.1,3.3
	c-0.9,0.9-1.6,1.8-2,2.7c-0.3,0.9-0.5,1.9-0.5,3.2v2.7H103.7z M102.3,127c0-2.8,0.8-4.7,2.3-5.9c1.5-1.1,3.4-1.7,5.6-1.7
	c2.1,0,3.9,0.6,5.4,1.7c1.5,1.1,2.3,3.1,2.3,5.9c0,2.7-0.8,4.6-2.3,5.8c-1.5,1.2-3.3,1.8-5.4,1.8c-2.2,0-4-0.6-5.6-1.8
	C103,131.6,102.3,129.7,102.3,127z"/>
</svg>
