<svg width="20" height="21" viewBox="0 0 20 21" fill="none" xmlns="http://www.w3.org/2000/svg">
<path d="M1.66797 6.33203L8.47207 11.0949C9.02304 11.4806 9.29853 11.6734 9.59819 11.7481C9.86288 11.8141 10.1397 11.8141 10.4044 11.7481C10.7041 11.6734 10.9796 11.4806 11.5305 11.0949L18.3346 6.33203M5.66797 17.1654H14.3346C15.7348 17.1654 16.4348 17.1654 16.9696 16.8929C17.44 16.6532 17.8225 16.2707 18.0622 15.8003C18.3346 15.2656 18.3346 14.5655 18.3346 13.1654V7.83203C18.3346 6.4319 18.3346 5.73183 18.0622 5.19705C17.8225 4.72665 17.44 4.3442 16.9696 4.10451C16.4348 3.83203 15.7348 3.83203 14.3346 3.83203H5.66797C4.26784 3.83203 3.56777 3.83203 3.03299 4.10451C2.56259 4.3442 2.18014 4.72665 1.94045 5.19705C1.66797 5.73183 1.66797 6.4319 1.66797 7.83203V13.1654C1.66797 14.5655 1.66797 15.2656 1.94045 15.8003C2.18014 16.2707 2.56259 16.6532 3.03299 16.8929C3.56777 17.1654 4.26784 17.1654 5.66797 17.1654Z" stroke="#667085" stroke-width="1.66667" stroke-linecap="round" stroke-linejoin="round"/>
</svg>
