<?xml version="1.0" encoding="utf-8"?>
<!-- Generator: Adobe Illustrator 28.1.0, SVG Export Plug-In . SVG Version: 6.00 Build 0)  -->
<svg version="1.1" id="Layer_1" xmlns="http://www.w3.org/2000/svg" xmlns:xlink="http://www.w3.org/1999/xlink" x="0px" y="0px"
	 viewBox="0 0 512 512" style="enable-background:new 0 0 512 512;" xml:space="preserve">
<style type="text/css">
	.st0{fill:none;}
	.st1{fill:#1C1B1F;}
</style>
<g>
	<rect class="st0" width="512" height="512"/>
	<path class="st1" d="M270.3,332.5l49.3-49.3c2.6-2.6,4.6-5.6,6.2-9.2c1.5-3.5,2.3-7.3,2.3-11.3c0-8-2.8-14.8-8.5-20.4
		c-5.6-5.6-12.5-8.5-20.4-8.5c-4.5,0-8.9,1.3-13.2,3.9c-4.4,2.6-9.6,6.9-15.7,13c-7.1-6.6-12.6-11-16.6-13.4
		c-4-2.3-8.1-3.5-12.3-3.5c-8,0-14.8,2.8-20.4,8.5c-5.6,5.6-8.5,12.5-8.5,20.4c0,4,0.8,7.8,2.3,11.3c1.5,3.5,3.6,6.6,6.2,9.2
		L270.3,332.5z M287.9,387.5c-5.4,5.4-12.1,8.1-20.1,8.1c-8,0-14.7-2.7-20.1-8.1L123.7,263.4c-2.6-2.6-4.6-5.6-6.2-9.2
		c-1.5-3.5-2.3-7.3-2.3-11.3V142.2c0-7.8,2.8-14.4,8.3-19.9c5.5-5.5,12.2-8.3,19.9-8.3h100.8c4,0,7.8,0.8,11.3,2.3
		c3.5,1.5,6.6,3.6,9.2,6.2l124.1,124.4c5.4,5.4,8.1,12,8.1,19.9c0,7.9-2.7,14.5-8.1,19.9L287.9,387.5z M267.8,367.8L368.6,267
		L244.2,142.2H143.4V243L267.8,367.8z M178.6,198.6c5.9,0,10.9-2.1,15-6.2c4.1-4.1,6.2-9.1,6.2-15c0-5.9-2.1-10.9-6.2-15
		c-4.1-4.1-9.1-6.2-15-6.2c-5.9,0-10.9,2.1-15,6.2c-4.1,4.1-6.2,9.1-6.2,15c0,5.9,2.1,10.9,6.2,15
		C167.8,196.5,172.8,198.6,178.6,198.6z"/>
</g>
</svg>
