<?xml version="1.0" encoding="utf-8"?>
<!-- Generator: Adobe Illustrator 28.1.0, SVG Export Plug-In . SVG Version: 6.00 Build 0)  -->
<svg version="1.1" id="Layer_1" xmlns="http://www.w3.org/2000/svg" xmlns:xlink="http://www.w3.org/1999/xlink" x="0px" y="0px"
	 viewBox="0 0 512 512" style="enable-background:new 0 0 512 512;" xml:space="preserve">
<style type="text/css">
	.st0{fill:#979797;}
</style>
<path class="st0" d="M256,0C114.8,0,0,114.8,0,256c0,141.1,114.8,256,256,256c141.1,0,256-114.9,256-256C512,114.8,397.1,0,256,0z
	 M468.1,314C437,324.3,405.2,332,373,337.7c6.3-54.3,6.3-109.2,0-163.4c32.2,5.7,64,13.4,95.1,23.7c1.6,0.5,3.2,0.8,4.8,0.8
	c0.5,0,0.8-0.4,1.3-0.4c4.9,18.4,7.7,37.7,7.7,57.6c0,19.9-2.8,39.1-7.7,57.5C472.2,313.3,470.1,313.3,468.1,314z M37.8,313.5
	c-4.8-18.4-7.7-37.6-7.7-57.5c0-19.8,2.8-39,7.7-57.3c2,0.2,4.1,0,6.2-0.7c31-10.3,62.8-18,94.9-23.7c-6.3,54.3-6.3,109.1,0,163.4
	c-32.1-5.7-63.9-13.4-94.9-23.7C41.9,313.3,39.9,313.3,37.8,313.5z M169.8,169.8c57.2-7.4,115.2-7.4,172.4,0
	c7.4,57.2,7.4,115.2,0,172.5c-57.2,7.4-115.2,7.4-172.4,0C162.4,285,162.4,227,169.8,169.8z M462.6,165.1
	c-30.7-9.5-61.8-17.2-93.4-22.3c-5.1-31.6-12.8-62.8-22.3-93.4C398.4,72.1,439.9,113.6,462.6,165.1z M313.3,37.8
	c-0.2,2,0,4.1,0.7,6.1c10.4,31.1,18.1,62.9,23.7,95.1c-54.3-6.3-109.1-6.3-163.4,0c5.7-32.2,13.4-64,23.7-95.1c0.7-2,0.7-4,0.5-6.1
	c18.4-4.9,37.6-7.7,57.5-7.7C275.8,30.1,295,32.9,313.3,37.8z M156.5,53.5c1.1,0.2,2,0.6,3.2,0.6h3.5c-8.7,29.1-15.2,58.7-20,88.6
	c-31.7,5.1-63,12.9-93.7,22.4C70.8,116.5,109,77,156.5,53.5z M53.6,355.6c0.2-1.1,0.7-2.1,0.7-3.3v-3.5
	c29.1,8.8,58.8,15.2,88.8,20.1c4.9,30,11.3,59.7,20.1,88.8h-3.5c-1.2,0-2.2,0.4-3.2,0.7C111.8,436.4,75.6,400.2,53.6,355.6z
	 M198.5,474.2c0.2-2,0.1-4.1-0.5-6.1c-10.3-31-18-62.8-23.7-94.9c27.1,3.2,54.4,5.2,81.7,5.2c27.3,0,54.5-2,81.6-5.2
	c-5.7,32.1-13.3,63.9-23.7,94.9c-0.7,2.1-0.9,4.1-0.7,6.2c-18.3,4.8-37.5,7.6-57.3,7.6C236.1,481.9,216.9,479,198.5,474.2z
	 M346.9,462.6c9.5-30.8,17.2-62,22.4-93.8c29.9-4.9,59.5-11.3,88.6-20.1v3.5c0,1.1,0.4,2.1,0.6,3.2C435,403,395.5,441.2,346.9,462.6
	z"/>
</svg>
