<svg width="24" height="25" viewBox="0 0 24 25" fill="none" xmlns="http://www.w3.org/2000/svg">
<path d="M2 12.7715H22M2 12.7715C2 18.2943 6.47715 22.7715 12 22.7715M2 12.7715C2 7.24864 6.47715 2.77148 12 2.77148M22 12.7715C22 18.2943 17.5228 22.7715 12 22.7715M22 12.7715C22 7.24864 17.5228 2.77148 12 2.77148M12 2.77148C14.5013 5.50984 15.9228 9.06352 16 12.7715C15.9228 16.4795 14.5013 20.0331 12 22.7715M12 2.77148C9.49872 5.50984 8.07725 9.06352 8 12.7715C8.07725 16.4795 9.49872 20.0331 12 22.7715" stroke="#008548" stroke-width="2" stroke-linecap="round" stroke-linejoin="round"/>
</svg>
