<?xml version="1.0" encoding="utf-8"?>
<!-- Generator: Adobe Illustrator 27.2.0, SVG Export Plug-In . SVG Version: 6.00 Build 0)  -->
<svg version="1.1" id="Layer_1" xmlns:svgjs="http://svgjs.com/svgjs"
	 xmlns="http://www.w3.org/2000/svg" xmlns:xlink="http://www.w3.org/1999/xlink" x="0px" y="0px" viewBox="0 0 512 512"
	 style="enable-background:new 0 0 512 512;" xml:space="preserve">
<style type="text/css">
	.st0{fill:#FBBB00;}
	.st1{fill:#518EF8;}
	.st2{fill:#28B446;}
	.st3{fill:#F14336;}
</style>
<path class="st0" d="M113.5,309.4l-17.8,66.5l-65.1,1.4C11,341.2,0,299.9,0,256c0-42.5,10.3-82.5,28.6-117.7h0l58,10.6l25.4,57.6
	c-5.3,15.5-8.2,32.1-8.2,49.5C103.8,274.8,107.2,292.8,113.5,309.4z"/>
<path class="st1" d="M507.5,208.2c2.9,15.5,4.5,31.5,4.5,47.8c0,18.3-1.9,36.2-5.6,53.5c-12.5,58.7-45,109.9-90.1,146.2l0,0l-73-3.7
	l-10.3-64.5c29.9-17.6,53.3-45,65.6-77.9H261.6V208.2H507.5L507.5,208.2z"/>
<path class="st2" d="M416.3,455.6L416.3,455.6C372.4,490.9,316.7,512,256,512c-97.5,0-182.3-54.5-225.5-134.7l83-67.9
	c21.6,57.7,77.3,98.8,142.5,98.8c28,0,54.3-7.6,76.9-20.8L416.3,455.6z"/>
<path class="st3" d="M419.4,58.9l-82.9,67.9c-23.3-14.6-50.9-23-80.5-23c-66.7,0-123.4,43-144,102.7l-83.4-68.3h0
	C71.2,56.1,157.1,0,256,0C318.1,0,375.1,22.1,419.4,58.9z"/>
</svg>
