<svg width="24" height="22" viewBox="0 0 24 22" fill="none" xmlns="http://www.w3.org/2000/svg">
<g clip-path="url(#clip0_5185_152941)">
<path fill-rule="evenodd" clip-rule="evenodd" d="M18.202 19.4757C17.9646 19.4757 17.7518 19.312 17.7023 19.0739C17.6461 18.8022 17.8238 18.537 18.0999 18.4817C20.4102 18.0161 21.5771 16.8076 22.3479 15.9245C21.8063 15.0641 20.5853 13.6677 18.8656 13.0846C16.8825 12.4125 16.4568 12.1564 16.4568 10.9614C16.4568 10.7384 16.6058 10.5425 16.8228 10.4797C17.1464 10.3858 17.5502 10.3833 18.0177 10.3808C18.714 10.3767 19.5802 10.3717 19.8635 10.0005C20.1034 9.68508 20.0029 9.45955 19.5021 8.70461C19.3796 8.51977 19.2505 8.32387 19.1264 8.11392C18.1612 6.47645 18.0887 5.75164 18.0045 4.91232L17.9881 4.74756C17.7778 2.7379 16.688 1.64793 14.7493 1.50779C13.0546 1.62985 12.0046 2.48424 11.6284 4.04687C11.5636 4.3171 11.2879 4.48336 11.0138 4.41957C10.7397 4.35578 10.5697 4.08504 10.6351 3.81531C11.1149 1.82172 12.5641 0.644855 14.7151 0.502707C14.7376 0.501702 14.7605 0.501702 14.7835 0.502707C17.2429 0.665951 18.7416 2.13616 19.0034 4.6446L19.0208 4.81387C19.0989 5.59593 19.1555 6.16101 20.0095 7.60962C20.1239 7.804 20.2438 7.98433 20.3571 8.15561C20.8344 8.87539 21.3755 9.69111 20.6797 10.6028C20.0927 11.3733 18.9457 11.3798 18.0239 11.3853C17.862 11.3863 17.6982 11.3868 17.5502 11.3929C17.6854 11.6033 18.0759 11.755 19.1979 12.1353C21.4286 12.8907 22.9028 14.7632 23.4224 15.7507C23.5173 15.9321 23.4918 16.1526 23.3576 16.3073L23.28 16.3972C22.4719 17.3325 21.1192 18.8991 18.3051 19.4652C18.2704 19.4722 18.2357 19.4757 18.202 19.4757Z" fill="#008548"/>
<path fill-rule="evenodd" clip-rule="evenodd" d="M9.26318 21.8006C4.14641 21.8006 0.553855 21.0522 0.403271 21.0201C0.159276 20.9688 -0.0107047 20.7509 0.000525188 20.5052C0.197559 16.4382 2.77126 15.1759 4.69055 14.5797C6.12186 14.1352 6.89417 13.4054 6.90183 13.3978C7.10295 13.2039 7.42555 13.207 7.6231 13.4049C7.81962 13.6023 7.8186 13.9187 7.6185 14.1131C7.58124 14.1498 6.67927 15.0152 4.99785 15.5376C3.20514 16.0946 1.35424 17.0796 1.05257 20.12C2.15616 20.3164 5.26481 20.7961 9.26318 20.7961C13.2615 20.7961 16.3702 20.3164 17.4738 20.12C17.1716 17.0796 15.3212 16.0946 13.5285 15.5381C11.8466 15.0152 10.9451 14.1498 10.9073 14.1131C10.7072 13.9182 10.7057 13.5997 10.9038 13.4023C11.1013 13.2059 11.4239 13.2044 11.6245 13.3978C11.6455 13.4179 12.4162 14.1387 13.8358 14.5802C15.7546 15.1759 18.3288 16.4377 18.5258 20.5052C18.5371 20.7509 18.3671 20.9688 18.1231 21.0201C17.9725 21.0522 14.3794 21.8006 9.26318 21.8006Z" fill="#008548"/>
<path fill-rule="evenodd" clip-rule="evenodd" d="M5.44488 10.1889C5.45815 10.1969 5.47244 10.2055 5.48673 10.214C5.68019 10.3325 5.84813 10.435 5.91092 10.65C6.10948 11.3301 7.45503 13.8662 9.26459 13.8662C11.0741 13.8662 12.4192 11.3301 12.6183 10.6495C12.681 10.435 12.8485 10.3325 13.0424 10.214C13.0567 10.2055 13.0705 10.1969 13.0838 10.1889C13.5677 9.31289 13.4697 8.95526 13.4263 8.86434C13.3773 8.76087 13.2767 8.72772 13.2757 8.72772C13.0236 8.68201 12.8449 8.45899 12.8587 8.20684C12.8592 8.1963 12.9102 7.18519 12.6611 6.25997C12.6371 6.17659 12.0129 4.10614 9.26459 4.10614C6.48926 4.10614 5.87264 6.24038 5.86702 6.26198C5.61843 7.18519 5.66948 8.1963 5.66999 8.20684C5.68377 8.45899 5.50511 8.68201 5.25295 8.72772C5.24835 8.72973 5.14677 8.76087 5.09777 8.87439C5.05795 8.96681 4.97016 9.32846 5.44488 10.1889ZM9.26459 14.8707C6.81033 14.8707 5.32543 11.9991 4.98496 11.09C4.97271 11.0825 4.95995 11.0754 4.94821 11.0674C4.79456 10.9735 4.68328 10.9062 4.6062 10.7725C4.04828 9.80061 3.90382 9.01503 4.17743 8.43941C4.29942 8.18273 4.47808 8.01798 4.64449 7.913C4.64704 7.48756 4.68379 6.73463 4.88083 6.00279C5.15596 4.99771 6.42545 3.10156 9.26459 3.10156C12.1037 3.10156 13.3732 4.99771 13.6473 6.00078C13.8454 6.73413 13.8821 7.48706 13.8847 7.913C14.0506 8.01798 14.2292 8.18273 14.3512 8.43941C14.6248 9.01503 14.4809 9.80061 13.9225 10.772C13.8459 10.9062 13.7346 10.9735 13.5805 11.0674C13.5687 11.0754 13.5565 11.0825 13.5442 11.09C13.2027 11.9996 11.7183 14.8707 9.26459 14.8707Z" fill="#008548"/>
</g>
<defs>
<clipPath id="clip0_5185_152941">
<rect width="24" height="22" fill="white"/>
</clipPath>
</defs>
</svg>
