<?xml version="1.0" encoding="utf-8"?>
<!-- Generator: Adobe Illustrator 28.1.0, SVG Export Plug-In . SVG Version: 6.00 Build 0)  -->
<svg version="1.1" id="Layer_1" xmlns="http://www.w3.org/2000/svg" xmlns:xlink="http://www.w3.org/1999/xlink" x="0px" y="0px"
	 viewBox="0 0 512 512" style="enable-background:new 0 0 512 512;" xml:space="preserve">
<style type="text/css">
	.st0{fill:none;}
</style>
<g>
	<rect class="st0" width="512" height="512"/>
	<path d="M194.3,260.5c4.9,6,10.7,12.3,17.4,18.6c6.8,6.4,14.3,13.3,22.3,20.5l1.8,1.6l18.8-18.9l-2.1-1.8
		c-7.3-6.4-13.9-12.3-19.8-17.8c-5.8-5.3-10.8-10.5-15-15.4c-4-4.7-7.2-9.2-9.4-13.4c-2.1-4-3.2-7.8-3.2-11.5c0-5,1.6-9.1,4.8-12.3
		c3.3-3.3,7.3-4.9,12.3-4.9c5.2,0,9.2,1.4,12.2,4.4c3.4,3.4,8.2,8.8,14.4,16l0.8,0.9H262l0.8-0.9c6.2-7.1,10.8-12.2,14.2-15.8
		c3-3.1,7.1-4.7,12.7-4.7c4,0,7.4,1.1,10.2,3.4c2.9,2.3,4.9,5.3,6,8.9l0.6,2l2.1-0.2c6.4-0.7,15-0.8,21.2,0.2l3.4,0.6l-0.5-3.5
		c-1.5-10.7-6.2-19.8-14.1-27c-7.9-7.3-17.6-10.9-28.9-10.9h-0.1c0.2-0.7,0.4-1.4,0.5-2.1c0.4-1.9,0.6-3.9,0.6-6
		c0-9.6-3.4-17.8-10.1-24.5c-6.7-6.7-14.9-10.1-24.5-10.1s-17.8,3.4-24.5,10.1s-10.1,14.9-10.1,24.5c0,2.1,0.2,4.2,0.6,6.1
		c0.1,0.7,0.3,1.3,0.5,2c0,0-0.1,0-0.1,0c-12.2,0-22.6,4.2-31,12.6c-8.4,8.4-12.6,18.8-12.6,31c0,6.7,1.4,13.3,4.1,19.5
		C185.5,248.1,189.3,254.3,194.3,260.5z M247.9,170.7c0-2.3,0.8-4.2,2.3-5.8c1.6-1.6,3.5-2.3,5.8-2.3c2.4,0,4.2,0.8,5.8,2.3
		c1.6,1.5,2.3,3.4,2.3,5.8c0,2.3-0.8,4.2-2.3,5.8c-3.1,3.1-8.5,3.1-11.6,0C248.6,174.9,247.9,173,247.9,170.7z M378.5,306.8
		c-4.5-5.5-10.1-9.1-16.7-10.8c1.6-2.8,2.9-5.7,3.9-8.7c1.4-4.2,2.1-8.7,2.1-13.5c0-13.9-5-24.9-14.8-32.7
		c-16.7-13.1-38.2-14.2-64.4-6.9c-10.7,3-23.2,6.8-37.2,11.2l-2.3,0.8l7,25.8l2.6-0.9c13.3-4.4,25-8.1,34.8-10.9
		c9.6-2.8,18.2-4.2,25.4-4.2c5.7,0,11.1,1.5,15.9,4.4c4.4,2.7,6.6,7.1,6.6,13.3c0,8.8-3.4,14-10.3,15.9c-8.1,2.3-15.9,4.2-23.1,5.5
		l-1.1,0.2l-6.2,10.5l0.4,1.1c2,5.7,3.7,10.5,5.1,14.5c1.3,3.6,2,7,2,10.1c0,4.9-1.6,9-5,12.5c-3.4,3.5-7.4,5.2-12.4,5.2
		c-1.8,0-3.5-0.2-5.2-0.7c-1.7-0.5-3.4-1.2-5.2-2.4L278,345l-1.3,2.4c-1.6,2.8-3.4,5.9-5.3,9.3c-1.9,3.2-3.8,6-5.7,8.5l-1.7,2.2
		l2.4,1.5c3.8,2.4,7.7,4.2,11.8,5.4c4.1,1.1,8.2,1.7,12.3,1.7c8.8,0,16.8-2.3,23.6-6.8c5.9-3.9,10.6-9,14.2-15.2
		c2.6,2.6,5.7,4.8,9.2,6.5c4.7,2.2,9.6,3.3,14.5,3.3c9.8,0,18-3.4,24.6-10.1c6.6-6.7,9.9-15,9.9-24.5
		C386.5,320.9,383.9,313.4,378.5,306.8z M360.1,329.1c0,2.4-0.8,4.3-2.2,5.8c-3,3.1-8.2,3.1-11.5-0.1c-1.6-1.7-2.5-3.6-2.5-5.9
		c0-2.3,0.8-4.2,2.3-5.8c1.6-1.5,3.5-2.3,5.8-2.3c2.4,0,4.2,0.8,5.8,2.4C359.4,324.8,360.1,326.8,360.1,329.1z M276.6,311.2
		c2.3-10.3,4.3-19.5,5.9-27.5l0.5-2.4l-25.8-6.9l-0.5,2.7c-0.9,4.4-2.1,10.9-3.6,19.2c-1.5,8.2-3.6,16.4-6.4,24.4
		c-2.8,7.9-6.3,14.9-10.6,20.7c-4,5.4-8.8,8-14.7,8c-4.8,0-8.8-1.7-12.1-5.2c-3.4-3.5-5-7.6-5-12.2c0-2.9,0.7-6.2,2-9.9l0.5-1.3
		c1.3-3.8,2.9-8.2,4.6-13.3l0.4-1.1l-6.2-10.5l-1.1-0.2c-7.1-1.4-14.8-3.2-23-5.5c-7.1-2-10.4-7.1-10.4-15.9c0-2.6,0.6-5.1,1.9-7.5
		c1.3-2.4,2.9-4.5,5.2-6.2l2-1.5l-1.5-2c-1.8-2.5-3.5-5.5-4.9-8.9c-1.5-3.5-2.6-6.9-3.5-10l-0.9-3.2l-2.9,1.7
		c-6.9,4.1-12.4,9.6-16.2,16.1c-3.9,6.6-5.8,13.8-5.8,21.3c0,4.7,0.7,9.2,2.1,13.5c1,3,2.3,5.9,3.9,8.7c-6.6,1.6-12.2,5.2-16.7,10.8
		c-5.3,6.6-8,14.1-8,22.3c0,9.5,3.4,17.8,9.9,24.5c6.6,6.7,14.9,10.1,24.6,10.1c5,0,9.9-1.1,14.6-3.3c3.5-1.6,6.6-3.8,9.2-6.5
		c3.6,6.3,8.4,11.4,14.2,15.2c6.9,4.5,14.8,6.8,23.4,6.8c11.5,0,21-3.4,28.3-10.3c7-6.6,12.8-14.8,17.1-24.4
		C271,331.8,274.3,321.6,276.6,311.2z M154.2,334.9c-1.6-1.6-2.3-3.5-2.3-5.8c0-2.3,0.8-4.2,2.3-5.8c1.6-1.5,3.5-2.3,5.8-2.3
		s4.2,0.8,5.8,2.3c1.6,1.6,2.3,3.5,2.3,5.8s-0.8,4.2-2.3,5.8C162.7,338,157.3,338,154.2,334.9z"/>
</g>
</svg>
