<svg width="24" height="25" viewBox="0 0 24 25" fill="none" xmlns="http://www.w3.org/2000/svg">
<path d="M12.029 13.5123C11.948 13.5007 11.8438 13.5007 11.7512 13.5123C9.71414 13.4427 8.09375 11.7733 8.09375 9.72141C8.09375 7.6231 9.78359 5.91895 11.8901 5.91895C13.985 5.91895 15.6865 7.6231 15.6865 9.72141C15.6749 11.7733 14.0661 13.4427 12.029 13.5123Z" stroke="#004520" stroke-linecap="round" stroke-linejoin="round"/>
<path d="M19.4804 21.1127C17.4755 22.9981 14.8172 24.1431 11.8886 24.1431C8.96007 24.1431 6.30182 22.9981 4.29688 21.1127C4.40951 20.0255 5.08534 18.9614 6.29056 18.1286C9.37683 16.0235 14.423 16.0235 17.4867 18.1286C18.6919 18.9614 19.3678 20.0255 19.4804 21.1127Z" stroke="#004520" stroke-linecap="round" stroke-linejoin="round"/>
<path d="M11.8876 24.1433C18.1769 24.1433 23.2753 19.0438 23.2753 12.7533C23.2753 6.46276 18.1769 1.36328 11.8876 1.36328C5.59842 1.36328 0.5 6.46276 0.5 12.7533C0.5 19.0438 5.59842 24.1433 11.8876 24.1433Z" stroke="#004520" stroke-linecap="round" stroke-linejoin="round"/>
</svg>
