<svg width="22" height="22" viewBox="0 0 22 22" fill="none" xmlns="http://www.w3.org/2000/svg">
<path d="M20.668 21.2852L16.3603 16.9775M8.95002 17.8493C10.0376 17.8493 11.1146 17.635 12.1194 17.2188C13.1242 16.8026 14.0373 16.1926 14.8063 15.4235C15.5754 14.6544 16.1854 13.7414 16.6016 12.7366C17.0179 11.7318 17.2321 10.6548 17.2321 9.56721C17.2321 8.47959 17.0179 7.40263 16.6016 6.3978C16.1854 5.39298 15.5754 4.47997 14.8063 3.71091C14.0373 2.94185 13.1242 2.3318 12.1194 1.91559C11.1146 1.49938 10.0376 1.28516 8.95002 1.28516C6.75348 1.28516 4.64691 2.15773 3.09373 3.71091C1.54054 5.2641 0.667969 7.37067 0.667969 9.56721C0.667969 11.7637 1.54054 13.8703 3.09373 15.4235C4.64691 16.9767 6.75348 17.8493 8.95002 17.8493Z" stroke="#004520" stroke-linecap="round" stroke-linejoin="round"/>
</svg>
