<?xml version="1.0" encoding="utf-8"?>
<!-- Generator: Adobe Illustrator 28.1.0, SVG Export Plug-In . SVG Version: 6.00 Build 0)  -->
<svg version="1.1" id="Layer_1" xmlns="http://www.w3.org/2000/svg" xmlns:xlink="http://www.w3.org/1999/xlink" x="0px" y="0px"
	 viewBox="0 0 96 122" style="enable-background:new 0 0 96 122;" xml:space="preserve">
<style type="text/css">
	.st0{fill:#4CAF50;}
</style>
<g>
	<path class="st0" d="M48.1,34.9c9.7,0,16.8-12,16.8-20.1c0-8.3-7.5-15-16.8-15c-9.3,0-16.8,6.7-16.8,15
		C31.3,22.9,38.4,34.9,48.1,34.9z M36.5,14.8C36.7,9,41.8,4.5,48.1,4.5c6.4,0,11.7,4.6,11.7,10.3c0,5.8-5.7,15.4-11.7,15.4
		C41.9,30.2,36.5,20.6,36.5,14.8z"/>
	<path class="st0" d="M75.4,102.6L75,103L75.4,102.6c-1.2-1.1-5.8-4.6-16.5-7.1c0.6-0.2,1.1-0.5,1.5-1c0.4-0.5,0.5-1.2,0.4-1.8
		c-0.2-1.3-1.6-2.2-3-2c-0.2,0-0.3,0-0.5,0.1c-0.1,0-0.2,0.1-0.2,0.1l-8.5,2.8c-5.9-0.5-11.6-0.7-17.4-0.5c-1.5,0-2.7,1.1-2.7,2.4
		c0,1.3,1.2,2.4,2.7,2.4h0c16.2-0.5,26.3,1.6,31.9,3.5c2.9,0.8,5.7,2.2,8.1,3.8c0.6,3.4-0.1,7-2.2,10.1c-1.5-1.8-2.5-3.6-3-5.2
		c-0.2-1-1.2-1.8-2.2-1.8c0,0,0,0,0,0c-12.3-1.2-23.4-1.5-34-1.2c-9.5,0.2-16.6,0.8-19.5,1.2c-3-2.9-7.2-8.3-3.5-12.4
		c5.4-5.9,15.2-11.1,17.1-12c5.3,2.3,11,3.8,16.5,4.3h0.8c2.1,0,4-1.1,5.1-2.8c1.3-1.9,0.9-4.5-0.8-6.2c-3-3.1-5.7-5.4-8.5-7.1
		c-4.3-2.8-5.4-4.3-5.6-4.7l2.5-8.5c0.2-0.6,0.2-1.2-0.2-1.8c-0.4-0.6-1-1.1-1.8-1.2c-1.5-0.2-2.9,0.5-3.1,1.8l-2.5,8.7
		c-0.2,0.5-0.2,1-0.2,1.5c0.2,1.4,1.3,3.6,7.9,8c2.9,1.9,5.5,4,7.8,6.4c0.2,0.2,0.2,0.5,0.1,0.8c-0.1,0.1-0.4,0.3-0.7,0.3
		c-24.8-2.9-25.5-16-25.5-16.1c2-14.9,9.6-23.8,12-26.2l4.3-1.7c1.9,7.9,10.3,13.1,19.3,11.9c3.5-0.5,6.7-2,9.1-4.1
		c0.5-0.4,0.8-1,0.8-1.7c0-0.6-0.3-1.3-0.8-1.7c-1-0.9-2.6-0.9-3.6,0c-4.5,4-11.9,4-16.4,0c-1.9-1.7-3.1-3.9-3.3-6.3
		c0.2-0.1,0.5-0.2,0.7-0.2c0.4-0.1,0.6-0.2,0.8-0.3c0.6-0.1,1.1-0.4,1.5-0.9c0.4-0.5,0.5-1.2,0.4-2c-0.2-0.8-0.9-1.5-1.7-1.8
		c-0.9-0.2-1.7-0.4-13.7,4.8l-0.1,0.1c0,0-0.1,0.1-0.2,0.1c-0.1,0.1-0.3,0.1-0.4,0.3c-1.2,1-11.4,10.6-13.9,29.8l0,0.4
		c0.6,5.4,3.7,10.3,8.7,13.6c-6.3,3.4-11.7,7.5-16.1,12c-3.3,3.9-3.5,8.5-0.4,13.7c1.3,2.1,3,4.1,5.2,6.1c0.5,0.5,1.4,0.7,2.1,0.7
		c0,0,0.2,0,0.5,0l0.2,0c1.7-0.2,6.9-0.7,14.5-1.1l-1.9,3.1c-0.2,0.6-0.2,1.2,0.1,1.8c0.3,0.6,0.8,1.1,1.4,1.3
		c1.1,0.4,2.3,0.1,3.2-0.9l3.4-5.7c10.7-0.2,20.6,0.2,30.4,1.2c1.3,3.4,3.5,6.1,6.6,8.2c0.5,0.2,1,0.4,1.4,0.4
		c0.8,0,1.5-0.3,1.9-0.8c4.4-4.8,6.1-10.9,4.7-16.9C75.9,103.5,75.8,102.9,75.4,102.6z"/>
	<path class="st0" d="M93.3,93.4L93.3,93.4C88.5,88.6,83,84.5,77,81.2c8.9-6.1,9.2-13.9,9.2-13.9l0-0.4
		c-2.1-15.7-9.4-25.1-13.6-29.4c-0.1-0.1-0.2-0.2-0.2-0.2l-0.1-0.1c-0.2-0.2-0.5-0.4-0.8-0.5c-12.1-5-12.7-4.9-13.5-4.7
		c-0.7,0.1-1.4,0.5-1.8,1.1c-0.4,0.5-0.5,1.2-0.4,1.8c0.2,1.1,1.2,1.9,2.4,2c1.3,0.4,6.4,2.2,10.6,4.1c0.9,0.8,9.7,9.3,11.9,26.2
		c-0.5,3.2-3.7,13.6-25.4,16.1c-0.3,0-0.7-0.2-0.7-0.3c-0.1-0.1-0.1-0.4,0.1-0.6c2.3-2.4,4.9-4.5,7.8-6.4c6.5-4.4,7.6-6.6,7.9-8.1
		c0-0.5,0-1-0.2-1.5l-2.6-8.8c-0.5-1.3-2-1.9-3.1-1.7c-0.6,0.1-1.2,0.5-1.6,1.1c-0.4,0.6-0.5,1.2-0.4,1.8l2.5,8.6
		c-0.2,0.4-1.3,1.7-5.6,4.7c-3.2,2.1-6,4.4-8.5,7.1c-1.7,1.7-2,4-0.9,6.2c1.1,1.8,3.1,2.9,5.3,2.9l0.8,0c5.4-0.5,10.9-1.9,15.8-4
		c3,1.6,12.2,6.8,17.3,12.2c2,2.1,2,4.8-0.1,8.3c-0.9,1.5-2.1,3-3.7,4.5l-4.1,0c-1.5,0-2.7,1.1-2.7,2.4s1.2,2.4,2.7,2.4h5.3
		c0.7,0,1.4-0.2,1.9-0.7c2-1.8,3.8-4,5.2-6.2C96.9,101.7,96.7,96.9,93.3,93.4z"/>
</g>
</svg>
