<?xml version="1.0" encoding="utf-8"?>
<!-- Generator: Adobe Illustrator 28.1.0, SVG Export Plug-In . SVG Version: 6.00 Build 0)  -->
<svg version="1.1" id="Layer_1" xmlns="http://www.w3.org/2000/svg" xmlns:xlink="http://www.w3.org/1999/xlink" x="0px" y="0px"
	 viewBox="0 0 118 124.1" style="enable-background:new 0 0 118 124.1;" xml:space="preserve">
<style type="text/css">
	.st0{fill:#4CAF50;}
</style>
<g>
	<path class="st0" d="M98.9,106.6c0-3.7,0.1-7.5,0-11.2c-0.1-6.2,1.6-11.9,5.3-17c4.4-6.2,7-13.1,7.8-20.5
		c1.7-16.3-3.7-30.1-16.5-40.9C68.3-5.8,25.9,6.7,16.5,40.2c-1.1,3.8-1.6,7.8-1.6,11.7c-0.1,6.4-1.3,12.3-4,18.1
		c-1.7,3.7-3.3,7.5-5,11.2C5.5,82.5,5.7,83,7,83.4c2.1,0.5,4.1,1.1,6.2,1.6c2.8,0.8,4.5,2.6,4.9,5.4c1,6.4,2.1,12.8,3.1,19.1
		c0.4,2.5,2.3,4.3,5,4.3c6.2,0,12.3,0.1,18.5,0c6.2-0.2,11.3-5.1,11.6-11.2c0-0.6,0.1-1.3,0.4-1.8c0.6-1.2,1.7-1.6,3.1-1.4
		c1.3,0.2,2.2,1.3,2.1,2.8c-0.2,6.8-3.5,11.8-9.7,15.1c-2.6,1.4-5.5,2-8.5,2c-5.6,0-11.2,0-16.8,0c-6.4,0-10.4-3.8-11.2-9.9
		c-0.8-6-2-12-3-18c-0.1-0.5-0.8-1.1-1.3-1.3c-2-0.6-4-1.1-6-1.6c-4.5-1.2-6.4-4.9-4.6-9c1.8-4.3,3.7-8.6,5.6-12.9
		c2-4.5,2.9-9.1,2.9-14C9.7,31.2,19.9,15.1,39.7,5.5c31.6-15.4,70.5,3.3,77.2,36.7c2.8,14,0.2,27.1-8,39.1
		c-3.1,4.5-4.6,9.2-4.5,14.5c0.1,8.1,0,16.2,0,24.3c0,0.4,0,0.8,0,1.2c-0.1,1.7-1.3,2.9-2.9,2.8c-1.5,0-2.6-1.2-2.6-2.8
		C98.9,116.3,98.9,111.5,98.9,106.6z"/>
	<path class="st0" d="M42,34c-6,0.2-10.8,5.3-10.7,11.1C31.4,51.1,36.5,56,42.2,56c0.7-1.3,1.3-2.7,2.2-3.9c2.2-3,5.3-4.6,9.2-4.8
		c2-0.1,3.2,0.9,3.3,2.5c0.1,1.6-1,2.7-3,2.8c-3.3,0.3-5.7,2.4-6.2,5.2c-0.4,2.8,1,5.5,3.7,6.6c1.1,0.4,2.2,0.5,3.4,0.6
		c2.2,0.1,4.4,0,6.6,0.2c5.9,0.5,10.8,5.1,11.1,10.9c0.2,2.8,0.1,5.7,0.1,8.5c0,1.7-1.1,2.7-2.7,2.8c-1.6,0-2.8-1.1-2.9-2.8
		c0-2.4,0-4.8,0-7.2c0-4.1-2.8-6.8-7-6.9c-2.5,0-5,0.1-7.5-0.2c-4.8-0.6-8-3.3-9.7-7.6c-0.3-0.9-0.7-1.3-1.8-1.4
		c-8.8-0.9-15.5-8.2-15.3-16.6c0.2-8.6,7.1-15.6,16-16.2c0.9,0,1.2-0.4,1.5-1.1c2.9-6.9,8.1-11.2,15.7-12.1
		c7.9-0.9,14.1,2.1,18.7,8.3c0.4,0.5,1.2,0.9,1.8,0.9C89,25,96.5,32.9,95.8,42.1c-0.1,0.9,0.3,1.4,0.9,2c4.4,3.7,6.2,8.5,4.9,14
		c-1.3,5.5-4.9,9-10.6,10.5c-7.6,2-15.6-2.4-17.8-9.7c-0.2-0.5-0.3-1-0.4-1.6c-2.6-0.1-5.1-0.7-7.1-2.4c-0.8-0.6-1.5-1.3-2.1-2.1
		c-0.8-1.1-0.6-2.6,0.5-3.5c1.1-0.9,2.6-0.9,3.7,0.1c0.3,0.3,0.5,0.6,0.8,0.9c1.6,1.5,3.9,2,5.9,1.1c2.1-0.8,3.3-2.7,3.3-4.9
		c0-0.4,0-0.8,0-1.2c0-1.6,1-2.7,2.5-2.9c1.5-0.2,2.8,0.9,3.1,2.5c0.5,4-0.7,7.4-4.1,9.9c-1,0.7-1,1.4-0.7,2.4
		c1.1,3.5,4.3,6,8.1,6.3c3.5,0.3,7.2-1.8,8.8-5c1.6-3.3,1-6.9-1.6-9.7c-0.2,0.3-0.4,0.5-0.6,0.8c-1,1.4-2.5,1.8-3.8,1
		c-1.3-0.7-1.8-2.3-0.9-3.7c1.2-2.1,1.8-4.3,1.7-6.7c-0.5-6.2-6.1-10.8-12.5-10.2c-2.4,0.2-2.9,0-4.1-2.2c-2.8-5.1-8.6-8.1-14.2-7.2
		c-6.2,1-10.7,5.2-11.7,11.1c-0.2,1.2-0.1,2.4-0.1,3.6c0,1.7-1,2.9-2.6,3c-1.5,0.1-2.8-1.1-2.9-2.8C42.1,35.2,42,34.6,42,34z"/>
	<path class="st0" d="M67.5,41.7c0-2.6-1.2-4.5-3.5-5.3c-2.2-0.8-4.4-0.2-6.2,1.7c-1.3,1.5-2.9,1.8-4.2,0.7
		c-1.3-1.1-1.3-2.6-0.1-4.2c3-3.6,8.1-4.9,12.6-3.2c4.4,1.7,7.3,6,6.9,10.6c-0.2,2.1-1.3,3.2-3.1,3.1C68.4,44.9,67.5,43.8,67.5,41.7
		z"/>
</g>
</svg>
