<?xml version="1.0" encoding="utf-8"?>
<!-- Generator: Adobe Illustrator 28.1.0, SVG Export Plug-In . SVG Version: 6.00 Build 0)  -->
<svg version="1.1" id="Layer_1" xmlns="http://www.w3.org/2000/svg" xmlns:xlink="http://www.w3.org/1999/xlink" x="0px" y="0px"
	 viewBox="0 0 135 135" style="enable-background:new 0 0 135 135;" xml:space="preserve">
<style type="text/css">
	.st0{fill:#4CAF50;}
	.st1{fill:#FFFFFF;}
</style>
<g>
	<path class="st0" d="M53.6,134.2c-1.4-0.8-1.9-2-1.8-3.6c0.1-4.9,0.1-9.8,0-14.7c-0.2-7.1-2.6-13.3-7.5-18.5
		c-3.5-3.7-7.2-7.2-10.9-10.7c-2.1-2.1-5.2-2.1-7.2-0.2c-2,2-2.1,4.8-0.1,7.2c3.3,3.9,6.6,7.9,10,11.8c0.3,0.3,0.6,0.8,0.9,1.1
		c0.7,1.1,0.5,2.5-0.4,3.3c-1,0.9-2.5,0.9-3.4,0c-0.4-0.3-0.8-0.9-1.1-1.3c-3.6-4.3-7.2-8.6-10.8-12.8c-5.5-6.5-8.2-14.1-8.2-22.6
		c0-7,0-14.1,0-21c0-2.3-1-3.8-2.8-4.1c-2.2-0.4-4.2,1-4.4,3.3c0,0.4,0,0.8,0,1.2c0,12.6,0,25.2,0,37.8c0,5.3,1.3,10.2,3.9,14.9
		c4.7,8.1,9.4,16.2,14.1,24.3c1.3,2.2,1,3.3-1,4.7c-0.5,0-1,0-1.5,0c-0.7-0.8-1.5-1.4-2-2.2c-4.7-8-9.4-16-13.9-24
		c-1.5-2.7-2.6-5.6-3.7-8.5c-0.6-1.7-0.8-3.7-1.1-5.6c0-14.6,0-29.1,0-43.7c0.2-0.5,0.3-1,0.5-1.6c1.4-3.9,5.3-6.3,9.6-5.8
		c3.9,0.5,7,3.8,7.5,7.8c0.1,0.9,0.1,1.8,0.1,2.7c0,6.6,0,13.2,0,19.8c0,4.6,0.9,9,2.5,11.8c0.2-0.2,0.3-0.4,0.4-0.6
		c3.8-5.5,11-6.3,15.8-1.7c3.7,3.5,7.5,7.1,11,10.8c5.9,6.3,9,13.6,9.1,22.3c0.1,4.9,0,9.9,0.1,14.8c0,1.5-0.4,2.7-1.9,3.4
		C54.6,134.2,54.1,134.2,53.6,134.2z"/>
	<path class="st0" d="M79.8,134.2c-1.4-0.7-1.9-1.8-1.9-3.4c0.1-5,0-9.9,0.1-14.8c0.2-8.6,3.2-16.1,9.1-22.3
		c3.5-3.7,7.2-7.3,11-10.8c4.8-4.5,12-3.8,15.8,1.7c0.2,0.2,0.3,0.3,0.4,0.6c1.5-2.8,2.5-7.2,2.5-11.8c0-6.6,0-13.2,0-19.8
		c0-0.9,0-1.8,0.1-2.7c0.4-4,3.5-7.3,7.5-7.8c4.3-0.5,8.2,1.8,9.6,5.8c0.2,0.5,0.3,1,0.5,1.6c0,14.6,0,29.1,0,43.7
		c-0.3,1.9-0.5,3.9-1.1,5.6c-1,2.9-2.1,5.8-3.7,8.5c-4.6,8.1-9.3,16.1-13.9,24c-0.4,0.9-1.3,1.5-2,2.2c-0.5,0-1,0-1.5,0
		c-2.1-1.4-2.3-2.5-1-4.7c4.7-8.1,9.4-16.2,14.1-24.3c2.7-4.6,4-9.5,3.9-14.9c-0.1-12.6,0-25.2,0-37.8c0-0.4,0-0.8,0-1.2
		c-0.2-2.3-2.1-3.8-4.4-3.3c-1.8,0.3-2.8,1.9-2.8,4.1c0,7,0,14.1,0,21c0,8.5-2.7,16.1-8.2,22.6c-3.6,4.3-7.2,8.6-10.8,12.8
		c-0.3,0.4-0.7,0.9-1.1,1.3c-1,0.9-2.5,0.9-3.4,0c-0.9-0.9-1.2-2.2-0.4-3.3c0.3-0.4,0.6-0.8,0.9-1.1c3.3-3.9,6.6-7.8,10-11.8
		c2-2.3,1.9-5.2-0.1-7.2c-2-1.9-5.1-1.9-7.2,0.2c-3.7,3.5-7.4,7-10.9,10.7c-4.9,5.2-7.4,11.3-7.5,18.5c-0.1,4.9-0.1,9.8,0,14.7
		c0,1.6-0.4,2.8-1.8,3.6C80.8,134.2,80.3,134.2,79.8,134.2z"/>
	<path class="st0" d="M67.5,20.3c0,0,0.7,6,3.2,11.5c1.2,2.5,4.2,6,6,7.7c5,4.6,15.8,5.4,15.8,5.4s-8.9,2.3-14.3,5.2
		c-3.1,2.1-4.8,4.8-5.9,6.9c-2.7,5.1-4.8,13.2-4.8,13.2s-0.8-8-4.2-13.3c-1.6-2.5-3.6-5.2-6.2-6.8C50.6,46.3,42.4,45,42.4,45
		s9.8-0.8,14.5-4.3c3.1-2.3,4.4-3.5,6.3-6.8C65.9,29.2,67.5,20.3,67.5,20.3z"/>
	<path class="st1" d="M67.3,32.1c0,0,0.5,3.2,1.8,6.1c0.6,1.3,2.2,3.2,3.1,4.1c2.6,2.4,8.1,2.9,8.1,2.9s-3.4,0.5-6.3,1.9
		c-1.1,0.5-3,2.5-3.7,3.5c-2.2,3.3-2.9,8-2.9,8s-0.6-4.1-2.2-7c-0.9-1.6-1.8-2.8-3.2-3.6c-3.3-2.1-7.5-2.8-7.5-2.8s5.1-0.4,7.5-2.3
		c1.6-1.2,2.3-1.8,3.3-3.6C66.6,36.8,67.3,32.1,67.3,32.1z"/>
</g>
</svg>
