<?xml version="1.0" encoding="utf-8"?>
<!-- Generator: Adobe Illustrator 28.1.0, SVG Export Plug-In . SVG Version: 6.00 Build 0)  -->
<svg version="1.1" id="Layer_1" xmlns="http://www.w3.org/2000/svg" xmlns:xlink="http://www.w3.org/1999/xlink" x="0px" y="0px"
	 viewBox="0 0 512 512" style="enable-background:new 0 0 512 512;" xml:space="preserve">
<style type="text/css">
	.st0{fill:none;}
</style>
<g>
	<rect class="st0" width="512" height="512"/>
	<path d="M255.9,401.1c-3.3,0-6.6-1.2-9.1-3.8L118.6,269c-17.5-17.5-27.2-40.8-27.2-65.5c0-24.4,9.9-48.3,27.2-65.5
		c17.5-17.5,40.8-27.1,65.5-27.1c24.4,0,48.3,9.9,65.5,27.1l6.3,6.3l6.3-6.3c8.7-8.7,18.8-15.4,30.1-20.1c22.5-9.4,48.3-9.4,70.9,0
		c11.3,4.7,21.4,11.4,30.1,20.1c8.7,8.7,15.4,18.8,20.1,30.1c4.7,11.3,7.1,23.2,7.1,35.5c0,12.2-2.4,24.2-7.1,35.5
		c-4.6,11.2-11.4,21.4-20.1,30.1L265,397.4C262.5,399.9,259.2,401.1,255.9,401.1z M184.1,136.4c-17.9,0-34.8,7-47.4,19.6
		c-12.5,12.5-19.6,29.8-19.6,47.4c0,17.9,7,34.8,19.6,47.4l119.3,119.3l119.3-119.3c6.3-6.3,11.2-13.6,14.5-21.8
		c3.4-8.2,5.1-16.8,5.1-25.7c0-8.8-1.7-17.5-5.1-25.7c-3.4-8.2-8.3-15.5-14.5-21.8c0,0,0,0,0,0c-6.2-6.2-13.6-11.1-21.8-14.5
		c-16.4-6.8-35.1-6.8-51.3,0c-8.2,3.4-15.5,8.3-21.8,14.6L265,171.4c-5,5-13.1,5-18.1,0l-15.4-15.4
		C219,143.6,201.7,136.4,184.1,136.4z"/>
</g>
</svg>
