<?xml version="1.0" encoding="utf-8"?>
<!-- Generator: Adobe Illustrator 27.2.0, SVG Export Plug-In . SVG Version: 6.00 Build 0)  -->
<svg version="1.1" id="Layer_1" xmlns="http://www.w3.org/2000/svg" xmlns:xlink="http://www.w3.org/1999/xlink" x="0px" y="0px"
	 viewBox="0 0 512 512" style="enable-background:new 0 0 512 512;" xml:space="preserve">
<style type="text/css">
	.st0{fill:#005A2A;}
	.st1{fill:#FFFFFF;}
</style>
<g>
	<path class="st0" d="M256.3,0c0,0,7.2,61.6,32.6,117.9c11.8,26.1,42.9,61.7,61.7,79.1c51.2,47.3,161.4,55.6,161.4,55.6
		s-91.1,23.1-146.5,53c-31.5,21-48.8,48.9-60.2,70.8C278.1,428.8,256.1,512,256.1,512s-7.8-81.6-43.2-136.1
		c-16.7-25.7-36.5-53.4-63.5-70C83.8,265.7,0,252.5,0,252.5s100.5-8.1,148.8-44.5c31.6-23.8,45.2-35.5,64.8-70.1
		C240.2,90.7,256.3,0,256.3,0z"/>
	<path class="st1" d="M255,120.4c0,0,4.9,32.7,18,62.4c6.1,13.8,22.1,32.7,31.9,41.9c26.5,25.1,83.4,29.5,83.4,29.5
		s-34.9,5.5-64.4,19.5c-11.1,5.3-30.9,25.2-38,36.1c-22.4,34.2-29.6,81.8-29.6,81.8s-6.1-42.2-22.6-72.1
		c-8.9-16.3-18.9-28.3-32.8-37.1c-33.9-21.3-77.2-28.3-77.2-28.3s51.9-4.3,76.9-23.6c16.3-12.6,23.3-18.8,33.5-37.1
		C247.8,168.4,255,120.4,255,120.4z"/>
</g>
</svg>
