<svg width="76" height="76" viewBox="0 0 76 76" fill="none" xmlns="http://www.w3.org/2000/svg">
<g opacity="0.3">
<path d="M38.4666 0.931641C38.4666 0.931641 39.5237 9.96109 43.2463 18.1982C44.9727 22.0181 49.5237 27.2307 52.2903 29.7861C59.7976 36.7202 75.9268 37.9321 75.9268 37.9321C75.9268 37.9321 62.5889 41.3179 54.46 45.7011C49.851 48.7831 47.3102 52.8632 45.643 56.0747C41.6584 63.7499 38.447 75.9316 38.447 75.9316C38.447 75.9316 37.3036 63.9725 32.1153 55.9927C29.6657 52.2251 26.7705 48.1657 22.8104 45.7418C13.1986 39.8585 0.926758 37.9153 0.926758 37.9153C0.926758 37.9153 15.6447 36.7245 22.7235 31.3906C27.3469 27.9069 29.3403 26.1947 32.2087 21.1233C36.1141 14.2185 38.4666 0.931641 38.4666 0.931641Z" fill="#005A2A"/>
<path d="M38.2762 18.5654C38.2762 18.5654 38.9938 23.3491 40.9179 27.713C41.8101 29.7367 44.1623 32.4983 45.5923 33.8522C49.4724 37.5258 57.8088 38.1678 57.8088 38.1678C57.8088 38.1678 52.7 38.9763 48.3789 41.0303C46.7554 41.802 43.8469 44.728 42.8056 46.3194C39.5287 51.3274 38.4709 58.2996 38.4709 58.2996C38.4709 58.2996 37.5739 52.1179 35.1648 47.7361C33.856 45.3556 32.4023 43.5895 30.3555 42.3053C25.3876 39.1884 19.0449 38.1589 19.0449 38.1589C19.0449 38.1589 26.6519 37.528 30.3106 34.7022C32.7002 32.8566 33.7305 31.9495 35.2131 29.2627C37.2316 25.6046 38.2762 18.5654 38.2762 18.5654Z" fill="white"/>
</g>
</svg>
