<?xml version="1.0" encoding="utf-8"?>
<!-- Generator: Adobe Illustrator 28.1.0, SVG Export Plug-In . SVG Version: 6.00 Build 0)  -->
<svg version="1.1" id="Layer_1" xmlns="http://www.w3.org/2000/svg" xmlns:xlink="http://www.w3.org/1999/xlink" x="0px" y="0px"
	 viewBox="0 0 119 105" style="enable-background:new 0 0 119 105;" xml:space="preserve">
<style type="text/css">
	.st0{fill:#005A2A;}
</style>
<g>
	<path class="st0" d="M59.7,104.9c-0.6,0-1.3-0.2-1.8-0.7l-48-48c-6.1-6.1-9.5-14.2-9.5-22.9s3.4-16.8,9.5-22.9
		C16,4.3,24.2,0.9,32.8,0.9s16.8,3.4,22.9,9.5l4,4l4-4c3-3,6.6-5.4,10.5-7c3.9-1.6,8.1-2.5,12.4-2.5S95,1.7,99,3.4
		c3.9,1.6,7.5,4,10.5,7l0,0c0,0,0,0,0,0l0,0c3,3,5.4,6.6,7,10.5c1.6,3.9,2.5,8.1,2.5,12.4c0,4.3-0.8,8.4-2.5,12.4
		c-1.6,4-4,7.5-7,10.5l-48,48C61,104.7,60.3,104.9,59.7,104.9z M32.8,5.9c-7.3,0-14.2,2.8-19.4,8c-5.2,5.2-8,12-8,19.4
		s2.8,14.2,8,19.4l46.2,46.2l46.2-46.2c2.6-2.6,4.6-5.5,5.9-8.9c1.4-3.3,2.1-6.9,2.1-10.5c0-3.6-0.7-7.1-2.1-10.5
		c-1.4-3.3-3.4-6.3-5.9-8.9c0,0,0,0,0,0c-2.6-2.6-5.5-4.6-8.9-5.9c-6.7-2.8-14.3-2.8-21,0c-3.3,1.4-6.3,3.4-8.9,5.9l-5.8,5.8
		c-1,1-2.6,1-3.5,0l-5.8-5.8C47,8.8,40.1,5.9,32.8,5.9z"/>
</g>
</svg>
