<svg width="135" height="135" viewBox="0 0 135 135" fill="none" xmlns="http://www.w3.org/2000/svg">
<path d="M53.5819 134.229C52.2084 133.456 51.6933 132.254 51.7792 130.623C51.865 125.73 51.865 120.837 51.7792 115.944C51.6075 108.82 49.2039 102.639 44.3109 97.4883C40.7913 93.7971 37.1001 90.2776 33.4089 86.758C31.2628 84.6978 28.2583 84.6978 26.1981 86.5863C24.2238 88.5607 24.1379 91.3935 26.1123 93.7971C29.3743 97.7458 32.7222 101.695 36.07 105.558C36.4134 105.901 36.6709 106.33 36.9284 106.673C37.6152 107.789 37.4435 109.163 36.4992 110.021C35.4691 110.88 34.0098 110.88 33.0655 110.021C32.6363 109.678 32.2929 109.163 31.9496 108.734C28.3442 104.442 24.7388 100.149 21.1334 95.9432C15.6395 89.4191 12.8926 81.865 12.9784 73.3666C12.9784 66.3275 12.9784 59.2885 12.9784 52.3352C12.9784 50.0175 11.9483 48.5581 10.1456 48.2148C7.9137 47.7856 5.93932 49.2449 5.76764 51.5626C5.76764 51.9918 5.76764 52.3352 5.76764 52.7644C5.76764 65.3833 5.76764 78.0021 5.76764 90.5351C5.76764 95.8573 7.05527 100.75 9.71639 105.386C14.4377 113.455 19.0732 121.61 23.7945 129.679C25.0822 131.911 24.8246 132.941 22.7644 134.401C22.2494 134.401 21.7343 134.401 21.2193 134.401C20.5325 133.628 19.7599 133.027 19.2449 132.169C14.5236 124.185 9.88807 116.202 5.33842 108.133C3.8791 105.472 2.76315 102.553 1.6472 99.6344C1.0463 97.9175 0.87462 95.9432 0.53125 94.0546C0.53125 79.4614 0.53125 64.9541 0.53125 50.3608C0.702935 49.8458 0.87462 49.3307 1.0463 48.7298C2.41978 44.7811 6.36853 42.4633 10.6607 42.9784C14.5236 43.4934 17.6997 46.7555 18.1289 50.7901C18.2148 51.7343 18.2148 52.5927 18.2148 53.537C18.2148 60.1469 18.2148 66.7567 18.2148 73.3666C18.2148 78.0021 19.1591 82.3801 20.7042 85.2129C20.8759 85.0412 21.0476 84.7836 21.1334 84.612C24.9105 79.118 32.1213 78.3455 36.9284 82.8951C40.6197 86.4146 44.3967 90.02 47.9163 93.7113C53.8394 99.9778 56.9297 107.36 57.0156 116.03C57.1014 120.923 57.0156 125.902 57.1014 130.795C57.1014 132.34 56.6722 133.456 55.2129 134.229C54.612 134.229 54.0969 134.229 53.5819 134.229Z" fill="#005A2A"/>
<path d="M79.7635 134.229C78.3901 133.542 77.875 132.426 77.875 130.795C77.9608 125.816 77.875 120.923 77.9608 116.03C78.1325 107.446 81.137 99.9778 87.0601 93.7113C90.5797 90.02 94.2709 86.4146 98.048 82.8951C102.855 78.3455 110.066 79.118 113.843 84.612C114.015 84.7836 114.101 84.9553 114.272 85.2129C115.817 82.3801 116.762 78.0021 116.762 73.3666C116.762 66.7567 116.762 60.1469 116.762 53.537C116.762 52.5927 116.762 51.7343 116.847 50.7901C117.277 46.7555 120.367 43.4934 124.316 42.9784C128.608 42.4633 132.557 44.7811 133.93 48.7298C134.102 49.2449 134.273 49.7599 134.445 50.3608C134.445 64.9541 134.445 79.4614 134.445 94.0546C134.102 95.9432 133.93 97.9175 133.329 99.6344C132.299 102.553 131.183 105.472 129.638 108.133C125.088 116.202 120.367 124.185 115.732 132.169C115.302 133.027 114.444 133.628 113.757 134.401C113.242 134.401 112.727 134.401 112.212 134.401C110.152 133.027 109.894 131.911 111.182 129.679C115.903 121.61 120.539 113.455 125.26 105.386C127.921 100.836 129.295 95.8573 129.209 90.5351C129.123 77.9162 129.209 65.2974 129.209 52.7644C129.209 52.3352 129.209 51.9918 129.209 51.5626C129.037 49.2449 127.063 47.7856 124.831 48.2148C123.028 48.5581 121.998 50.1033 121.998 52.3352C121.998 59.3743 121.998 66.4134 121.998 73.3666C121.998 81.865 119.337 89.4191 113.843 95.9432C110.238 100.235 106.632 104.527 103.027 108.734C102.683 109.163 102.34 109.678 101.911 110.021C100.881 110.966 99.4214 110.88 98.4772 110.021C97.5329 109.163 97.2754 107.789 98.048 106.673C98.3055 106.244 98.6489 105.901 98.9064 105.558C102.254 101.609 105.516 97.7458 108.864 93.7971C110.838 91.4794 110.753 88.5607 108.778 86.5863C106.804 84.6978 103.714 84.6978 101.568 86.758C97.8763 90.2776 94.1851 93.7971 90.6655 97.4883C85.7725 102.639 83.2831 108.82 83.1972 115.944C83.1114 120.837 83.1114 125.73 83.1972 130.623C83.1972 132.254 82.768 133.456 81.3945 134.229C80.7936 134.229 80.2786 134.229 79.7635 134.229Z" fill="#005A2A"/>
<path d="M67.4719 20.3311C67.4719 20.3311 68.1766 26.3507 70.6584 31.8421C71.8093 34.3887 74.8433 37.8638 76.6877 39.5674C81.6925 44.1901 92.4453 44.998 92.4453 44.998C92.4453 44.998 83.5534 47.2552 78.1341 50.1774C75.0614 52.232 73.3676 54.9521 72.2561 57.0931C69.5997 62.2099 67.4588 70.3311 67.4588 70.3311C67.4588 70.3311 66.6965 62.3583 63.2377 57.0384C61.6046 54.5267 59.6744 51.8204 57.0344 50.2045C50.6265 46.2823 42.4453 44.9868 42.4453 44.9868C42.4453 44.9868 52.2573 44.1929 56.9765 40.637C60.0587 38.3146 61.3877 37.1731 63.3 33.7921C65.9036 29.1889 67.4719 20.3311 67.4719 20.3311Z" fill="#005A2A"/>
<path d="M67.3443 32.0869C67.3443 32.0869 67.8227 35.276 69.1054 38.1853C69.7002 39.5345 71.2684 41.3755 72.2217 42.2781C74.8084 44.7272 80.366 45.1552 80.366 45.1552C80.366 45.1552 76.9601 45.6942 74.0794 47.0635C72.9971 47.578 71.0581 49.5287 70.3639 50.5896C68.1793 53.9282 67.4741 58.5764 67.4741 58.5764C67.4741 58.5764 66.8761 54.4553 65.27 51.5341C64.3975 49.947 63.4283 48.7696 62.0639 47.9135C58.7519 45.8356 54.5234 45.1492 54.5234 45.1492C54.5234 45.1492 59.5948 44.7286 62.0339 42.8448C63.627 41.6144 64.3138 41.0096 65.3022 39.2184C66.6479 36.7797 67.3443 32.0869 67.3443 32.0869Z" fill="white"/>
</svg>
