<svg width="20" height="20" viewBox="0 0 20 20" fill="none" xmlns="http://www.w3.org/2000/svg">
<path fill-rule="evenodd" clip-rule="evenodd" d="M11.6161 17.1337C11.6161 17.1337 11.25 16.7676 11.25 16.2498V12.4998H8.75V16.2498C8.75 16.2498 8.75 16.7676 8.38388 17.1337C8.38388 17.1337 8.01777 17.4998 7.5 17.4998H3.75C3.75 17.4998 3.23223 17.4998 2.86612 17.1337C2.86612 17.1337 2.5 16.7676 2.5 16.2498V9.02324C2.5 9.02324 2.50425 8.75576 2.60805 8.52021C2.60805 8.52021 2.71185 8.28466 2.89899 8.10791L9.15779 2.42007C9.15779 2.42007 9.51448 2.09375 10 2.09375C10 2.09375 10.4855 2.09375 10.8438 2.42148L17.0922 8.09976C17.0922 8.09976 17.2882 8.28466 17.392 8.52021C17.392 8.52021 17.4958 8.75576 17.4999 9.01313L17.5 16.2498C17.5 16.2498 17.5 16.7676 17.1339 17.1337C17.1339 17.1337 16.7678 17.4998 16.25 17.4998H12.5C12.5 17.4998 11.9822 17.4998 11.6161 17.1337ZM12.5 16.2498H16.25L16.2501 9.03335C16.2501 9.03335 16.25 9.02862 16.2481 9.02427C16.2481 9.02427 16.2473 9.02258 16.2477 9.0223C16.2477 9.0223 16.2483 9.02187 16.2513 9.02461L10 3.34375L9.99846 3.34516L3.75726 9.01669C3.75726 9.01669 3.75382 9.01994 3.75191 9.02428C3.75191 9.02428 3.75101 9.0263 3.75054 9.02621C3.75054 9.02621 3.75 9.0261 3.75 9.0233V16.2498H7.5V12.4998C7.5 12.4998 7.5 11.982 7.86612 11.6159C7.86612 11.6159 8.23223 11.2498 8.75 11.2498H11.25C11.25 11.2498 11.7678 11.2498 12.1339 11.6159C12.1339 11.6159 12.5 11.982 12.5 12.4998L12.5 16.2498Z" fill="#004520"/>
</svg>
