<?xml version="1.0" encoding="utf-8"?>
<!-- Generator: Adobe Illustrator 28.1.0, SVG Export Plug-In . SVG Version: 6.00 Build 0)  -->
<svg version="1.1" id="Layer_1" xmlns="http://www.w3.org/2000/svg" xmlns:xlink="http://www.w3.org/1999/xlink" x="0px" y="0px"
	 viewBox="0 0 512 512" style="enable-background:new 0 0 512 512;" xml:space="preserve">
<style type="text/css">
	.st0{fill:none;}
</style>
<g>
	<rect y="0" class="st0" width="512" height="512"/>
	<path d="M409.9,153.3c-4-4-9.2-6.1-14.8-6.1H142.6c-5.6,0-10.9,2.2-14.8,6.2c-3.9,4-6.1,9.2-6.1,14.8v155.4
		c0,5.6,2.2,10.9,6.2,14.8c4,4,9.2,6.1,14.8,6.1H395c5.6,0,10.9-2.2,14.8-6.1c4-4,6.2-9.2,6.2-14.9V168.2
		C416,162.6,413.8,157.3,409.9,153.3z M393.5,169.7V322H144.1V169.7H393.5z M247.8,207.1c0-6.2,5.1-11.2,11.2-11.2h116.5
		c6.2,0,11.2,5.1,11.2,11.2c0,6.2-5.1,11.3-11.2,11.3H259C252.9,218.3,247.8,213.3,247.8,207.1z M247.8,245.9
		c0-6.2,5.1-11.2,11.2-11.2h116.5c6.2,0,11.2,5,11.2,11.2c0,6.2-5.1,11.3-11.2,11.3H259C252.9,257.1,247.8,252.1,247.8,245.9z
		 M247.8,284.6c0-6.2,5.1-11.2,11.2-11.2h116.5c6.2,0,11.2,5.1,11.2,11.2c0,6.2-5.1,11.2-11.2,11.2H259
		C252.9,295.9,247.8,290.9,247.8,284.6z M165.3,294.5c0.1,3.9,2,7.4,5.9,9.8c1.6,0.8,3.4,1.2,5.2,1.2c1.8,0,3.6-0.4,5.2-1.2L196,297
		l14.5,7.2c1.4,0.7,3,1.1,5.1,1.1c1.8,0,3.6-0.5,5.8-1.7c3.1-2,5.1-5.4,5.3-9.4v-29.9c8.4-7.7,13.6-18.5,14.4-29.9
		c0.9-12.5-3.4-24.9-12-34.1c-8.5-9.2-20.6-14.4-33.1-14.5h0c-12.5,0-24.6,5.3-33.1,14.5c-8.5,9.2-12.9,21.6-12,34.1
		c0.8,11.4,6,22.2,14.4,29.9V294.5z M187.9,276.1v-0.5c0.3,0.1,0.5,0.1,0.8,0.1L187.9,276.1z M204.2,275.6v0.5l-0.8-0.4
		C203.6,275.7,203.9,275.7,204.2,275.6z M183.6,250.3c-1.5-1-2.9-2.2-4.1-3.6c-4.1-4.4-6.2-10.1-6.1-16c0.1-6,2.6-11.6,6.8-15.7
		c4.3-4.2,9.9-6.5,15.9-6.5c6,0,11.6,2.3,15.9,6.5c4.3,4.1,6.7,9.7,6.9,15.7c0.1,5.1-1.4,10-4.4,14.1l-1.8,1.9
		c-1.2,1.3-2.6,2.5-4,3.5C201.2,255.1,190.9,255.1,183.6,250.3z"/>
</g>
</svg>
