<svg width="20" height="20" viewBox="0 0 20 20" fill="none" xmlns="http://www.w3.org/2000/svg">
<path d="M10 3.72611V18.1877M6.175 6.61843H4.15M6.85 9.51076H4.15M19 14.5723V2.93554C19 1.77861 18.118 0.920549 17.047 1.01696H16.993C15.103 1.1905 12.232 2.2221 10.63 3.3019L10.477 3.40795C10.216 3.58149 9.784 3.58149 9.523 3.40795L9.298 3.26333C7.696 2.19317 4.834 1.17122 2.944 1.00732C1.873 0.910908 1 1.77861 1 2.9259V14.5723C1 15.4979 1.702 16.3656 2.566 16.4813L2.827 16.5198C4.78 16.7994 7.795 17.8599 9.523 18.8723L9.559 18.8915C9.802 19.0362 10.189 19.0362 10.423 18.8915C12.151 17.8696 15.175 16.7994 17.137 16.5198L17.434 16.4813C18.298 16.3656 19 15.4979 19 14.5723V14.5723Z" stroke="#008548" stroke-linecap="round" stroke-linejoin="round"/>
</svg>
