<svg width="21" height="21" viewBox="0 0 21 21" fill="none" xmlns="http://www.w3.org/2000/svg">
<path fill-rule="evenodd" clip-rule="evenodd" d="M10.668 2.64551C10.668 2.64551 12.3206 2.64551 13.8308 3.28427C13.8308 3.28427 15.289 3.90104 16.4132 5.02527C16.4132 5.02527 17.5374 6.1495 18.1542 7.6077C18.1542 7.6077 18.793 9.1179 18.793 10.7705C18.793 10.7705 18.793 12.4231 18.1542 13.9333C18.1542 13.9333 17.5374 15.3915 16.4132 16.5158C16.4132 16.5158 15.289 17.64 13.8308 18.2567C13.8308 18.2567 12.3206 18.8955 10.668 18.8955C10.668 18.8955 9.01536 18.8955 7.50516 18.2567C7.50516 18.2567 6.04696 17.64 4.92273 16.5158C4.92273 16.5158 3.7985 15.3915 3.18173 13.9333C3.18173 13.9333 2.54297 12.4231 2.54297 10.7705C2.54297 10.7705 2.54297 9.1179 3.18173 7.6077C3.18173 7.6077 3.7985 6.14949 4.92273 5.02526C4.92273 5.02526 6.04696 3.90104 7.50516 3.28427C7.50516 3.28427 9.01536 2.64551 10.668 2.64551ZM10.668 3.89551C10.668 3.89551 9.26884 3.89551 7.9921 4.43552C7.9921 4.43552 6.75844 4.95732 5.80661 5.90915C5.80661 5.90915 4.85478 6.86098 4.33298 8.09464C4.33298 8.09464 3.79297 9.37138 3.79297 10.7705C3.79297 10.7705 3.79297 12.1696 4.33298 13.4464C4.33298 13.4464 4.85478 14.68 5.80661 15.6319C5.80661 15.6319 6.75844 16.5837 7.9921 17.1055C7.9921 17.1055 9.26884 17.6455 10.668 17.6455C10.668 17.6455 12.0671 17.6455 13.3438 17.1055C13.3438 17.1055 14.5775 16.5837 15.5293 15.6319C15.5293 15.6319 16.4812 14.68 17.003 13.4464C17.003 13.4464 17.543 12.1696 17.543 10.7705C17.543 10.7705 17.543 9.37138 17.003 8.09464C17.003 8.09464 16.4812 6.86098 15.5293 5.90915C15.5293 5.90915 14.5775 4.95731 13.3438 4.43552C13.3438 4.43552 12.0671 3.89551 10.668 3.89551Z" fill="#005A2A"/>
<path d="M3.59766 8.89551H17.7383C18.0835 8.89551 18.3633 8.61569 18.3633 8.27051C18.3633 7.92533 18.0835 7.64551 17.7383 7.64551H3.59766C3.25248 7.64551 2.97266 7.92533 2.97266 8.27051C2.97266 8.61569 3.25248 8.89551 3.59766 8.89551Z" fill="#005A2A"/>
<path d="M3.59766 13.8955H17.7383C18.0835 13.8955 18.3633 13.6157 18.3633 13.2705C18.3633 12.9253 18.0835 12.6455 17.7383 12.6455H3.59766C3.25248 12.6455 2.97266 12.9253 2.97266 13.2705C2.97266 13.6157 3.25248 13.8955 3.59766 13.8955Z" fill="#005A2A"/>
<path fill-rule="evenodd" clip-rule="evenodd" d="M10.668 2.8486C10.668 2.8486 11.5604 2.8486 12.3235 3.60234C12.3235 3.60234 12.9715 4.24226 13.4522 5.36476C13.4522 5.36476 14.418 7.61981 14.418 10.7705C14.418 10.7705 14.418 13.9211 13.4522 16.1762C13.4522 16.1762 12.9715 17.2987 12.3235 17.9386C12.3235 17.9386 11.5604 18.6924 10.668 18.6924C10.668 18.6924 9.77558 18.6924 9.0124 17.9386C9.0124 17.9386 8.36446 17.2987 7.88373 16.1762C7.88373 16.1762 6.91797 13.9211 6.91797 10.7705C6.91797 10.7705 6.91797 7.61981 7.88373 5.36476C7.88373 5.36476 8.36446 4.24226 9.0124 3.60234C9.0124 3.60234 9.77558 2.8486 10.668 2.8486ZM10.668 4.0986C10.668 4.0986 10.2888 4.0986 9.89076 4.49171C9.89076 4.49171 9.41709 4.95952 9.03279 5.85686C9.03279 5.85686 8.16797 7.87622 8.16797 10.7705C8.16797 10.7705 8.16797 13.6647 9.03279 15.6841C9.03279 15.6841 9.41709 16.5814 9.89076 17.0492C9.89076 17.0492 10.2888 17.4424 10.668 17.4424C10.668 17.4424 11.0471 17.4424 11.4452 17.0492C11.4452 17.0492 11.9188 16.5814 12.3031 15.6841C12.3031 15.6841 13.168 13.6647 13.168 10.7705C13.168 10.7705 13.168 7.87622 12.3031 5.85686C12.3031 5.85686 11.9188 4.95952 11.4452 4.49171C11.4452 4.49171 11.0471 4.0986 10.668 4.0986Z" fill="#005A2A"/>
</svg>
