<?xml version="1.0" encoding="utf-8"?>
<!-- Generator: Adobe Illustrator 28.1.0, SVG Export Plug-In . SVG Version: 6.00 Build 0)  -->
<svg version="1.1" id="Layer_1" xmlns="http://www.w3.org/2000/svg" xmlns:xlink="http://www.w3.org/1999/xlink" x="0px" y="0px"
	 viewBox="0 0 512 512" style="enable-background:new 0 0 512 512;" xml:space="preserve">
<style type="text/css">
	.st0{fill-rule:evenodd;clip-rule:evenodd;fill:none;}
	.st1{fill-rule:evenodd;clip-rule:evenodd;}
</style>
<g>
	<rect class="st0" width="512" height="512"/>
	<path class="st1" d="M249.8,106.4c3.9-1.9,8.4-1.9,12.3,0L399.4,175c4.7,2.3,7.6,7.1,7.6,12.3c0,5.2-2.9,10-7.6,12.3l-137.4,68.7
		c-3.9,1.9-8.4,1.9-12.3,0l-137.4-68.7c-4.7-2.3-7.6-7.1-7.6-12.3c0-5.2,2.9-10,7.6-12.3L249.8,106.4z M149.3,187.3l106.7,53.3
		l106.7-53.3L255.9,134L149.3,187.3z M106.3,318.6c3.4-6.8,11.6-9.5,18.4-6.1l131.2,65.6l131.2-65.6c6.8-3.4,15-0.6,18.4,6.1
		c3.4,6.8,0.6,15-6.1,18.4l-137.4,68.7c-3.9,1.9-8.4,1.9-12.3,0L112.4,337C105.6,333.6,102.9,325.4,106.3,318.6z M106.3,249.9
		c3.4-6.8,11.6-9.5,18.4-6.1l131.2,65.6l131.2-65.6c6.8-3.4,15-0.6,18.4,6.1c3.4,6.8,0.6,15-6.1,18.4L262.1,337
		c-3.9,1.9-8.4,1.9-12.3,0l-137.4-68.7C105.6,264.9,102.9,256.7,106.3,249.9z"/>
</g>
</svg>
