<?xml version="1.0" encoding="utf-8"?>
<!-- Generator: Adobe Illustrator 28.1.0, SVG Export Plug-In . SVG Version: 6.00 Build 0)  -->
<svg version="1.1" id="Layer_1" xmlns="http://www.w3.org/2000/svg" xmlns:xlink="http://www.w3.org/1999/xlink" x="0px" y="0px"
	 viewBox="0 0 512 512" style="enable-background:new 0 0 512 512;" xml:space="preserve">
<style type="text/css">
	.st0{fill:#979797;}
</style>
<g>
	<path class="st0" d="M0,374.1v59.1c0,0.8,0,1.6,0,2.5c0,1.9,0,3.6,0.1,5.2c0.6,11.4,4.5,18.8,12,22.8c5.4,2.9,10.9,2,15.4-2.3
		c5.2-5.1,8.3-13.9,8.3-24.3c0-78.2,0-156.3,0-234.5l0.8-121.2h440.5l-0.8,325.7c0,3.3,0,6.6,0,10c0,7.7-0.1,15.6,0.1,23.3
		c0.2,10.9,4.7,19.7,12,23.4c5.5,2.8,11,1.9,15.5-2.6c5.2-5.1,8.1-13.9,8.1-24.2c0-98.9,0-197.7,0-296.6V78
		c0-22.6-6.2-31.4-22.1-31.4c-85.9,0-171.8,0-257.6,0c-69.9,0-139.7,0-209.6,0c-16.5,0-22.6,8.6-22.6,31.8C0,176.9,0,275.5,0,374.1z
		"/>
	<path class="st0" d="M406,143c-7.2-3.3-14.5-1.9-20.5,4.1c-28.5,28.3-52.4,52.2-76.4,76.5c-4.5,4.5-10.4,8.5-20.1,3.4
		c-20-10.4-40.6-20.6-60.6-30.4L219,192c-10.1-5-16.6-4.2-23.7,2.8c-29.1,28.9-62.1,61.7-93.6,93.9c-2.2,2.2-3.7,5.6-5.4,9.1
		c-0.3,0.6-0.6,1.3-0.9,1.9l0.2,0.9c0.1,0.8,0.2,1.5,0.4,2.3c0.2,1.3,0.4,2.6,0.7,3.6c1.9,6.4,6.4,10.9,12.4,12.5
		c6.3,1.6,12.9-0.4,18-5.5c26.4-26.1,52.3-52,76.9-77c5.8-5.9,11.4-6.8,18.9-2.9c23.8,12.2,48,24.2,71.4,35.7
		c9.2,4.5,15.9,3.5,23-3.5l4.4-4.3c29.2-29.1,59.4-59.1,88.8-89c2.7-2.8,5-7.6,5.8-12.4C417.3,153.4,413,146.3,406,143z"/>
</g>
</svg>
