<svg width="33" height="33" viewBox="0 0 33 33" fill="none" xmlns="http://www.w3.org/2000/svg">
<path fill-rule="evenodd" clip-rule="evenodd" d="M0.195312 16.7686C0.195312 7.932 7.35876 0.768555 16.1953 0.768555C25.0319 0.768555 32.1953 7.932 32.1953 16.7686C32.1953 25.6051 25.0319 32.7686 16.1953 32.7686C7.35876 32.7686 0.195312 25.6051 0.195312 16.7686Z" fill="#0077B5"/>
<path d="M11.7393 10.6504C11.7158 9.58216 10.9519 8.76855 9.71151 8.76855C8.4711 8.76855 7.66016 9.58216 7.66016 10.6504C7.66016 11.6964 8.44713 12.5335 9.66444 12.5335H9.68761C10.9519 12.5335 11.7393 11.6964 11.7393 10.6504Z" fill="white"/>
<path d="M11.5005 14.0205H7.87457V24.915H11.5005V14.0205Z" fill="white"/>
<path d="M20.4023 13.7646C22.7883 13.7646 24.5771 15.3221 24.5771 18.6684L24.5769 24.9149H20.9511V19.0864C20.9511 17.6224 20.4264 16.6234 19.1138 16.6234C18.1121 16.6234 17.5154 17.2969 17.2534 17.9473C17.1575 18.1805 17.134 18.5053 17.134 18.8309V24.9152H13.5076C13.5076 24.9152 13.5554 15.043 13.5076 14.0208H17.134V15.5639C17.6152 14.8221 18.4771 13.7646 20.4023 13.7646Z" fill="white"/>
</svg>
