<?xml version="1.0" encoding="utf-8"?>
<!-- Generator: Adobe Illustrator 28.1.0, SVG Export Plug-In . SVG Version: 6.00 Build 0)  -->
<svg version="1.1" id="Layer_1" xmlns="http://www.w3.org/2000/svg" xmlns:xlink="http://www.w3.org/1999/xlink" x="0px" y="0px"
	 viewBox="0 0 512 512" style="enable-background:new 0 0 512 512;" xml:space="preserve">
<style type="text/css">
	.st0{fill-rule:evenodd;clip-rule:evenodd;fill:none;}
	.st1{fill-rule:evenodd;clip-rule:evenodd;}
</style>
<g>
	<rect class="st0" width="512" height="512"/>
	<path class="st1" d="M256,136.3c-25.3,0-49.6,10.1-67.5,28c-17.9,17.9-28,42.2-28,67.5c0,37,24.1,73,50.8,101.2
		c13.1,13.8,26.2,25.1,36,32.9c3.3,2.7,6.3,4.9,8.7,6.7c2.4-1.8,5.4-4.1,8.7-6.7c9.9-7.8,23-19.1,36-32.9
		c26.7-28.2,50.8-64.2,50.8-101.2c0-25.3-10.1-49.6-28-67.5C305.6,146.4,281.3,136.3,256,136.3z M256,389
		c-7.4,11.1-7.4,11.1-7.4,11.1l0,0l-0.1-0.1l-0.3-0.2l-1-0.7c-0.9-0.6-2.1-1.5-3.7-2.6c-3.1-2.3-7.5-5.5-12.8-9.8
		c-10.5-8.4-24.6-20.5-38.8-35.4c-27.7-29.3-58.1-71.8-58.1-119.5c0-32.4,12.9-63.4,35.8-86.3c22.9-22.9,54-35.8,86.3-35.8
		c32.4,0,63.4,12.9,86.3,35.8c22.9,22.9,35.8,54,35.8,86.3c0,47.7-30.3,90.2-58.1,119.5c-14.1,14.9-28.2,27.1-38.8,35.4
		c-5.3,4.2-9.7,7.5-12.8,9.8c-1.6,1.1-2.8,2-3.7,2.6l-1,0.7l-0.3,0.2l-0.1,0.1l0,0C263.4,400,263.4,400.1,256,389z M256,389
		l7.4,11.1c-4.5,3-10.3,3-14.8,0L256,389z M256.1,208.8c-12.7,0-23,10.3-23,23c0,12.7,10.3,23,23,23c12.7,0,23-10.3,23-23
		C279,219.1,268.8,208.8,256.1,208.8z M206.5,231.8c0-27.4,22.2-49.6,49.6-49.6c27.4,0,49.6,22.2,49.6,49.6
		c0,27.4-22.2,49.6-49.6,49.6C228.7,281.3,206.5,259.1,206.5,231.8z"/>
</g>
</svg>
