<?xml version="1.0" encoding="utf-8"?>
<!-- Generator: Adobe Illustrator 28.1.0, SVG Export Plug-In . SVG Version: 6.00 Build 0)  -->
<svg version="1.1" id="Layer_1" xmlns="http://www.w3.org/2000/svg" xmlns:xlink="http://www.w3.org/1999/xlink" x="0px" y="0px"
	 viewBox="0 0 11 11" style="enable-background:new 0 0 11 11;" xml:space="preserve">
<style type="text/css">
	.st0{fill:#22B573;}
</style>
<g>
	<path class="st0" d="M8.2,5C8,5,7.7,4.8,7.7,4.5v-1C7.7,2,7.4,1,5.5,1C3.6,1,3.2,2,3.2,3.5v1C3.2,4.8,3,5,2.7,5S2.2,4.8,2.2,4.5v-1
		C2.2,2,2.6,0,5.5,0s3.2,2,3.2,3.5v1C8.7,4.8,8.5,5,8.2,5z"/>
	<path class="st0" d="M5.5,9.2c-0.9,0-1.6-0.8-1.6-1.8s0.7-1.8,1.6-1.8s1.6,0.8,1.6,1.8S6.4,9.2,5.5,9.2z M5.5,6.8
		c-0.4,0-0.6,0.3-0.6,0.8s0.3,0.8,0.6,0.8s0.6-0.3,0.6-0.8S5.9,6.8,5.5,6.8z"/>
	<path class="st0" d="M7.8,11H3.2c-2.1,0-2.8-0.7-2.8-3V7c0-2.3,0.7-3,2.8-3h4.6c2.1,0,2.8,0.7,2.8,3v1C10.6,10.3,9.9,11,7.8,11z
		 M3.2,5C1.7,5,1.4,5.2,1.4,7v1c0,1.8,0.3,2,1.8,2h4.6c1.5,0,1.8-0.2,1.8-2V7c0-1.8-0.3-2-1.8-2H3.2z"/>
</g>
</svg>
