<?xml version="1.0" encoding="utf-8"?>
<!-- Generator: Adobe Illustrator 28.1.0, SVG Export Plug-In . SVG Version: 6.00 Build 0)  -->
<svg version="1.1" id="Layer_1" xmlns="http://www.w3.org/2000/svg" xmlns:xlink="http://www.w3.org/1999/xlink" x="0px" y="0px"
	 viewBox="0 0 150.5 51.1" style="enable-background:new 0 0 150.5 51.1;" xml:space="preserve">
<style type="text/css">
	.st0{fill:#004520;}
	.st1{fill:#005A2A;}
	.st2{fill:#FFFFFF;}
</style>
<path class="st0" d="M24.9,20.2v15.5c0,0.6-0.2,1-0.6,1.2c-0.4,0.2-0.9,0.2-1.3,0c-0.4-0.2-0.6-0.6-0.6-1.2V21.3H2.6v14.4
	c0,0.6-0.2,1-0.7,1.2c-0.4,0.2-0.9,0.2-1.3,0C0.2,36.7,0,36.3,0,35.7V20.2v-0.4V4.3c0-0.6,0.2-0.9,0.6-1.2c0.4-0.2,0.9-0.2,1.3,0
	c0.4,0.2,0.7,0.6,0.7,1.2v14.4h19.7V4.3c0-0.6,0.2-0.9,0.6-1.2c0.4-0.2,0.9-0.2,1.3,0c0.4,0.2,0.6,0.6,0.6,1.2v15.5
	C24.9,20.1,24.9,20.2,24.9,20.2z M50.3,30.7c0.5-0.7,1.1-0.8,1.8-0.3s0.8,1.1,0.3,1.8c-2.3,3.2-5.4,4.8-9.4,4.8
	c-3,0-5.6-1.1-7.8-3.4c-2.1-2.3-3.2-5.1-3.3-8.4c0-0.3,0-0.4,0-0.4c0-2.2,0.6-4.1,1.6-5.9c1-1.8,2.3-3.3,4-4.3
	c1.7-1,3.5-1.5,5.5-1.5c3.1,0,5.7,1.2,7.8,3.7c2.1,2.5,3.2,5.7,3.2,9.6H34.6c0.3,2.3,1.2,4.2,2.8,5.8c1.6,1.5,3.4,2.3,5.6,2.3
	C46,34.4,48.4,33.2,50.3,30.7z M34.6,23.7h16.7c0-1.3-0.4-2.6-1.1-3.8c-0.7-1.2-1.8-2.2-3.1-3c-1.3-0.8-2.7-1.2-4.2-1.2
	c-2.1,0-4,0.8-5.6,2.4C35.8,19.5,34.9,21.4,34.6,23.7z M76.2,30.7c0.5-0.7,1.1-0.8,1.8-0.3s0.8,1.1,0.3,1.8
	c-2.3,3.2-5.4,4.8-9.5,4.8c-3,0-5.6-1.1-7.8-3.4c-2.1-2.3-3.2-5.1-3.2-8.4c0-0.3,0-0.4,0-0.4c0-2.2,0.6-4.1,1.6-5.9
	c1-1.8,2.3-3.3,4-4.3c1.7-1,3.5-1.5,5.4-1.5c3.1,0,5.7,1.2,7.8,3.7s3.2,5.7,3.2,9.6H60.6c0.3,2.3,1.2,4.2,2.8,5.8
	c1.6,1.5,3.4,2.3,5.5,2.3C72,34.4,74.4,33.2,76.2,30.7z M60.6,23.7h16.7c0-1.3-0.4-2.6-1.1-3.8c-0.7-1.2-1.8-2.2-3.1-3
	c-1.3-0.8-2.7-1.2-4.2-1.2c-2.1,0-4,0.8-5.5,2.4C61.8,19.5,60.9,21.4,60.6,23.7z M85.9,3c0-0.6,0.2-0.9,0.7-1.2
	c0.4-0.2,0.9-0.2,1.3,0c0.4,0.2,0.6,0.6,0.6,1.2v32.7c0,0.6-0.2,1-0.6,1.2c-0.4,0.2-0.9,0.2-1.3,0c-0.4-0.2-0.7-0.6-0.7-1.2V3z
	 M93.5,25c0-3.4,1.1-6.2,3.2-8.5c2.2-2.3,4.8-3.5,7.8-3.5c1.6,0,3.2,0.4,4.7,1.1c1.5,0.7,2.7,1.8,3.8,3.1v-3c0-0.3,0.1-0.5,0.2-0.7
	c0.1-0.2,0.3-0.4,0.5-0.5c0.2-0.1,0.4-0.1,0.7-0.1c0.2,0,0.4,0,0.6,0.1c0.2,0.1,0.4,0.2,0.5,0.5c0.1,0.2,0.2,0.4,0.2,0.7V25v10.7
	c0,0.6-0.2,1-0.7,1.2c-0.4,0.2-0.9,0.2-1.3,0c-0.4-0.2-0.7-0.6-0.7-1.2v-3c-1,1.3-2.3,2.4-3.8,3.2c-1.5,0.7-3,1.1-4.7,1.1
	c-3,0-5.6-1.2-7.8-3.5C94.6,31.2,93.5,28.4,93.5,25z M96.1,25c0,2.6,0.8,4.8,2.5,6.7c1.6,1.8,3.6,2.8,5.9,2.8c1.5,0,3-0.4,4.2-1.2
	c1.3-0.9,2.3-2,3.1-3.5s1.1-3,1.1-4.7c0-2.6-0.8-4.8-2.4-6.6c-1.6-1.8-3.6-2.8-6-2.8s-4.3,0.9-5.9,2.8C97,20.2,96.1,22.4,96.1,25z
	 M126.1,16.6c2-2.4,4.9-3.6,8.5-3.6c0.4,0,0.7,0.1,0.9,0.4c0.2,0.3,0.4,0.6,0.4,0.9c0,0.3-0.1,0.6-0.4,0.9c-0.2,0.3-0.6,0.4-0.9,0.4
	c-1.7,0-3.1,0.4-4.4,1c-1.3,0.7-2.3,1.8-3,3.1c-0.7,1.4-1.1,3.1-1.1,5V25v10.7c0,0.6-0.2,1-0.6,1.2c-0.4,0.2-0.9,0.2-1.3,0
	c-0.4-0.2-0.7-0.6-0.7-1.2V25v-0.1c0-0.1,0-0.1,0-0.1V14.3c0-0.3,0.1-0.5,0.2-0.7c0.1-0.2,0.3-0.4,0.4-0.5c0.2-0.1,0.4-0.1,0.6-0.1
	c0.2,0,0.4,0,0.6,0.1c0.2,0.1,0.4,0.2,0.5,0.5c0.1,0.2,0.2,0.4,0.2,0.7V16.6z"/>
<path class="st1" d="M142.7,0c0,0,0.2,1.8,1,3.5c0.4,0.8,1.3,1.8,1.9,2.3c1.5,1.4,4.9,1.6,4.9,1.6S147.7,8.1,146,9
	c-1,0.6-1.5,1.4-1.8,2.1c-0.8,1.5-1.5,4-1.5,4s-0.2-2.4-1.3-4c-0.5-0.8-1.1-1.6-1.9-2.1c-2-1.2-4.5-1.6-4.5-1.6s3-0.2,4.5-1.3
	c1-0.7,1.4-1,2-2.1C142.3,2.7,142.7,0,142.7,0z"/>
<path class="st2" d="M142.7,3.6c0,0,0.1,1,0.5,1.8c0.2,0.4,0.7,1,1,1.2c0.8,0.7,2.5,0.9,2.5,0.9s-1.1,0.2-1.9,0.6
	c-0.3,0.2-0.9,0.7-1.1,1.1c-0.7,1-0.9,2.4-0.9,2.4s-0.2-1.2-0.7-2.1c-0.3-0.5-0.6-0.8-1-1.1c-1-0.6-2.3-0.8-2.3-0.8s1.6-0.1,2.3-0.7
	c0.5-0.4,0.7-0.6,1-1.1C142.5,5,142.7,3.6,142.7,3.6z"/>
<path class="st0" d="M32.2,48.7c-0.5,0-1-0.1-1.4-0.2c-0.4-0.1-0.7-0.3-0.9-0.6c-0.2-0.2-0.4-0.5-0.5-0.8c-0.1-0.3-0.2-0.7-0.2-1
	c0-0.5,0.1-1,0.2-1.5c0.2-0.5,0.4-0.9,0.7-1.3c0.3-0.4,0.7-0.7,1.2-0.9c0.5-0.2,1.1-0.4,1.7-0.4c0.3,0,0.7,0,1,0.1
	c0.3,0.1,0.6,0.1,0.9,0.2c0,0.2,0,0.4,0,0.6c0,0.1,0,0.3,0,0.4c0,0.1,0,0.3,0,0.4c0,0-0.1,0.1-0.2,0.1c-0.1,0-0.2-0.1-0.2-0.2
	c-0.1-0.4-0.2-0.7-0.5-0.9c-0.3-0.2-0.6-0.3-1.1-0.3c-0.4,0-0.8,0.1-1.2,0.3c-0.3,0.2-0.6,0.4-0.9,0.8c-0.2,0.3-0.4,0.7-0.6,1.1
	c-0.1,0.4-0.2,0.9-0.2,1.4c0,0.4,0,0.7,0.1,1c0.1,0.3,0.2,0.5,0.4,0.7c0.2,0.2,0.4,0.4,0.6,0.5c0.3,0.1,0.5,0.2,0.9,0.2
	c0.5,0,0.8-0.1,1.1-0.3c0.3-0.2,0.5-0.5,0.7-0.9c0-0.1,0.1-0.2,0.2-0.2c0,0,0.1,0,0.1,0c0,0,0.1,0,0.1,0c-0.1,0.2-0.2,0.4-0.3,0.7
	c-0.1,0.2-0.2,0.5-0.2,0.8c-0.1,0-0.3,0.1-0.5,0.1c-0.2,0-0.3,0-0.5,0.1c-0.2,0-0.3,0-0.5,0C32.5,48.7,32.3,48.7,32.2,48.7z
	 M37.9,45.1c-0.1,0-0.2,0-0.4,0.1c-0.1,0.1-0.3,0.2-0.4,0.4c-0.1,0.2-0.3,0.3-0.4,0.6c-0.1,0.2-0.2,0.4-0.3,0.7
	c-0.1,0.2-0.2,0.5-0.2,0.7C36,47.8,36,48.1,36,48.3c0,0.1,0,0.2,0,0.3c-0.1,0-0.3,0-0.4,0.1c-0.1,0-0.3,0.1-0.4,0.1
	c-0.1,0-0.1-0.1-0.1-0.1c0,0,0-0.1,0-0.1c0-0.1,0-0.1,0-0.1c0,0,0-0.1,0-0.1c0,0,0-0.1,0-0.2l0.4-2.3c0-0.3,0.1-0.4,0.1-0.5
	c0-0.1,0-0.2,0-0.2c0-0.1,0-0.1-0.1-0.1c0,0-0.1,0-0.1,0c0,0-0.1,0-0.2,0.1c-0.1,0-0.1,0.1-0.2,0.1c0,0-0.1,0-0.1,0
	c0,0-0.1,0-0.1-0.1c0,0,0-0.1,0-0.1c0.1-0.1,0.3-0.2,0.4-0.2c0.2-0.1,0.3-0.2,0.5-0.2c0.2-0.1,0.3-0.1,0.4-0.2
	c0.1,0,0.2-0.1,0.2-0.1c0,0,0.1,0,0.1,0c0,0,0,0.1,0,0.1c0,0,0,0,0,0.1c0,0,0,0.1,0,0.1L36.4,46h0c0.4-0.6,0.7-1.1,1-1.4
	c0.3-0.3,0.6-0.4,0.9-0.4c0.1,0,0.1,0,0.2,0c0.1,0,0.1,0,0.1,0.1c-0.1,0.2-0.1,0.3-0.2,0.5c0,0.2-0.1,0.4-0.1,0.6h-0.2
	C38.1,45.2,38,45.1,37.9,45.1z M39.3,46.3c0.6-0.1,1.1-0.2,1.3-0.4c0.3-0.2,0.4-0.5,0.4-0.8c0-0.2,0-0.3-0.1-0.4
	c-0.1-0.1-0.2-0.2-0.4-0.2c-0.2,0-0.3,0-0.5,0.2c-0.1,0.1-0.3,0.2-0.4,0.4c-0.1,0.2-0.2,0.3-0.3,0.6C39.4,45.8,39.3,46,39.3,46.3z
	 M39.3,46.6c0,0.1,0,0.1,0,0.2c0,0.1,0,0.1,0,0.2c0,0.2,0,0.3,0,0.5c0,0.1,0.1,0.3,0.1,0.4c0.1,0.1,0.2,0.2,0.3,0.3
	c0.1,0.1,0.3,0.1,0.5,0.1c0.2,0,0.4,0,0.5-0.1c0.2-0.1,0.4-0.2,0.6-0.3c0.1,0,0.1-0.1,0.1-0.1c0.1,0,0.1,0,0.1,0.1
	c0,0.1,0,0.1,0,0.1c-0.1,0.1-0.2,0.2-0.3,0.3c-0.1,0.1-0.3,0.2-0.4,0.2c-0.1,0.1-0.3,0.1-0.5,0.2c-0.2,0-0.3,0.1-0.5,0.1
	c-0.3,0-0.5,0-0.7-0.1c-0.2-0.1-0.3-0.2-0.4-0.4c-0.1-0.2-0.2-0.3-0.2-0.5c0-0.2,0-0.4,0-0.6c0-0.4,0.1-0.7,0.2-1
	c0.1-0.3,0.3-0.7,0.5-0.9c0.2-0.3,0.4-0.5,0.7-0.7c0.3-0.2,0.6-0.2,1-0.2c0.1,0,0.3,0,0.4,0.1c0.1,0,0.2,0.1,0.4,0.2
	c0.1,0.1,0.2,0.2,0.2,0.3c0.1,0.1,0.1,0.3,0.1,0.4c0,0.2-0.1,0.5-0.2,0.6c-0.1,0.2-0.3,0.3-0.5,0.4c-0.2,0.1-0.5,0.2-0.8,0.3
	C40,46.5,39.6,46.5,39.3,46.6z M44.8,46.9L44.8,46.9c-0.2,0.3-0.4,0.6-0.5,0.8c-0.2,0.2-0.3,0.4-0.5,0.5c-0.2,0.1-0.3,0.2-0.5,0.3
	c-0.2,0.1-0.3,0.1-0.5,0.1c-0.1,0-0.2,0-0.3,0c-0.1,0-0.2-0.1-0.2-0.1c-0.1-0.1-0.1-0.2-0.2-0.3c0-0.1-0.1-0.3-0.1-0.5
	c0-0.6,0.1-1.1,0.3-1.5c0.2-0.4,0.4-0.8,0.7-1.1c0.3-0.3,0.6-0.5,0.9-0.7c0.3-0.2,0.6-0.2,0.9-0.2c0.2,0,0.4,0,0.6,0
	c0.2,0,0.4,0.1,0.7,0.1l-0.7,3.5c0,0.1,0,0.1,0,0.2c0,0.1,0,0.1,0.1,0.1c0,0,0.1,0,0.1,0c0.1,0,0.1-0.1,0.2-0.1
	c0.1,0,0.1-0.1,0.1-0.1c0,0,0.1,0,0.1,0c0.1,0,0.1,0.1,0.1,0.2c-0.1,0.1-0.2,0.2-0.4,0.2c-0.1,0.1-0.2,0.1-0.4,0.2
	c-0.1,0.1-0.2,0.1-0.3,0.1c-0.1,0-0.2,0.1-0.3,0.1c-0.1,0-0.1,0-0.2,0c-0.1,0-0.1-0.1-0.1-0.2c0,0,0-0.1,0-0.1c0,0,0-0.1,0-0.1
	L44.8,46.9z M45.1,44.7c-0.1,0-0.2,0-0.3-0.1c-0.1,0-0.2,0-0.3,0c-0.3,0-0.5,0.1-0.7,0.2c-0.2,0.1-0.4,0.3-0.6,0.6
	c-0.2,0.3-0.3,0.6-0.4,0.9c-0.1,0.3-0.1,0.7-0.1,1.1c0,0.2,0,0.4,0.1,0.5c0.1,0.1,0.1,0.1,0.2,0.1c0.1,0,0.3-0.1,0.4-0.2
	c0.2-0.1,0.3-0.3,0.4-0.5c0.1-0.2,0.3-0.4,0.4-0.7c0.1-0.2,0.2-0.5,0.3-0.8c0.1-0.3,0.2-0.5,0.2-0.7C45.1,45,45.1,44.8,45.1,44.7z
	 M47.5,44.1c0.1-0.3,0.1-0.5,0.1-0.6c0-0.1,0-0.2,0-0.3c0.1,0,0.3,0,0.4-0.1s0.3,0,0.4-0.1c0.1,0,0.1,0.1,0.1,0.1c0,0,0,0,0,0.1
	c0,0,0,0.1,0,0.1l-0.2,0.9h1c0,0.1,0,0.1-0.1,0.2c0,0.1,0,0.2,0,0.2c-0.2,0-0.3,0-0.5-0.1c-0.2,0-0.3,0-0.5,0l-0.5,3.1
	c0,0.1,0,0.2,0,0.2c0,0.2,0.1,0.2,0.3,0.2c0.1,0,0.2,0,0.3,0c0.1,0,0.2-0.1,0.2-0.1c0.1,0,0.1,0,0.2-0.1c0,0,0.1,0,0.1,0
	c0.1,0,0.1,0.1,0.1,0.2c-0.2,0.2-0.4,0.3-0.7,0.4c-0.2,0.1-0.5,0.1-0.7,0.1c-0.2,0-0.4,0-0.5-0.1c-0.1-0.1-0.1-0.2-0.1-0.3
	c0-0.1,0-0.1,0-0.2l0.6-3.4h-0.7c0-0.1,0-0.2,0.1-0.2c0-0.1,0.1-0.1,0.2-0.1h0.6L47.5,44.1z M50.9,43.1c-0.1,0-0.2,0-0.3-0.1
	c-0.1-0.1-0.1-0.2-0.1-0.3c0-0.2,0.1-0.3,0.2-0.5c0.1-0.1,0.3-0.2,0.5-0.2c0.1,0,0.2,0,0.3,0.1c0.1,0.1,0.1,0.2,0.1,0.3
	c0,0.2-0.1,0.3-0.2,0.5C51.2,43,51,43.1,50.9,43.1z M50.4,47.8c0,0,0,0.1,0,0.1c0,0,0,0.1,0,0.1c0,0.1,0,0.1,0.1,0.1
	c0,0,0.1,0,0.1,0c0.1,0,0.1-0.1,0.2-0.1c0.1,0,0.1-0.1,0.1-0.1c0,0,0.1,0,0.1,0c0.1,0,0.1,0.1,0.1,0.2c-0.1,0.1-0.2,0.2-0.4,0.2
	c-0.1,0.1-0.2,0.1-0.4,0.2c-0.1,0.1-0.2,0.1-0.3,0.1c-0.1,0-0.2,0.1-0.3,0.1c-0.1,0-0.1,0-0.2,0c-0.1,0-0.1-0.1-0.1-0.2
	c0,0,0-0.1,0-0.1c0-0.1,0-0.1,0-0.1c0.1-0.7,0.3-1.3,0.4-1.7c0.1-0.4,0.1-0.8,0.2-1c0-0.2,0.1-0.4,0.1-0.5c0-0.1,0-0.1,0-0.1
	c0-0.1,0-0.1-0.1-0.1c0,0-0.1,0-0.1,0c-0.1,0-0.1,0-0.2,0.1c-0.1,0-0.1,0-0.2,0.1c0,0-0.1,0-0.1,0c0,0-0.1,0-0.1-0.1s0-0.1,0-0.1
	c0.1-0.1,0.3-0.1,0.4-0.2c0.2-0.1,0.3-0.2,0.5-0.2c0.2-0.1,0.3-0.1,0.4-0.2c0.1,0,0.2-0.1,0.2-0.1c0.1,0,0.2,0.1,0.2,0.2
	c0,0,0,0.1,0,0.2L50.4,47.8z M55,45.6c0-0.2,0.1-0.3,0.1-0.5c0-0.2-0.1-0.3-0.3-0.3c-0.1,0-0.2,0.1-0.4,0.2
	c-0.1,0.1-0.3,0.2-0.5,0.4c-0.2,0.2-0.3,0.4-0.5,0.6c-0.2,0.2-0.3,0.4-0.4,0.7c-0.1,0.1-0.1,0.2-0.2,0.4c-0.1,0.1-0.1,0.3-0.2,0.4
	c0,0.1-0.1,0.3-0.1,0.4c0,0.1,0,0.3,0,0.4c0,0.1,0,0.2,0,0.3c-0.3,0-0.5,0.1-0.8,0.2c-0.1,0-0.1-0.1-0.1-0.1c0,0,0,0,0-0.1
	c0,0,0-0.1,0-0.1c0.2-0.8,0.3-1.4,0.4-1.8c0.1-0.4,0.1-0.8,0.2-1c0-0.2,0.1-0.4,0.1-0.5c0-0.1,0-0.1,0-0.1c0-0.1,0-0.1-0.1-0.1
	c0,0-0.1,0-0.1,0c-0.1,0-0.1,0-0.2,0.1c-0.1,0-0.1,0-0.2,0.1c-0.1,0-0.1,0-0.1,0c0,0-0.1,0-0.1-0.1c0,0,0-0.1,0-0.1
	c0.1-0.1,0.3-0.2,0.4-0.2c0.2-0.1,0.3-0.2,0.5-0.2c0.2-0.1,0.3-0.1,0.4-0.2c0.1,0,0.2-0.1,0.2-0.1c0,0,0.1,0,0.1,0c0,0,0,0.1,0,0.1
	c0,0,0,0,0,0.1c0,0,0,0.1,0,0.1l-0.4,1.7h0c0.2-0.3,0.4-0.6,0.5-0.8c0.2-0.3,0.4-0.5,0.6-0.6c0.2-0.2,0.4-0.3,0.6-0.4
	c0.2-0.1,0.4-0.2,0.6-0.2c0.2,0,0.3,0,0.4,0.1c0.1,0.1,0.2,0.2,0.2,0.5c0,0.1,0,0.2,0,0.3c0,0.1,0,0.2,0,0.3l-0.5,2.4
	c0,0.1,0,0.2,0,0.2c0,0.1,0,0.1,0.1,0.1c0,0,0.1,0,0.1,0c0.1,0,0.1-0.1,0.2-0.1c0.1,0,0.1-0.1,0.1-0.1c0,0,0.1,0,0.1,0
	c0.1,0,0.1,0.1,0.1,0.2c-0.1,0.1-0.2,0.2-0.4,0.2c-0.1,0.1-0.3,0.1-0.4,0.2c-0.1,0.1-0.2,0.1-0.3,0.1c-0.1,0-0.2,0.1-0.3,0.1
	c-0.1,0-0.1,0-0.2,0c-0.1,0-0.1-0.1-0.1-0.2c0,0,0,0,0-0.1c0,0,0-0.1,0-0.1L55,45.6z M59.6,44.7c-0.1,0-0.2,0-0.3-0.1
	c-0.1,0-0.2,0-0.3,0c-0.3,0-0.5,0.1-0.7,0.2c-0.2,0.1-0.4,0.3-0.5,0.6c-0.1,0.3-0.2,0.6-0.3,0.9c-0.1,0.3-0.1,0.7-0.1,1.1
	c0,0.2,0,0.4,0.1,0.5c0.1,0.1,0.2,0.2,0.3,0.2c0.1,0,0.2-0.1,0.4-0.2c0.1-0.1,0.3-0.3,0.4-0.5c0.1-0.2,0.3-0.4,0.4-0.7
	c0.1-0.2,0.2-0.5,0.3-0.8c0.1-0.3,0.2-0.5,0.2-0.7C59.5,45,59.6,44.8,59.6,44.7z M56.4,50c0.1,0.2,0.2,0.4,0.4,0.5
	c0.2,0.1,0.4,0.2,0.6,0.2c0.3,0,0.5-0.1,0.7-0.4c0.2-0.2,0.4-0.6,0.5-1l0.5-2.4h0c-0.3,0.6-0.6,1-0.9,1.3c-0.3,0.3-0.7,0.4-1,0.4
	c-0.1,0-0.2,0-0.3,0c-0.1,0-0.2-0.1-0.3-0.1c-0.1-0.1-0.1-0.2-0.2-0.3c0-0.1-0.1-0.3-0.1-0.5c0-0.5,0.1-1,0.2-1.5
	c0.2-0.4,0.4-0.8,0.6-1.1c0.3-0.3,0.5-0.5,0.9-0.7c0.3-0.2,0.6-0.2,0.9-0.2c0.2,0,0.4,0,0.6,0c0.2,0,0.4,0.1,0.7,0.1L59.5,49
	c-0.1,0.4-0.2,0.7-0.4,1c-0.2,0.3-0.4,0.5-0.6,0.6c-0.2,0.2-0.4,0.3-0.7,0.4c-0.2,0.1-0.4,0.1-0.6,0.1c-0.5,0-0.9-0.1-1.2-0.2
	c0-0.1,0.1-0.3,0.1-0.4c0-0.1,0-0.2,0.1-0.4L56.4,50z M65.7,48.7c-0.5,0-1-0.1-1.3-0.2c-0.4-0.1-0.7-0.3-0.9-0.6
	c-0.2-0.2-0.4-0.5-0.5-0.8c-0.1-0.3-0.2-0.7-0.2-1c0-0.5,0.1-1,0.2-1.5c0.2-0.5,0.4-0.9,0.7-1.3c0.3-0.4,0.7-0.7,1.2-0.9
	c0.5-0.2,1.1-0.4,1.7-0.4c0.3,0,0.7,0,1,0.1c0.3,0.1,0.6,0.1,0.9,0.2c0,0.2,0,0.4,0,0.6c0,0.1,0,0.3,0,0.4c0,0.1,0,0.3,0,0.4
	c0,0-0.1,0.1-0.2,0.1c-0.1,0-0.2-0.1-0.2-0.2c-0.1-0.4-0.2-0.7-0.5-0.9c-0.3-0.2-0.6-0.3-1.1-0.3c-0.4,0-0.8,0.1-1.2,0.3
	c-0.3,0.2-0.6,0.4-0.9,0.8c-0.2,0.3-0.4,0.7-0.5,1.1c-0.1,0.4-0.2,0.9-0.2,1.4c0,0.4,0,0.7,0.1,1c0.1,0.3,0.2,0.5,0.4,0.7
	c0.2,0.2,0.4,0.4,0.6,0.5c0.3,0.1,0.5,0.2,0.8,0.2c0.5,0,0.8-0.1,1.1-0.3c0.3-0.2,0.5-0.5,0.7-0.9c0-0.1,0.1-0.2,0.2-0.2
	c0,0,0.1,0,0.1,0c0,0,0.1,0,0.1,0c-0.1,0.2-0.2,0.4-0.3,0.7c-0.1,0.2-0.2,0.5-0.2,0.8c-0.1,0-0.3,0.1-0.5,0.1c-0.2,0-0.3,0-0.5,0.1
	c-0.2,0-0.3,0-0.5,0C66,48.7,65.8,48.7,65.7,48.7z M69.8,42.4C69.8,42.4,69.8,42.3,69.8,42.4c0-0.1-0.1-0.1-0.1-0.1c0,0-0.1,0-0.1,0
	c0,0-0.1,0-0.2,0c-0.1,0-0.1,0-0.1,0c0,0-0.1,0-0.1,0c-0.1,0-0.1-0.1-0.1-0.2c0.3-0.1,0.6-0.2,0.8-0.2c0.3-0.1,0.5-0.2,0.8-0.3
	c0.1,0.1,0.1,0.1,0.1,0.2c0,0,0,0.1,0,0.1c0,0,0,0.1,0,0.1l-0.8,4.3h0c0.2-0.3,0.4-0.6,0.5-0.8c0.2-0.3,0.4-0.5,0.6-0.6
	c0.2-0.2,0.4-0.3,0.6-0.4c0.2-0.1,0.4-0.2,0.6-0.2c0.2,0,0.3,0,0.5,0.1c0.1,0.1,0.2,0.2,0.2,0.5c0,0.1,0,0.2,0,0.3
	c0,0.1,0,0.2-0.1,0.3l-0.5,2.4c0,0,0,0.1,0,0.1c0,0,0,0.1,0,0.1c0,0.1,0,0.1,0.1,0.1c0,0,0.1,0,0.1,0c0.1,0,0.1-0.1,0.2-0.1
	c0.1,0,0.1-0.1,0.1-0.1c0,0,0.1,0,0.1,0c0.1,0,0.1,0.1,0.1,0.2c-0.1,0.1-0.2,0.2-0.4,0.2c-0.1,0.1-0.3,0.1-0.4,0.2
	c-0.1,0.1-0.2,0.1-0.3,0.1c-0.1,0-0.2,0.1-0.2,0.1c-0.1,0-0.1,0-0.2,0c-0.1,0-0.1-0.1-0.1-0.2c0,0,0-0.1,0-0.1c0-0.1,0-0.1,0-0.1
	l0.6-2.7c0-0.2,0.1-0.3,0.1-0.5c0-0.2-0.1-0.3-0.3-0.3c-0.1,0-0.2,0-0.3,0.1c-0.1,0.1-0.3,0.2-0.4,0.4c-0.2,0.2-0.3,0.4-0.5,0.6
	c-0.2,0.2-0.3,0.5-0.5,0.7c-0.1,0.1-0.1,0.2-0.2,0.4c-0.1,0.1-0.1,0.3-0.1,0.4c0,0.1-0.1,0.3-0.1,0.4c0,0.1,0,0.3,0,0.4
	c0,0.1,0,0.2,0,0.3c-0.3,0-0.5,0.1-0.8,0.2c-0.1,0-0.1-0.1-0.1-0.1c0,0,0-0.1,0-0.1c0,0,0-0.1,0-0.1l1-5c0-0.2,0.1-0.4,0.1-0.6
	C69.8,42.6,69.8,42.5,69.8,42.4z M76.2,46.9L76.2,46.9c-0.2,0.3-0.4,0.6-0.5,0.8c-0.2,0.2-0.3,0.4-0.5,0.5c-0.2,0.1-0.3,0.2-0.5,0.3
	c-0.2,0.1-0.3,0.1-0.5,0.1c-0.1,0-0.2,0-0.3,0c-0.1,0-0.2-0.1-0.2-0.1c-0.1-0.1-0.1-0.2-0.2-0.3c0-0.1-0.1-0.3-0.1-0.5
	c0-0.6,0.1-1.1,0.3-1.5c0.2-0.4,0.4-0.8,0.7-1.1c0.3-0.3,0.6-0.5,0.9-0.7c0.3-0.2,0.6-0.2,0.9-0.2c0.2,0,0.4,0,0.6,0
	c0.2,0,0.4,0.1,0.7,0.1l-0.7,3.5c0,0.1,0,0.1,0,0.2c0,0.1,0,0.1,0.1,0.1c0,0,0.1,0,0.1,0c0.1,0,0.1-0.1,0.1-0.1
	c0.1,0,0.1-0.1,0.1-0.1c0,0,0.1,0,0.1,0c0.1,0,0.1,0.1,0.1,0.2c-0.1,0.1-0.2,0.2-0.4,0.2c-0.1,0.1-0.2,0.1-0.4,0.2
	c-0.1,0.1-0.2,0.1-0.3,0.1c-0.1,0-0.2,0.1-0.3,0.1c-0.1,0-0.1,0-0.2,0c-0.1,0-0.1-0.1-0.1-0.2c0,0,0-0.1,0-0.1c0,0,0-0.1,0-0.1
	L76.2,46.9z M76.5,44.7c-0.1,0-0.2,0-0.3-0.1c-0.1,0-0.2,0-0.3,0c-0.3,0-0.5,0.1-0.7,0.2c-0.2,0.1-0.4,0.3-0.5,0.6
	c-0.2,0.3-0.3,0.6-0.4,0.9c-0.1,0.3-0.1,0.7-0.1,1.1c0,0.2,0,0.4,0.1,0.5c0.1,0.1,0.1,0.1,0.2,0.1c0.1,0,0.3-0.1,0.4-0.2
	c0.2-0.1,0.3-0.3,0.4-0.5c0.1-0.2,0.3-0.4,0.4-0.7c0.1-0.2,0.2-0.5,0.3-0.8c0.1-0.3,0.2-0.5,0.2-0.7C76.5,45,76.5,44.8,76.5,44.7z
	 M81.3,45.6c0-0.2,0.1-0.3,0.1-0.5c0-0.2-0.1-0.3-0.3-0.3c-0.1,0-0.2,0.1-0.4,0.2c-0.1,0.1-0.3,0.2-0.5,0.4
	c-0.2,0.2-0.3,0.4-0.5,0.6c-0.2,0.2-0.3,0.4-0.4,0.7c-0.1,0.1-0.1,0.2-0.2,0.4c-0.1,0.1-0.1,0.3-0.2,0.4c0,0.1-0.1,0.3-0.1,0.4
	c0,0.1,0,0.3,0,0.4c0,0.1,0,0.2,0,0.3c-0.3,0-0.5,0.1-0.8,0.2c-0.1,0-0.1-0.1-0.1-0.1c0,0,0,0,0-0.1c0,0,0-0.1,0-0.1
	c0.2-0.8,0.3-1.4,0.4-1.8c0.1-0.4,0.2-0.8,0.2-1c0-0.2,0.1-0.4,0.1-0.5c0-0.1,0-0.1,0-0.1c0-0.1,0-0.1-0.1-0.1c0,0-0.1,0-0.1,0
	c-0.1,0-0.1,0-0.2,0.1c-0.1,0-0.1,0-0.2,0.1c-0.1,0-0.1,0-0.1,0c0,0-0.1,0-0.1-0.1c0,0,0-0.1,0-0.1c0.1-0.1,0.3-0.2,0.4-0.2
	c0.2-0.1,0.3-0.2,0.5-0.2c0.2-0.1,0.3-0.1,0.4-0.2c0.1,0,0.2-0.1,0.2-0.1c0,0,0.1,0,0.1,0c0,0,0,0.1,0,0.1c0,0,0,0,0,0.1
	c0,0,0,0.1,0,0.1l-0.4,1.7h0c0.2-0.3,0.4-0.6,0.5-0.8c0.2-0.3,0.4-0.5,0.6-0.6c0.2-0.2,0.4-0.3,0.6-0.4c0.2-0.1,0.4-0.2,0.6-0.2
	c0.2,0,0.3,0,0.4,0.1c0.1,0.1,0.2,0.2,0.2,0.5c0,0.1,0,0.2,0,0.3c0,0.1,0,0.2-0.1,0.3l-0.5,2.4c0,0.1,0,0.2,0,0.2
	c0,0.1,0,0.1,0.1,0.1c0,0,0.1,0,0.1,0C81.9,48,82,48,82,48c0.1,0,0.1-0.1,0.1-0.1c0,0,0.1,0,0.1,0c0.1,0,0.1,0.1,0.1,0.2
	c-0.1,0.1-0.2,0.2-0.4,0.2c-0.1,0.1-0.3,0.1-0.4,0.2c-0.1,0.1-0.2,0.1-0.3,0.1c-0.1,0-0.2,0.1-0.3,0.1c-0.1,0-0.1,0-0.2,0
	c-0.1,0-0.1-0.1-0.1-0.2c0,0,0,0,0-0.1c0,0,0-0.1,0-0.1L81.3,45.6z M85.9,44.7c-0.1,0-0.2,0-0.3-0.1c-0.1,0-0.2,0-0.3,0
	c-0.3,0-0.5,0.1-0.8,0.2c-0.2,0.1-0.4,0.3-0.5,0.6c-0.1,0.3-0.2,0.6-0.3,0.9c-0.1,0.3-0.1,0.7-0.1,1.1c0,0.2,0,0.4,0.1,0.5
	c0.1,0.1,0.2,0.2,0.3,0.2c0.1,0,0.2-0.1,0.4-0.2c0.1-0.1,0.3-0.3,0.4-0.5c0.1-0.2,0.3-0.4,0.4-0.7c0.1-0.2,0.2-0.5,0.4-0.8
	c0.1-0.3,0.2-0.5,0.2-0.7C85.9,45,85.9,44.8,85.9,44.7z M82.8,50c0.1,0.2,0.2,0.4,0.4,0.5c0.2,0.1,0.4,0.2,0.6,0.2
	c0.3,0,0.5-0.1,0.7-0.4c0.2-0.2,0.4-0.6,0.5-1l0.5-2.4h0c-0.3,0.6-0.6,1-0.9,1.3c-0.3,0.3-0.7,0.4-1,0.4c-0.1,0-0.2,0-0.3,0
	c-0.1,0-0.2-0.1-0.3-0.1c-0.1-0.1-0.1-0.2-0.2-0.3c0-0.1-0.1-0.3-0.1-0.5c0-0.5,0.1-1,0.2-1.5c0.2-0.4,0.4-0.8,0.6-1.1
	c0.3-0.3,0.5-0.5,0.9-0.7c0.3-0.2,0.6-0.2,0.9-0.2c0.2,0,0.4,0,0.6,0c0.2,0,0.4,0.1,0.7,0.1L85.9,49c-0.1,0.4-0.2,0.7-0.4,1
	c-0.2,0.3-0.4,0.5-0.6,0.6c-0.2,0.2-0.4,0.3-0.7,0.4c-0.2,0.1-0.5,0.1-0.7,0.1c-0.5,0-0.9-0.1-1.2-0.2c0-0.1,0.1-0.3,0.1-0.4
	c0-0.1,0.1-0.2,0.1-0.4L82.8,50z M88,46.3c0.6-0.1,1.1-0.2,1.3-0.4c0.3-0.2,0.4-0.5,0.4-0.8c0-0.2,0-0.3-0.1-0.4
	c-0.1-0.1-0.2-0.2-0.4-0.2c-0.2,0-0.3,0-0.4,0.2c-0.1,0.1-0.3,0.2-0.4,0.4c-0.1,0.2-0.2,0.3-0.3,0.6C88.1,45.8,88,46,88,46.3z
	 M88,46.6c0,0.1,0,0.1,0,0.2c0,0.1,0,0.1,0,0.2c0,0.2,0,0.3,0,0.5c0,0.1,0.1,0.3,0.1,0.4c0.1,0.1,0.2,0.2,0.3,0.3
	c0.1,0.1,0.3,0.1,0.4,0.1c0.2,0,0.4,0,0.5-0.1c0.2-0.1,0.4-0.2,0.6-0.3c0.1,0,0.1-0.1,0.1-0.1c0.1,0,0.1,0,0.1,0.1
	c0,0.1,0,0.1,0,0.1c-0.1,0.1-0.2,0.2-0.3,0.3c-0.1,0.1-0.3,0.2-0.4,0.2c-0.1,0.1-0.3,0.1-0.5,0.2c-0.2,0-0.3,0.1-0.5,0.1
	c-0.3,0-0.5,0-0.7-0.1c-0.2-0.1-0.3-0.2-0.4-0.4c-0.1-0.2-0.2-0.3-0.2-0.5c0-0.2,0-0.4,0-0.6c0-0.4,0.1-0.7,0.2-1
	c0.1-0.3,0.3-0.7,0.5-0.9c0.2-0.3,0.4-0.5,0.7-0.7c0.3-0.2,0.6-0.2,1-0.2c0.1,0,0.3,0,0.4,0.1c0.1,0,0.2,0.1,0.3,0.2
	c0.1,0.1,0.2,0.2,0.2,0.3c0.1,0.1,0.1,0.3,0.1,0.4c0,0.2-0.1,0.5-0.2,0.6c-0.1,0.2-0.3,0.3-0.5,0.4c-0.2,0.1-0.5,0.2-0.8,0.3
	S88.3,46.5,88,46.6z M93.6,42.7c0-0.1-0.1-0.2-0.2-0.2c-0.1,0-0.2-0.1-0.4-0.1c-0.1,0-0.1-0.1-0.1-0.2c0-0.1,0-0.1,0-0.2
	c0.2,0,0.4,0,0.6,0c0.2,0,0.4,0,0.6,0c0.1,0,0.3,0,0.5,0c0.2,0,0.4,0,0.6,0c0,0,0,0.1,0,0.1c0,0,0,0.1,0,0.1c0,0,0,0.1,0,0.1
	c0,0-0.1,0.1-0.1,0.1c-0.2,0-0.4,0.1-0.4,0.1c-0.1,0.1-0.1,0.2-0.1,0.3l0.7,4.2l2.7-5c0,0,0.1,0,0.1,0c0.1,0,0.1,0,0.1,0.1l0.8,5
	l2.2-4.2c0.1-0.2,0.1-0.3,0-0.3c-0.1-0.1-0.2-0.1-0.4-0.1c-0.1,0-0.1-0.1-0.1-0.2c0,0,0,0,0-0.1c0,0,0-0.1,0-0.1c0.2,0,0.4,0,0.6,0
	c0.2,0,0.3,0,0.5,0c0.1,0,0.2,0,0.4,0c0.1,0,0.3,0,0.5,0c0,0,0,0.1,0,0.1c0,0,0,0,0,0.1c0,0.1,0,0.1-0.1,0.2
	c-0.3,0.1-0.6,0.2-0.7,0.4l-3.2,6c0,0-0.1,0-0.1,0c-0.1,0-0.2,0-0.2-0.1l-0.8-4.8l-2.6,4.9c0,0-0.1,0-0.1,0c-0.1,0-0.2,0-0.2-0.1
	L93.6,42.7z M103.4,43.1c-0.1,0-0.2,0-0.3-0.1c-0.1-0.1-0.1-0.2-0.1-0.3c0-0.2,0.1-0.3,0.2-0.5c0.1-0.1,0.3-0.2,0.5-0.2
	c0.1,0,0.2,0,0.3,0.1c0.1,0.1,0.1,0.2,0.1,0.3c0,0.2-0.1,0.3-0.2,0.5C103.7,43,103.6,43.1,103.4,43.1z M102.9,47.8c0,0,0,0.1,0,0.1
	c0,0,0,0.1,0,0.1c0,0.1,0,0.1,0.1,0.1c0,0,0.1,0,0.1,0c0.1,0,0.1-0.1,0.2-0.1c0.1,0,0.1-0.1,0.1-0.1c0,0,0.1,0,0.1,0
	c0.1,0,0.1,0.1,0.1,0.2c-0.1,0.1-0.2,0.2-0.4,0.2c-0.1,0.1-0.2,0.1-0.4,0.2c-0.1,0.1-0.2,0.1-0.3,0.1c-0.1,0-0.2,0.1-0.3,0.1
	c-0.1,0-0.1,0-0.2,0c-0.1,0-0.1-0.1-0.1-0.2c0,0,0-0.1,0-0.1c0-0.1,0-0.1,0-0.1c0.1-0.7,0.3-1.3,0.4-1.7c0.1-0.4,0.1-0.8,0.2-1
	c0-0.2,0.1-0.4,0.1-0.5c0-0.1,0-0.1,0-0.1c0-0.1,0-0.1-0.1-0.1c0,0-0.1,0-0.1,0c-0.1,0-0.1,0-0.2,0.1c-0.1,0-0.1,0-0.2,0.1
	c0,0-0.1,0-0.1,0c0,0-0.1,0-0.1-0.1c0,0,0-0.1,0-0.1c0.1-0.1,0.3-0.1,0.4-0.2c0.2-0.1,0.3-0.2,0.5-0.2c0.2-0.1,0.3-0.1,0.4-0.2
	c0.1,0,0.2-0.1,0.2-0.1c0.1,0,0.2,0.1,0.2,0.2c0,0,0,0.1,0,0.2L102.9,47.8z M105.1,44.1c0.1-0.3,0.1-0.5,0.1-0.6c0-0.1,0-0.2,0-0.3
	c0.1,0,0.3,0,0.4-0.1s0.3,0,0.4-0.1c0.1,0,0.1,0.1,0.1,0.1c0,0,0,0,0,0.1c0,0,0,0.1,0,0.1l-0.2,0.9h1c0,0.1,0,0.1-0.1,0.2
	c0,0.1,0,0.2-0.1,0.2c-0.2,0-0.3,0-0.5-0.1c-0.2,0-0.3,0-0.5,0l-0.5,3.1c0,0.1,0,0.2,0,0.2c0,0.2,0.1,0.2,0.3,0.2c0.1,0,0.2,0,0.3,0
	c0.1,0,0.2-0.1,0.2-0.1c0.1,0,0.1,0,0.2-0.1c0,0,0.1,0,0.1,0c0.1,0,0.1,0.1,0.1,0.2c-0.2,0.2-0.4,0.3-0.7,0.4
	c-0.2,0.1-0.5,0.1-0.7,0.1c-0.2,0-0.4,0-0.5-0.1c-0.1-0.1-0.2-0.2-0.2-0.3c0-0.1,0-0.1,0-0.2l0.6-3.4h-0.7c0-0.1,0-0.2,0.1-0.2
	c0-0.1,0.1-0.1,0.2-0.1h0.6L105.1,44.1z M108.1,42.4C108.1,42.4,108.1,42.3,108.1,42.4c0-0.1-0.1-0.1-0.1-0.1c0,0-0.1,0-0.1,0
	c0,0-0.1,0-0.2,0c-0.1,0-0.1,0-0.2,0c0,0-0.1,0-0.1,0c-0.1,0-0.1-0.1-0.1-0.2c0.3-0.1,0.6-0.2,0.8-0.2c0.3-0.1,0.5-0.2,0.8-0.3
	c0.1,0.1,0.1,0.1,0.1,0.2c0,0,0,0.1,0,0.1c0,0,0,0.1,0,0.1l-0.8,4.3h0c0.2-0.3,0.4-0.6,0.5-0.8c0.2-0.3,0.4-0.5,0.5-0.6
	c0.2-0.2,0.4-0.3,0.6-0.4c0.2-0.1,0.4-0.2,0.6-0.2c0.2,0,0.3,0,0.5,0.1c0.1,0.1,0.2,0.2,0.2,0.5c0,0.1,0,0.2,0,0.3
	c0,0.1,0,0.2-0.1,0.3l-0.5,2.4c0,0,0,0.1,0,0.1c0,0,0,0.1,0,0.1c0,0.1,0,0.1,0.1,0.1c0,0,0.1,0,0.1,0c0.1,0,0.1-0.1,0.2-0.1
	c0.1,0,0.1-0.1,0.1-0.1c0,0,0.1,0,0.1,0c0.1,0,0.1,0.1,0.1,0.2c-0.1,0.1-0.2,0.2-0.4,0.2c-0.1,0.1-0.3,0.1-0.4,0.2
	c-0.1,0.1-0.2,0.1-0.3,0.1c-0.1,0-0.2,0.1-0.2,0.1c-0.1,0-0.1,0-0.2,0c-0.1,0-0.1-0.1-0.1-0.2c0,0,0-0.1,0-0.1c0-0.1,0-0.1,0-0.1
	l0.6-2.7c0-0.2,0.1-0.3,0.1-0.5c0-0.2-0.1-0.3-0.3-0.3c-0.1,0-0.2,0-0.3,0.1c-0.1,0.1-0.3,0.2-0.5,0.4c-0.2,0.2-0.3,0.4-0.5,0.6
	c-0.2,0.2-0.3,0.5-0.5,0.7c-0.1,0.1-0.1,0.2-0.2,0.4c-0.1,0.1-0.1,0.3-0.1,0.4c0,0.1-0.1,0.3-0.1,0.4c0,0.1,0,0.3,0,0.4
	c0,0.1,0,0.2,0,0.3c-0.3,0-0.5,0.1-0.8,0.2c-0.1,0-0.1-0.1-0.1-0.1c0,0,0-0.1,0-0.1c0,0,0-0.1,0-0.1l1-5c0-0.2,0.1-0.4,0.1-0.6
	C108.1,42.6,108.1,42.5,108.1,42.4z M113.3,43.1c-0.1,0-0.2,0-0.3-0.1c-0.1-0.1-0.1-0.2-0.1-0.3c0-0.2,0.1-0.3,0.2-0.5
	c0.1-0.1,0.3-0.2,0.4-0.2c0.1,0,0.2,0,0.3,0.1c0.1,0.1,0.1,0.2,0.1,0.3c0,0.2-0.1,0.3-0.2,0.5C113.6,43,113.5,43.1,113.3,43.1z
	 M112.8,47.8c0,0,0,0.1,0,0.1c0,0,0,0.1,0,0.1c0,0.1,0,0.1,0.1,0.1c0,0,0.1,0,0.1,0c0.1,0,0.1-0.1,0.2-0.1c0.1,0,0.1-0.1,0.1-0.1
	c0,0,0.1,0,0.1,0c0.1,0,0.1,0.1,0.1,0.2c-0.1,0.1-0.2,0.2-0.4,0.2c-0.1,0.1-0.2,0.1-0.4,0.2c-0.1,0.1-0.2,0.1-0.3,0.1
	c-0.1,0-0.2,0.1-0.3,0.1c-0.1,0-0.1,0-0.2,0c-0.1,0-0.1-0.1-0.1-0.2c0,0,0-0.1,0-0.1c0-0.1,0-0.1,0-0.1c0.1-0.7,0.3-1.3,0.4-1.7
	c0.1-0.4,0.1-0.8,0.2-1c0-0.2,0.1-0.4,0.1-0.5c0-0.1,0-0.1,0-0.1c0-0.1,0-0.1-0.1-0.1c0,0-0.1,0-0.1,0c-0.1,0-0.1,0-0.2,0.1
	c-0.1,0-0.1,0-0.2,0.1c0,0-0.1,0-0.1,0c0,0-0.1,0-0.1-0.1c0,0,0-0.1,0-0.1c0.1-0.1,0.3-0.1,0.4-0.2c0.2-0.1,0.3-0.2,0.5-0.2
	c0.2-0.1,0.3-0.1,0.4-0.2c0.1,0,0.2-0.1,0.2-0.1c0.1,0,0.2,0.1,0.2,0.2c0,0,0,0.1,0,0.2L112.8,47.8z M117.4,45.6
	c0-0.2,0.1-0.3,0.1-0.5c0-0.2-0.1-0.3-0.3-0.3c-0.1,0-0.2,0.1-0.4,0.2c-0.1,0.1-0.3,0.2-0.5,0.4c-0.2,0.2-0.3,0.4-0.5,0.6
	c-0.2,0.2-0.3,0.4-0.4,0.7c-0.1,0.1-0.1,0.2-0.2,0.4c-0.1,0.1-0.1,0.3-0.2,0.4c0,0.1-0.1,0.3-0.1,0.4c0,0.1,0,0.3,0,0.4
	c0,0.1,0,0.2,0,0.3c-0.3,0-0.5,0.1-0.8,0.2c-0.1,0-0.1-0.1-0.1-0.1c0,0,0,0,0-0.1c0,0,0-0.1,0-0.1c0.2-0.8,0.3-1.4,0.4-1.8
	c0.1-0.4,0.2-0.8,0.2-1c0-0.2,0.1-0.4,0.1-0.5c0-0.1,0-0.1,0-0.1c0-0.1,0-0.1-0.1-0.1c0,0-0.1,0-0.1,0c-0.1,0-0.1,0-0.2,0.1
	c-0.1,0-0.1,0-0.2,0.1c-0.1,0-0.1,0-0.1,0c0,0-0.1,0-0.1-0.1c0,0,0-0.1-0.1-0.1c0.1-0.1,0.3-0.2,0.4-0.2c0.2-0.1,0.3-0.2,0.5-0.2
	c0.2-0.1,0.3-0.1,0.4-0.2c0.1,0,0.2-0.1,0.2-0.1c0,0,0.1,0,0.1,0c0,0,0.1,0.1,0.1,0.1c0,0,0,0,0,0.1c0,0,0,0.1,0,0.1l-0.4,1.7h0
	c0.2-0.3,0.4-0.6,0.5-0.8c0.2-0.3,0.4-0.5,0.6-0.6c0.2-0.2,0.4-0.3,0.6-0.4c0.2-0.1,0.4-0.2,0.6-0.2c0.2,0,0.3,0,0.4,0.1
	c0.1,0.1,0.2,0.2,0.2,0.5c0,0.1,0,0.2,0,0.3c0,0.1,0,0.2-0.1,0.3l-0.5,2.4c0,0.1,0,0.2,0,0.2c0,0.1,0,0.1,0.1,0.1c0,0,0.1,0,0.1,0
	c0.1,0,0.1-0.1,0.2-0.1c0.1,0,0.1-0.1,0.1-0.1c0,0,0.1,0,0.1,0c0.1,0,0.1,0.1,0.1,0.2c-0.1,0.1-0.2,0.2-0.4,0.2
	c-0.1,0.1-0.3,0.1-0.4,0.2c-0.1,0.1-0.2,0.1-0.3,0.1c-0.1,0-0.2,0.1-0.3,0.1c-0.1,0-0.1,0-0.2,0c-0.1,0-0.1-0.1-0.1-0.2
	c0,0,0,0,0-0.1c0,0,0-0.1,0-0.1L117.4,45.6z"/>
</svg>
