<?xml version="1.0" encoding="utf-8"?>
<!-- Generator: Adobe Illustrator 27.2.0, SVG Export Plug-In . SVG Version: 6.00 Build 0)  -->
<svg version="1.1" id="Layer_1" xmlns="http://www.w3.org/2000/svg" xmlns:xlink="http://www.w3.org/1999/xlink" x="0px" y="0px"
	 viewBox="0 0 150.5 37.1" style="enable-background:new 0 0 150.5 37.1;" xml:space="preserve">
<style type="text/css">
	.st0{fill:#004520;}
	.st1{fill:#005A2A;}
	.st2{fill:#FFFFFF;}
</style>
<g>
	<path class="st0" d="M24.9,20.2v15.5c0,0.6-0.2,1-0.6,1.2c-0.4,0.2-0.9,0.2-1.3,0c-0.4-0.2-0.7-0.6-0.7-1.2V21.3H2.6v14.4
		c0,0.6-0.2,1-0.7,1.2c-0.4,0.2-0.9,0.2-1.3,0C0.2,36.7,0,36.3,0,35.7V20.2v-0.4V4.3c0-0.6,0.2-1,0.7-1.2c0.4-0.2,0.9-0.2,1.3,0
		c0.4,0.2,0.7,0.6,0.7,1.2v14.4h19.7V4.3c0-0.6,0.2-1,0.7-1.2c0.4-0.2,0.9-0.2,1.3,0c0.4,0.2,0.6,0.6,0.6,1.2v15.5
		C24.9,20.1,24.9,20.2,24.9,20.2z M50.3,30.7c0.5-0.7,1.1-0.8,1.8-0.3s0.8,1.1,0.3,1.8c-2.3,3.2-5.4,4.8-9.4,4.8
		c-3,0-5.6-1.1-7.8-3.4c-2.1-2.3-3.2-5.1-3.2-8.4c0-0.3,0-0.4,0-0.4c0-2.2,0.5-4.1,1.5-5.9c1-1.8,2.3-3.3,4-4.3
		c1.7-1,3.5-1.5,5.5-1.5c3.1,0,5.7,1.2,7.8,3.7c2.1,2.5,3.2,5.7,3.2,9.6H34.6c0.3,2.3,1.2,4.2,2.8,5.8c1.6,1.5,3.4,2.3,5.6,2.3
		C46,34.4,48.4,33.2,50.3,30.7z M34.6,23.7h16.7c0-1.3-0.4-2.6-1.1-3.8c-0.7-1.2-1.8-2.2-3.1-3c-1.3-0.8-2.7-1.2-4.2-1.2
		c-2.1,0-4,0.8-5.6,2.4C35.8,19.5,34.9,21.4,34.6,23.7z M76.2,30.7c0.5-0.7,1.1-0.8,1.8-0.3c0.7,0.5,0.8,1.1,0.3,1.8
		c-2.3,3.2-5.4,4.8-9.4,4.8c-3,0-5.6-1.1-7.8-3.4c-2.1-2.3-3.2-5.1-3.3-8.4c0-0.3,0-0.4,0-0.4c0-2.2,0.6-4.1,1.5-5.9
		c1-1.8,2.3-3.3,4-4.3c1.7-1,3.5-1.5,5.5-1.5c3.1,0,5.7,1.2,7.8,3.7c2.1,2.5,3.2,5.7,3.2,9.6H60.6c0.3,2.3,1.2,4.2,2.8,5.8
		c1.6,1.5,3.4,2.3,5.6,2.3C72,34.4,74.4,33.2,76.2,30.7z M60.6,23.7h16.7c0-1.3-0.4-2.6-1.1-3.8c-0.7-1.2-1.8-2.2-3.1-3
		c-1.3-0.8-2.7-1.2-4.2-1.2c-2.1,0-4,0.8-5.6,2.4C61.8,19.5,60.9,21.4,60.6,23.7z M85.9,3c0-0.6,0.2-1,0.7-1.2
		c0.4-0.2,0.9-0.2,1.3,0C88.2,2,88.5,2.4,88.5,3v32.7c0,0.6-0.2,1-0.7,1.2c-0.4,0.2-0.9,0.2-1.3,0c-0.4-0.2-0.7-0.6-0.7-1.2V3z
		 M93.5,25c0-3.4,1.1-6.2,3.2-8.5c2.2-2.3,4.8-3.5,7.8-3.5c1.6,0,3.2,0.4,4.7,1.1c1.5,0.7,2.7,1.8,3.8,3.1v-3c0-0.3,0.1-0.5,0.2-0.7
		c0.1-0.2,0.3-0.4,0.4-0.5c0.2-0.1,0.4-0.1,0.7-0.1c0.2,0,0.4,0,0.6,0.1c0.2,0.1,0.4,0.2,0.5,0.5c0.1,0.2,0.2,0.4,0.2,0.7V25v10.7
		c0,0.6-0.2,1-0.6,1.2c-0.4,0.2-0.9,0.2-1.3,0c-0.4-0.2-0.7-0.6-0.7-1.2v-3c-1,1.3-2.3,2.4-3.8,3.2c-1.5,0.7-3,1.1-4.7,1.1
		c-3,0-5.6-1.2-7.8-3.5C94.6,31.2,93.5,28.4,93.5,25z M96.1,25c0,2.6,0.8,4.8,2.4,6.7c1.6,1.8,3.6,2.8,5.9,2.8c1.5,0,3-0.4,4.2-1.2
		c1.3-0.9,2.3-2,3.1-3.5c0.7-1.4,1.1-3,1.1-4.7c0-2.6-0.8-4.8-2.4-6.6c-1.6-1.8-3.6-2.8-6-2.8c-2.3,0-4.3,0.9-5.9,2.8
		C96.9,20.2,96.1,22.4,96.1,25z M126.1,16.7c2-2.4,4.9-3.6,8.5-3.6c0.4,0,0.7,0.1,0.9,0.4c0.2,0.3,0.4,0.6,0.4,0.9
		c0,0.3-0.1,0.6-0.4,0.9c-0.2,0.3-0.6,0.4-0.9,0.4c-1.7,0-3.1,0.4-4.4,1c-1.3,0.7-2.3,1.8-3,3.1c-0.7,1.4-1.1,3.1-1.1,5V25v10.7
		c0,0.6-0.2,1-0.6,1.2c-0.4,0.2-0.9,0.2-1.3,0c-0.4-0.2-0.7-0.6-0.7-1.2V25v-0.1c0-0.1,0-0.1,0-0.1V14.3c0-0.3,0.1-0.5,0.2-0.7
		c0.1-0.2,0.3-0.4,0.4-0.5c0.2-0.1,0.4-0.1,0.6-0.1c0.2,0,0.4,0,0.6,0.1c0.2,0.1,0.4,0.2,0.5,0.5c0.1,0.2,0.2,0.4,0.2,0.7V16.7z"/>
	<path class="st1" d="M142.7,0c0,0,0.2,1.8,1,3.5c0.4,0.8,1.3,1.8,1.9,2.3c1.5,1.4,4.9,1.6,4.9,1.6S147.7,8.1,146,9
		c-1,0.6-1.5,1.4-1.8,2.1c-0.8,1.5-1.5,4-1.5,4s-0.2-2.4-1.3-4c-0.5-0.8-1.1-1.6-1.9-2.1c-2-1.2-4.5-1.6-4.5-1.6s3-0.2,4.5-1.3
		c1-0.7,1.4-1,2-2.1C142.3,2.7,142.7,0,142.7,0z"/>
	<path class="st2" d="M142.7,3.6c0,0,0.1,1,0.5,1.8c0.2,0.4,0.7,1,1,1.2c0.8,0.7,2.5,0.9,2.5,0.9s-1.1,0.2-1.9,0.6
		c-0.3,0.2-0.9,0.7-1.1,1.1c-0.7,1-0.9,2.4-0.9,2.4s-0.2-1.2-0.7-2.1c-0.3-0.5-0.6-0.8-1-1.1c-1-0.6-2.3-0.8-2.3-0.8
		s1.6-0.1,2.3-0.7c0.5-0.4,0.7-0.6,1-1.1C142.5,5,142.7,3.6,142.7,3.6z"/>
</g>
</svg>
