<?xml version="1.0" encoding="utf-8"?>
<!-- Generator: Adobe Illustrator 28.1.0, SVG Export Plug-In . SVG Version: 6.00 Build 0)  -->
<svg version="1.1" id="Layer_1" xmlns="http://www.w3.org/2000/svg" xmlns:xlink="http://www.w3.org/1999/xlink" x="0px" y="0px"
	 viewBox="0 0 512 512" style="enable-background:new 0 0 512 512;" xml:space="preserve">
<style type="text/css">
	.st0{fill-rule:evenodd;clip-rule:evenodd;fill:none;}
	.st1{fill-rule:evenodd;clip-rule:evenodd;}
</style>
<g>
	<rect class="st0" width="512" height="512"/>
	<path class="st1" d="M243.8,206.9c5.4-4.4,13.3-3.7,17.7,1.7l33.3,40.3c3.8,4.7,3.8,11.4,0,16.1l-33.3,40.3
		c-4.4,5.4-12.4,6.1-17.7,1.7c-5.4-4.4-6.1-12.4-1.7-17.7l16.3-19.7H151.9c-7,0-12.6-5.6-12.6-12.6c0-7,5.6-12.6,12.6-12.6h106.5
		l-16.3-19.7C237.7,219.3,238.4,211.3,243.8,206.9z M243.4,130c0-7,5.6-12.6,12.6-12.6c32.4,0,61.9,13.4,83.1,37.8
		c21.2,24.4,33.6,59,33.6,100.8s-12.4,76.5-33.6,100.8c-21.2,24.4-50.7,37.8-83.1,37.8c-7,0-12.6-5.6-12.6-12.6s5.6-12.6,12.6-12.6
		c25.1,0,47.7-10.2,64.1-29.1c16.5-19,27.4-47.4,27.4-84.3c0-36.9-10.9-65.3-27.4-84.3c-16.4-18.9-39-29.1-64.1-29.1
		C249,142.6,243.4,137,243.4,130z"/>
</g>
</svg>
