<svg width="16" height="16" viewBox="0 0 16 16" fill="none" xmlns="http://www.w3.org/2000/svg">
<path d="M14.3516 14.3578C14.2582 14.4497 14.1326 14.5013 14.0016 14.5016C13.8688 14.501 13.7413 14.4496 13.6453 14.3578L10.9453 11.6516C9.80818 12.6067 8.34621 13.0859 6.86431 12.9894C5.38242 12.8928 3.99502 12.2278 2.99147 11.1332C1.98792 10.0386 1.44571 8.59876 1.47792 7.11407C1.51013 5.62938 2.11428 4.21444 3.16436 3.16436C4.21444 2.11428 5.62938 1.51013 7.11407 1.47792C8.59876 1.44571 10.0386 1.98792 11.1332 2.99147C12.2278 3.99502 12.8928 5.38242 12.9894 6.86431C13.0859 8.34621 12.6067 9.80818 11.6516 10.9453L14.3516 13.6453C14.3988 13.6918 14.4363 13.7473 14.4619 13.8085C14.4875 13.8696 14.5007 13.9353 14.5007 14.0016C14.5007 14.0679 14.4875 14.1335 14.4619 14.1947C14.4363 14.2558 14.3988 14.3113 14.3516 14.3578ZM7.25156 12.0016C8.19102 12.0016 9.10939 11.723 9.89052 11.201C10.6717 10.6791 11.2805 9.93726 11.64 9.06931C11.9995 8.20136 12.0936 7.24629 11.9103 6.32488C11.727 5.40347 11.2746 4.5571 10.6103 3.8928C9.94602 3.22851 9.09965 2.77611 8.17824 2.59283C7.25683 2.40955 6.30176 2.50362 5.43382 2.86313C4.56587 3.22265 3.82402 3.83147 3.30208 4.6126C2.78014 5.39374 2.50156 6.3121 2.50156 7.25156C2.50322 8.51083 3.00419 9.71805 3.89463 10.6085C4.78507 11.4989 5.99229 11.9999 7.25156 12.0016Z" fill="#1C1C1C" fill-opacity="0.2"/>
</svg>
