<svg width="22" height="21" viewBox="0 0 22 21" fill="none" xmlns="http://www.w3.org/2000/svg">
<g clip-path="url(#clip0_5185_152949)">
<path fill-rule="evenodd" clip-rule="evenodd" d="M6.22125 8.16188C6.24288 8.17555 6.26716 8.1901 6.29232 8.20597C6.49716 8.33295 6.64506 8.42466 6.70157 8.61823C6.9223 9.38454 8.41668 12.2324 10.4377 12.2324C12.457 12.2324 13.9527 9.3841 14.1735 8.61955C14.2287 8.42599 14.3774 8.3334 14.5827 8.20553C14.6079 8.1901 14.6322 8.17555 14.6534 8.16188C15.1946 7.17732 15.1094 6.73772 15.0458 6.59222C14.9686 6.41542 14.8061 6.37221 14.788 6.3678C14.581 6.31841 14.426 6.12485 14.4375 5.91233C14.4379 5.90131 14.4944 4.77389 14.2203 3.73994C14.1938 3.64383 13.5002 1.29199 10.4377 1.29199C7.35141 1.29199 6.66095 3.71746 6.65433 3.74215C6.37929 4.77918 6.43712 5.90087 6.43757 5.91189C6.45037 6.13367 6.29541 6.32988 6.07688 6.37C6.0685 6.37221 5.90603 6.41542 5.82878 6.59222C5.76565 6.73772 5.68 7.17732 6.22125 8.16188ZM10.4377 13.1142C8.00214 13.1142 6.30203 10.191 5.89588 8.99785C5.87381 8.98374 5.84953 8.96919 5.82613 8.95464C5.6672 8.85632 5.56213 8.79107 5.49326 8.66805C4.90831 7.63499 4.75379 6.80695 5.03413 6.20863C5.16789 5.92203 5.37097 5.74875 5.54933 5.64558C5.54888 5.19849 5.58155 4.344 5.80141 3.5142C5.81024 3.48157 6.68258 0.410156 10.4377 0.410156C14.1929 0.410156 15.0648 3.48157 15.0736 3.51243C15.2939 4.34356 15.3266 5.19849 15.3262 5.64558C15.5041 5.74875 15.7071 5.92203 15.8409 6.20819C16.1212 6.80695 15.9663 7.63499 15.3813 8.66937C15.3129 8.79107 15.2078 8.85588 15.0489 8.9542C15.0255 8.96919 15.0017 8.98374 14.9792 8.99785C14.5712 10.1932 12.8702 13.1142 10.4377 13.1142Z" fill="#008548"/>
<path fill-rule="evenodd" clip-rule="evenodd" d="M13.6221 13.2515C13.5536 13.2515 13.4843 13.2356 13.419 13.2021C12.5237 12.7378 12.257 12.285 12.2129 12.199C12.1016 11.9825 12.1869 11.7167 12.4036 11.6056C12.6186 11.4958 12.8782 11.5773 12.9921 11.7846C13.0058 11.8062 13.1978 12.0941 13.826 12.419C14.0424 12.5315 14.1267 12.7974 14.0145 13.0134C13.936 13.1651 13.7814 13.2515 13.6221 13.2515Z" fill="#008548"/>
<path fill-rule="evenodd" clip-rule="evenodd" d="M10.6697 20.7222C5.59105 20.7222 0.939268 19.8783 0.889382 19.869C0.672178 19.8293 0.517663 19.6349 0.527816 19.4144C0.737957 15.0176 3.48038 13.6521 5.52527 13.0079C7.11855 12.5057 7.95249 11.6927 7.96043 11.6843C8.13393 11.5132 8.41338 11.5141 8.58467 11.6869C8.75641 11.8602 8.75552 12.1393 8.58202 12.3108C8.54229 12.3501 7.58606 13.283 5.7906 13.8487C3.79868 14.4766 1.7401 15.593 1.43592 19.0678C2.75813 19.2843 7.266 19.9506 11.8471 19.824C12.0948 19.8178 12.2944 20.0092 12.301 20.2526C12.3076 20.496 12.1156 20.6988 11.8723 20.7054C11.4697 20.7169 11.0684 20.7222 10.6697 20.7222Z" fill="#008548"/>
<path fill-rule="evenodd" clip-rule="evenodd" d="M14.5079 14.9756V19.8256H19.806L19.8056 14.9756H14.5079ZM19.8056 20.7075H14.5079C14.021 20.7075 13.625 20.312 13.625 19.8256V14.9756C13.625 14.4893 14.021 14.0938 14.5079 14.0938H19.8056C20.2925 14.0938 20.6885 14.4893 20.6885 14.9756V19.8256C20.6885 20.312 20.2925 20.7075 19.8056 20.7075Z" fill="#008548"/>
<path fill-rule="evenodd" clip-rule="evenodd" d="M19.8055 17.1787H14.5079C14.2637 17.1787 14.0664 16.9812 14.0664 16.7378C14.0664 16.4944 14.2637 16.2969 14.5079 16.2969H19.8055C20.0497 16.2969 20.247 16.4944 20.247 16.7378C20.247 16.9812 20.0497 17.1787 19.8055 17.1787Z" fill="#008548"/>
<path fill-rule="evenodd" clip-rule="evenodd" d="M15.8321 15.8564C15.588 15.8564 15.3906 15.6589 15.3906 15.4155V13.6519C15.3906 13.4085 15.588 13.2109 15.8321 13.2109C16.0762 13.2109 16.2736 13.4085 16.2736 13.6519V15.4155C16.2736 15.6589 16.0762 15.8564 15.8321 15.8564Z" fill="#008548"/>
<path fill-rule="evenodd" clip-rule="evenodd" d="M18.4805 15.8564C18.2364 15.8564 18.0391 15.6589 18.0391 15.4155V13.6519C18.0391 13.4085 18.2364 13.2109 18.4805 13.2109C18.7247 13.2109 18.922 13.4085 18.922 13.6519V15.4155C18.922 15.6589 18.7247 15.8564 18.4805 15.8564Z" fill="#008548"/>
</g>
<defs>
<clipPath id="clip0_5185_152949">
<rect width="21" height="21" fill="white" transform="translate(0.5)"/>
</clipPath>
</defs>
</svg>
