<svg width="25" height="25" viewBox="0 0 25 25" fill="none" xmlns="http://www.w3.org/2000/svg">
<path d="M6.27796 11.846C6.2158 11.4454 6.18356 11.035 6.18356 10.6172C6.18356 6.19891 9.78884 2.61719 14.2362 2.61719C18.6835 2.61719 22.2888 6.19891 22.2888 10.6172C22.2888 11.6153 22.1048 12.5706 21.7687 13.4517C21.6989 13.6347 21.664 13.7262 21.6482 13.7976C21.6325 13.8684 21.6264 13.9182 21.6247 13.9906C21.623 14.0638 21.6329 14.1444 21.6528 14.3055L22.0553 17.5757C22.0989 17.9297 22.1207 18.1067 22.0618 18.2354C22.0102 18.3482 21.9186 18.4377 21.8047 18.4867C21.6747 18.5426 21.4982 18.5167 21.1453 18.465L17.96 17.9981C17.7937 17.9737 17.7106 17.9615 17.6348 17.962C17.5599 17.9624 17.5081 17.9679 17.4347 17.9833C17.3606 17.9989 17.2659 18.0344 17.0766 18.1053C16.1933 18.4362 15.236 18.6172 14.2362 18.6172C13.818 18.6172 13.4073 18.5855 13.0063 18.5245M7.81517 22.6172C10.7801 22.6172 13.1836 20.1548 13.1836 17.1172C13.1836 14.0796 10.7801 11.6172 7.81517 11.6172C4.85028 11.6172 2.44675 14.0796 2.44675 17.1172C2.44675 17.7278 2.54387 18.3151 2.72314 18.8639C2.79892 19.0959 2.83681 19.2119 2.84925 19.2911C2.86223 19.3738 2.86451 19.4203 2.85967 19.5039C2.85504 19.584 2.83501 19.6745 2.79494 19.8555L2.18359 22.6172L5.1784 22.2082C5.34186 22.1859 5.42359 22.1747 5.49496 22.1752C5.57011 22.1757 5.61 22.1798 5.6837 22.1945C5.7537 22.2084 5.85775 22.2451 6.06586 22.3186C6.61419 22.5121 7.2027 22.6172 7.81517 22.6172Z" stroke="#344054" stroke-width="2" stroke-linecap="round" stroke-linejoin="round"/>
</svg>
