<?xml version="1.0" encoding="utf-8"?>
<!-- Generator: Adobe Illustrator 28.1.0, SVG Export Plug-In . SVG Version: 6.00 Build 0)  -->
<svg version="1.1" id="Layer_1" xmlns="http://www.w3.org/2000/svg" xmlns:xlink="http://www.w3.org/1999/xlink" x="0px" y="0px"
	 viewBox="0 0 512 512" style="enable-background:new 0 0 512 512;" xml:space="preserve">
<style type="text/css">
	.st0{fill:none;}
	.st1{fill:#1C1B1F;}
</style>
<g>
	<rect y="0" class="st0" width="512" height="512"/>
	<path class="st1" d="M256,294.4l19.8-44.2l44.2-19.8l-44.2-19.8L256,166.4l-19.8,44.2L192,230.4l44.2,19.8L256,294.4z M128,384
		V153.6c0-7,2.5-13.1,7.5-18.1c5-5,11-7.5,18.1-7.5h204.8c7,0,13.1,2.5,18.1,7.5c5,5,7.5,11,7.5,18.1v153.6c0,7-2.5,13.1-7.5,18.1
		c-5,5-11,7.5-18.1,7.5H179.2L128,384z M153.6,322.2l15-15h189.8V153.6H153.6V322.2z"/>
</g>
</svg>
