<svg width="24" height="25" viewBox="0 0 24 25" fill="none" xmlns="http://www.w3.org/2000/svg">
<path d="M20.9986 12.2734C20.9986 16.9679 17.1931 20.7734 12.4986 20.7734C11.4219 20.7734 10.3919 20.5732 9.4438 20.208C9.27047 20.1412 9.1838 20.1078 9.11488 20.0919C9.04709 20.0763 8.99802 20.0698 8.92851 20.0671C8.85783 20.0644 8.78029 20.0724 8.62521 20.0885L3.50419 20.6178C3.01595 20.6683 2.77183 20.6935 2.62782 20.6057C2.5024 20.5292 2.41697 20.4014 2.39423 20.2562C2.36812 20.0896 2.48477 19.8736 2.71808 19.4418L4.35374 16.4143C4.48844 16.1649 4.5558 16.0403 4.5863 15.9204C4.61643 15.802 4.62371 15.7166 4.61408 15.5949C4.60432 15.4716 4.55022 15.3111 4.44202 14.9901C4.1545 14.137 3.99865 13.2234 3.99865 12.2734C3.99865 7.57902 7.80423 3.77344 12.4986 3.77344C17.1931 3.77344 20.9986 7.57902 20.9986 12.2734Z" stroke="#008548" stroke-width="2" stroke-linecap="round" stroke-linejoin="round"/>
<path fill-rule="evenodd" clip-rule="evenodd" d="M12.4956 9.72269C11.5959 8.68384 10.0955 8.40439 8.96826 9.35567C7.84099 10.3069 7.68228 11.8974 8.56754 13.0225C9.11598 13.7195 10.4925 14.9926 11.4606 15.8604C11.8162 16.1792 11.994 16.3385 12.2074 16.4028C12.3904 16.4579 12.6007 16.4579 12.7838 16.4028C12.9971 16.3385 13.1749 16.1792 13.5305 15.8604C14.4986 14.9926 15.8751 13.7195 16.4236 13.0225C17.3088 11.8974 17.1695 10.2969 16.0229 9.35567C14.8762 8.4144 13.3953 8.68384 12.4956 9.72269Z" stroke="#008548" stroke-width="2" stroke-linecap="round" stroke-linejoin="round"/>
</svg>
