<svg width="24" height="25" viewBox="0 0 24 25" fill="none" xmlns="http://www.w3.org/2000/svg">
<path d="M8.99865 14.7734C8.99865 14.7734 10.3111 16.2734 12.4986 16.2734C14.6861 16.2734 15.9986 14.7734 15.9986 14.7734M15.2486 9.77344H15.2586M9.74865 9.77344H9.75865M12.4986 20.7734C17.1931 20.7734 20.9986 16.9679 20.9986 12.2734C20.9986 7.57902 17.1931 3.77344 12.4986 3.77344C7.80423 3.77344 3.99865 7.57902 3.99865 12.2734C3.99865 13.2234 4.1545 14.137 4.44202 14.9901C4.55022 15.3111 4.60432 15.4716 4.61408 15.5949C4.62371 15.7166 4.61643 15.802 4.5863 15.9204C4.5558 16.0403 4.48844 16.1649 4.35374 16.4143L2.71808 19.4418C2.48477 19.8736 2.36812 20.0896 2.39423 20.2562C2.41697 20.4014 2.5024 20.5292 2.62782 20.6057C2.77183 20.6935 3.01595 20.6683 3.50419 20.6178L8.62521 20.0885C8.78029 20.0724 8.85783 20.0644 8.92851 20.0671C8.99802 20.0698 9.04709 20.0763 9.11488 20.0919C9.1838 20.1078 9.27047 20.1412 9.4438 20.208C10.3919 20.5732 11.4219 20.7734 12.4986 20.7734ZM15.7486 9.77344C15.7486 10.0496 15.5248 10.2734 15.2486 10.2734C14.9725 10.2734 14.7486 10.0496 14.7486 9.77344C14.7486 9.4973 14.9725 9.27344 15.2486 9.27344C15.5248 9.27344 15.7486 9.4973 15.7486 9.77344ZM10.2486 9.77344C10.2486 10.0496 10.0248 10.2734 9.74865 10.2734C9.47251 10.2734 9.24865 10.0496 9.24865 9.77344C9.24865 9.4973 9.47251 9.27344 9.74865 9.27344C10.0248 9.27344 10.2486 9.4973 10.2486 9.77344Z" stroke="#008548" stroke-width="2" stroke-linecap="round" stroke-linejoin="round"/>
</svg>
