<svg width="19" height="19" viewBox="0 0 19 19" fill="none" xmlns="http://www.w3.org/2000/svg">
<path d="M13.7311 8.22532V11.2253C13.7311 11.4203 13.7236 11.6078 13.7011 11.7878C13.5286 13.8128 12.3361 14.8178 10.1386 14.8178H9.8386C9.6511 14.8178 9.47109 14.9078 9.35859 15.0578L8.4586 16.2578C8.0611 16.7903 7.41609 16.7903 7.01859 16.2578L6.11858 15.0578C6.02108 14.9303 5.8036 14.8178 5.6386 14.8178H5.3386C2.9461 14.8178 1.74609 14.2253 1.74609 11.2253V8.22532C1.74609 6.02782 2.7586 4.83532 4.7761 4.66282C4.9561 4.64032 5.1436 4.63281 5.3386 4.63281H10.1386C12.5311 4.63281 13.7311 5.83282 13.7311 8.22532Z" stroke="#22B573" stroke-miterlimit="10" stroke-linecap="round" stroke-linejoin="round"/>
<path d="M16.7323 5.22532V8.22532C16.7323 10.4303 15.7198 11.6153 13.7023 11.7878C13.7248 11.6078 13.7323 11.4203 13.7323 11.2253V8.22532C13.7323 5.83282 12.5323 4.63281 10.1398 4.63281H5.33984C5.14484 4.63281 4.95734 4.64032 4.77734 4.66282C4.94984 2.64532 6.14234 1.63281 8.33984 1.63281H13.1398C15.5323 1.63281 16.7323 2.83282 16.7323 5.22532Z" stroke="#22B573" stroke-miterlimit="10" stroke-linecap="round" stroke-linejoin="round"/>
<path d="M10.3677 10.0703H10.3745" stroke="#22B573" stroke-linecap="round" stroke-linejoin="round"/>
<path d="M7.74272 10.0703H7.74947" stroke="#22B573" stroke-linecap="round" stroke-linejoin="round"/>
<path d="M5.11772 10.0703H5.12447" stroke="#22B573" stroke-linecap="round" stroke-linejoin="round"/>
</svg>
