<svg width="24" height="25" viewBox="0 0 24 25" fill="none" xmlns="http://www.w3.org/2000/svg">
<path d="M6.09436 12.0022C6.03221 11.6017 5.99996 11.1913 5.99996 10.7734C5.99996 6.35516 9.60525 2.77344 14.0526 2.77344C18.4999 2.77344 22.1052 6.35516 22.1052 10.7734C22.1052 11.7715 21.9213 12.7269 21.5852 13.6079C21.5154 13.7909 21.4804 13.8824 21.4646 13.9538C21.4489 14.0246 21.4428 14.0744 21.4411 14.1469C21.4394 14.22 21.4493 14.3006 21.4692 14.4618L21.8717 17.732C21.9153 18.086 21.9371 18.263 21.8782 18.3917C21.8266 18.5044 21.735 18.594 21.6211 18.6429C21.4911 18.6988 21.3146 18.673 20.9617 18.6213L17.7765 18.1544C17.6101 18.13 17.527 18.1178 17.4512 18.1182C17.3763 18.1186 17.3245 18.1242 17.2511 18.1396C17.177 18.1552 17.0823 18.1906 16.893 18.2616C16.0097 18.5924 15.0524 18.7734 14.0526 18.7734C13.6344 18.7734 13.2237 18.7418 12.8227 18.6807M7.63158 22.7734C10.5965 22.7734 13 20.311 13 17.2734C13 14.2359 10.5965 11.7734 7.63158 11.7734C4.66668 11.7734 2.26316 14.2359 2.26316 17.2734C2.26316 17.884 2.36028 18.4714 2.53955 19.0202C2.61533 19.2521 2.65322 19.3681 2.66566 19.4474C2.67864 19.5301 2.68091 19.5766 2.67608 19.6602C2.67145 19.7402 2.65141 19.8307 2.61134 20.0117L2 22.7734L4.9948 22.3644C5.15827 22.3421 5.24 22.3309 5.31137 22.3314C5.38652 22.3319 5.42641 22.336 5.50011 22.3507C5.5701 22.3647 5.67416 22.4014 5.88227 22.4748C6.43059 22.6684 7.01911 22.7734 7.63158 22.7734Z" stroke="#008548" stroke-width="2" stroke-linecap="round" stroke-linejoin="round"/>
</svg>
