<?xml version="1.0" encoding="utf-8"?>
<!-- Generator: Adobe Illustrator 27.2.0, SVG Export Plug-In . SVG Version: 6.00 Build 0)  -->
<svg version="1.1" id="Layer_1" xmlns="http://www.w3.org/2000/svg" xmlns:xlink="http://www.w3.org/1999/xlink" x="0px" y="0px"
	 viewBox="0 0 481.2 512" style="enable-background:new 0 0 481.2 512;" xml:space="preserve">
<style type="text/css">
	.st0{fill:#4CAF50;}
</style>
<path class="st0" d="M87.7,330.3l-4.1-13.4l-2.7,1c-2.3,0.8-4.8,1.8-7.5,3c0-3.6,0.7-6.1,0.7-7.9v-2.5l-13.4,0v2.5
	c0,2.4,0.2,4.8,0.5,7.1l-6.3-2.7l-2.7-1l-4.7,13l2.5,0.9c1.8,0.6,3.6,1.1,5.5,1.5l1.9,0.5c-1.9,1.7-3.7,3.6-5.4,5.4l-1.9,2.1
	l11.7,8.6l1.6-2.4c1.6-2.2,3-4.4,4.4-6.6l5.3,8.5l11.9-7.9l-1.8-2.2c-0.7-0.8-1.6-1.9-2.8-3.2l-2.3-2.5l7.3-1.4L87.7,330.3z
	 M156.4,330.4l-4.1-13.4l-2.7,1c-2.3,0.8-4.7,1.8-7.4,3c0.4-3.6,0.7-6.1,0.7-7.9v-2.5l-13.6,0v2.5c0,2.4,0.2,4.8,0.5,7.1l-6.4-2.8
	l-2.7-1l-4.5,13.2l2.4,0.9c1.8,0.6,3.6,1.1,5.5,1.5l1.9,0.5c-1.9,1.7-3.6,3.6-5.3,5.4l-2,2.1l11.6,8.6l1.6-2.4
	c1.6-2.2,2.9-4.4,4.3-6.6l5.3,8.5l11.9-7.9l-1.9-2.1l-2.7-3.2l-2.4-2.5l7.3-1.4L156.4,330.4z M225.2,330.4l-3.8-13.5l-2.5,1
	c-2.2,0.8-4.5,1.8-7,3v0c0.4-2.6,0.6-5.3,0.6-7.9v-2.5h-12.8v2.5c0,2.4,0.2,4.8,0.5,7.1l-6.1-2.9l-2.5-1l-4.2,13.2l2.3,0.9
	c1.7,0.6,3.4,1.1,5.2,1.5l1.7,0.5c-1.7,1.7-3.4,3.6-5,5.4l-1.8,2.1l11.2,8.5l1.5-2.4c1.4-2.2,2.8-4.4,4-6.6l5,8.6l11.2-7.9l-1.8-2.2
	l-2.5-3.2l-2.1-2.2l6.8-1.4L225.2,330.4z M296.3,330.3l-4.1-13.4l-2.7,1c-2.3,0.8-4.7,1.8-7.4,3l0,0c0.4-2.6,0.6-5.3,0.7-7.9v-2.5
	h-13.6v2.5c-0.1,2.4-0.1,4.7,0,7.1l-6.5-2.8l-2.7-1l-4,13.2l2.5,0.9c1.8,0.6,3.6,1.1,5.5,1.5l1.8,0.5c-1.8,1.7-3.6,3.6-5.3,5.4
	l-1.9,2.1l11.5,8.6l1.6-2.4c1.5-2.2,2.9-4.4,4.3-6.6l5.3,8.5l11.9-7.9l-1.9-2.2l-2.7-3.2l-2.4-2.5l7.3-1.4L296.3,330.3z M365,330.3
	l-4-13.4l-2.8,1c-2.2,0.8-4.7,1.8-7.4,3l0,0c0.3-2.6,0.5-5.3,0.6-7.9v-2.5h-13.6v2.5v7.1l-6.5-2.8l-2.6-1l-4.1,13.2l2.5,0.9
	c1.8,0.6,3.6,1.1,5.5,1.5l1.8,0.5c-1.8,1.7-3.6,3.6-5.3,5.4l-1.9,2.1l11.5,8.6l1.6-2.4c1.5-2.2,2.9-4.4,4.3-6.6l5.4,8.5l11.9-7.9
	l-1.9-2.2l-2.7-3.2l-2.4-2.5l7.3-1.4L365,330.3z M433.8,330.4l-4.1-13.4l-2.8,1c-2.2,0.8-4.8,1.8-7.4,3c0.4-3.6,0.7-6.1,0.7-7.9
	v-2.5l-13.7,0v2.5v7.1c-2-0.9-4.2-1.9-6.5-2.8l-2.6-1l-3.8,13.2l2.5,0.9c1.8,0.6,3.6,1.1,5.5,1.5l1.8,0.5c-1.8,1.7-3.6,3.6-5.3,5.4
	l-1.9,2.1l11.7,8.6l1.6-2.4c1.6-2.2,3-4.4,4.3-6.6l5.4,8.5l11.9-7.9l-1.8-2.2l-2.8-3.2l-2.4-2.5l7.3-1.4L433.8,330.4z M441.6,261.8
	h-23.3v-17.4c0-12.6-4.2-24.8-11.8-34.8c-7.7-10-18.4-17.2-30.6-20.4V135c0-48.2-25.8-92.8-67.6-116.9C266.5-6,215-6,173.2,18.1
	c-41.8,24.1-67.6,68.7-67.6,116.9v53.9c-12.3,3.2-23.1,10.4-30.8,20.4c-7.7,10-11.9,22.4-11.9,35v17.4H39.6
	c-10.5,0-20.5,4.2-28,11.6S0,290.9,0,301.4v54.7c0,10.5,4.2,20.5,11.6,27.9c7.4,7.4,17.5,11.6,28,11.6h34.3
	c13.8,37.4,39.7,69.1,73.7,90c34,20.9,74,29.7,113.7,25.1c39.6-4.6,76.6-22.4,104.8-50.6c18.3-18.2,32.4-40.3,41.2-64.6h34.3
	c10.5,0,20.5-4.2,28-11.6c7.4-7.4,11.6-17.5,11.6-27.9v-54.7c0-10.5-4.2-20.5-11.6-27.9C462.2,266,452.1,261.8,441.6,261.8
	L441.6,261.8z M129.7,135c0-39.6,21.1-76.2,55.4-96c34.3-19.8,76.6-19.8,110.9,0c34.3,19.8,55.4,56.4,55.4,96v51.9h-45.4v-42.9
	c0.6-17.8-6-35-18.4-47.8c-12.4-12.8-29.4-20-47.2-20c-17.8,0-34.8,7.2-47.2,20c-12.4,12.8-19,30.1-18.4,47.8v43.1l-45.3,0
	L129.7,135z M281.9,143.8v43.1l-82.6,0v-42.9c-0.5-11.3,3.6-22.2,11.4-30.4c7.8-8.2,18.6-12.8,29.9-12.8c11.3,0,22.1,4.6,29.9,12.8
	c7.8,8.1,11.9,19.1,11.4,30.4L281.9,143.8z M87.1,244.4c0-6.1,1.7-12.1,4.9-17.3c3.2-5.2,7.8-9.4,13.3-12.1
	c4.6-2.4,9.6-3.6,14.8-3.6h240.8c5.1,0,10.2,1.2,14.8,3.6c5.5,2.7,10.1,6.9,13.4,12.1c3.2,5.2,5,11.2,5,17.3v17.4H87.2L87.1,244.4z
	 M348.8,442.9c-23.7,23.6-54.4,38.8-87.5,43.3c-33.1,4.5-66.8-1.9-96-18.2c-29.1-16.4-52.1-41.8-65.5-72.4h281.4
	c-7.6,17.7-18.6,33.7-32.2,47.3H348.8z M457,356.1c0,4.1-1.6,8-4.5,10.8c-2.9,2.9-6.8,4.5-10.8,4.5h-402c-4.1,0-8-1.6-10.8-4.5
	c-2.9-2.9-4.5-6.8-4.5-10.8v-54.7c0-4.1,1.6-8,4.5-10.8c2.9-2.9,6.8-4.5,10.8-4.5h402c4.1,0,8,1.6,10.8,4.5
	c2.9,2.9,4.5,6.8,4.5,10.8V356.1z"/>
</svg>
