<svg width="24" height="24" viewBox="0 0 24 24" fill="none" xmlns="http://www.w3.org/2000/svg">
<rect width="24" height="24" rx="8" fill="#E5ECF6"/>
<rect x="0.5" y="0.5" width="23" height="23" rx="11.5" fill="#E5ECF6"/>
<rect x="0.5" y="0.5" width="23" height="23" rx="11.5" stroke="#22B573"/>
<path fill-rule="evenodd" clip-rule="evenodd" d="M12.0001 9.50073C12.0001 9.50073 13.0356 9.50073 13.7678 10.233C13.7678 10.233 14.5001 10.9652 14.5001 12.0007C14.5001 12.0007 14.5001 13.0363 13.7678 13.7685C13.7678 13.7685 13.0356 14.5007 12.0001 14.5007C12.0001 14.5007 10.9645 14.5007 10.2323 13.7685C10.2323 13.7685 9.50006 13.0363 9.50006 12.0007C9.50006 12.0007 9.50006 10.9652 10.2323 10.233C10.2323 10.233 10.9645 9.50073 12.0001 9.50073ZM12.0001 10.5007C12.0001 10.5007 11.3787 10.5007 10.9394 10.9401C10.9394 10.9401 10.5001 11.3794 10.5001 12.0007C10.5001 12.0007 10.5001 12.6221 10.9394 13.0614C10.9394 13.0614 11.3787 13.5007 12.0001 13.5007C12.0001 13.5007 12.6214 13.5007 13.0607 13.0614C13.0607 13.0614 13.5001 12.6221 13.5001 12.0007C13.5001 12.0007 13.5001 11.3794 13.0607 10.9401C13.0607 10.9401 12.6214 10.5007 12.0001 10.5007Z" fill="#1C1C1C"/>
<path d="M9.17217 9.17321C9.26593 9.07944 9.31881 8.95207 9.31881 8.81946C9.31881 8.68695 9.2662 8.55985 9.17256 8.4661C9.07879 8.37233 8.95142 8.31946 8.81881 8.31946C8.68629 8.31946 8.5592 8.37206 8.46545 8.46571C7.77418 9.15622 7.39541 10.0569 7.39541 10.0569C6.99994 10.9876 6.99994 12.0007 6.99994 12.0007C6.99994 13.0138 7.39613 13.9462 7.39613 13.9462C7.77418 14.8452 8.46545 15.5357 8.46545 15.5357C8.5592 15.6294 8.6863 15.682 8.81881 15.682C8.95142 15.6819 9.07884 15.6291 9.17256 15.5353C9.2662 15.4416 9.31881 15.3145 9.31881 15.182C9.31873 15.0494 9.26599 14.9219 9.17217 14.8282C8.61984 14.2765 8.31649 13.5552 8.31649 13.5552C7.99994 12.8102 7.99994 12.0007 7.99994 12.0007C7.99994 11.1912 8.31721 10.4445 8.31721 10.4445C8.61985 9.72492 9.17217 9.17321 9.17217 9.17321Z" fill="#1C1C1C"/>
<path d="M15.5349 8.4659C16.226 9.15634 16.604 10.0552 16.604 10.0552C17.0002 10.9876 17.0002 12.0007 17.0002 12.0007C17.0002 13.0138 16.6047 13.9445 16.6047 13.9445C16.2259 14.8452 15.5347 15.5357 15.5347 15.5357C15.4472 15.6231 15.3304 15.675 15.2069 15.6813C15.1984 15.6817 15.1898 15.682 15.1813 15.682C15.0486 15.682 14.9213 15.6292 14.8276 15.5353C14.7397 15.4474 14.6878 15.3299 14.6819 15.2057C14.6815 15.1978 14.6813 15.1899 14.6813 15.182C14.6814 15.0493 14.7341 14.9219 14.8279 14.8282C15.3803 14.2765 15.6829 13.5569 15.6829 13.5569C16.0002 12.8102 16.0002 12.0007 16.0002 12.0007C16.0002 11.1912 15.6836 10.4462 15.6836 10.4462C15.3803 9.72492 14.8279 9.17321 14.8279 9.17321C14.7341 9.07942 14.6813 8.95216 14.6813 8.81946C14.6813 8.68797 14.7331 8.56178 14.8255 8.4682L14.8276 8.4661C14.9104 8.38319 15.0197 8.33201 15.1364 8.32148C15.1512 8.32014 15.1661 8.31947 15.181 8.31946C15.3114 8.31946 15.4369 8.37038 15.5303 8.46136L15.5349 8.4659Z" fill="#1C1C1C"/>
<path d="M7.4036 7.40433L7.40588 7.40204C7.49825 7.30846 7.55005 7.18227 7.55005 7.05078C7.55005 6.91801 7.49724 6.7907 7.40328 6.6969L7.399 6.69268C7.30563 6.6017 7.18042 6.55078 7.05005 6.55078C7.0352 6.55079 7.01991 6.55147 7.00512 6.5528C6.88835 6.56334 6.779 6.61457 6.69617 6.69755C5.66247 7.73325 5.08988 9.08021 5.08988 9.08021C4.5 10.4818 4.5 12.0008 4.5 12.0008C4.5 13.5197 5.0892 14.9197 5.0892 14.9197C5.66229 16.2682 6.69617 17.304 6.69617 17.304C6.78985 17.3979 6.91698 17.4507 7.04959 17.4508C7.05744 17.4508 7.06576 17.4506 7.07361 17.4502C7.19777 17.4444 7.3153 17.3925 7.40328 17.3047C7.49724 17.2109 7.55005 17.0836 7.55005 16.9508C7.55005 16.9423 7.54983 16.9338 7.5494 16.9254C7.54312 16.8019 7.49129 16.6851 7.40393 16.5976C6.50687 15.6988 6.0109 14.5318 6.0109 14.5318C5.5 13.3179 5.5 12.0008 5.5 12.0008C5.5 10.6837 6.01022 9.47135 6.01022 9.47135C6.50678 8.30293 7.4036 7.40433 7.4036 7.40433Z" fill="#1C1C1C"/>
<path d="M17.3043 6.69786L17.3036 6.69723C17.21 6.60357 17.083 6.5509 16.9505 6.55078C16.8181 6.55078 16.6906 6.60333 16.5968 6.6969C16.5031 6.79067 16.4501 6.91817 16.4501 7.05078C16.4501 7.18323 16.5026 7.31027 16.5962 7.40401C17.4932 8.30271 17.9892 9.46973 17.9892 9.46973C18.5001 10.6837 18.5001 12.0008 18.5001 12.0008C18.5001 13.3179 17.9899 14.5302 17.9899 14.5302C17.4932 15.6988 16.5962 16.5976 16.5962 16.5976C16.5026 16.6913 16.4501 16.8183 16.4501 16.9508C16.4502 17.0834 16.503 17.211 16.5968 17.3047C16.6906 17.3982 16.8176 17.4508 16.9501 17.4508C17.0827 17.4507 17.2103 17.3979 17.304 17.304C18.3378 16.2682 18.9102 14.9213 18.9102 14.9213C19.5001 13.5197 19.5001 12.0008 19.5001 12.0008C19.5001 10.4818 18.9109 9.08183 18.9109 9.08183C18.3379 7.73353 17.3043 6.69786 17.3043 6.69786Z" fill="#1C1C1C"/>
</svg>
