<?xml version="1.0" encoding="utf-8"?>
<!-- Generator: Adobe Illustrator 27.2.0, SVG Export Plug-In . SVG Version: 6.00 Build 0)  -->
<svg version="1.1" id="Layer_1" xmlns="http://www.w3.org/2000/svg" xmlns:xlink="http://www.w3.org/1999/xlink" x="0px" y="0px"
	 viewBox="0 0 406.5 512" style="enable-background:new 0 0 406.5 512;" xml:space="preserve">
<style type="text/css">
	.st0{fill:#4CAF50;}
	.st1{fill:#C4E5D6;}
	.st2{fill:#FFFFFF;}
	.st3{fill:#E6E6E6;}
	.st4{fill:#E4E4E4;}
	.st5{fill:#22B573;}
</style>
<g>
	<path class="st0" d="M385.1,243.7H21.4c-5.7,0-11.1,2.3-15.1,6.3c-4,4-6.3,9.4-6.3,15.1v225.6c0,5.7,2.3,11.1,6.3,15.1
		c4,4,9.5,6.3,15.1,6.3h363.7c5.7,0,11.1-2.3,15.1-6.3c4-4,6.3-9.4,6.3-15.1V265.1c0-5.7-2.3-11.1-6.3-15.1
		C396.2,246,390.8,243.7,385.1,243.7z"/>
	<path class="st1" d="M385.1,243.7H21.4c-5.7,0-11.1,2.3-15.1,6.3c-4,4-6.3,9.4-6.3,15.1v225.6c0,5.7,2.3,11.1,6.3,15.1
		c4,4,9.5,6.3,15.1,6.3h363.7c5.7,0,11.1-2.3,15.1-6.3c4-4,6.3-9.4,6.3-15.1V265.1c0-5.7-2.3-11.1-6.3-15.1
		C396.2,246,390.8,243.7,385.1,243.7z M392.1,405.7c-0.1,23-9.2,45-25.4,61.3c-16.2,16.3-38.2,25.7-61.2,26.1
		c-36.9,0.5,20.4,0.7-24.1,0.7c-101.8,0-207.9-1-247.5-1.6c-5.2-0.1-10.2-2.2-13.8-5.9c-3.7-3.7-5.7-8.7-5.7-13.9V265.1
		c0-1.9,0.7-3.6,2.1-5c1.3-1.3,3.1-2.1,5-2.1h363.7c1.9,0,3.7,0.7,5,2.1c1.3,1.3,2.1,3.1,2.1,5V405.7z"/>
	<path class="st1" d="M340.3,113.8H63.3c-2.5,0-4.8,0.8-6.8,2.2c-2,1.4-3.5,3.4-4.3,5.7L9.3,241.3c-0.6,1.8-0.8,3.7-0.6,5.6
		c0.3,1.9,1,3.7,2.1,5.2c1.1,1.5,2.5,2.8,4.2,3.7c1.7,0.9,3.6,1.3,5.5,1.3l371.6,0.7h0c2,0,3.9-0.5,5.6-1.4c1.7-0.9,3.2-2.3,4.3-3.9
		c1.1-1.6,1.7-3.5,1.9-5.5c0.2-2-0.1-3.9-0.9-5.7l-0.6,0.3l0.6-0.3L351.3,121c-0.9-2.1-2.4-3.9-4.4-5.2
		C344.9,114.5,342.7,113.8,340.3,113.8z"/>
	<path class="st1" d="M404,243.8c0,1.6-0.3,3.2-1,4.7l-51.7,92.6c-0.9,2.1-2.4,3.9-4.4,5.2c-1.9,1.3-4.2,2-6.5,2H63.3
		c-2.5,0-4.8-0.8-6.8-2.2c-2-1.4-3.5-3.4-4.4-5.7L9.3,248.5c-0.5-1.5-0.8-3-0.7-4.6c0.1-1.6,0.5-3.1,1.1-4.5
		c0.7-1.4,1.6-2.7,2.8-3.7c1.2-1,2.5-1.8,4-2.4c1.3-0.5,2.6-0.7,4-0.7l45.4-0.1l18.5,0l243.8-0.4l18.5,0l45.4-0.1h0
		c3.2,0,6.2,1.2,8.4,3.5C402.7,237.7,404,240.7,404,243.8z"/>
	<path class="st2" d="M48.7,412.9c5.5,0,80.9,4.6,80.9,10.1c0,5.5-75.5,9.8-80.9,9.8c-2.6,0-5.2-1-7-2.9c-1.9-1.9-2.9-4.4-2.9-7
		c0-2.6,1-5.2,2.9-7C43.5,414,46.1,412.9,48.7,412.9z"/>
	<path class="st3" d="M323.1,41H89.5c-6.3,0-12.3,2.5-16.7,6.9c-4.4,4.4-6.9,10.4-6.9,16.6v283.7h274.5c2.3,0,4.5-0.6,6.4-1.8V64.6
		c0-6.2-2.5-12.2-6.9-16.6C335.3,43.5,329.3,41,323.1,41z"/>
	<path class="st2" d="M233.9,60.1h-128c-5.7,0-11.2,2.3-15.2,6.3c-4,4-6.3,9.5-6.3,15.1v266.7h243.8V154c0-24.9-10-48.8-27.6-66.4
		C282.8,70,258.9,60.1,233.9,60.1z"/>
	<path class="st4" d="M286.6,324.6H125.9c-1.4,0-2.7,0.5-3.7,1.5c-1,1-1.5,2.3-1.5,3.7c0,1.4,0.6,2.7,1.5,3.7c1,1,2.3,1.5,3.7,1.5
		h160.7c1.4,0,2.7-0.5,3.7-1.5c1-1,1.5-2.3,1.5-3.7c0-1.4-0.6-2.7-1.5-3.7C289.3,325.1,288,324.6,286.6,324.6z"/>
	<path class="st4" d="M286.6,303.9H125.9c-1.4,0-2.7,0.6-3.7,1.5c-1,1-1.5,2.3-1.5,3.7s0.6,2.7,1.5,3.7c1,1,2.3,1.5,3.7,1.5h160.7
		c1.4,0,2.7-0.6,3.7-1.5c1-1,1.5-2.3,1.5-3.7s-0.6-2.7-1.5-3.7C289.3,304.5,288,303.9,286.6,303.9z"/>
	<path class="st4" d="M195.6,283.3h-69.7c-1.4,0-2.7,0.5-3.7,1.5c-1,1-1.5,2.3-1.5,3.7c0,1.4,0.6,2.7,1.5,3.7c1,1,2.3,1.5,3.7,1.5
		h69.7c1.4,0,2.7-0.5,3.7-1.5c1-1,1.5-2.3,1.5-3.7c0-1.4-0.6-2.7-1.5-3.7C198.3,283.9,197,283.3,195.6,283.3z"/>
	<path class="st4" d="M286.6,240.1H125.9c-1.4,0-2.7,0.6-3.7,1.5c-1,1-1.5,2.3-1.5,3.7c0,1.4,0.6,2.7,1.5,3.7s2.3,1.5,3.7,1.5h160.7
		c1.4,0,2.7-0.6,3.7-1.5c1-1,1.5-2.3,1.5-3.7c0-1.4-0.6-2.7-1.5-3.7C289.3,240.6,288,240.1,286.6,240.1z"/>
	<path class="st4" d="M286.6,219.4H125.9c-1.4,0-2.7,0.5-3.7,1.5c-1,1-1.5,2.3-1.5,3.7s0.6,2.7,1.5,3.7c1,1,2.3,1.5,3.7,1.5h160.7
		c1.4,0,2.7-0.5,3.7-1.5c1-1,1.5-2.3,1.5-3.7s-0.6-2.7-1.5-3.7C289.3,220,288,219.4,286.6,219.4z"/>
	<path class="st4" d="M195.6,198.8h-69.7c-1.4,0-2.7,0.6-3.7,1.5c-1,1-1.5,2.3-1.5,3.7c0,1.4,0.6,2.7,1.5,3.7c1,1,2.3,1.5,3.7,1.5
		h69.7c1.4,0,2.7-0.6,3.7-1.5c1-1,1.5-2.3,1.5-3.7c0-1.4-0.6-2.7-1.5-3.7C198.3,199.4,197,198.8,195.6,198.8z"/>
	<path class="st5" d="M286.6,155.6H125.9c-1.4,0-2.7,0.6-3.7,1.5s-1.5,2.3-1.5,3.7c0,1.4,0.6,2.7,1.5,3.7c1,1,2.3,1.5,3.7,1.5h160.7
		c1.4,0,2.7-0.6,3.7-1.5c1-1,1.5-2.3,1.5-3.7c0-1.4-0.6-2.7-1.5-3.7C289.3,156.1,288,155.6,286.6,155.6z"/>
	<path class="st5" d="M286.6,134.9H125.9c-1.4,0-2.7,0.6-3.7,1.5c-1,1-1.5,2.3-1.5,3.7c0,1.4,0.6,2.7,1.5,3.7c1,1,2.3,1.5,3.7,1.5
		h160.7c1.4,0,2.7-0.6,3.7-1.5c1-1,1.5-2.3,1.5-3.7c0-1.4-0.6-2.7-1.5-3.7C289.3,135.5,288,134.9,286.6,134.9z"/>
	<path class="st5" d="M195.6,114.3h-69.7c-1.4,0-2.7,0.6-3.7,1.5c-1,1-1.5,2.3-1.5,3.7c0,1.4,0.6,2.7,1.5,3.7c1,1,2.3,1.5,3.7,1.5
		h69.7c1.4,0,2.7-0.6,3.7-1.5c1-1,1.5-2.3,1.5-3.7c0-1.4-0.6-2.7-1.5-3.7C198.3,114.9,197,114.3,195.6,114.3z"/>
	<path class="st0" d="M337.9,81.3c22.5,0,40.8-18.2,40.8-40.7c0-22.5-18.3-40.7-40.8-40.7c-22.5,0-40.8,18.2-40.8,40.7
		C297.1,63.1,315.4,81.3,337.9,81.3z"/>
	<path class="st2" d="M332.4,61.8c-0.7,0-1.4-0.2-2-0.5c-0.6-0.3-1.2-0.8-1.6-1.3l-11.1-14.8c-0.4-0.5-0.6-1-0.8-1.6
		c-0.1-0.6-0.2-1.2-0.1-1.8c0.1-0.6,0.3-1.2,0.6-1.7c0.3-0.5,0.7-1,1.2-1.3c0.5-0.4,1-0.6,1.6-0.8c0.6-0.1,1.2-0.2,1.8-0.1
		c0.6,0.1,1.2,0.3,1.7,0.6c0.5,0.3,1,0.7,1.3,1.2l7.3,9.7l18.7-28c0.7-1,1.7-1.7,2.9-1.9c1.2-0.2,2.4,0,3.4,0.7
		c1,0.7,1.7,1.7,1.9,2.9c0.2,1.2,0,2.4-0.7,3.4l-22.3,33.3c-0.4,0.6-0.9,1.1-1.6,1.4c-0.6,0.3-1.3,0.5-2.1,0.6
		C332.5,61.8,332.4,61.8,332.4,61.8z"/>
</g>
</svg>
