<?xml version="1.0" encoding="utf-8"?>
<!-- Generator: Adobe Illustrator 28.0.0, SVG Export Plug-In . SVG Version: 6.00 Build 0)  -->
<svg version="1.1" id="Layer_1" xmlns="http://www.w3.org/2000/svg" xmlns:xlink="http://www.w3.org/1999/xlink" x="0px" y="0px"
	 viewBox="0 0 21 21" style="enable-background:new 0 0 21 21;" xml:space="preserve">
<style type="text/css">
	.st0{opacity:0;}
	.st1{fill:none;stroke:#667085;stroke-width:1.6667;stroke-linecap:round;stroke-linejoin:round;}
	.st2{fill:none;stroke:#667085;stroke-width:1.4688;stroke-linecap:round;stroke-linejoin:round;}
</style>
<g id="open-eye" class="st0">
	<path class="st1" d="M14.9,15.1c-1.2,0.8-2.7,1.4-4.4,1.4c-4.3,0-7-3.8-8-5.2c-0.1-0.2-0.2-0.3-0.2-0.4c0-0.1,0-0.3,0-0.4
		c0-0.1,0.1-0.2,0.2-0.4c0.6-0.9,1.8-2.6,3.6-3.8c0,0,2.1-1.3,4.4-1.4c4.3,0,7,3.8,8,5.2c0.1,0.2,0.2,0.3,0.2,0.4c0,0.1,0,0.3,0,0.4
		c0,0.1-0.1,0.2-0.2,0.4C17.5,13.2,14.9,15.1,14.9,15.1z"/>
	<circle class="st2" cx="10.5" cy="10.7" r="2.6"/>
</g>
<g id="slash-eye">
	<path class="st1" d="M9.5,4.9c0.3-0.1,0.7-0.1,1-0.1c4.3,0,7,3.8,8,5.2c0.1,0.2,0.2,0.3,0.2,0.4c0,0.1,0,0.3,0,0.4
		c0,0.1-0.1,0.2-0.2,0.4c-0.2,0.4-0.6,1-1.1,1.6"/>
	<path class="st1" d="M6.1,6.3c-1.8,1.2-3,2.9-3.6,3.8c-0.1,0.2-0.2,0.3-0.2,0.4c0,0.1,0,0.3,0,0.4c0,0.1,0.1,0.2,0.2,0.4
		c0.9,1.5,3.7,5.2,8,5.2c1.7,0,3.2-0.6,4.4-1.4"/>
	<line class="st1" x1="3" y1="3.2" x2="18" y2="18.2"/>
	<path class="st1" d="M8.7,8.9C8.3,9.4,8,10,8,10.7c0,1.4,1.1,2.5,2.5,2.5c0.7,0,1.3-0.3,1.8-0.7"/>
</g>
</svg>
