<svg width="24" height="25" viewBox="0 0 24 25" fill="none" xmlns="http://www.w3.org/2000/svg">
<path d="M8.38028 9.62484C9.07627 11.0745 10.0251 12.4331 11.2266 13.6347C12.4282 14.8363 13.7869 15.785 15.2365 16.481C15.3612 16.5409 15.4235 16.5708 15.5024 16.5938C15.7828 16.6756 16.127 16.6169 16.3644 16.4468C16.4313 16.399 16.4884 16.3419 16.6027 16.2275C16.9523 15.8779 17.1271 15.7031 17.3029 15.5888C17.9658 15.1578 18.8204 15.1578 19.4833 15.5888C19.6591 15.7031 19.8339 15.8779 20.1835 16.2275L20.3783 16.4224C20.9098 16.9539 21.1755 17.2196 21.3198 17.505C21.6069 18.0725 21.6069 18.7428 21.3198 19.3103C21.1755 19.5957 20.9098 19.8614 20.3783 20.3929L20.2207 20.5505C19.6911 21.0801 19.4263 21.345 19.0662 21.5472C18.6667 21.7716 18.0462 21.933 17.588 21.9316C17.1751 21.9304 16.8928 21.8503 16.3284 21.6901C13.295 20.8291 10.4326 19.2046 8.04466 16.8167C5.65668 14.4287 4.03221 11.5663 3.17124 8.53292C3.01103 7.96847 2.93092 7.68625 2.9297 7.2733C2.92833 6.81508 3.08969 6.19459 3.31411 5.79508C3.51636 5.43505 3.78117 5.17024 4.3108 4.64062L4.46843 4.48298C4.99987 3.95154 5.2656 3.68582 5.55098 3.54147C6.11854 3.2544 6.7888 3.2544 7.35636 3.54147C7.64174 3.68582 7.90747 3.95154 8.43891 4.48298L8.63378 4.67785C8.98338 5.02746 9.15819 5.20226 9.27247 5.37804C9.70347 6.04093 9.70347 6.89551 9.27247 7.5584C9.15819 7.73418 8.98338 7.90898 8.63378 8.25859C8.51947 8.3729 8.46231 8.43006 8.41447 8.49687C8.24446 8.7343 8.18576 9.07856 8.26748 9.35891C8.29048 9.4378 8.32041 9.50015 8.38028 9.62484Z" stroke="#008548" stroke-width="2" stroke-linecap="round" stroke-linejoin="round"/>
</svg>
