<svg width="16" height="17" viewBox="0 0 16 17" fill="none" xmlns="http://www.w3.org/2000/svg">
<g clip-path="url(#clip0_5292_223907)">
<path d="M6.0587 6.77214C6.21543 6.32658 6.5248 5.95087 6.932 5.71156C7.3392 5.47224 7.81796 5.38476 8.28348 5.46461C8.749 5.54446 9.17124 5.78649 9.47542 6.14782C9.77959 6.50916 9.94607 6.96648 9.94536 7.4388C9.94536 8.77214 7.94536 9.4388 7.94536 9.4388M7.9987 12.1055H8.00536M14.6654 8.77214C14.6654 12.454 11.6806 15.4388 7.9987 15.4388C4.3168 15.4388 1.33203 12.454 1.33203 8.77214C1.33203 5.09024 4.3168 2.10547 7.9987 2.10547C11.6806 2.10547 14.6654 5.09024 14.6654 8.77214Z" stroke="#98A2B3" stroke-width="1.33333" stroke-linecap="round" stroke-linejoin="round"/>
</g>
<defs>
<clipPath id="clip0_5292_223907">
<rect width="16" height="16" fill="white" transform="translate(0 0.771484)"/>
</clipPath>
</defs>
</svg>
