<svg width="32" height="32" viewBox="0 0 32 32" fill="none" xmlns="http://www.w3.org/2000/svg">
<circle cx="16.1562" cy="16.2471" r="15.3125" fill="#4CAF50" fill-opacity="0.2"/>
<path d="M14.6102 12.0104C14.0126 12.7335 13.0539 13.8936 12.8445 15.2894C12.7629 15.8327 12.6814 16.7925 13.8408 17.0098C14.9011 17.2085 16.1052 19.0018 14.656 20.9032C13.9414 21.8408 11.1805 22.533 9.94602 19.6356C9.25161 18.0058 9.11272 13.9856 14.1125 10.9433C14.6481 10.6174 15.4812 10.7622 15.0183 11.4866C14.9336 11.619 14.7879 11.7954 14.6102 12.0104Z" fill="#4CAF50"/>
<path d="M22.0045 12.0104C21.4069 12.7335 20.4483 13.8936 20.2388 15.2894C20.1573 15.8327 20.0758 16.7925 21.2352 17.0098C22.2955 17.2085 23.4996 19.0018 22.0503 20.9032C21.3358 21.8408 18.5749 22.533 17.3404 19.6356C16.646 18.0058 16.5071 13.9856 21.5069 10.9433C22.0425 10.6174 22.8756 10.7622 22.4126 11.4866C22.328 11.619 22.1822 11.7954 22.0045 12.0104Z" fill="#4CAF50"/>
</svg>
