<?xml version="1.0" encoding="utf-8"?>
<!-- Generator: Adobe Illustrator 28.1.0, SVG Export Plug-In . SVG Version: 6.00 Build 0)  -->
<svg version="1.1" id="Layer_1" xmlns="http://www.w3.org/2000/svg" xmlns:xlink="http://www.w3.org/1999/xlink" x="0px" y="0px"
	 viewBox="0 0 512 512" style="enable-background:new 0 0 512 512;" xml:space="preserve">
<style type="text/css">
	.st0{fill:none;}
</style>
<g>
	<rect class="st0" width="512" height="512"/>
	<path d="M130.2,245.1c-0.1-0.6-0.1-1.3,0-2.1l0-121c0-10,4.6-14.6,14.6-14.6h222.8c9.7,0,14.4,4.7,14.4,14.5v121.7
		c0,4.8-2,8.9-5.5,11.4c-2,1.4-4.3,2.1-6.6,2.1c-1.4,0-2.9-0.2-4.3-0.8c-5-1.8-8.1-6.2-8.3-11.5c-0.1-2.6-0.1-5.4,0-8V132.2H154.9
		v31.9c0,26.5,0,53,0,79.4c0,4.8-2,8.9-5.6,11.4c-3.1,2.2-7.1,2.7-10.9,1.2C133.5,254.3,130.6,250.5,130.2,245.1z M176.1,236.7
		c1.3,4.4,4.5,7.5,8.7,8.6c1,0.2,2.1,0.4,3.1,0.4c3.3,0,6.6-1.4,9.2-4c12.7-12.5,25.1-24.9,36.9-36.9c1.6-1.6,2.5-1.7,4.6-0.7
		c11.4,5.9,23,11.6,34.2,17.1c5.9,2.9,10.8,2.2,15.4-2.4l2-2.1c14-13.9,28.5-28.3,42.5-42.6c1.9-1.9,3.3-4.9,3.9-8
		c0.8-4.8-2.1-10-7-12.2c-5-2.3-10.1-1.3-14.1,2.7c-13.7,13.6-25.1,25-36.6,36.6c-1.7,1.8-2.8,2.1-5.1,0.9
		c-9.3-4.9-18.9-9.6-28.1-14.1l-5.4-2.7c-6.3-3.1-11.1-2.5-15.7,2.1c-13.9,13.9-29.7,29.6-44.8,44.9c-1.5,1.5-2.3,3.4-3.3,5.5
		l-0.9,2l0.2,1.2l3.8-0.3l-3.6,1.6C175.8,235.2,175.9,236,176.1,236.7z M404.6,391.2L404.6,391.2c0.1,3.7-1.1,7.1-3.4,9.5
		c-2.2,2.4-5.3,3.7-8.6,3.8c0,0-0.1,0-0.2,0c-6.9,0-12.1-5.3-12.4-12.7c-0.6-12.2-9.9-21.4-21.8-21.4c-11.9,0.1-21.1,9.2-21.7,21.3
		c-0.4,7.5-5.4,12.8-12.3,12.8c-3.6-0.1-6.7-1.4-8.9-3.8c-2.4-2.6-3.6-6.1-3.5-9.9c0.5-13,5.4-23.8,14.9-32.9
		c-9.3-9.1-14.6-20.8-14.9-33.2c-0.3-12.3,4.4-24.4,12.9-33.2c17.7-18.3,46.2-19.2,65-1.9c9.3,8.6,14.7,20.9,14.8,33.7
		c0.1,9.1-2.4,22.4-14.9,34.8l0.1,0.1c0.5,0.6,1,1.1,1.5,1.6C399.8,368.8,404.2,379.3,404.6,391.2z M373.6,308.8
		c-4.1-4.1-9.6-6.4-15.3-6.4c-5.8,0-11.2,2.2-15.4,6.4c-4.1,4.1-6.4,9.6-6.4,15.4c0,11.9,9.6,21.6,21.5,21.6
		c5.9,0,11.4-2.2,15.5-6.3c4.1-4.1,6.4-9.5,6.4-15.3C380,318.4,377.7,312.9,373.6,308.8z M187.2,360.1c8.4,8.8,12.8,19.4,13.1,31.3
		c0.2,7.1-5,12.8-11.8,13.1c-0.2,0-0.4,0-0.6,0c-6.6,0-11.9-5.2-12.3-12.5c-0.6-12.5-9.7-21.6-21.7-21.6c-11.8,0-21.1,9.2-21.8,21.4
		c-0.4,7.5-5.7,12.7-12.8,12.6c-3.3-0.1-6.3-1.5-8.5-3.8c-2.3-2.5-3.5-5.9-3.4-9.6c0.5-13.1,5.3-23.9,14.9-33
		c-12.1-11.9-14.8-24.8-14.9-33.6c-0.2-12.4,4.7-24.5,13.3-33.2c17.1-17.2,44.9-18.4,63.5-2.7c9.4,8,15.5,21,16,33.9
		c0.3,9.2-2,22.9-14.8,35.8L187.2,360.1z M154.1,302.4c-12.1,0-21.8,9.7-21.9,21.6c0,5.8,2.2,11.3,6.3,15.4c8.2,8.3,22.6,8.2,30.7,0
		c4.1-4.1,6.4-9.6,6.4-15.4C175.6,312.1,165.9,302.4,154.1,302.4z M302.5,323.9c0,9-2.6,22.1-14.9,34.3l1.6,1.8
		c8.4,8.8,12.8,19.3,13.2,31.3v0c0.1,3.7-1.1,7.1-3.5,9.5c-2.2,2.3-5.2,3.6-8.5,3.8c-7.1,0-12.3-5.3-12.7-12.6
		c-0.6-12.2-9.9-21.4-21.7-21.4c-11.8,0-21.1,9.2-21.7,21.3c-0.2,3.9-1.7,7.4-4.3,9.7c-2.3,2.1-5.5,3.4-8.7,3
		c-6.9-0.4-12-6.2-11.7-13.5c0.4-11.8,4.8-22.2,13.1-31l1.7-1.8c-12.5-12.4-15-25.8-14.9-34.9c0.2-12.8,5.8-25.4,15-33.8
		c18.1-16.5,46.1-16.1,63.8,0.9C297.4,299,302.5,311.2,302.5,323.9z M256.1,302.3c-5.8,0-11.3,2.3-15.4,6.4
		c-4.1,4.1-6.4,9.6-6.3,15.4c0,5.8,2.3,11.3,6.4,15.3c8.2,8.2,22.6,8.1,30.7-0.1c4.1-4.2,6.4-9.7,6.3-15.5
		C277.7,312,268,302.3,256.1,302.3z"/>
</g>
</svg>
