<svg width="22" height="21" viewBox="0 0 22 21" fill="none" xmlns="http://www.w3.org/2000/svg">
<g clip-path="url(#clip0_5185_152905)">
<path fill-rule="evenodd" clip-rule="evenodd" d="M6.55257 16.9465C6.63839 16.9465 6.72467 16.9707 6.8 17.0196C7.5907 17.53 8.45215 17.8883 9.36063 18.0837C9.54096 18.1225 9.68065 18.2668 9.71352 18.4485L9.94315 19.7122C9.98287 19.929 10.1719 20.087 10.3924 20.087H11.6076C11.8286 20.087 12.0171 19.929 12.0568 19.7117L12.2865 18.4485C12.3193 18.2668 12.459 18.1225 12.6394 18.0837C13.5478 17.8883 14.4093 17.53 15.2 17.0196C15.3552 16.9182 15.5561 16.9223 15.7077 17.0278L16.7668 17.761C16.9444 17.8838 17.1973 17.86 17.3493 17.7085L18.2089 16.8493C18.3651 16.6932 18.387 16.448 18.261 16.2668L17.5278 15.2072C17.4228 15.0552 17.4196 14.8552 17.5196 14.7C18.0304 13.9093 18.3883 13.0474 18.5837 12.1398C18.6225 11.9586 18.7663 11.8198 18.9485 11.786L20.2122 11.5564C20.4295 11.5171 20.587 11.3281 20.587 11.1076V9.89237C20.587 9.67141 20.4295 9.48241 20.2122 9.4427L18.9485 9.21398C18.7663 9.1802 18.6225 9.04141 18.5837 8.86017C18.3883 7.95261 18.0304 7.0907 17.5196 6.3C17.4196 6.14478 17.4228 5.94437 17.5278 5.79235L18.261 4.73322C18.387 4.55198 18.3651 4.30683 18.2089 4.1507L17.3493 3.29152C17.1968 3.13996 16.9439 3.11576 16.7668 3.23902L15.7077 3.9722C15.5561 4.07765 15.3557 4.0813 15.2 3.98041C14.4088 3.46957 13.5478 3.11165 12.6394 2.91626C12.459 2.87746 12.3193 2.7332 12.2865 2.5515L12.0568 1.28785C12.0171 1.071 11.8286 0.913043 11.6076 0.913043H10.3924C10.1719 0.913043 9.98287 1.071 9.94315 1.2883L9.71352 2.5515C9.68065 2.7332 9.54096 2.87746 9.36063 2.91626C8.45261 3.11165 7.59115 3.46957 6.8 3.98041C6.64478 4.0813 6.44437 4.07765 6.2928 3.9722L5.23322 3.23902C5.05609 3.11622 4.80272 3.13996 4.6507 3.29152L3.79152 4.1507C3.63539 4.30683 3.61348 4.55198 3.73902 4.73322L4.4722 5.79235C4.57765 5.94437 4.58085 6.14478 4.48041 6.3C3.97002 7.0907 3.61211 7.95261 3.41626 8.86017C3.37746 9.04141 3.23365 9.1802 3.05196 9.21398L1.78785 9.44315C1.57054 9.48241 1.41304 9.67141 1.41304 9.89237V11.1076C1.41304 11.3281 1.57054 11.5171 1.78785 11.5568L3.05196 11.786C3.23365 11.8198 3.37746 11.9586 3.41626 12.1398C3.61211 13.0474 3.97002 13.9093 4.48041 14.7C4.58085 14.8552 4.57765 15.0552 4.4722 15.2072L3.73902 16.2668C3.61348 16.448 3.63539 16.6932 3.79152 16.8493L4.6507 17.7085C4.80272 17.86 5.05563 17.8833 5.23367 17.761L6.2928 17.0278C6.37087 16.9739 6.46172 16.9465 6.55257 16.9465ZM11.6076 21H10.3924C9.73041 21 9.16387 20.527 9.04472 19.8756L8.86896 18.9064C8.06046 18.7019 7.28848 18.3809 6.56626 17.9486L5.7532 18.512C5.22135 18.879 4.46124 18.8101 4.00517 18.354L3.146 17.4948C2.67761 17.0269 2.61141 16.2914 2.98804 15.7468L3.55093 14.9342C3.11907 14.2115 2.79813 13.4391 2.59407 12.631L1.62487 12.4553C0.972957 12.3366 0.5 11.77 0.5 11.1076V9.89237C0.5 9.22996 0.972957 8.66296 1.62487 8.54517L2.59407 8.36896C2.79813 7.56046 3.11907 6.78848 3.55093 6.0658L2.98804 5.2532C2.61141 4.70811 2.67761 3.97311 3.146 3.50517L4.00517 2.646C4.46124 2.18993 5.2218 2.12054 5.7532 2.48804L6.56626 3.05139C7.28848 2.61907 8.06091 2.29813 8.86896 2.09361L9.04472 1.12487C9.16387 0.472957 9.73041 0 10.3924 0H11.6076C12.2696 0 12.8366 0.472956 12.9553 1.12441L13.1315 2.09361C13.9395 2.29813 14.7115 2.61907 15.4342 3.05139L16.2468 2.48804C16.7787 2.12054 17.5392 2.18993 17.9948 2.646L18.8545 3.50517C19.3228 3.97311 19.389 4.70811 19.012 5.2532L18.4491 6.0658C18.8809 6.78848 19.2019 7.56046 19.4064 8.36896L20.3756 8.54472C21.027 8.66296 21.5 9.22996 21.5 9.89237V11.1076C21.5 11.77 21.027 12.3366 20.3756 12.4548L19.4064 12.631C19.2019 13.4391 18.8809 14.2115 18.4491 14.9342L19.012 15.7468C19.389 16.2914 19.3228 17.0269 18.8545 17.4948L17.9948 18.354C17.7364 18.6124 17.3922 18.7553 17.0261 18.7553C16.7467 18.7553 16.4773 18.6708 16.2473 18.512L15.4342 17.9486C14.712 18.3809 13.9395 18.7019 13.1315 18.9064L12.9553 19.8751C12.8366 20.527 12.2696 21 11.6076 21Z" fill="#008548"/>
<path fill-rule="evenodd" clip-rule="evenodd" d="M10.9993 7.30367C9.23715 7.30367 7.80367 8.7376 7.80367 10.4993C7.80367 12.261 9.23715 13.695 10.9993 13.695C12.7615 13.695 14.195 12.261 14.195 10.4993C14.195 8.7376 12.7615 7.30367 10.9993 7.30367ZM10.9993 14.608C8.73406 14.608 6.89062 12.765 6.89062 10.4993C6.89062 8.2336 8.73406 6.39062 10.9993 6.39062C13.2646 6.39062 15.108 8.2336 15.108 10.4993C15.108 12.765 13.2646 14.608 10.9993 14.608Z" fill="#008548"/>
</g>
<defs>
<clipPath id="clip0_5185_152905">
<rect width="21" height="21" fill="white" transform="translate(0.5)"/>
</clipPath>
</defs>
</svg>
