<svg width="19" height="21" viewBox="0 0 19 21" fill="none" xmlns="http://www.w3.org/2000/svg">
<path d="M15.2383 6.45894C16.811 6.45894 18.0859 5.18401 18.0859 3.6113C18.0859 2.0386 16.811 0.763672 15.2383 0.763672C13.6656 0.763672 12.3906 2.0386 12.3906 3.6113C12.3906 5.18401 13.6656 6.45894 15.2383 6.45894Z" stroke="black" stroke-width="1.5" stroke-linecap="round" stroke-linejoin="round"/>
<path d="M3.84763 13.1035C5.42034 13.1035 6.69526 11.8285 6.69526 10.2558C6.69526 8.68313 5.42034 7.4082 3.84763 7.4082C2.27493 7.4082 1 8.68313 1 10.2558C1 11.8285 2.27493 13.1035 3.84763 13.1035Z" stroke="black" stroke-width="1.5" stroke-linecap="round" stroke-linejoin="round"/>
<path d="M15.2383 19.748C16.811 19.748 18.0859 18.4731 18.0859 16.9004C18.0859 15.3277 16.811 14.0527 15.2383 14.0527C13.6656 14.0527 12.3906 15.3277 12.3906 16.9004C12.3906 18.4731 13.6656 19.748 15.2383 19.748Z" stroke="black" stroke-width="1.5" stroke-linecap="round" stroke-linejoin="round"/>
<path d="M6.30469 11.6895L12.7878 15.4673" stroke="black" stroke-width="1.5" stroke-linecap="round" stroke-linejoin="round"/>
<path d="M12.7783 5.04492L6.30469 8.82278" stroke="black" stroke-width="1.5" stroke-linecap="round" stroke-linejoin="round"/>
</svg>
