<?xml version="1.0" encoding="utf-8"?>
<!-- Generator: Adobe Illustrator 28.1.0, SVG Export Plug-In . SVG Version: 6.00 Build 0)  -->
<svg version="1.1" id="Layer_1" xmlns="http://www.w3.org/2000/svg" xmlns:xlink="http://www.w3.org/1999/xlink" x="0px" y="0px"
	 viewBox="0 0 512 512" style="enable-background:new 0 0 512 512;" xml:space="preserve">
<style type="text/css">
	.st0{fill:none;}
</style>
<g>
	<rect class="st0" width="512" height="512"/>
	<path d="M369.7,148.9l-109.3-41c-2.8-1.1-5.8-1.1-8.6,0l-109.3,41c-4.7,1.8-7.9,6.4-7.9,11.4V256c0,47,32,84.8,58.8,108.3
		c11.8,10.3,25,20.1,39.1,28.9c4.2,2.7,8.5,5.2,12.9,7.7c1.6,0.9,2.8,1.5,3.7,2l1.2,0.6c0.1,0,0.2,0.1,0.3,0.1
		c1.7,0.8,3.5,1.2,5.3,1.2c1.8,0,3.6-0.4,5.3-1.2c0.1,0,0.2-0.1,0.3-0.2l1.3-0.7c0.9-0.5,2.1-1.1,3.7-2c4.3-2.4,8.7-5,12.9-7.7
		c14.2-8.9,27.4-18.6,39.2-28.9c26.8-23.5,58.8-61.4,58.8-108.3v-95.7C377.6,155.3,374.4,150.7,369.7,148.9z M353.2,168.8V256
		c0,37.8-27.4,69.7-50.5,89.9c-10.8,9.5-22.9,18.4-36,26.6c-3.4,2.1-6.9,4.2-10.6,6.3c-3.7-2.1-7.2-4.1-10.6-6.3
		c-9-5.6-22.5-14.8-36-26.6c-23-20.1-50.5-52.1-50.5-89.9v-87.2l97.1-36.4L353.2,168.8z M243.7,204.7v-20.5
		c0-6.7,5.5-12.2,12.2-12.2c6.7,0,12.2,5.5,12.2,12.2v20.5c0,6.7-5.5,12.2-12.2,12.2C249.2,216.9,243.7,211.5,243.7,204.7z
		 M243.7,327.7v-82c0-6.7,5.5-12.2,12.2-12.2c6.7,0,12.2,5.5,12.2,12.2v82c0,6.7-5.5,12.2-12.2,12.2
		C249.2,339.9,243.7,334.5,243.7,327.7z"/>
</g>
</svg>
