<svg width="36" height="31" viewBox="0 0 36 31" fill="none" xmlns="http://www.w3.org/2000/svg">
<path d="M17.9837 0.548828C17.9837 0.548828 18.4883 4.14877 20.265 7.43281C21.089 8.95574 23.2611 11.034 24.5816 12.0528C28.1647 14.8173 35.863 15.3005 35.863 15.3005C35.863 15.3005 29.497 16.6504 25.6172 18.3979C23.4173 19.6267 22.2047 21.2534 21.4089 22.5337C19.5071 25.5937 17.9744 30.4505 17.9744 30.4505C17.9744 30.4505 17.4286 25.6825 14.9523 22.5011C13.7832 20.999 12.4013 19.3805 10.5112 18.4141C5.92359 16.0685 0.0664062 15.2938 0.0664062 15.2938C0.0664062 15.2938 7.09113 14.819 10.4697 12.6925C12.6764 11.3036 13.6279 10.6209 14.9969 8.599C16.8609 5.84613 17.9837 0.548828 17.9837 0.548828Z" fill="#005A2A"/>
<path d="M17.8937 7.58008C17.8937 7.58008 18.2362 9.48727 19.1545 11.2271C19.5804 12.034 20.7031 13.135 21.3856 13.6747C23.2375 15.1394 27.2164 15.3953 27.2164 15.3953C27.2164 15.3953 24.778 15.7177 22.7156 16.5366C21.9407 16.8442 20.5525 18.0108 20.0555 18.6453C18.4915 20.6419 17.9866 23.4216 17.9866 23.4216C17.9866 23.4216 17.5585 20.9571 16.4087 19.2101C15.784 18.261 15.0901 17.5569 14.1133 17.0449C11.7421 15.8022 8.71484 15.3918 8.71484 15.3918C8.71484 15.3918 12.3456 15.1402 14.0918 14.0136C15.2323 13.2778 15.7241 12.9161 16.4317 11.845C17.3951 10.3865 17.8937 7.58008 17.8937 7.58008Z" fill="white"/>
</svg>
