<?xml version="1.0" encoding="utf-8"?>
<!-- Generator: Adobe Illustrator 27.2.0, SVG Export Plug-In . SVG Version: 6.00 Build 0)  -->
<svg version="1.1" id="Layer_1" xmlns="http://www.w3.org/2000/svg" xmlns:xlink="http://www.w3.org/1999/xlink" x="0px" y="0px"
	 viewBox="0 0 103.2 29" style="enable-background:new 0 0 103.2 29;" xml:space="preserve">
<style type="text/css">
	.st0{fill:#4CAF50;}
</style>
<g>
	<g>
		<path class="st0" d="M14.5,9.6c0,0-1.9,1.5-1.9,4.5c0,2.9,1.9,4.5,1.9,4.5s1.8-1.6,1.8-4.5C16.3,11.1,14.5,9.6,14.5,9.6z"/>
		<path class="st0" d="M11.3,9.9c0,0,0.3,0.1,0.8,0.4c0.5,0.3,0.8,0.6,0.8,0.6s-0.2,0.5-0.3,0.9c-0.1,0.4-0.2,0.6-0.2,0.8
			c0,0.2,0,0.4,0,0.4s-0.4-0.3-0.8-0.5c-0.4-0.3-0.8-0.4-0.8-0.4s0.1-1,0.3-1.6L11.3,9.9z"/>
		<path class="st0" d="M17.8,9.9c0,0-0.3,0.1-0.7,0.4c-0.4,0.3-0.7,0.6-0.7,0.6s0.2,0.5,0.3,0.9c0.1,0.4,0.2,0.6,0.2,0.8
			c0,0.2,0,0.4,0,0.4s0.4-0.3,0.7-0.5c0.4-0.3,0.7-0.4,0.7-0.4s-0.1-1-0.2-1.6L17.8,9.9z"/>
		<path class="st0" d="M5.9,13.7c0,0,0.3-0.2,0.9-0.3c0.6-0.1,1-0.2,1-0.2s0.2,0.5,0.4,0.9c0.2,0.4,0.3,0.6,0.4,0.8
			c0.1,0.2,0.3,0.3,0.3,0.3s-0.5,0.1-1,0.2c-0.5,0.1-0.9,0.2-0.9,0.2s-0.7-0.8-1-1.4L5.9,13.7z"/>
		<path class="st0" d="M23.4,13.7c0,0-0.3-0.2-0.9-0.3c-0.6-0.1-1-0.2-1-0.2s-0.2,0.5-0.4,0.9c-0.2,0.4-0.3,0.6-0.4,0.8
			c-0.1,0.2-0.3,0.3-0.3,0.3s0.5,0.1,1,0.2c0.5,0.1,0.9,0.2,0.9,0.2s0.7-0.8,1-1.4L23.4,13.7z"/>
		<path class="st0" d="M8,11.7c0,0,1.1,0,1.9,0.3c0.9,0.3,1.4,0.7,1.8,0.9c0.3,0.3,0.7,0.6,0.7,0.6s-0.1,0.5,0,1.1
			c0.1,0.7,0.1,1.3,0.4,2c0.3,0.7,0.6,1.1,0.7,1.3c0.1,0.2,0.1,0.3,0.1,0.3s-0.8-0.2-1.3-0.4c-0.5-0.2-1.1-0.5-1.8-1
			c-0.6-0.5-1.1-1.1-1.8-2.4C8.1,13.2,8,11.7,8,11.7z"/>
		<path class="st0" d="M21.3,11.7c0,0-1.2,0-2,0.3c-0.9,0.3-1.5,0.7-1.9,0.9c-0.3,0.3-0.7,0.6-0.7,0.6s0.1,0.5,0,1.1
			c-0.1,0.7-0.1,1.3-0.4,2c-0.3,0.7-0.6,1.1-0.7,1.3c-0.1,0.2-0.1,0.3-0.1,0.3s0.9-0.2,1.4-0.4c0.5-0.2,1.2-0.5,1.9-1
			c0.7-0.5,1.2-1.1,1.9-2.4C21.2,13.2,21.3,11.7,21.3,11.7z"/>
		<path class="st0" d="M20.3,15.7c0,0,0.5,0,1.3,0.1c0.8,0.2,1.7,0.6,1.7,0.6l0.5,0.3c0,0-0.2,0.3-0.5,0.6c-0.2,0.3-0.7,0.7-1.3,1.1
			c-0.6,0.3-1.1,0.6-1.7,0.7c-0.6,0.2-1.5,0.3-2.4,0.2c-0.8-0.1-1.7-0.3-2.1-0.5c-0.4-0.2-0.7-0.4-0.7-0.4s0.6,0,1.2-0.2
			c0.7-0.2,1.1-0.3,2.1-0.9C19.4,16.9,20.3,15.7,20.3,15.7z"/>
		<path class="st0" d="M9,15.7c0,0-0.5,0-1.3,0.1C7,16,6,16.5,6,16.5l-0.5,0.3c0,0,0.2,0.3,0.5,0.6c0.2,0.3,0.7,0.7,1.3,1.1
			C7.8,18.8,8.4,19,9,19.2c0.6,0.2,1.5,0.3,2.4,0.2c0.8-0.1,1.7-0.3,2.1-0.5c0.4-0.2,0.7-0.4,0.7-0.4s-0.6,0-1.2-0.2
			c-0.7-0.2-1.1-0.3-2.1-0.9C9.9,16.9,9,15.7,9,15.7z"/>
		<path class="st0" d="M14.5,0C6.5,0,0,6.5,0,14.5S6.5,29,14.5,29S29,22.5,29,14.5S22.5,0,14.5,0z M14.5,28.2
			c-7.6,0-13.8-6.2-13.8-13.8c0-7.6,6.2-13.8,13.8-13.8c7.6,0,13.8,6.2,13.8,13.8C28.3,22.1,22.1,28.2,14.5,28.2z"/>
	</g>
	<path class="st0" d="M40.1,4.9h1.4v8.9h0.1c0.3-0.6,0.8-1.1,1.4-1.5c0.7-0.4,1.4-0.7,2.3-0.7c0.9,0,1.5,0.1,2.1,0.4
		c0.5,0.3,1,0.6,1.3,1.1c0.3,0.4,0.5,0.9,0.6,1.5c0.1,0.6,0.2,1.2,0.2,1.7v6.5h-1.4v-6.4c0-0.4,0-0.9-0.1-1.3
		c-0.1-0.4-0.2-0.8-0.4-1.1c-0.2-0.3-0.5-0.6-0.8-0.8c-0.4-0.2-0.8-0.3-1.4-0.3c-0.5,0-1,0.1-1.5,0.3c-0.5,0.2-0.9,0.5-1.2,0.8
		c-0.3,0.4-0.6,0.8-0.8,1.4c-0.2,0.6-0.3,1.2-0.3,2v5.5h-1.4L40.1,4.9L40.1,4.9z"/>
	<path class="st0" d="M62.9,20.7c-0.6,0.8-1.2,1.4-2,1.8c-0.8,0.4-1.7,0.5-2.7,0.5c-0.8,0-1.6-0.1-2.3-0.4c-0.7-0.3-1.3-0.7-1.7-1.2
		c-0.5-0.5-0.9-1.1-1.1-1.8c-0.3-0.7-0.4-1.5-0.4-2.3c0-0.8,0.1-1.6,0.4-2.3c0.3-0.7,0.7-1.3,1.1-1.8c0.5-0.5,1.1-0.9,1.7-1.2
		c0.7-0.3,1.4-0.4,2.2-0.4c0.8,0,1.6,0.2,2.2,0.4c0.6,0.3,1.2,0.7,1.6,1.2s0.8,1,1,1.6c0.2,0.6,0.3,1.2,0.3,1.9v1H54
		c0,0.3,0.1,0.7,0.2,1.1c0.1,0.5,0.3,0.9,0.7,1.4c0.3,0.4,0.7,0.8,1.3,1.1c0.5,0.3,1.2,0.5,2,0.5c0.7,0,1.4-0.2,2.1-0.5
		c0.7-0.4,1.2-0.8,1.6-1.4L62.9,20.7z M61.8,16.4c0-0.5-0.1-0.9-0.3-1.4c-0.2-0.4-0.5-0.8-0.8-1.1c-0.3-0.3-0.7-0.6-1.2-0.8
		c-0.5-0.2-1-0.3-1.5-0.3c-0.8,0-1.4,0.2-1.9,0.5c-0.5,0.3-0.9,0.7-1.2,1.1c-0.3,0.4-0.5,0.8-0.6,1.2C54.1,16,54,16.3,54,16.4
		L61.8,16.4L61.8,16.4z"/>
	<path class="st0" d="M76,20.7c-0.6,0.8-1.2,1.4-2,1.8c-0.8,0.4-1.7,0.5-2.7,0.5c-0.8,0-1.6-0.1-2.3-0.4c-0.7-0.3-1.3-0.7-1.7-1.2
		c-0.5-0.5-0.9-1.1-1.1-1.8c-0.3-0.7-0.4-1.5-0.4-2.3c0-0.8,0.1-1.6,0.4-2.3c0.3-0.7,0.7-1.3,1.1-1.8c0.5-0.5,1.1-0.9,1.7-1.2
		c0.7-0.3,1.4-0.4,2.2-0.4c0.8,0,1.6,0.2,2.2,0.4c0.6,0.3,1.2,0.7,1.6,1.2s0.8,1,1,1.6c0.2,0.6,0.3,1.2,0.3,1.9v1h-9.2
		c0,0.3,0.1,0.7,0.2,1.1c0.1,0.5,0.3,0.9,0.7,1.4c0.3,0.4,0.7,0.8,1.3,1.1c0.5,0.3,1.2,0.5,2,0.5c0.7,0,1.4-0.2,2.1-0.5
		c0.7-0.4,1.2-0.8,1.6-1.4L76,20.7z M75,16.4c0-0.5-0.1-0.9-0.3-1.4c-0.2-0.4-0.5-0.8-0.8-1.1c-0.3-0.3-0.7-0.6-1.2-0.8
		s-1-0.3-1.5-0.3c-0.8,0-1.4,0.2-1.9,0.5c-0.5,0.3-0.9,0.7-1.2,1.1c-0.3,0.4-0.5,0.8-0.6,1.2c-0.1,0.4-0.2,0.7-0.2,0.8L75,16.4
		L75,16.4z"/>
	<path class="st0" d="M81.2,4.9h-1.4v17.9h1.4V4.9z"/>
	<path class="st0" d="M93.7,18.2c0,0.5,0,1,0,1.4c0,0.4,0,0.8,0,1.2c0,0.4,0,0.7,0.1,1c0,0.3,0.1,0.6,0.1,0.9h-1.3
		c-0.1-0.5-0.1-1.1-0.1-1.8h-0.1c-0.4,0.7-0.9,1.2-1.5,1.6c-0.6,0.3-1.4,0.5-2.3,0.5c-0.5,0-0.9-0.1-1.4-0.2
		c-0.5-0.1-0.9-0.3-1.2-0.6c-0.4-0.3-0.7-0.6-0.9-1c-0.2-0.4-0.3-0.9-0.3-1.5c0-0.8,0.2-1.5,0.6-2c0.4-0.5,1-0.9,1.6-1.1
		c0.6-0.3,1.3-0.4,2-0.5c0.7-0.1,1.3-0.1,1.9-0.1h1.7v-0.7c0-0.9-0.3-1.6-0.9-2c-0.6-0.4-1.3-0.6-2.2-0.6c-1.3,0-2.4,0.4-3.3,1.2
		l-0.8-1c0.5-0.5,1.2-0.9,1.9-1.1c0.8-0.3,1.5-0.4,2.2-0.4c1.3,0,2.4,0.3,3.2,0.9c0.8,0.6,1.2,1.6,1.2,3L93.7,18.2L93.7,18.2z
		 M90.8,17.3c-0.6,0-1.2,0-1.7,0.1c-0.6,0.1-1.1,0.2-1.5,0.4c-0.5,0.2-0.8,0.4-1.1,0.8c-0.3,0.3-0.4,0.7-0.4,1.2
		c0,0.3,0.1,0.6,0.2,0.9c0.2,0.3,0.3,0.5,0.6,0.6c0.2,0.2,0.5,0.3,0.8,0.4c0.3,0.1,0.6,0.1,0.9,0.1c0.8,0,1.4-0.1,1.9-0.3
		c0.5-0.2,0.9-0.5,1.2-0.9c0.3-0.4,0.5-0.8,0.6-1.2c0.1-0.5,0.2-0.9,0.2-1.4v-0.7H90.8L90.8,17.3z"/>
	<path class="st0" d="M97.5,14.9c0-0.2,0-0.5,0-0.7c0-0.3,0-0.6,0-0.9c0-0.3,0-0.6,0-0.8c0-0.3,0-0.5,0-0.6h1.4c0,0.4,0,0.8,0,1.2
		c0,0.4,0,0.6,0.1,0.7c0.4-0.7,0.8-1.2,1.4-1.6c0.6-0.4,1.3-0.6,2.1-0.6c0.1,0,0.3,0,0.4,0c0.1,0,0.3,0.1,0.4,0.1l-0.2,1.4
		c-0.2-0.1-0.4-0.1-0.5-0.1c-0.6,0-1.1,0.1-1.6,0.3c-0.5,0.2-0.8,0.5-1.1,0.8c-0.3,0.4-0.5,0.8-0.7,1.2c-0.1,0.5-0.2,1-0.2,1.5v6
		h-1.4L97.5,14.9L97.5,14.9z"/>
</g>
</svg>
