<svg width="512" height="512" viewBox="0 0 512 512" fill="none" xmlns="http://www.w3.org/2000/svg">
<path d="M256.272 0C256.272 0 263.488 61.641 288.902 117.873C300.687 143.95 331.755 179.535 350.642 196.98C401.891 244.317 512 252.59 512 252.59C512 252.59 420.947 275.703 365.453 305.626C333.989 326.666 316.644 354.52 305.263 376.443C278.061 428.839 256.138 512 256.138 512C256.138 512 248.332 430.359 212.914 375.884C196.191 350.164 176.426 322.451 149.393 305.904C83.7754 265.741 0 252.475 0 252.475C0 252.475 100.475 244.346 148.799 207.933C180.361 184.151 193.97 172.462 213.552 137.842C240.212 90.7047 256.272 0 256.272 0Z" fill="#005A2A"/>
<path d="M254.97 120.378C254.97 120.378 259.869 153.034 273.004 182.826C279.096 196.641 295.153 215.493 304.915 224.736C331.403 249.814 388.313 254.197 388.313 254.197C388.313 254.197 353.437 259.716 323.938 273.738C312.855 279.006 293 298.981 285.891 309.845C263.521 344.033 256.3 391.63 256.3 391.63C256.3 391.63 250.176 349.43 233.73 319.517C224.795 303.266 214.871 291.209 200.899 282.442C166.985 261.164 123.685 254.136 123.685 254.136C123.685 254.136 175.616 249.829 200.592 230.538C216.905 217.939 223.939 211.746 234.06 193.405C247.839 168.432 254.97 120.378 254.97 120.378Z" fill="white"/>
</svg>
