<?xml version="1.0" encoding="utf-8"?>
<!-- Generator: Adobe Illustrator 28.1.0, SVG Export Plug-In . SVG Version: 6.00 Build 0)  -->
<svg version="1.1" id="Layer_1" xmlns="http://www.w3.org/2000/svg" xmlns:xlink="http://www.w3.org/1999/xlink" x="0px" y="0px"
	 viewBox="0 0 512 512" style="enable-background:new 0 0 512 512;" xml:space="preserve">
<style type="text/css">
	.st0{fill:none;}
	.st1{fill:#1C1B1F;}
</style>
<g>
	<rect class="st0" width="512" height="512"/>
	<path class="st1" d="M179.2,369.7c-14.1,0-26.1-4.9-36.2-14.8c-10-9.9-15-21.8-15-35.7c0-13.9,5-25.8,15-35.7
		c10-9.9,22.1-14.8,36.2-14.8s26.1,4.9,36.2,14.8c10,9.9,15,21.8,15,35.7c0,13.9-5,25.8-15,35.7
		C205.3,364.8,193.3,369.7,179.2,369.7z M332.8,369.7c-14.1,0-26.1-4.9-36.2-14.8c-10-9.9-15-21.8-15-35.7c0-13.9,5-25.8,15-35.7
		c10-9.9,22.1-14.8,36.2-14.8c14.1,0,26.1,4.9,36.2,14.8c10,9.9,15,21.8,15,35.7c0,13.9-5,25.8-15,35.7
		C358.9,364.8,346.9,369.7,332.8,369.7z M179.2,344.4c7,0,13.1-2.5,18.1-7.4c5-5,7.5-10.9,7.5-17.9c0-6.9-2.5-12.9-7.5-17.8
		c-5-5-11-7.4-18.1-7.4c-7,0-13.1,2.5-18.1,7.4c-5,4.9-7.5,10.9-7.5,17.8c0,6.9,2.5,12.9,7.5,17.9
		C166.1,342,172.2,344.4,179.2,344.4z M332.8,344.4c7,0,13.1-2.5,18.1-7.4c5-5,7.5-10.9,7.5-17.9c0-6.9-2.5-12.9-7.5-17.8
		c-5-5-11-7.4-18.1-7.4c-7,0-13.1,2.5-18.1,7.4c-5,4.9-7.5,10.9-7.5,17.8c0,6.9,2.5,12.9,7.5,17.9
		C319.7,342,325.8,344.4,332.8,344.4z M256,243.4c-14.1,0-26.1-4.9-36.2-14.8c-10-9.9-15-21.8-15-35.7c0-13.9,5-25.8,15-35.7
		c10-9.9,22.1-14.8,36.2-14.8c14.1,0,26.1,4.9,36.2,14.8c10,9.9,15,21.8,15,35.7c0,13.9-5,25.8-15,35.7
		C282.1,238.4,270.1,243.4,256,243.4z M256,218.1c7,0,13.1-2.5,18.1-7.4c5-4.9,7.5-10.9,7.5-17.8c0-6.9-2.5-12.9-7.5-17.8
		c-5-5-11-7.4-18.1-7.4c-7,0-13.1,2.5-18.1,7.4c-5,4.9-7.5,10.9-7.5,17.8c0,6.9,2.5,12.9,7.5,17.8C242.9,215.6,249,218.1,256,218.1z
		"/>
</g>
</svg>
