<svg width="20" height="20" viewBox="0 0 20 20" fill="none" xmlns="http://www.w3.org/2000/svg">
<path d="M10.3444 14.8994L14.2818 17.3994C14.7897 17.7197 15.4147 17.2432 15.2663 16.6572L14.1256 12.1729C14.0948 12.0486 14.0997 11.9181 14.1398 11.7964C14.1798 11.6748 14.2535 11.567 14.3522 11.4854L17.8835 8.54006C18.3443 8.15726 18.11 7.38383 17.5084 7.34476L12.899 7.04787C12.7733 7.04054 12.6524 6.99675 12.5511 6.92183C12.4498 6.84691 12.3725 6.7441 12.3287 6.626L10.61 2.29788C10.5645 2.1728 10.4816 2.06477 10.3726 1.9884C10.2636 1.91206 10.1337 1.87109 10.0006 1.87109C9.86748 1.87109 9.73763 1.91206 9.6286 1.9884C9.51958 2.06477 9.43672 2.1728 9.39125 2.29788L7.6725 6.626C7.62871 6.7441 7.55142 6.84691 7.4501 6.92183C7.34886 6.99675 7.22794 7.04054 7.1022 7.04787L2.49283 7.34476C1.89125 7.38383 1.65688 8.15726 2.11777 8.54006L5.64903 11.4854C5.74776 11.567 5.82138 11.6748 5.86143 11.7964C5.90157 11.9181 5.90645 12.0486 5.87563 12.1729L4.82094 16.3291C4.64127 17.0323 5.39124 17.6026 5.99281 17.2198L9.65683 14.8994C9.7596 14.8341 9.87885 14.7994 10.0006 14.7994C10.1224 14.7994 10.2416 14.8341 10.3444 14.8994Z" fill="#1C1C1C" fill-opacity="0.1"/>
<path fill-rule="evenodd" clip-rule="evenodd" d="M10.008 15.4268C10.008 15.4268 10.0041 15.4244 9.99957 15.4244C9.99957 15.4244 9.99502 15.4244 9.99118 15.4268L6.32613 17.7478C6.32613 17.7478 5.93626 17.9959 5.48606 17.9644C5.48606 17.9644 5.07178 17.9355 4.73462 17.6792C4.73462 17.6792 4.40168 17.4261 4.2568 17.0366C4.2568 17.0366 4.10101 16.6178 4.21434 16.1744L5.26877 12.0191C5.26877 12.0191 5.27176 12.007 5.26682 11.9921C5.26682 11.9921 5.26188 11.9771 5.24973 11.967L1.71643 9.02002C1.71643 9.02002 1.39679 8.75456 1.29192 8.35651C1.29192 8.35651 1.19608 7.99275 1.30876 7.62869C1.30876 7.62869 1.4227 7.26058 1.7111 7.01682C1.7111 7.01682 2.02856 6.74851 2.45125 6.72106L7.06096 6.42416C7.06096 6.42416 7.07179 6.42352 7.0774 6.41937C7.0774 6.41937 7.08301 6.41522 7.08544 6.40868L7.09056 6.39532L8.80645 2.07441C8.80645 2.07441 8.9444 1.70383 9.26905 1.47646C9.26905 1.47646 9.59798 1.24609 9.99957 1.24609C9.99957 1.24609 10.4011 1.24609 10.7301 1.47646C10.7301 1.47646 11.0547 1.70383 11.1927 2.07441L12.9086 6.39532L12.9137 6.40868C12.9137 6.40868 12.9161 6.41522 12.9217 6.41937C12.9217 6.41937 12.9273 6.42352 12.9343 6.42393L17.5475 6.72104C17.5475 6.72104 17.9706 6.74851 18.288 7.01682C18.288 7.01682 18.5764 7.26058 18.6904 7.62869C18.6904 7.62869 18.8031 7.99275 18.7072 8.35652C18.7072 8.35652 18.6023 8.75456 18.2817 9.02086L14.7515 11.9653C14.7515 11.9653 14.7372 11.9771 14.7323 11.9921C14.7323 11.9921 14.7274 12.007 14.7312 12.0224L15.8709 16.5032C15.8709 16.5032 15.9727 16.905 15.8308 17.2844C15.8308 17.2844 15.6988 17.6375 15.3964 17.8664C15.3964 17.8664 15.0899 18.0986 14.7126 18.1245C14.7126 18.1245 14.3035 18.1527 13.9474 17.9281L10.0088 15.4274L10.0083 15.4271L10.008 15.4268ZM14.6143 16.8708L10.6788 14.3721L10.6783 14.3718C10.6783 14.3718 10.3677 14.1744 9.99957 14.1744C9.99957 14.1744 9.63125 14.1744 9.32045 14.372L5.65737 16.6917C5.65737 16.6917 5.57231 16.7458 5.49107 16.6841C5.49107 16.6841 5.39325 16.6097 5.42542 16.4839L6.48036 12.3266C6.48036 12.3266 6.57178 11.9582 6.45402 11.6008C6.45402 11.6008 6.33625 11.2435 6.04627 11.0037L2.51708 8.06009C2.51708 8.06009 2.49056 8.03807 2.50287 7.9983C2.50287 7.9983 2.5117 7.96977 2.53225 7.96843L7.1413 7.67158C7.1413 7.67158 7.51595 7.64979 7.82078 7.4243C7.82078 7.4243 8.12229 7.20127 8.25455 6.85103L9.97106 2.52854L9.97754 2.51152C9.97754 2.51152 9.98007 2.50457 9.98612 2.50033C9.98612 2.50033 9.99217 2.49609 9.99957 2.49609C9.99957 2.49609 10.007 2.49609 10.013 2.50033C10.013 2.50033 10.0191 2.50457 10.0216 2.51152L10.0281 2.52854L11.7446 6.85103C11.7446 6.85103 11.8768 7.20127 12.1784 7.4243C12.1784 7.4243 12.4832 7.64979 12.8617 7.67182L17.4672 7.96845C17.4672 7.96845 17.4874 7.96977 17.4963 7.9983C17.4963 7.9983 17.5086 8.03807 17.4831 8.05925L13.9508 11.0054C13.9508 11.0054 13.6629 11.2435 13.5451 11.6008C13.5451 11.6008 13.4273 11.9582 13.518 12.3234L14.6595 16.8113C14.6595 16.8113 14.6691 16.8492 14.6418 16.8699C14.6418 16.8699 14.6286 16.8799 14.6143 16.8708Z" fill="#1C1C1C"/>
</svg>
