<?xml version="1.0" encoding="utf-8"?>
<!-- Generator: Adobe Illustrator 28.1.0, SVG Export Plug-In . SVG Version: 6.00 Build 0)  -->
<svg version="1.1" id="Layer_1" xmlns="http://www.w3.org/2000/svg" xmlns:xlink="http://www.w3.org/1999/xlink" x="0px" y="0px"
	 viewBox="0 0 512 512" style="enable-background:new 0 0 512 512;" xml:space="preserve">
<style type="text/css">
	.st0{fill:none;}
	.st1{fill:#1C1B1F;}
</style>
<g>
	<rect class="st0" width="512" height="512"/>
	<path class="st1" d="M241.7,385.3v-28.7h114.9v-102c0-13.9-2.6-26.9-7.9-39.1c-5.3-12.2-12.4-22.9-21.5-32
		c-9.1-9.1-19.8-16.3-32-21.5c-12.2-5.3-25.3-7.9-39.1-7.9c-13.9,0-26.9,2.6-39.1,7.9c-12.2,5.3-22.9,12.4-32,21.5
		s-16.3,19.8-21.5,32c-5.3,12.2-7.9,25.3-7.9,39.1v87.6h-14.4c-7.9,0-14.7-2.8-20.3-8.4c-5.6-5.6-8.4-12.4-8.4-20.3v-28.7
		c0-5.5,1.3-10.4,4-14.6c2.6-4.2,6.1-7.6,10.4-10.2l1.1-19c2.2-17.5,7.1-33.3,14.9-47.4c7.8-14.1,17.5-26.1,29.1-35.9
		c11.6-9.8,24.7-17.4,39.1-22.8c14.5-5.4,29.5-8.1,45.1-8.1c15.8,0,30.9,2.7,45.4,8.1c14.5,5.4,27.5,13.1,39,23
		c11.5,9.9,21.1,21.9,28.9,35.9c7.8,14,12.7,29.6,14.9,46.9l1.1,18.7c4.3,2.2,7.8,5.3,10.4,9.5c2.6,4.2,4,8.8,4,13.8v33
		c0,5.3-1.3,9.9-4,14c-2.6,4.1-6.1,7.2-10.4,9.3v17.6c0,7.9-2.8,14.7-8.4,20.3c-5.6,5.6-12.4,8.4-20.3,8.4H241.7z M213,284.7
		c-4.1,0-7.5-1.4-10.2-4.1c-2.8-2.7-4.1-6.2-4.1-10.2s1.4-7.5,4.1-10.2c2.7-2.7,6.2-4.1,10.2-4.1c4.1,0,7.5,1.4,10.2,4.1
		c2.7,2.8,4.1,6.2,4.1,10.2s-1.4,7.5-4.1,10.2C220.4,283.3,217,284.7,213,284.7z M299.1,284.7c-4.1,0-7.5-1.4-10.2-4.1
		c-2.8-2.7-4.1-6.2-4.1-10.2s1.4-7.5,4.1-10.2c2.7-2.7,6.2-4.1,10.2-4.1c4.1,0,7.5,1.4,10.2,4.1c2.7,2.8,4.1,6.2,4.1,10.2
		s-1.4,7.5-4.1,10.2C306.6,283.3,303.2,284.7,299.1,284.7z M170.2,262.4c-1-14.1,1-26.9,5.9-38.4c4.9-11.5,11.5-21.2,19.7-29.3
		c8.3-8,17.8-14.2,28.6-18.5c10.8-4.3,21.5-6.5,32.3-6.5c21.8,0,40.6,6.9,56.6,20.7c15.9,13.8,25.6,30.9,28.9,51.5
		c-22.5-0.2-42.9-6.3-61-18.1c-18.2-11.8-32-27.2-41.3-46.1c-3.8,19.4-11.9,36.6-24.2,51.5C203.3,244.2,188.2,255.3,170.2,262.4z"/>
</g>
</svg>
