<?xml version="1.0" encoding="utf-8"?>
<!-- Generator: Adobe Illustrator 28.1.0, SVG Export Plug-In . SVG Version: 6.00 Build 0)  -->
<svg version="1.1" id="Layer_1" xmlns="http://www.w3.org/2000/svg" xmlns:xlink="http://www.w3.org/1999/xlink" x="0px" y="0px"
	 viewBox="0 0 20 20" style="enable-background:new 0 0 20 20;" xml:space="preserve">
<style type="text/css">
	.st0{fill:none;}
</style>
<g>
	<rect class="st0" width="20" height="20"/>
	<path d="M3.6,18h-2V8h2V18z M18.4,9v2c0,0.2-0.1,0.5-0.1,0.5l-2.4,6.4c-0.3,0.6-0.8,0.9-1.1,0.9H7.7c-1.1,0-1.5-1.1-1.5-1.6l0-8.9
		c0-0.5,0.3-1,0.4-1.2l5.1-5.8l0.9,1c0.3,0.3,0.4,0.7,0.2,1.3L12,7.1l4.8,0C17.8,7.1,18.4,8.3,18.4,9z M16.9,10.8V9.2
		c0-0.5-0.2-0.7-0.2-0.7h-6.4l0.9-4.4L7.8,8C7.7,8.1,7.6,8.2,7.6,8.3v8.8c0,0.1,0.1,0.2,0.2,0.2h6.7c0,0,0.1,0,0.1-0.1l2.3-6.1
		C16.9,10.9,16.9,10.8,16.9,10.8z"/>
</g>
</svg>
