<?xml version="1.0" encoding="utf-8"?>
<!-- Generator: Adobe Illustrator 28.1.0, SVG Export Plug-In . SVG Version: 6.00 Build 0)  -->
<svg version="1.1" id="Layer_1" xmlns="http://www.w3.org/2000/svg" xmlns:xlink="http://www.w3.org/1999/xlink" x="0px" y="0px"
	 viewBox="0 0 20 20" style="enable-background:new 0 0 20 20;" xml:space="preserve">
<style type="text/css">
	.st0{fill:#667085;}
</style>
<path class="st0" d="M11.8,19.2H8.2c-1.5,0-2.3,0-3-0.4C4.5,18.5,4,18,3.7,17.3c-0.4-0.7-0.4-1.5-0.4-3V5.8H2.5C2,5.8,1.7,5.5,1.7,5
	S2,4.2,2.5,4.2h3.3c0-0.9,0-1.5,0.3-2c0.2-0.5,0.6-0.9,1.1-1.1c0.5-0.3,1.1-0.3,2.1-0.3h1.3c1,0,1.6,0,2.1,0.3
	c0.5,0.2,0.9,0.6,1.1,1.1c0.3,0.5,0.3,1,0.3,2h3.3c0.5,0,0.8,0.4,0.8,0.8S18,5.8,17.5,5.8h-0.8v8.5c0,1.5,0,2.3-0.4,3
	c-0.3,0.6-0.8,1.1-1.5,1.5C14.1,19.2,13.4,19.2,11.8,19.2z M5,5.8v8.5c0,1.2,0,1.9,0.2,2.3c0.2,0.3,0.4,0.6,0.7,0.7
	c0.4,0.2,1,0.2,2.3,0.2h3.7c1.2,0,1.9,0,2.3-0.2c0.3-0.2,0.6-0.4,0.7-0.7c0.2-0.4,0.2-1,0.2-2.3V5.8H5z M7.5,4.2h5
	c0-0.6,0-1-0.1-1.2c-0.1-0.2-0.2-0.3-0.4-0.4c-0.2-0.1-0.7-0.1-1.4-0.1H9.3c-0.7,0-1.2,0-1.4,0.1C7.8,2.7,7.7,2.8,7.6,3
	C7.5,3.1,7.5,3.5,7.5,4.2z M11.7,14.6c-0.5,0-0.8-0.4-0.8-0.8V9.6c0-0.5,0.4-0.8,0.8-0.8s0.8,0.4,0.8,0.8v4.2
	C12.5,14.2,12.1,14.6,11.7,14.6z M8.3,14.6c-0.5,0-0.8-0.4-0.8-0.8V9.6c0-0.5,0.4-0.8,0.8-0.8s0.8,0.4,0.8,0.8v4.2
	C9.2,14.2,8.8,14.6,8.3,14.6z"/>
</svg>
