<svg width="33" height="33" viewBox="0 0 33 33" fill="none" xmlns="http://www.w3.org/2000/svg">
<path fill-rule="evenodd" clip-rule="evenodd" d="M0.195312 16.7686C0.195312 7.932 7.35876 0.768555 16.1953 0.768555C25.0319 0.768555 32.1953 7.932 32.1953 16.7686C32.1953 25.6051 25.0319 32.7686 16.1953 32.7686C7.35876 32.7686 0.195312 25.6051 0.195312 16.7686Z" fill="#55ACEE"/>
<path fill-rule="evenodd" clip-rule="evenodd" d="M15.7161 13.7732L15.7497 14.3268L15.1901 14.259C13.1532 13.9991 11.3737 13.1178 9.86287 11.6377L9.12422 10.9033L8.93396 11.4456C8.53106 12.6546 8.78847 13.9313 9.62785 14.79C10.0755 15.2646 9.97479 15.3324 9.20256 15.0499C8.93396 14.9595 8.69894 14.8917 8.67655 14.9256C8.59821 15.0047 8.86681 16.0329 9.07945 16.4397C9.37044 17.0046 9.9636 17.5582 10.6127 17.8859L11.1611 18.1458L10.512 18.1571C9.88525 18.1571 9.86287 18.1684 9.93002 18.4056C10.1539 19.14 11.038 19.9197 12.0229 20.2586L12.7167 20.4959L12.1124 20.8574C11.2171 21.3772 10.165 21.671 9.11303 21.6936C8.6094 21.7049 8.19531 21.75 8.19531 21.7839C8.19531 21.8969 9.5607 22.5297 10.3553 22.7782C12.7391 23.5126 15.5706 23.1963 17.697 21.9421C19.2079 21.0495 20.7188 19.2756 21.4239 17.5582C21.8044 16.643 22.1849 14.9708 22.1849 14.1686C22.1849 13.6489 22.2185 13.5811 22.8452 12.9597C23.2145 12.5981 23.5615 12.2026 23.6286 12.0897C23.7405 11.875 23.7293 11.875 23.1586 12.0671C22.2073 12.406 22.073 12.3608 22.543 11.8524C22.89 11.4908 23.3041 10.8355 23.3041 10.6434C23.3041 10.6095 23.1362 10.666 22.9459 10.7677C22.7445 10.8807 22.2968 11.0502 21.9611 11.1519L21.3567 11.3439L20.8083 10.9711C20.5061 10.7677 20.0809 10.5417 19.857 10.4739C19.2863 10.3158 18.4133 10.3384 17.8985 10.5191C16.4995 11.0276 15.6154 12.3382 15.7161 13.7732Z" fill="white"/>
</svg>
