<?xml version="1.0" encoding="utf-8"?>
<!-- Generator: Adobe Illustrator 28.1.0, SVG Export Plug-In . SVG Version: 6.00 Build 0)  -->
<svg version="1.1" id="Layer_1" xmlns="http://www.w3.org/2000/svg" xmlns:xlink="http://www.w3.org/1999/xlink" x="0px" y="0px"
	 viewBox="0 0 512 512" style="enable-background:new 0 0 512 512;" xml:space="preserve">
<style type="text/css">
	.st0{fill:none;}
	.st1{fill:#008548;}
</style>
<g>
	<rect class="st0" width="512" height="512"/>
	<path class="st1" d="M426.7,475.1c-11.8,0-21.3-9.5-21.3-21.3c0-26.8,0-41.5-2.8-50.6c-6.2-20.5-22.2-36.5-42.7-42.7
		c-9.1-2.8-23.8-2.8-50.6-2.8H202.7c-26.8,0-41.5,0-50.6,2.8c-20.5,6.2-36.4,22.2-42.6,42.7c-2.8,9.1-2.8,23.8-2.8,50.6
		c0,11.8-9.6,21.3-21.3,21.3S64,465.6,64,453.8c0-31.9,0-47.8,4.6-63c10.4-34.1,36.9-60.8,71.1-71.1c15.1-4.6,31.1-4.6,63-4.6h106.7
		c31.8,0,47.8,0,63,4.6c34.2,10.4,60.8,37,71.1,71.1c4.6,15.1,4.6,31.1,4.6,63C448,465.6,438.5,475.1,426.7,475.1z M256,283.1
		c-64.7,0-117.3-52.6-117.3-117.3S191.3,48.5,256,48.5c64.7,0,117.3,52.6,117.3,117.3S320.7,283.1,256,283.1z M256,91.1
		c-41.2,0-74.7,33.5-74.7,74.7s33.5,74.7,74.7,74.7s74.7-33.5,74.7-74.7S297.2,91.1,256,91.1z"/>
</g>
</svg>
