<?xml version="1.0" encoding="utf-8"?>
<!-- Generator: Adobe Illustrator 28.1.0, SVG Export Plug-In . SVG Version: 6.00 Build 0)  -->
<svg version="1.1" id="Layer_1" xmlns="http://www.w3.org/2000/svg" xmlns:xlink="http://www.w3.org/1999/xlink" x="0px" y="0px"
	 viewBox="0 0 512 512" style="enable-background:new 0 0 512 512;" xml:space="preserve">
<style type="text/css">
	.st0{fill-rule:evenodd;clip-rule:evenodd;fill:none;}
	.st1{fill-rule:evenodd;clip-rule:evenodd;}
</style>
<g>
	<rect y="0" class="st0" width="512" height="512"/>
	<path class="st1" d="M250.6,156.7c-8.2-7.9-19.2-12.3-30.7-12.1l-0.2,0c-23.9,0-43.1,19.3-43.1,43.1v0c0,11.1,4.3,21.8,12,29.9
		c7.6,7.9,17.9,12.5,28.8,13.1c1.5-0.1,3.2-0.1,4.7,0c11.2-0.4,21.8-5.1,29.6-13.1c7.9-8.2,12.3-19.2,12.1-30.7
		C263.5,175.5,258.8,164.6,250.6,156.7z M219.6,119.9c17.9-0.3,35.3,6.5,48.2,19c12.9,12.5,20.4,29.6,20.7,47.6
		c0.3,18-6.5,35.3-19,48.3c-12.5,12.9-29.6,20.4-47.6,20.7c-0.5,0-1,0-1.5-0.1c-0.4,0-1.1-0.1-1.8,0c-0.5,0-1,0.1-1.5,0
		c-17.6-0.6-34.2-8-46.4-20.6c-12.2-12.6-19-29.5-18.9-47.1C151.9,150.4,182.1,120,219.6,119.9z M299.9,157.3
		c0-6.8,5.5-12.4,12.4-12.4c31.1,0,56.1,25.2,56.1,56.1c0,30.3-24,55-54,56.1c-0.6,0-1.3,0-1.9-0.1c-0.1,0-0.3,0-0.4,0
		c-6.8,0.8-12.9-4.1-13.7-10.9c-0.8-6.8,4.1-12.9,10.9-13.7c1.6-0.2,3.3-0.2,4.9-0.1c16.4-1,29.5-14.6,29.5-31.3
		c0-17.3-14-31.4-31.4-31.4C305.5,169.6,299.9,164.1,299.9,157.3z M221.9,259.7c24.5,0,49.7,6.1,69.3,19.2
		c17.7,11.8,28.2,28.5,28.2,46.9c0,18.4-10.5,35.2-28.2,47c-19.6,13.1-44.9,19.3-69.4,19.3s-49.8-6.2-69.4-19.3
		c-17.7-11.8-28.2-28.5-28.2-46.9c0-18.4,10.5-35.2,28.2-47l0,0C172.1,265.8,197.3,259.7,221.9,259.7z M166.1,299.5
		c-12.5,8.4-17.2,18.2-17.2,26.4c0,8.2,4.6,18,17.2,26.3l0,0c14.7,9.8,34.9,15.2,55.6,15.2s40.9-5.3,55.6-15.2
		c12.6-8.4,17.2-18.2,17.2-26.4c0-8.2-4.6-18-17.2-26.3c-14.6-9.8-34.8-15.1-55.6-15.1C201.1,284.4,180.9,289.7,166.1,299.5z
		 M324.7,279.5c1.5-6.7,8.1-10.9,14.8-9.4c10.2,2.3,20.3,6.4,28.9,12.9c12.4,9.3,19.5,22.5,19.5,36.5c0,14.1-7.1,27.2-19.5,36.5
		c-8.7,6.6-18.9,10.9-29.4,13.1c-6.7,1.4-13.2-2.9-14.6-9.6c-1.4-6.7,2.9-13.2,9.6-14.6c7.4-1.6,14.2-4.5,19.5-8.6l0.1-0.1
		c7.1-5.3,9.7-11.5,9.7-16.8c0-5.3-2.6-11.5-9.7-16.8l-0.1-0.1c-5.2-3.9-11.8-6.8-19.3-8.5C327.4,292.8,323.2,286.1,324.7,279.5z"/>
</g>
</svg>
