<?xml version="1.0" encoding="utf-8"?>
<!-- Generator: Adobe Illustrator 28.1.0, SVG Export Plug-In . SVG Version: 6.00 Build 0)  -->
<svg version="1.1" id="Layer_1" xmlns="http://www.w3.org/2000/svg" xmlns:xlink="http://www.w3.org/1999/xlink" x="0px" y="0px"
	 viewBox="0 0 512 512" style="enable-background:new 0 0 512 512;" xml:space="preserve">
<style type="text/css">
	.st0{fill-rule:evenodd;clip-rule:evenodd;fill:none;}
	.st1{fill-rule:evenodd;clip-rule:evenodd;}
</style>
<g>
	<rect class="st0" width="512" height="512"/>
	<path class="st1" d="M154.9,310.7c12.5-12.5,29.5-19.6,47.2-19.6h107.8c17.7,0,34.7,7,47.2,19.6c12.5,12.5,19.6,29.5,19.6,47.2
		v26.9c0,7.1-5.8,12.9-12.9,12.9c-7.1,0-12.9-5.8-12.9-12.9v-26.9c0-10.9-4.3-21.3-12-29c-7.7-7.7-18.1-12-29-12H202.1
		c-10.9,0-21.3,4.3-29,12c-7.7,7.7-12,18.1-12,29v26.9c0,7.1-5.8,12.9-12.9,12.9s-12.9-5.8-12.9-12.9v-26.9
		C135.3,340.2,142.3,323.2,154.9,310.7z M256,140.1c-22.7,0-41,18.4-41,41c0,22.7,18.4,41,41,41c22.7,0,41-18.4,41-41
		C297,158.4,278.6,140.1,256,140.1z M189.2,181.1c0-36.9,29.9-66.8,66.8-66.8c36.9,0,66.8,29.9,66.8,66.8
		c0,36.9-29.9,66.8-66.8,66.8C219.1,247.9,189.2,218,189.2,181.1z"/>
</g>
</svg>
