<?xml version="1.0" encoding="utf-8"?>
<!-- Generator: Adobe Illustrator 28.1.0, SVG Export Plug-In . SVG Version: 6.00 Build 0)  -->
<svg version="1.1" id="Layer_1" xmlns="http://www.w3.org/2000/svg" xmlns:xlink="http://www.w3.org/1999/xlink" x="0px" y="0px"
	 viewBox="0 0 512 512" style="enable-background:new 0 0 512 512;" xml:space="preserve">
<style type="text/css">
	.st0{fill:none;}
	.st1{fill:#344054;}
</style>
<g>
	<rect class="st0" width="512" height="512"/>
	<path class="st1" d="M426.7,472c-13.2,0-24-10.8-24-24c0-26.5,0-41.1-2.7-49.8c-6-19.6-21.2-34.9-40.9-40.9
		c-8.7-2.7-23.3-2.7-49.8-2.7H202.7c-26.5,0-41.1,0-49.8,2.7c-19.7,6-34.9,21.2-40.9,40.9c-2.6,8.7-2.6,23.3-2.6,49.8
		c0,13.2-10.8,24-24,24s-24-10.8-24-24c0-32.1,0-48.2,4.7-63.8c10.6-35,37.9-62.2,72.9-72.9c15.5-4.7,31.6-4.7,63.7-4.7h106.7
		c32.1,0,48.2,0,63.8,4.7c35,10.6,62.2,37.9,72.9,72.9c4.7,15.5,4.7,31.7,4.7,63.8C450.7,461.2,440,472,426.7,472z M256,280
		c-66.2,0-120-53.8-120-120S189.9,40,256,40s120,53.8,120,120S322.2,280,256,280z M256,88c-39.7,0-72,32.3-72,72s32.3,72,72,72
		s72-32.3,72-72S295.8,88,256,88z"/>
</g>
</svg>
