<svg width="16" height="16" viewBox="0 0 16 16" fill="none" xmlns="http://www.w3.org/2000/svg">
<path d="M14.6654 14V12.6667C14.6654 11.4241 13.8155 10.38 12.6654 10.084M10.332 2.19384C11.3093 2.58943 11.9987 3.54754 11.9987 4.66667C11.9987 5.78579 11.3093 6.7439 10.332 7.13949M11.332 14C11.332 12.7575 11.332 12.1362 11.129 11.6462C10.8584 10.9928 10.3393 10.4736 9.68585 10.203C9.1958 10 8.57454 10 7.33203 10H5.33203C4.08952 10 3.46826 10 2.97821 10.203C2.3248 10.4736 1.80567 10.9928 1.53502 11.6462C1.33203 12.1362 1.33203 12.7575 1.33203 14M8.9987 4.66667C8.9987 6.13943 7.80479 7.33333 6.33203 7.33333C4.85927 7.33333 3.66536 6.13943 3.66536 4.66667C3.66536 3.19391 4.85927 2 6.33203 2C7.80479 2 8.9987 3.19391 8.9987 4.66667Z" stroke="#344054" stroke-width="1.5" stroke-linecap="round" stroke-linejoin="round"/>
</svg>
