<?xml version="1.0" encoding="utf-8"?>
<!-- Generator: Adobe Illustrator 28.1.0, SVG Export Plug-In . SVG Version: 6.00 Build 0)  -->
<svg version="1.1" id="Layer_1" xmlns="http://www.w3.org/2000/svg" xmlns:xlink="http://www.w3.org/1999/xlink" x="0px" y="0px"
	 viewBox="0 0 512 512" style="enable-background:new 0 0 512 512;" xml:space="preserve">
<g>
	<path d="M367.1,463.4c-6.4,0-11.6-5.2-11.6-11.6v-43.5c0-20.1-8-39-22.5-53.2c-14.4-14.1-34.3-22.2-54.7-22.2H100.5
		c-20.4,0-40.3,8.1-54.7,22.2c-14.5,14.2-22.5,33.1-22.5,53.2v43.5c0,6.4-5.2,11.6-11.6,11.6S0,458.2,0,451.8v-43.5
		c0-26.4,10.5-51.2,29.5-69.8c19-18.6,44.2-28.8,70.9-28.8h177.7c26.8,0,52,10.2,70.9,28.8c19,18.6,29.5,43.4,29.5,69.8v43.5
		C378.7,458.2,373.5,463.4,367.1,463.4z"/>
	<path d="M189.3,245.8c-55.4,0-100.5-44.2-100.5-98.6c0-54.4,45.1-98.6,100.5-98.6s100.5,44.2,100.5,98.6
		C289.8,201.6,244.7,245.8,189.3,245.8z M189.3,71.8c-42.6,0-77.3,33.8-77.3,75.4s34.7,75.4,77.3,75.4s77.3-33.8,77.3-75.4
		S231.9,71.8,189.3,71.8z"/>
	<path d="M500.4,463.4c-6.4,0-11.6-5.2-11.6-11.6v-43.5c0-16.6-5.8-32.9-16.1-46c-10.4-13.2-25.2-22.7-41.8-26.9
		c-6.2-1.6-10-7.9-8.4-14.1c1.5-6.2,7.8-10.1,14.1-8.4c21.4,5.4,40.7,17.9,54.3,35c13.6,17.2,21.1,38.6,21.1,60.4v43.5
		C512,458.2,506.8,463.4,500.4,463.4z"/>
	<path d="M344.8,243.2c-5.2,0-9.9-3.5-11.3-8.8c-1.5-6.2,2.2-12.5,8.5-14.1c16.5-4.1,31.4-13.7,41.9-26.9
		c10.4-13.1,16.2-29.5,16.2-46.2c0-16.6-5.7-33-16.2-46.2C373.4,88,358.6,78.4,342,74.3c-6.2-1.6-10-7.9-8.5-14.1
		c1.6-6.2,7.9-10,14.1-8.4c21.5,5.4,40.8,17.8,54.4,35c13.7,17.2,21.2,38.7,21.2,60.6s-7.5,43.4-21.2,60.6
		c-13.6,17.2-32.9,29.6-54.4,35C346.7,243.1,345.8,243.2,344.8,243.2z"/>
</g>
</svg>
