<svg width="80" height="41" viewBox="0 0 80 41" fill="none" xmlns="http://www.w3.org/2000/svg">
<path fill-rule="evenodd" clip-rule="evenodd" d="M60 20.7715C60 31.8171 68.9543 40.7715 80 40.7715H40C51.0457 40.7715 60 31.8171 60 20.7715ZM40 0.771484H0C11.0457 0.771484 20 9.72583 20 20.7715C20 31.8171 11.0457 40.7715 0 40.7715H40C28.9543 40.7715 20 31.8171 20 20.7715C20 9.72583 28.9543 0.771484 40 0.771484ZM40 0.771484C51.0457 0.771484 60 9.72583 60 20.7715C60 9.72583 68.9543 0.771484 80 0.771484H40Z" fill="#F9FAFB"/>
</svg>
