<?xml version="1.0" encoding="utf-8"?>
<!-- Generator: Adobe Illustrator 28.1.0, SVG Export Plug-In . SVG Version: 6.00 Build 0)  -->
<svg version="1.1" id="Layer_1" xmlns="http://www.w3.org/2000/svg" xmlns:xlink="http://www.w3.org/1999/xlink" x="0px" y="0px"
	 viewBox="0 0 512 512" style="enable-background:new 0 0 512 512;" xml:space="preserve">
<style type="text/css">
	.st0{fill:none;}
	.st1{fill:#000001;}
</style>
<g>
	<rect class="st0" width="512" height="512"/>
	<path class="st1" d="M387.9,422.4H149.7c-9.2,0-17.9-3.6-24.4-10.1c-6.4-6.4-10.1-15.2-10.1-24.4V267.5c0-4.6,0.9-9.4,2.8-13.8
		c2-4.5,4.7-8.4,8.2-11.6l133.9-123.5c4.9-4.5,12.5-4.5,17.4,0l133.9,123.5c3.5,3.3,6.3,7.1,8.2,11.6c1.9,4.4,2.9,9.1,2.9,13.9
		v120.4c0,9.1-3.7,18-10.1,24.4C405.9,418.7,397,422.4,387.9,422.4z M268.8,145.4L143.6,260.9c-0.9,0.8-1.6,1.8-2.1,3
		c-0.5,1.1-0.7,2.3-0.7,3.5v120.5c0,2.4,0.9,4.6,2.6,6.2c1.7,1.7,3.9,2.6,6.3,2.6h238.3c2.4,0,4.6-0.9,6.2-2.6
		c1.7-1.7,2.6-4,2.6-6.3V267.5c0,0,0-0.1,0-0.1c0-1.2-0.2-2.4-0.7-3.5c-0.5-1.1-1.2-2.2-2.1-3L268.8,145.4z"/>
</g>
</svg>
