<?xml version="1.0" standalone="no"?>
<!DOCTYPE svg PUBLIC "-//W3C//DTD SVG 20010904//EN"
 "http://www.w3.org/TR/2001/REC-SVG-20010904/DTD/svg10.dtd">
<svg version="1.0" xmlns="http://www.w3.org/2000/svg"
 width="260.000000pt" height="260.000000pt" viewBox="0 0 260.000000 260.000000"
 preserveAspectRatio="xMidYMid meet">
<metadata>
Created by potrace 1.14, written by Peter Selinger 2001-2017
</metadata>
<g transform="translate(0.000000,260.000000) scale(0.100000,-0.100000)"
fill="#000000" stroke="none">
<path d="M1300 2580 c-6 -50 -14 -89 -46 -215 -82 -332 -182 -544 -319 -680
-149 -149 -293 -233 -507 -294 -112 -33 -118 -34 -258 -57 -137 -22 -142 -23
-147 -27 -2 -3 18 -8 44 -12 222 -37 552 -163 720 -275 113 -75 271 -271 354
-439 37 -74 102 -255 113 -311 2 -14 9 -45 15 -70 14 -64 20 -99 27 -150 3
-25 7 -47 9 -48 2 -2 9 16 15 39 19 72 140 432 149 443 5 6 12 22 16 36 15 51
90 197 141 275 51 78 151 186 210 226 85 59 324 154 589 236 94 28 166 53 160
54 -5 1 -19 3 -30 4 -52 6 -183 31 -295 55 -65 13 -222 70 -292 106 -126 62
-203 126 -318 263 -25 30 -50 59 -55 65 -6 6 -34 46 -62 88 -82 123 -153 327
-208 593 -13 61 -24 103 -25 95z"/>
</g>
</svg>
